solid Exported from Blender-3.3.1
facet normal 0.000000 -0.994134 0.108151
outer loop
vertex 0.609394 -8.359727 2.483094
vertex 0.788670 -8.359727 2.483094
vertex 0.699032 -8.358857 2.491089
endloop
endfacet
facet normal 0.000000 -0.994126 0.108226
outer loop
vertex 0.609394 -8.359727 2.483094
vertex 0.872754 -8.362288 2.459560
vertex 0.788670 -8.359727 2.483094
endloop
endfacet
facet normal -0.000000 -0.994132 0.108178
outer loop
vertex 0.525309 -8.362288 2.459560
vertex 0.872754 -8.362288 2.459560
vertex 0.609394 -8.359727 2.483094
endloop
endfacet
facet normal 0.000000 -0.994131 0.108186
outer loop
vertex 0.525309 -8.362288 2.459560
vertex 0.950858 -8.366468 2.421162
vertex 0.872754 -8.362288 2.459560
endloop
endfacet
facet normal 0.000000 -0.994124 0.108244
outer loop
vertex 0.447206 -8.366468 2.421162
vertex 0.950858 -8.366468 2.421162
vertex 0.525309 -8.362288 2.459560
endloop
endfacet
facet normal 0.000000 -0.994123 0.108257
outer loop
vertex 0.447206 -8.366468 2.421162
vertex 1.022554 -8.372193 2.368576
vertex 0.950858 -8.366468 2.421162
endloop
endfacet
facet normal 0.000000 -0.994130 0.108195
outer loop
vertex 0.375510 -8.372193 2.368576
vertex 1.022554 -8.372193 2.368576
vertex 0.447206 -8.366468 2.421162
endloop
endfacet
facet normal 0.000000 -0.994127 0.108222
outer loop
vertex 0.310648 -8.379388 2.302478
vertex 1.022554 -8.372193 2.368576
vertex 0.375510 -8.372193 2.368576
endloop
endfacet
facet normal 0.000000 -0.994129 0.108201
outer loop
vertex 0.310648 -8.379388 2.302478
vertex 1.087415 -8.379388 2.302478
vertex 1.022554 -8.372193 2.368576
endloop
endfacet
facet normal 0.000000 -0.994128 0.108207
outer loop
vertex 0.253050 -8.387980 2.223542
vertex 1.087415 -8.379388 2.302478
vertex 0.310648 -8.379388 2.302478
endloop
endfacet
facet normal -0.000001 -0.994127 0.108219
outer loop
vertex 0.253050 -8.387980 2.223542
vertex 0.699032 -8.386997 2.232576
vertex 1.087415 -8.379388 2.302478
endloop
endfacet
facet normal 0.000000 -0.994124 0.108243
outer loop
vertex 0.699032 -8.386997 2.232576
vertex 1.145014 -8.387980 2.223542
vertex 1.087415 -8.379388 2.302478
endloop
endfacet
facet normal -0.000001 -0.994151 0.107995
outer loop
vertex 0.253050 -8.387980 2.223542
vertex 0.647679 -8.387603 2.227014
vertex 0.699032 -8.386997 2.232576
endloop
endfacet
facet normal 0.000001 -0.994139 0.108112
outer loop
vertex 0.750385 -8.387603 2.227014
vertex 1.145014 -8.387980 2.223542
vertex 0.699032 -8.386997 2.232576
endloop
endfacet
facet normal -0.000001 -0.994123 0.108254
outer loop
vertex 0.253050 -8.387980 2.223542
vertex 0.599976 -8.389396 2.210545
vertex 0.647679 -8.387603 2.227014
endloop
endfacet
facet normal 0.000001 -0.994126 0.108226
outer loop
vertex 0.798087 -8.389396 2.210545
vertex 1.145014 -8.387980 2.223542
vertex 0.750385 -8.387603 2.227014
endloop
endfacet
facet normal -0.000000 -0.994129 0.108204
outer loop
vertex 0.203140 -8.397898 2.132446
vertex 0.599976 -8.389396 2.210545
vertex 0.253050 -8.387980 2.223542
endloop
endfacet
facet normal 0.000001 -0.994128 0.108215
outer loop
vertex 0.798087 -8.389396 2.210545
vertex 1.194924 -8.397898 2.132446
vertex 1.145014 -8.387980 2.223542
endloop
endfacet
facet normal 0.000005 -0.994126 0.108230
outer loop
vertex 0.203140 -8.397898 2.132446
vertex 0.556080 -8.392340 2.183497
vertex 0.599976 -8.389396 2.210545
endloop
endfacet
facet normal -0.000005 -0.994125 0.108238
outer loop
vertex 0.841984 -8.392340 2.183497
vertex 1.194924 -8.397898 2.132446
vertex 0.798087 -8.389396 2.210545
endloop
endfacet
facet normal -0.000001 -0.994124 0.108249
outer loop
vertex 0.203140 -8.397898 2.132446
vertex 0.516144 -8.396400 2.146199
vertex 0.556080 -8.392340 2.183497
endloop
endfacet
facet normal 0.000000 -0.994121 0.108271
outer loop
vertex 0.881919 -8.396400 2.146199
vertex 1.194924 -8.397898 2.132446
vertex 0.841984 -8.392340 2.183497
endloop
endfacet
facet normal 0.000000 -0.994128 0.108213
outer loop
vertex 0.203140 -8.397898 2.132446
vertex 0.480326 -8.401541 2.098980
vertex 0.516144 -8.396400 2.146199
endloop
endfacet
facet normal -0.000000 -0.994126 0.108230
outer loop
vertex 0.917738 -8.401541 2.098980
vertex 1.194924 -8.397898 2.132446
vertex 0.881919 -8.396400 2.146199
endloop
endfacet
facet normal -0.000000 -0.994128 0.108209
outer loop
vertex 0.161347 -8.409064 2.029864
vertex 0.480326 -8.401541 2.098980
vertex 0.203140 -8.397898 2.132446
endloop
endfacet
facet normal 0.000000 -0.994128 0.108207
outer loop
vertex 0.917738 -8.401541 2.098980
vertex 1.236717 -8.409064 2.029864
vertex 1.194924 -8.397898 2.132446
endloop
endfacet
facet normal 0.000003 -0.994128 0.108210
outer loop
vertex 0.161347 -8.409064 2.029864
vertex 0.448778 -8.407724 2.042166
vertex 0.480326 -8.401541 2.098980
endloop
endfacet
facet normal -0.000003 -0.994132 0.108177
outer loop
vertex 0.949285 -8.407724 2.042166
vertex 1.236717 -8.409064 2.029864
vertex 0.917738 -8.401541 2.098980
endloop
endfacet
facet normal 0.000002 -0.994123 0.108258
outer loop
vertex 0.161347 -8.409064 2.029864
vertex 0.421659 -8.414918 1.976087
vertex 0.448778 -8.407724 2.042166
endloop
endfacet
facet normal -0.000002 -0.994124 0.108248
outer loop
vertex 0.976405 -8.414918 1.976087
vertex 1.236717 -8.409064 2.029864
vertex 0.949285 -8.407724 2.042166
endloop
endfacet
facet normal 0.000001 -0.994127 0.108223
outer loop
vertex 0.128098 -8.421408 1.916472
vertex 0.421659 -8.414918 1.976087
vertex 0.161347 -8.409064 2.029864
endloop
endfacet
facet normal -0.000001 -0.994126 0.108224
outer loop
vertex 0.976405 -8.414918 1.976087
vertex 1.269966 -8.421408 1.916472
vertex 1.236717 -8.409064 2.029864
endloop
endfacet
facet normal 0.000000 -0.994130 0.108190
outer loop
vertex 0.128098 -8.421408 1.916472
vertex 0.399121 -8.423084 1.901071
vertex 0.421659 -8.414918 1.976087
endloop
endfacet
facet normal 0.000000 -0.994131 0.108180
outer loop
vertex 0.998942 -8.423084 1.901070
vertex 1.269966 -8.421408 1.916472
vertex 0.976405 -8.414918 1.976087
endloop
endfacet
facet normal -0.000000 -0.994128 0.108215
outer loop
vertex 0.103819 -8.434855 1.792945
vertex 0.399121 -8.423084 1.901071
vertex 0.128098 -8.421408 1.916472
endloop
endfacet
facet normal 0.000000 -0.994126 0.108229
outer loop
vertex 0.998942 -8.423084 1.901070
vertex 1.294245 -8.434855 1.792945
vertex 1.269966 -8.421408 1.916472
endloop
endfacet
facet normal 0.000003 -0.994126 0.108225
outer loop
vertex 0.103819 -8.434855 1.792945
vertex 0.381322 -8.432187 1.817444
vertex 0.399121 -8.423084 1.901071
endloop
endfacet
facet normal -0.000002 -0.994128 0.108213
outer loop
vertex 1.016742 -8.432187 1.817444
vertex 1.294245 -8.434855 1.792945
vertex 0.998942 -8.423084 1.901070
endloop
endfacet
facet normal 0.000002 -0.994129 0.108197
outer loop
vertex 0.103819 -8.434855 1.792945
vertex 0.368416 -8.442192 1.725537
vertex 0.381322 -8.432187 1.817444
endloop
endfacet
facet normal -0.000001 -0.994128 0.108213
outer loop
vertex 1.029648 -8.442192 1.725537
vertex 1.294245 -8.434855 1.792945
vertex 1.016742 -8.432187 1.817444
endloop
endfacet
facet normal 0.000000 -0.994127 0.108219
outer loop
vertex 0.088939 -8.449330 1.659960
vertex 0.368416 -8.442192 1.725537
vertex 0.103819 -8.434855 1.792945
endloop
endfacet
facet normal 0.000000 -0.994129 0.108201
outer loop
vertex 1.029648 -8.442192 1.725537
vertex 1.309125 -8.449330 1.659960
vertex 1.294245 -8.434855 1.792945
endloop
endfacet
facet normal 0.000000 -0.994127 0.108217
outer loop
vertex 0.088939 -8.449330 1.659960
vertex 0.360558 -8.453062 1.625677
vertex 0.368416 -8.442192 1.725537
endloop
endfacet
facet normal -0.000000 -0.994127 0.108224
outer loop
vertex 1.037506 -8.453062 1.625677
vertex 1.309125 -8.449330 1.659960
vertex 1.029648 -8.442192 1.725537
endloop
endfacet
facet normal 0.000001 -0.994129 0.108202
outer loop
vertex 0.083884 -8.464763 1.518192
vertex 0.360558 -8.453062 1.625677
vertex 0.088939 -8.449330 1.659960
endloop
endfacet
facet normal -0.000001 -0.994128 0.108210
outer loop
vertex 1.037506 -8.453062 1.625677
vertex 1.314180 -8.464763 1.518192
vertex 1.309125 -8.449330 1.659960
endloop
endfacet
facet normal 0.000000 -0.994127 0.108219
outer loop
vertex 0.083884 -8.464763 1.518192
vertex 0.357904 -8.464763 1.518192
vertex 0.360558 -8.453062 1.625677
endloop
endfacet
facet normal 0.000000 -0.994125 0.108236
outer loop
vertex 1.040159 -8.464763 1.518192
vertex 1.314180 -8.464763 1.518192
vertex 1.037506 -8.453062 1.625677
endloop
endfacet
facet normal 0.000000 -0.994126 0.108224
outer loop
vertex 0.088939 -8.480195 1.376423
vertex 0.357904 -8.464763 1.518192
vertex 0.083884 -8.464763 1.518192
endloop
endfacet
facet normal -0.000001 -0.994127 0.108221
outer loop
vertex 0.088939 -8.480195 1.376423
vertex 0.360558 -8.476463 1.410707
vertex 0.357904 -8.464763 1.518192
endloop
endfacet
facet normal 0.000000 -0.994127 0.108220
outer loop
vertex 1.037506 -8.476463 1.410707
vertex 1.314180 -8.464763 1.518192
vertex 1.040159 -8.464763 1.518192
endloop
endfacet
facet normal 0.000001 -0.994128 0.108208
outer loop
vertex 1.037506 -8.476463 1.410707
vertex 1.309125 -8.480195 1.376423
vertex 1.314180 -8.464763 1.518192
endloop
endfacet
facet normal -0.000000 -0.994127 0.108224
outer loop
vertex 0.088939 -8.480195 1.376423
vertex 0.368416 -8.487333 1.310846
vertex 0.360558 -8.476463 1.410707
endloop
endfacet
facet normal 0.000000 -0.994126 0.108224
outer loop
vertex 1.029648 -8.487333 1.310846
vertex 1.309125 -8.480195 1.376423
vertex 1.037506 -8.476463 1.410707
endloop
endfacet
facet normal 0.000002 -0.994127 0.108219
outer loop
vertex 0.103819 -8.494672 1.243438
vertex 0.368416 -8.487333 1.310846
vertex 0.088939 -8.480195 1.376423
endloop
endfacet
facet normal -0.000002 -0.994126 0.108231
outer loop
vertex 1.029648 -8.487333 1.310846
vertex 1.294245 -8.494672 1.243438
vertex 1.309125 -8.480195 1.376423
endloop
endfacet
facet normal 0.000002 -0.994129 0.108206
outer loop
vertex 0.103819 -8.494672 1.243438
vertex 0.381322 -8.497338 1.218939
vertex 0.368416 -8.487333 1.310846
endloop
endfacet
facet normal -0.000002 -0.994128 0.108213
outer loop
vertex 1.016742 -8.497338 1.218939
vertex 1.294245 -8.494672 1.243438
vertex 1.029648 -8.487333 1.310846
endloop
endfacet
facet normal 0.000001 -0.994127 0.108221
outer loop
vertex 0.128098 -8.508118 1.119912
vertex 0.381322 -8.497338 1.218939
vertex 0.103819 -8.494672 1.243438
endloop
endfacet
facet normal -0.000001 -0.994129 0.108200
outer loop
vertex 1.016742 -8.497338 1.218939
vertex 1.269966 -8.508118 1.119912
vertex 1.294245 -8.494672 1.243438
endloop
endfacet
facet normal -0.000000 -0.994126 0.108224
outer loop
vertex 0.998942 -8.506441 1.135313
vertex 1.269966 -8.508118 1.119912
vertex 1.016742 -8.497338 1.218939
endloop
endfacet
facet normal 0.000001 -0.994127 0.108219
outer loop
vertex 0.128098 -8.508118 1.119912
vertex 0.399121 -8.506441 1.135313
vertex 0.381322 -8.497338 1.218939
endloop
endfacet
facet normal 0.000000 -0.994129 0.108202
outer loop
vertex 0.976405 -8.514607 1.060296
vertex 1.269966 -8.508118 1.119912
vertex 0.998942 -8.506441 1.135313
endloop
endfacet
facet normal 0.000000 -0.994129 0.108203
outer loop
vertex 0.128098 -8.508118 1.119912
vertex 0.421659 -8.514607 1.060296
vertex 0.399121 -8.506441 1.135313
endloop
endfacet
facet normal -0.000001 -0.994127 0.108222
outer loop
vertex 0.161347 -8.520461 1.006520
vertex 0.421659 -8.514607 1.060296
vertex 0.128098 -8.508118 1.119912
endloop
endfacet
facet normal 0.000001 -0.994125 0.108236
outer loop
vertex 0.976405 -8.514607 1.060296
vertex 1.236717 -8.520461 1.006520
vertex 1.269966 -8.508118 1.119912
endloop
endfacet
facet normal 0.000002 -0.994124 0.108248
outer loop
vertex 0.949285 -8.521801 0.994217
vertex 1.236717 -8.520461 1.006520
vertex 0.976405 -8.514607 1.060296
endloop
endfacet
facet normal -0.000002 -0.994124 0.108243
outer loop
vertex 0.161347 -8.520461 1.006520
vertex 0.448778 -8.521801 0.994217
vertex 0.421659 -8.514607 1.060296
endloop
endfacet
facet normal -0.000002 -0.994129 0.108205
outer loop
vertex 0.203140 -8.531629 0.903938
vertex 0.448778 -8.521801 0.994217
vertex 0.161347 -8.520461 1.006520
endloop
endfacet
facet normal 0.000002 -0.994129 0.108204
outer loop
vertex 0.949285 -8.521801 0.994217
vertex 1.194924 -8.531629 0.903938
vertex 1.236717 -8.520461 1.006520
endloop
endfacet
facet normal -0.000000 -0.994128 0.108215
outer loop
vertex 0.917738 -8.527986 0.937404
vertex 1.194924 -8.531629 0.903938
vertex 0.949285 -8.521801 0.994217
endloop
endfacet
facet normal 0.000000 -0.994124 0.108250
outer loop
vertex 0.203140 -8.531629 0.903938
vertex 0.480325 -8.527986 0.937404
vertex 0.448778 -8.521801 0.994217
endloop
endfacet
facet normal -0.000002 -0.994126 0.108229
outer loop
vertex 0.881919 -8.533125 0.890184
vertex 1.194924 -8.531629 0.903938
vertex 0.917738 -8.527986 0.937404
endloop
endfacet
facet normal 0.000002 -0.994127 0.108221
outer loop
vertex 0.203140 -8.531629 0.903938
vertex 0.516144 -8.533125 0.890184
vertex 0.480325 -8.527986 0.937404
endloop
endfacet
facet normal 0.000003 -0.994130 0.108190
outer loop
vertex 0.253050 -8.541545 0.812841
vertex 0.516144 -8.533125 0.890184
vertex 0.203140 -8.531629 0.903938
endloop
endfacet
facet normal -0.000003 -0.994129 0.108200
outer loop
vertex 0.881919 -8.533125 0.890184
vertex 1.145014 -8.541545 0.812841
vertex 1.194924 -8.531629 0.903938
endloop
endfacet
facet normal 0.000002 -0.994120 0.108280
outer loop
vertex 0.841984 -8.537186 0.852886
vertex 1.145014 -8.541545 0.812841
vertex 0.881919 -8.533125 0.890184
endloop
endfacet
facet normal -0.000002 -0.994121 0.108276
outer loop
vertex 0.253050 -8.541545 0.812841
vertex 0.556080 -8.537186 0.852886
vertex 0.516144 -8.533125 0.890184
endloop
endfacet
facet normal -0.000001 -0.994134 0.108151
outer loop
vertex 0.798087 -8.540130 0.825839
vertex 1.145014 -8.541545 0.812841
vertex 0.841984 -8.537186 0.852886
endloop
endfacet
facet normal 0.000001 -0.994132 0.108175
outer loop
vertex 0.253050 -8.541545 0.812841
vertex 0.599976 -8.540130 0.825839
vertex 0.556080 -8.537186 0.852886
endloop
endfacet
facet normal -0.000001 -0.994126 0.108225
outer loop
vertex 0.750385 -8.541923 0.809370
vertex 1.145014 -8.541545 0.812841
vertex 0.798087 -8.540130 0.825839
endloop
endfacet
facet normal 0.000001 -0.994124 0.108244
outer loop
vertex 0.253050 -8.541545 0.812841
vertex 0.647679 -8.541923 0.809370
vertex 0.599976 -8.540130 0.825839
endloop
endfacet
facet normal 0.000001 -0.994128 0.108208
outer loop
vertex 0.310648 -8.550138 0.733906
vertex 0.647679 -8.541923 0.809370
vertex 0.253050 -8.541545 0.812841
endloop
endfacet
facet normal -0.000001 -0.994128 0.108214
outer loop
vertex 0.750385 -8.541923 0.809370
vertex 1.087415 -8.550138 0.733906
vertex 1.145014 -8.541545 0.812841
endloop
endfacet
facet normal 0.000000 -0.994124 0.108244
outer loop
vertex 0.699032 -8.542528 0.803807
vertex 1.087415 -8.550138 0.733906
vertex 0.750385 -8.541923 0.809370
endloop
endfacet
facet normal -0.000000 -0.994114 0.108335
outer loop
vertex 0.310648 -8.550138 0.733906
vertex 0.699032 -8.542528 0.803807
vertex 0.647679 -8.541923 0.809370
endloop
endfacet
facet normal 0.000000 -0.994128 0.108214
outer loop
vertex 0.310648 -8.550138 0.733906
vertex 1.087415 -8.550138 0.733906
vertex 0.699032 -8.542528 0.803807
endloop
endfacet
facet normal 0.000000 -0.994130 0.108189
outer loop
vertex 0.375510 -8.557332 0.667807
vertex 1.087415 -8.550138 0.733906
vertex 0.310648 -8.550138 0.733906
endloop
endfacet
facet normal 0.000000 -0.994129 0.108202
outer loop
vertex 0.375510 -8.557332 0.667807
vertex 1.022554 -8.557332 0.667807
vertex 1.087415 -8.550138 0.733906
endloop
endfacet
facet normal 0.000000 -0.994127 0.108222
outer loop
vertex 0.447206 -8.563057 0.615222
vertex 1.022554 -8.557332 0.667807
vertex 0.375510 -8.557332 0.667807
endloop
endfacet
facet normal 0.000000 -0.994122 0.108262
outer loop
vertex 0.447206 -8.563057 0.615222
vertex 0.950858 -8.563057 0.615221
vertex 1.022554 -8.557332 0.667807
endloop
endfacet
facet normal 0.000000 -0.994124 0.108243
outer loop
vertex 0.525310 -8.567237 0.576824
vertex 0.950858 -8.563057 0.615221
vertex 0.447206 -8.563057 0.615222
endloop
endfacet
facet normal 0.000000 -0.994128 0.108213
outer loop
vertex 0.525310 -8.567237 0.576824
vertex 0.872754 -8.567237 0.576824
vertex 0.950858 -8.563057 0.615221
endloop
endfacet
facet normal 0.000000 -0.994132 0.108179
outer loop
vertex 0.609394 -8.569798 0.553289
vertex 0.872754 -8.567237 0.576824
vertex 0.525310 -8.567237 0.576824
endloop
endfacet
facet normal 0.000000 -0.994129 0.108197
outer loop
vertex 0.609394 -8.569798 0.553289
vertex 0.788670 -8.569798 0.553289
vertex 0.872754 -8.567237 0.576824
endloop
endfacet
facet normal 0.000000 -0.994117 0.108313
outer loop
vertex 0.699032 -8.570669 0.545294
vertex 0.788670 -8.569798 0.553289
vertex 0.609394 -8.569798 0.553289
endloop
endfacet
facet normal 0.000000 0.994125 -0.108236
outer loop
vertex 0.609394 -7.831583 2.425602
vertex 0.699032 -7.830712 2.433597
vertex 0.788670 -7.831583 2.425602
endloop
endfacet
facet normal 0.000000 0.994129 -0.108198
outer loop
vertex 0.609394 -7.831583 2.425602
vertex 0.788670 -7.831583 2.425602
vertex 0.872754 -7.834145 2.402068
endloop
endfacet
facet normal 0.000000 0.994125 -0.108235
outer loop
vertex 0.525309 -7.834145 2.402068
vertex 0.609394 -7.831583 2.425602
vertex 0.872754 -7.834145 2.402068
endloop
endfacet
facet normal 0.000000 0.994129 -0.108203
outer loop
vertex 0.525309 -7.834145 2.402068
vertex 0.872754 -7.834145 2.402068
vertex 0.950858 -7.838325 2.363670
endloop
endfacet
facet normal 0.000000 0.994127 -0.108219
outer loop
vertex 0.447206 -7.838325 2.363670
vertex 0.525309 -7.834145 2.402068
vertex 0.950858 -7.838325 2.363670
endloop
endfacet
facet normal 0.000000 0.994126 -0.108226
outer loop
vertex 0.447206 -7.838325 2.363670
vertex 0.950858 -7.838325 2.363670
vertex 1.022554 -7.844049 2.311084
endloop
endfacet
facet normal 0.000000 0.994127 -0.108223
outer loop
vertex 0.375510 -7.844049 2.311084
vertex 0.447206 -7.838325 2.363670
vertex 1.022554 -7.844049 2.311084
endloop
endfacet
facet normal 0.000000 0.994127 -0.108222
outer loop
vertex 0.310648 -7.851244 2.244986
vertex 0.375510 -7.844049 2.311084
vertex 1.022554 -7.844049 2.311084
endloop
endfacet
facet normal 0.000000 0.994127 -0.108219
outer loop
vertex 0.310648 -7.851244 2.244986
vertex 1.022554 -7.844049 2.311084
vertex 1.087415 -7.851244 2.244986
endloop
endfacet
facet normal 0.000000 0.994127 -0.108222
outer loop
vertex 0.253050 -7.859837 2.166051
vertex 0.310648 -7.851244 2.244986
vertex 1.087415 -7.851244 2.244986
endloop
endfacet
facet normal 0.000001 0.994129 -0.108203
outer loop
vertex 0.253050 -7.859837 2.166051
vertex 1.087415 -7.851244 2.244986
vertex 0.699032 -7.858853 2.175085
endloop
endfacet
facet normal -0.000000 0.994128 -0.108214
outer loop
vertex 0.699032 -7.858853 2.175085
vertex 1.087415 -7.851244 2.244986
vertex 1.145014 -7.859837 2.166050
endloop
endfacet
facet normal 0.000001 0.994123 -0.108257
outer loop
vertex 0.253050 -7.859837 2.166051
vertex 0.699032 -7.858853 2.175085
vertex 0.647679 -7.859459 2.169522
endloop
endfacet
facet normal -0.000000 0.994113 -0.108345
outer loop
vertex 0.750385 -7.859459 2.169522
vertex 0.699032 -7.858853 2.175085
vertex 1.145014 -7.859837 2.166050
endloop
endfacet
facet normal 0.000001 0.994133 -0.108161
outer loop
vertex 0.253050 -7.859837 2.166051
vertex 0.647679 -7.859459 2.169522
vertex 0.599976 -7.861252 2.153053
endloop
endfacet
facet normal -0.000000 0.994126 -0.108226
outer loop
vertex 0.798087 -7.861251 2.153053
vertex 0.750385 -7.859459 2.169522
vertex 1.145014 -7.859837 2.166050
endloop
endfacet
facet normal 0.000001 0.994127 -0.108219
outer loop
vertex 0.203140 -7.869753 2.074954
vertex 0.253050 -7.859837 2.166051
vertex 0.599976 -7.861252 2.153053
endloop
endfacet
facet normal 0.000000 0.994128 -0.108210
outer loop
vertex 0.798087 -7.861251 2.153053
vertex 1.145014 -7.859837 2.166050
vertex 1.194924 -7.869753 2.074954
endloop
endfacet
facet normal -0.000001 0.994130 -0.108188
outer loop
vertex 0.203140 -7.869753 2.074954
vertex 0.599976 -7.861252 2.153053
vertex 0.556080 -7.864196 2.126005
endloop
endfacet
facet normal -0.000002 0.994132 -0.108172
outer loop
vertex 0.841984 -7.864196 2.126005
vertex 0.798087 -7.861251 2.153053
vertex 1.194924 -7.869753 2.074954
endloop
endfacet
facet normal -0.000001 0.994128 -0.108213
outer loop
vertex 0.203140 -7.869753 2.074954
vertex 0.556080 -7.864196 2.126005
vertex 0.516144 -7.868256 2.088707
endloop
endfacet
facet normal 0.000001 0.994126 -0.108228
outer loop
vertex 0.881919 -7.868256 2.088707
vertex 0.841984 -7.864196 2.126005
vertex 1.194924 -7.869753 2.074954
endloop
endfacet
facet normal -0.000000 0.994128 -0.108214
outer loop
vertex 0.203140 -7.869753 2.074954
vertex 0.516144 -7.868256 2.088707
vertex 0.480326 -7.873396 2.041488
endloop
endfacet
facet normal 0.000000 0.994126 -0.108230
outer loop
vertex 0.917738 -7.873396 2.041488
vertex 0.881919 -7.868256 2.088707
vertex 1.194924 -7.869753 2.074954
endloop
endfacet
facet normal -0.000000 0.994125 -0.108241
outer loop
vertex 0.161347 -7.880920 1.972372
vertex 0.203140 -7.869753 2.074954
vertex 0.480326 -7.873396 2.041488
endloop
endfacet
facet normal 0.000000 0.994126 -0.108233
outer loop
vertex 0.917738 -7.873396 2.041488
vertex 1.194924 -7.869753 2.074954
vertex 1.236717 -7.880920 1.972372
endloop
endfacet
facet normal -0.000001 0.994131 -0.108183
outer loop
vertex 0.161347 -7.880920 1.972372
vertex 0.480326 -7.873396 2.041488
vertex 0.448778 -7.879580 1.984674
endloop
endfacet
facet normal 0.000001 0.994132 -0.108177
outer loop
vertex 0.949285 -7.879580 1.984674
vertex 0.917738 -7.873396 2.041488
vertex 1.236717 -7.880920 1.972372
endloop
endfacet
facet normal -0.000001 0.994123 -0.108261
outer loop
vertex 0.161347 -7.880920 1.972372
vertex 0.448778 -7.879580 1.984674
vertex 0.421659 -7.886774 1.918595
endloop
endfacet
facet normal 0.000001 0.994127 -0.108223
outer loop
vertex 0.976405 -7.886774 1.918595
vertex 0.949285 -7.879580 1.984674
vertex 1.236717 -7.880920 1.972372
endloop
endfacet
facet normal -0.000001 0.994128 -0.108207
outer loop
vertex 0.128098 -7.893263 1.858980
vertex 0.161347 -7.880920 1.972372
vertex 0.421659 -7.886774 1.918595
endloop
endfacet
facet normal 0.000001 0.994127 -0.108222
outer loop
vertex 0.976405 -7.886774 1.918595
vertex 1.236717 -7.880920 1.972372
vertex 1.269966 -7.893263 1.858980
endloop
endfacet
facet normal 0.000000 0.994129 -0.108200
outer loop
vertex 0.128098 -7.893263 1.858980
vertex 0.421659 -7.886774 1.918595
vertex 0.399121 -7.894940 1.843579
endloop
endfacet
facet normal 0.000000 0.994129 -0.108203
outer loop
vertex 0.998942 -7.894940 1.843579
vertex 0.976405 -7.886774 1.918595
vertex 1.269966 -7.893263 1.858980
endloop
endfacet
facet normal 0.000000 0.994126 -0.108229
outer loop
vertex 0.103819 -7.906710 1.735453
vertex 0.128098 -7.893263 1.858980
vertex 0.399121 -7.894940 1.843579
endloop
endfacet
facet normal -0.000000 0.994127 -0.108222
outer loop
vertex 0.998942 -7.894940 1.843579
vertex 1.269966 -7.893263 1.858980
vertex 1.294245 -7.906710 1.735453
endloop
endfacet
facet normal 0.000002 0.994127 -0.108220
outer loop
vertex 0.103819 -7.906710 1.735453
vertex 0.399121 -7.894940 1.843579
vertex 0.381322 -7.904043 1.759953
endloop
endfacet
facet normal -0.000002 0.994128 -0.108213
outer loop
vertex 1.016742 -7.904043 1.759953
vertex 0.998942 -7.894940 1.843579
vertex 1.294245 -7.906710 1.735453
endloop
endfacet
facet normal 0.000001 0.994129 -0.108202
outer loop
vertex 0.103819 -7.906710 1.735453
vertex 0.381322 -7.904043 1.759953
vertex 0.368416 -7.914048 1.668045
endloop
endfacet
facet normal -0.000001 0.994130 -0.108195
outer loop
vertex 1.029648 -7.914048 1.668045
vertex 1.016742 -7.904043 1.759953
vertex 1.294245 -7.906710 1.735453
endloop
endfacet
facet normal 0.000001 0.994126 -0.108232
outer loop
vertex 0.088939 -7.921186 1.602468
vertex 0.103819 -7.906710 1.735453
vertex 0.368416 -7.914048 1.668045
endloop
endfacet
facet normal -0.000001 0.994126 -0.108229
outer loop
vertex 1.029648 -7.914048 1.668045
vertex 1.294245 -7.906710 1.735453
vertex 1.309125 -7.921186 1.602468
endloop
endfacet
facet normal 0.000001 0.994128 -0.108214
outer loop
vertex 0.088939 -7.921186 1.602468
vertex 0.368416 -7.914048 1.668045
vertex 0.360558 -7.924918 1.568185
endloop
endfacet
facet normal -0.000001 0.994128 -0.108207
outer loop
vertex 1.037506 -7.924918 1.568185
vertex 1.029648 -7.914048 1.668045
vertex 1.309125 -7.921186 1.602468
endloop
endfacet
facet normal 0.000001 0.994129 -0.108202
outer loop
vertex 0.083884 -7.936618 1.460700
vertex 0.088939 -7.921186 1.602468
vertex 0.360558 -7.924918 1.568185
endloop
endfacet
facet normal -0.000001 0.994128 -0.108207
outer loop
vertex 1.037506 -7.924918 1.568185
vertex 1.309125 -7.921186 1.602468
vertex 1.314180 -7.936618 1.460700
endloop
endfacet
facet normal 0.000000 0.994126 -0.108227
outer loop
vertex 0.083884 -7.936618 1.460700
vertex 0.360558 -7.924918 1.568185
vertex 0.357904 -7.936618 1.460700
endloop
endfacet
facet normal 0.000000 0.994127 -0.108220
outer loop
vertex 1.040159 -7.936618 1.460700
vertex 1.037506 -7.924918 1.568185
vertex 1.314180 -7.936618 1.460700
endloop
endfacet
facet normal 0.000000 0.994128 -0.108212
outer loop
vertex 0.088939 -7.952051 1.318932
vertex 0.083884 -7.936618 1.460700
vertex 0.357904 -7.936618 1.460700
endloop
endfacet
facet normal 0.000001 0.994126 -0.108228
outer loop
vertex 0.088939 -7.952051 1.318932
vertex 0.357904 -7.936618 1.460700
vertex 0.360558 -7.948319 1.353215
endloop
endfacet
facet normal 0.000000 0.994129 -0.108204
outer loop
vertex 1.037506 -7.948319 1.353215
vertex 1.040159 -7.936618 1.460700
vertex 1.314180 -7.936618 1.460700
endloop
endfacet
facet normal -0.000001 0.994127 -0.108223
outer loop
vertex 1.037506 -7.948319 1.353215
vertex 1.314180 -7.936618 1.460700
vertex 1.309125 -7.952051 1.318932
endloop
endfacet
facet normal 0.000001 0.994128 -0.108209
outer loop
vertex 0.088939 -7.952051 1.318932
vertex 0.360558 -7.948319 1.353215
vertex 0.368416 -7.959189 1.253354
endloop
endfacet
facet normal -0.000001 0.994128 -0.108207
outer loop
vertex 1.029648 -7.959189 1.253354
vertex 1.037506 -7.948319 1.353215
vertex 1.309125 -7.952051 1.318932
endloop
endfacet
facet normal 0.000001 0.994127 -0.108219
outer loop
vertex 0.103819 -7.966527 1.185946
vertex 0.088939 -7.952051 1.318932
vertex 0.368416 -7.959189 1.253354
endloop
endfacet
facet normal -0.000001 0.994127 -0.108220
outer loop
vertex 1.029648 -7.959189 1.253354
vertex 1.309125 -7.952051 1.318932
vertex 1.294245 -7.966527 1.185946
endloop
endfacet
facet normal 0.000000 0.994127 -0.108221
outer loop
vertex 0.103819 -7.966527 1.185946
vertex 0.368416 -7.959189 1.253354
vertex 0.381322 -7.969194 1.161447
endloop
endfacet
facet normal -0.000000 0.994130 -0.108195
outer loop
vertex 1.016742 -7.969194 1.161447
vertex 1.029648 -7.959189 1.253354
vertex 1.294245 -7.966527 1.185946
endloop
endfacet
facet normal -0.000000 0.994128 -0.108208
outer loop
vertex 0.128098 -7.979974 1.062420
vertex 0.103819 -7.966527 1.185946
vertex 0.381322 -7.969194 1.161447
endloop
endfacet
facet normal -0.000000 0.994127 -0.108222
outer loop
vertex 1.016742 -7.969194 1.161447
vertex 1.294245 -7.966527 1.185946
vertex 1.269966 -7.979974 1.062420
endloop
endfacet
facet normal 0.000000 0.994126 -0.108224
outer loop
vertex 0.998942 -7.978297 1.077821
vertex 1.016742 -7.969194 1.161447
vertex 1.269966 -7.979974 1.062420
endloop
endfacet
facet normal -0.000000 0.994126 -0.108225
outer loop
vertex 0.128098 -7.979974 1.062420
vertex 0.381322 -7.969194 1.161447
vertex 0.399121 -7.978297 1.077821
endloop
endfacet
facet normal 0.000000 0.994126 -0.108225
outer loop
vertex 0.976405 -7.986464 1.002804
vertex 0.998942 -7.978297 1.077821
vertex 1.269966 -7.979974 1.062420
endloop
endfacet
facet normal -0.000000 0.994127 -0.108216
outer loop
vertex 0.128098 -7.979974 1.062420
vertex 0.399121 -7.978297 1.077821
vertex 0.421659 -7.986464 1.002804
endloop
endfacet
facet normal 0.000001 0.994127 -0.108222
outer loop
vertex 0.161347 -7.992317 0.949028
vertex 0.128098 -7.979974 1.062420
vertex 0.421659 -7.986464 1.002804
endloop
endfacet
facet normal -0.000001 0.994127 -0.108221
outer loop
vertex 0.976405 -7.986464 1.002804
vertex 1.269966 -7.979974 1.062420
vertex 1.236717 -7.992317 0.949028
endloop
endfacet
facet normal -0.000001 0.994127 -0.108223
outer loop
vertex 0.949285 -7.993657 0.936725
vertex 0.976405 -7.986464 1.002804
vertex 1.236717 -7.992317 0.949028
endloop
endfacet
facet normal 0.000001 0.994128 -0.108215
outer loop
vertex 0.161347 -7.992317 0.949028
vertex 0.421659 -7.986464 1.002804
vertex 0.448778 -7.993657 0.936725
endloop
endfacet
facet normal 0.000001 0.994127 -0.108221
outer loop
vertex 0.203140 -8.003484 0.846446
vertex 0.161347 -7.992317 0.949028
vertex 0.448778 -7.993657 0.936725
endloop
endfacet
facet normal -0.000001 0.994127 -0.108221
outer loop
vertex 0.949285 -7.993657 0.936725
vertex 1.236717 -7.992317 0.949028
vertex 1.194924 -8.003484 0.846446
endloop
endfacet
facet normal 0.000001 0.994127 -0.108215
outer loop
vertex 0.917738 -7.999841 0.879912
vertex 0.949285 -7.993657 0.936725
vertex 1.194924 -8.003484 0.846446
endloop
endfacet
facet normal -0.000001 0.994127 -0.108219
outer loop
vertex 0.203140 -8.003484 0.846446
vertex 0.448778 -7.993657 0.936725
vertex 0.480325 -7.999841 0.879912
endloop
endfacet
facet normal -0.000000 0.994130 -0.108197
outer loop
vertex 0.881919 -8.004981 0.832692
vertex 0.917738 -7.999841 0.879912
vertex 1.194924 -8.003484 0.846446
endloop
endfacet
facet normal 0.000000 0.994130 -0.108188
outer loop
vertex 0.203140 -8.003484 0.846446
vertex 0.480325 -7.999841 0.879912
vertex 0.516144 -8.004981 0.832692
endloop
endfacet
facet normal 0.000000 0.994127 -0.108224
outer loop
vertex 0.253050 -8.013400 0.755349
vertex 0.203140 -8.003484 0.846446
vertex 0.516144 -8.004981 0.832692
endloop
endfacet
facet normal -0.000000 0.994126 -0.108228
outer loop
vertex 0.881919 -8.004981 0.832692
vertex 1.194924 -8.003484 0.846446
vertex 1.145014 -8.013400 0.755349
endloop
endfacet
facet normal 0.000001 0.994124 -0.108244
outer loop
vertex 0.841984 -8.009041 0.795395
vertex 0.881919 -8.004981 0.832692
vertex 1.145014 -8.013400 0.755349
endloop
endfacet
facet normal -0.000001 0.994126 -0.108230
outer loop
vertex 0.253050 -8.013400 0.755349
vertex 0.516144 -8.004981 0.832692
vertex 0.556080 -8.009041 0.795395
endloop
endfacet
facet normal -0.000002 0.994129 -0.108199
outer loop
vertex 0.798087 -8.011986 0.768347
vertex 0.841984 -8.009041 0.795395
vertex 1.145014 -8.013400 0.755349
endloop
endfacet
facet normal 0.000002 0.994127 -0.108216
outer loop
vertex 0.253050 -8.013400 0.755349
vertex 0.556080 -8.009041 0.795395
vertex 0.599976 -8.011986 0.768347
endloop
endfacet
facet normal -0.000002 0.994126 -0.108225
outer loop
vertex 0.750385 -8.013779 0.751878
vertex 0.798087 -8.011986 0.768347
vertex 1.145014 -8.013400 0.755349
endloop
endfacet
facet normal 0.000002 0.994122 -0.108263
outer loop
vertex 0.253050 -8.013400 0.755349
vertex 0.599976 -8.011986 0.768347
vertex 0.647679 -8.013779 0.751878
endloop
endfacet
facet normal 0.000002 0.994130 -0.108193
outer loop
vertex 0.310648 -8.021993 0.676414
vertex 0.253050 -8.013400 0.755349
vertex 0.647679 -8.013779 0.751878
endloop
endfacet
facet normal -0.000002 0.994129 -0.108197
outer loop
vertex 0.750385 -8.013779 0.751878
vertex 1.145014 -8.013400 0.755349
vertex 1.087415 -8.021993 0.676414
endloop
endfacet
facet normal 0.000011 0.994124 -0.108244
outer loop
vertex 0.699032 -8.014383 0.746315
vertex 0.750385 -8.013779 0.751878
vertex 1.087415 -8.021993 0.676414
endloop
endfacet
facet normal -0.000011 0.994123 -0.108254
outer loop
vertex 0.310648 -8.021993 0.676414
vertex 0.647679 -8.013779 0.751878
vertex 0.699032 -8.014383 0.746315
endloop
endfacet
facet normal -0.000000 0.994128 -0.108214
outer loop
vertex 0.310648 -8.021993 0.676414
vertex 0.699032 -8.014383 0.746315
vertex 1.087415 -8.021993 0.676414
endloop
endfacet
facet normal 0.000000 0.994126 -0.108226
outer loop
vertex 0.375510 -8.029188 0.610316
vertex 0.310648 -8.021993 0.676414
vertex 1.087415 -8.021993 0.676414
endloop
endfacet
facet normal -0.000000 0.994129 -0.108200
outer loop
vertex 0.375510 -8.029188 0.610316
vertex 1.087415 -8.021993 0.676414
vertex 1.022554 -8.029188 0.610316
endloop
endfacet
facet normal 0.000000 0.994130 -0.108195
outer loop
vertex 0.447206 -8.034912 0.557730
vertex 0.375510 -8.029188 0.610316
vertex 1.022554 -8.029188 0.610316
endloop
endfacet
facet normal -0.000000 0.994128 -0.108213
outer loop
vertex 0.447206 -8.034912 0.557730
vertex 1.022554 -8.029188 0.610316
vertex 0.950858 -8.034912 0.557730
endloop
endfacet
facet normal 0.000000 0.994124 -0.108243
outer loop
vertex 0.525310 -8.039092 0.519332
vertex 0.447206 -8.034912 0.557730
vertex 0.950858 -8.034912 0.557730
endloop
endfacet
facet normal -0.000000 0.994131 -0.108186
outer loop
vertex 0.525310 -8.039092 0.519332
vertex 0.950858 -8.034912 0.557730
vertex 0.872754 -8.039092 0.519332
endloop
endfacet
facet normal 0.000000 0.994132 -0.108179
outer loop
vertex 0.609394 -8.041655 0.495798
vertex 0.525310 -8.039092 0.519332
vertex 0.872754 -8.039092 0.519332
endloop
endfacet
facet normal -0.000000 0.994117 -0.108308
outer loop
vertex 0.609394 -8.041655 0.495798
vertex 0.872754 -8.039092 0.519332
vertex 0.788670 -8.041655 0.495797
endloop
endfacet
facet normal -0.000000 0.994135 -0.108150
outer loop
vertex 0.699032 -8.042524 0.487803
vertex 0.609394 -8.041655 0.495798
vertex 0.788670 -8.041655 0.495797
endloop
endfacet
facet normal -0.089358 0.107784 0.990150
outer loop
vertex 0.609394 -8.359727 2.483094
vertex 0.699032 -8.358857 2.491089
vertex 0.699032 -7.830712 2.433597
endloop
endfacet
facet normal -0.089359 0.107784 0.990150
outer loop
vertex 0.609394 -8.359727 2.483094
vertex 0.699032 -7.830712 2.433597
vertex 0.609394 -7.831583 2.425602
endloop
endfacet
facet normal 0.089364 0.107784 0.990150
outer loop
vertex 0.699032 -8.358857 2.491089
vertex 0.788670 -8.359727 2.483094
vertex 0.788670 -7.831583 2.425602
endloop
endfacet
facet normal 0.089354 0.107784 0.990151
outer loop
vertex 0.699032 -8.358857 2.491089
vertex 0.788670 -7.831583 2.425602
vertex 0.699032 -7.830712 2.433597
endloop
endfacet
facet normal 0.271002 0.104167 0.956926
outer loop
vertex 0.788670 -8.359727 2.483094
vertex 0.872754 -8.362288 2.459560
vertex 0.872754 -7.834145 2.402068
endloop
endfacet
facet normal 0.271005 0.104167 0.956925
outer loop
vertex 0.788670 -8.359727 2.483094
vertex 0.872754 -7.834145 2.402068
vertex 0.788670 -7.831583 2.425602
endloop
endfacet
facet normal -0.271006 0.104167 0.956925
outer loop
vertex 0.525309 -8.362288 2.459560
vertex 0.609394 -8.359727 2.483094
vertex 0.609394 -7.831583 2.425602
endloop
endfacet
facet normal -0.271005 0.104167 0.956925
outer loop
vertex 0.525309 -8.362288 2.459560
vertex 0.609394 -7.831583 2.425602
vertex 0.525309 -7.834145 2.402068
endloop
endfacet
facet normal 0.443292 0.097003 0.891113
outer loop
vertex 0.872754 -8.362288 2.459560
vertex 0.950858 -8.366468 2.421162
vertex 0.950858 -7.838325 2.363670
endloop
endfacet
facet normal 0.443284 0.097004 0.891117
outer loop
vertex 0.872754 -8.362288 2.459560
vertex 0.950858 -7.838325 2.363670
vertex 0.872754 -7.834145 2.402068
endloop
endfacet
facet normal -0.443289 0.097004 0.891115
outer loop
vertex 0.447206 -8.366468 2.421162
vertex 0.525309 -8.362288 2.459560
vertex 0.525309 -7.834145 2.402068
endloop
endfacet
facet normal -0.443289 0.097004 0.891115
outer loop
vertex 0.447206 -8.366468 2.421162
vertex 0.525309 -7.834145 2.402068
vertex 0.447206 -7.838325 2.363670
endloop
endfacet
facet normal 0.593694 0.087081 0.799965
outer loop
vertex 0.950858 -8.366468 2.421162
vertex 1.022554 -8.372193 2.368576
vertex 1.022554 -7.844049 2.311084
endloop
endfacet
facet normal 0.593693 0.087081 0.799966
outer loop
vertex 0.950858 -8.366468 2.421162
vertex 1.022554 -7.844049 2.311084
vertex 0.950858 -7.838325 2.363670
endloop
endfacet
facet normal -0.593691 0.087082 0.799968
outer loop
vertex 0.375510 -8.372193 2.368576
vertex 0.447206 -8.366468 2.421162
vertex 0.447206 -7.838325 2.363670
endloop
endfacet
facet normal -0.593695 0.087081 0.799965
outer loop
vertex 0.375510 -8.372193 2.368576
vertex 0.447206 -7.838325 2.363670
vertex 0.375510 -7.844049 2.311084
endloop
endfacet
facet normal -0.715814 0.075567 0.694190
outer loop
vertex 0.310648 -8.379388 2.302478
vertex 0.375510 -8.372193 2.368576
vertex 0.375510 -7.844049 2.311084
endloop
endfacet
facet normal -0.715816 0.075567 0.694188
outer loop
vertex 0.310648 -8.379388 2.302478
vertex 0.375510 -7.844049 2.311084
vertex 0.310648 -7.851244 2.244986
endloop
endfacet
facet normal 0.715813 0.075568 0.694192
outer loop
vertex 1.022554 -8.372193 2.368576
vertex 1.087415 -8.379388 2.302478
vertex 1.087415 -7.851244 2.244986
endloop
endfacet
facet normal 0.715817 0.075566 0.694187
outer loop
vertex 1.022554 -8.372193 2.368576
vertex 1.087415 -7.851244 2.244986
vertex 1.022554 -7.844049 2.311084
endloop
endfacet
facet normal -0.809451 0.063544 0.583739
outer loop
vertex 0.253050 -8.387980 2.223542
vertex 0.310648 -8.379388 2.302478
vertex 0.310648 -7.851244 2.244986
endloop
endfacet
facet normal -0.809452 0.063544 0.583737
outer loop
vertex 0.253050 -8.387980 2.223542
vertex 0.310648 -7.851244 2.244986
vertex 0.253050 -7.859837 2.166051
endloop
endfacet
facet normal 0.809453 0.063543 0.583737
outer loop
vertex 1.087415 -8.379388 2.302478
vertex 1.145014 -8.387980 2.223542
vertex 1.145014 -7.859837 2.166050
endloop
endfacet
facet normal 0.809452 0.063544 0.583737
outer loop
vertex 1.087415 -8.379388 2.302478
vertex 1.145014 -7.859837 2.166050
vertex 1.087415 -7.851244 2.244986
endloop
endfacet
facet normal 0.108318 -0.107580 -0.988278
outer loop
vertex 0.699032 -8.386997 2.232576
vertex 0.647679 -8.387603 2.227014
vertex 0.647679 -7.859459 2.169522
endloop
endfacet
facet normal 0.108323 -0.107580 -0.988278
outer loop
vertex 0.699032 -8.386997 2.232576
vertex 0.647679 -7.859459 2.169522
vertex 0.699032 -7.858853 2.175085
endloop
endfacet
facet normal -0.108317 -0.107580 -0.988278
outer loop
vertex 0.750385 -8.387603 2.227014
vertex 0.699032 -8.386997 2.232576
vertex 0.699032 -7.858853 2.175085
endloop
endfacet
facet normal -0.108323 -0.107580 -0.988278
outer loop
vertex 0.750385 -8.387603 2.227014
vertex 0.699032 -7.858853 2.175085
vertex 0.750385 -7.859459 2.169522
endloop
endfacet
facet normal 0.328061 -0.102228 -0.939109
outer loop
vertex 0.647679 -8.387603 2.227014
vertex 0.599976 -8.389396 2.210545
vertex 0.599976 -7.861252 2.153053
endloop
endfacet
facet normal 0.328070 -0.102228 -0.939106
outer loop
vertex 0.647679 -8.387603 2.227014
vertex 0.599976 -7.861252 2.153053
vertex 0.647679 -7.859459 2.169522
endloop
endfacet
facet normal -0.328061 -0.102228 -0.939109
outer loop
vertex 0.798087 -8.389396 2.210545
vertex 0.750385 -8.387603 2.227014
vertex 0.750385 -7.859459 2.169522
endloop
endfacet
facet normal -0.328067 -0.102227 -0.939107
outer loop
vertex 0.798087 -8.389396 2.210545
vertex 0.750385 -7.859459 2.169522
vertex 0.798087 -7.861251 2.153053
endloop
endfacet
facet normal -0.878191 0.051761 0.475501
outer loop
vertex 0.203140 -8.397898 2.132446
vertex 0.253050 -8.387980 2.223542
vertex 0.253050 -7.859837 2.166051
endloop
endfacet
facet normal -0.878189 0.051762 0.475505
outer loop
vertex 0.203140 -8.397898 2.132446
vertex 0.253050 -7.859837 2.166051
vertex 0.203140 -7.869753 2.074954
endloop
endfacet
facet normal 0.878190 0.051761 0.475503
outer loop
vertex 1.145014 -8.387980 2.223542
vertex 1.194924 -8.397898 2.132446
vertex 1.194924 -7.869753 2.074954
endloop
endfacet
facet normal 0.878189 0.051762 0.475505
outer loop
vertex 1.145014 -8.387980 2.223542
vertex 1.194924 -7.869753 2.074954
vertex 1.145014 -7.859837 2.166050
endloop
endfacet
facet normal 0.526816 -0.091983 -0.844987
outer loop
vertex 0.599976 -8.389396 2.210545
vertex 0.556080 -8.392340 2.183497
vertex 0.556080 -7.864196 2.126005
endloop
endfacet
facet normal 0.526817 -0.091982 -0.844987
outer loop
vertex 0.599976 -8.389396 2.210545
vertex 0.556080 -7.864196 2.126005
vertex 0.599976 -7.861252 2.153053
endloop
endfacet
facet normal -0.526823 -0.091982 -0.844983
outer loop
vertex 0.841984 -8.392340 2.183497
vertex 0.798087 -8.389396 2.210545
vertex 0.798087 -7.861251 2.153053
endloop
endfacet
facet normal -0.526812 -0.091982 -0.844990
outer loop
vertex 0.841984 -8.392340 2.183497
vertex 0.798087 -7.861251 2.153053
vertex 0.841984 -7.864196 2.126005
endloop
endfacet
facet normal 0.684700 -0.078872 -0.724545
outer loop
vertex 0.556080 -8.392340 2.183497
vertex 0.516144 -8.396400 2.146199
vertex 0.516144 -7.868256 2.088707
endloop
endfacet
facet normal 0.684709 -0.078871 -0.724536
outer loop
vertex 0.556080 -8.392340 2.183497
vertex 0.516144 -7.868256 2.088707
vertex 0.556080 -7.864196 2.126005
endloop
endfacet
facet normal -0.684709 -0.078871 -0.724536
outer loop
vertex 0.881919 -8.396400 2.146199
vertex 0.841984 -8.392340 2.183497
vertex 0.841984 -7.864196 2.126005
endloop
endfacet
facet normal -0.684699 -0.078871 -0.724546
outer loop
vertex 0.881919 -8.396400 2.146199
vertex 0.841984 -7.864196 2.126005
vertex 0.881919 -7.868256 2.088707
endloop
endfacet
facet normal 0.798426 -0.065157 -0.598557
outer loop
vertex 0.516144 -8.396400 2.146199
vertex 0.480326 -8.401541 2.098980
vertex 0.480326 -7.873396 2.041488
endloop
endfacet
facet normal 0.798420 -0.065158 -0.598565
outer loop
vertex 0.516144 -8.396400 2.146199
vertex 0.480326 -7.873396 2.041488
vertex 0.516144 -7.868256 2.088707
endloop
endfacet
facet normal -0.798423 -0.065157 -0.598561
outer loop
vertex 0.917738 -8.401541 2.098980
vertex 0.881919 -8.396400 2.146199
vertex 0.881919 -7.868256 2.088707
endloop
endfacet
facet normal -0.798423 -0.065157 -0.598561
outer loop
vertex 0.917738 -8.401541 2.098980
vertex 0.881919 -7.868256 2.088707
vertex 0.917738 -7.873396 2.041488
endloop
endfacet
facet normal -0.926864 0.040624 0.373193
outer loop
vertex 0.161347 -8.409064 2.029864
vertex 0.203140 -8.397898 2.132446
vertex 0.203140 -7.869753 2.074954
endloop
endfacet
facet normal -0.926864 0.040624 0.373192
outer loop
vertex 0.161347 -8.409064 2.029864
vertex 0.203140 -7.869753 2.074954
vertex 0.161347 -7.880920 1.972372
endloop
endfacet
facet normal 0.926865 0.040624 0.373191
outer loop
vertex 1.194924 -8.397898 2.132446
vertex 1.236717 -8.409064 2.029864
vertex 1.236717 -7.880920 1.972372
endloop
endfacet
facet normal 0.926865 0.040624 0.373190
outer loop
vertex 1.194924 -8.397898 2.132446
vertex 1.236717 -7.880920 1.972372
vertex 1.194924 -7.869753 2.074954
endloop
endfacet
facet normal 0.875471 -0.052298 -0.480432
outer loop
vertex 0.480326 -8.401541 2.098980
vertex 0.448778 -8.407724 2.042166
vertex 0.448778 -7.879580 1.984674
endloop
endfacet
facet normal 0.875472 -0.052298 -0.480430
outer loop
vertex 0.480326 -8.401541 2.098980
vertex 0.448778 -7.879580 1.984674
vertex 0.480326 -7.873396 2.041488
endloop
endfacet
facet normal -0.875471 -0.052298 -0.480432
outer loop
vertex 0.949285 -8.407724 2.042166
vertex 0.917738 -8.401541 2.098980
vertex 0.917738 -7.873396 2.041488
endloop
endfacet
facet normal -0.875472 -0.052298 -0.480430
outer loop
vertex 0.949285 -8.407724 2.042166
vertex 0.917738 -7.873396 2.041488
vertex 0.949285 -7.879580 1.984674
endloop
endfacet
facet normal 0.925899 -0.040881 -0.375552
outer loop
vertex 0.448778 -8.407724 2.042166
vertex 0.421659 -8.414918 1.976087
vertex 0.421659 -7.886774 1.918595
endloop
endfacet
facet normal 0.925899 -0.040881 -0.375554
outer loop
vertex 0.448778 -8.407724 2.042166
vertex 0.421659 -7.886774 1.918595
vertex 0.448778 -7.879580 1.984674
endloop
endfacet
facet normal -0.925899 -0.040881 -0.375553
outer loop
vertex 0.976405 -8.414918 1.976087
vertex 0.949285 -8.407724 2.042166
vertex 0.949285 -7.879580 1.984674
endloop
endfacet
facet normal -0.925898 -0.040882 -0.375554
outer loop
vertex 0.976405 -8.414918 1.976087
vertex 0.949285 -7.879580 1.984674
vertex 0.976405 -7.886774 1.918595
endloop
endfacet
facet normal -0.960043 0.030285 0.278210
outer loop
vertex 0.128098 -8.421408 1.916472
vertex 0.161347 -8.409064 2.029864
vertex 0.161347 -7.880920 1.972372
endloop
endfacet
facet normal -0.960042 0.030285 0.278211
outer loop
vertex 0.128098 -8.421408 1.916472
vertex 0.161347 -7.880920 1.972372
vertex 0.128098 -7.893263 1.858980
endloop
endfacet
facet normal 0.960043 0.030285 0.278210
outer loop
vertex 1.236717 -8.409064 2.029864
vertex 1.269966 -8.421408 1.916472
vertex 1.269966 -7.893263 1.858980
endloop
endfacet
facet normal 0.960042 0.030285 0.278212
outer loop
vertex 1.236717 -8.409064 2.029864
vertex 1.269966 -7.893263 1.858980
vertex 1.236717 -7.880920 1.972372
endloop
endfacet
facet normal 0.958177 -0.030969 -0.284496
outer loop
vertex 0.421659 -8.414918 1.976087
vertex 0.399121 -8.423084 1.901071
vertex 0.399121 -7.894940 1.843579
endloop
endfacet
facet normal 0.958177 -0.030969 -0.284495
outer loop
vertex 0.421659 -8.414918 1.976087
vertex 0.399121 -7.894940 1.843579
vertex 0.421659 -7.886774 1.918595
endloop
endfacet
facet normal -0.958178 -0.030969 -0.284493
outer loop
vertex 0.998942 -8.423084 1.901070
vertex 0.976405 -8.414918 1.976087
vertex 0.976405 -7.886774 1.918595
endloop
endfacet
facet normal -0.958177 -0.030969 -0.284495
outer loop
vertex 0.998942 -8.423084 1.901070
vertex 0.976405 -7.886774 1.918595
vertex 0.998942 -7.894940 1.843579
endloop
endfacet
facet normal -0.981441 0.020752 0.190638
outer loop
vertex 0.103819 -8.434855 1.792945
vertex 0.128098 -8.421408 1.916472
vertex 0.128098 -7.893263 1.858980
endloop
endfacet
facet normal -0.981441 0.020752 0.190638
outer loop
vertex 0.103819 -8.434855 1.792945
vertex 0.128098 -7.893263 1.858980
vertex 0.103819 -7.906710 1.735453
endloop
endfacet
facet normal 0.981441 0.020752 0.190638
outer loop
vertex 1.269966 -8.421408 1.916472
vertex 1.294245 -8.434855 1.792945
vertex 1.294245 -7.906710 1.735453
endloop
endfacet
facet normal 0.981441 0.020752 0.190638
outer loop
vertex 1.269966 -8.421408 1.916472
vertex 1.294245 -7.906710 1.735453
vertex 1.269966 -7.893263 1.858980
endloop
endfacet
facet normal 0.978339 -0.022402 -0.205795
outer loop
vertex 0.399121 -8.423084 1.901071
vertex 0.381322 -8.432187 1.817444
vertex 0.381322 -7.904043 1.759953
endloop
endfacet
facet normal 0.978338 -0.022402 -0.205796
outer loop
vertex 0.399121 -8.423084 1.901071
vertex 0.381322 -7.904043 1.759953
vertex 0.399121 -7.894940 1.843579
endloop
endfacet
facet normal -0.978338 -0.022403 -0.205797
outer loop
vertex 1.016742 -8.432187 1.817444
vertex 0.998942 -8.423084 1.901070
vertex 0.998942 -7.894940 1.843579
endloop
endfacet
facet normal -0.978338 -0.022402 -0.205798
outer loop
vertex 1.016742 -8.432187 1.817444
vertex 0.998942 -7.894940 1.843579
vertex 1.016742 -7.904043 1.759953
endloop
endfacet
facet normal 0.990396 -0.014962 -0.137449
outer loop
vertex 0.381322 -8.432187 1.817444
vertex 0.368416 -8.442192 1.725537
vertex 0.368416 -7.914048 1.668045
endloop
endfacet
facet normal 0.990396 -0.014962 -0.137450
outer loop
vertex 0.381322 -8.432187 1.817444
vertex 0.368416 -7.914048 1.668045
vertex 0.381322 -7.904043 1.759953
endloop
endfacet
facet normal -0.990396 -0.014962 -0.137449
outer loop
vertex 1.029648 -8.442192 1.725537
vertex 1.016742 -8.432187 1.817444
vertex 1.016742 -7.904043 1.759953
endloop
endfacet
facet normal -0.990396 -0.014962 -0.137449
outer loop
vertex 1.029648 -8.442192 1.725537
vertex 1.016742 -7.904043 1.759953
vertex 1.029648 -7.914048 1.668045
endloop
endfacet
facet normal -0.993870 0.011964 0.109907
outer loop
vertex 0.088939 -8.449330 1.659960
vertex 0.103819 -8.434855 1.792945
vertex 0.103819 -7.906710 1.735453
endloop
endfacet
facet normal -0.993870 0.011964 0.109906
outer loop
vertex 0.088939 -8.449330 1.659960
vertex 0.103819 -7.906710 1.735453
vertex 0.088939 -7.921186 1.602468
endloop
endfacet
facet normal 0.993870 0.011964 0.109907
outer loop
vertex 1.294245 -8.434855 1.792945
vertex 1.309125 -8.449330 1.659960
vertex 1.309125 -7.921186 1.602468
endloop
endfacet
facet normal 0.993870 0.011964 0.109907
outer loop
vertex 1.294245 -8.434855 1.792945
vertex 1.309125 -7.921186 1.602468
vertex 1.294245 -7.906710 1.735453
endloop
endfacet
facet normal 0.996955 -0.008439 -0.077527
outer loop
vertex 0.368416 -8.442192 1.725537
vertex 0.360558 -8.453062 1.625677
vertex 0.360558 -7.924918 1.568185
endloop
endfacet
facet normal 0.996954 -0.008439 -0.077528
outer loop
vertex 0.368416 -8.442192 1.725537
vertex 0.360558 -7.924918 1.568185
vertex 0.368416 -7.914048 1.668045
endloop
endfacet
facet normal -0.996955 -0.008439 -0.077527
outer loop
vertex 1.037506 -8.453062 1.625677
vertex 1.029648 -8.442192 1.725537
vertex 1.029648 -7.914048 1.668045
endloop
endfacet
facet normal -0.996955 -0.008439 -0.077527
outer loop
vertex 1.037506 -8.453062 1.625677
vertex 1.029648 -7.914048 1.668045
vertex 1.037506 -7.924918 1.568185
endloop
endfacet
facet normal -0.999372 0.003834 0.035217
outer loop
vertex 0.083884 -8.464763 1.518192
vertex 0.088939 -8.449330 1.659960
vertex 0.088939 -7.921186 1.602468
endloop
endfacet
facet normal -0.999372 0.003834 0.035217
outer loop
vertex 0.083884 -8.464763 1.518192
vertex 0.088939 -7.921186 1.602468
vertex 0.083884 -7.936618 1.460700
endloop
endfacet
facet normal 0.999372 0.003833 0.035217
outer loop
vertex 1.309125 -8.449330 1.659960
vertex 1.314180 -8.464763 1.518192
vertex 1.314180 -7.936618 1.460700
endloop
endfacet
facet normal 0.999372 0.003834 0.035217
outer loop
vertex 1.309125 -8.449330 1.659960
vertex 1.314180 -7.936618 1.460700
vertex 1.309125 -7.921186 1.602468
endloop
endfacet
facet normal 0.999699 -0.002655 -0.024393
outer loop
vertex 0.360558 -8.453062 1.625677
vertex 0.357904 -8.464763 1.518192
vertex 0.357904 -7.936618 1.460700
endloop
endfacet
facet normal 0.999699 -0.002655 -0.024393
outer loop
vertex 0.360558 -8.453062 1.625677
vertex 0.357904 -7.936618 1.460700
vertex 0.360558 -7.924918 1.568185
endloop
endfacet
facet normal -0.999699 -0.002655 -0.024392
outer loop
vertex 1.040159 -8.464763 1.518192
vertex 1.037506 -8.453062 1.625677
vertex 1.037506 -7.924918 1.568185
endloop
endfacet
facet normal -0.999699 -0.002655 -0.024392
outer loop
vertex 1.040159 -8.464763 1.518192
vertex 1.037506 -7.924918 1.568185
vertex 1.040159 -7.936618 1.460700
endloop
endfacet
facet normal -0.999372 -0.003834 -0.035217
outer loop
vertex 0.088939 -8.480195 1.376423
vertex 0.083884 -8.464763 1.518192
vertex 0.083884 -7.936618 1.460700
endloop
endfacet
facet normal -0.999372 -0.003834 -0.035217
outer loop
vertex 0.088939 -8.480195 1.376423
vertex 0.083884 -7.936618 1.460700
vertex 0.088939 -7.952051 1.318932
endloop
endfacet
facet normal 0.999699 0.002655 0.024392
outer loop
vertex 0.357904 -8.464763 1.518192
vertex 0.360558 -8.476463 1.410707
vertex 0.360558 -7.948319 1.353215
endloop
endfacet
facet normal 0.999699 0.002655 0.024392
outer loop
vertex 0.357904 -8.464763 1.518192
vertex 0.360558 -7.948319 1.353215
vertex 0.357904 -7.936618 1.460700
endloop
endfacet
facet normal -0.999699 0.002656 0.024393
outer loop
vertex 1.037506 -8.476463 1.410707
vertex 1.040159 -8.464763 1.518192
vertex 1.040159 -7.936618 1.460700
endloop
endfacet
facet normal -0.999699 0.002655 0.024393
outer loop
vertex 1.037506 -8.476463 1.410707
vertex 1.040159 -7.936618 1.460700
vertex 1.037506 -7.948319 1.353215
endloop
endfacet
facet normal 0.999372 -0.003833 -0.035217
outer loop
vertex 1.314180 -8.464763 1.518192
vertex 1.309125 -8.480195 1.376423
vertex 1.309125 -7.952051 1.318932
endloop
endfacet
facet normal 0.999372 -0.003834 -0.035217
outer loop
vertex 1.314180 -8.464763 1.518192
vertex 1.309125 -7.952051 1.318932
vertex 1.314180 -7.936618 1.460700
endloop
endfacet
facet normal 0.996955 0.008439 0.077528
outer loop
vertex 0.360558 -8.476463 1.410707
vertex 0.368416 -8.487333 1.310846
vertex 0.368416 -7.959189 1.253354
endloop
endfacet
facet normal 0.996954 0.008439 0.077528
outer loop
vertex 0.360558 -8.476463 1.410707
vertex 0.368416 -7.959189 1.253354
vertex 0.360558 -7.948319 1.353215
endloop
endfacet
facet normal -0.996954 0.008440 0.077528
outer loop
vertex 1.029648 -8.487333 1.310846
vertex 1.037506 -8.476463 1.410707
vertex 1.037506 -7.948319 1.353215
endloop
endfacet
facet normal -0.996954 0.008439 0.077528
outer loop
vertex 1.029648 -8.487333 1.310846
vertex 1.037506 -7.948319 1.353215
vertex 1.029648 -7.959189 1.253354
endloop
endfacet
facet normal -0.993870 -0.011964 -0.109906
outer loop
vertex 0.103819 -8.494672 1.243438
vertex 0.088939 -8.480195 1.376423
vertex 0.088939 -7.952051 1.318932
endloop
endfacet
facet normal -0.993870 -0.011964 -0.109906
outer loop
vertex 0.103819 -8.494672 1.243438
vertex 0.088939 -7.952051 1.318932
vertex 0.103819 -7.966527 1.185946
endloop
endfacet
facet normal 0.993870 -0.011964 -0.109906
outer loop
vertex 1.309125 -8.480195 1.376423
vertex 1.294245 -8.494672 1.243438
vertex 1.294245 -7.966527 1.185946
endloop
endfacet
facet normal 0.993870 -0.011964 -0.109906
outer loop
vertex 1.309125 -8.480195 1.376423
vertex 1.294245 -7.966527 1.185946
vertex 1.309125 -7.952051 1.318932
endloop
endfacet
facet normal 0.990396 0.014962 0.137449
outer loop
vertex 0.368416 -8.487333 1.310846
vertex 0.381322 -8.497338 1.218939
vertex 0.381322 -7.969194 1.161447
endloop
endfacet
facet normal 0.990396 0.014962 0.137449
outer loop
vertex 0.368416 -8.487333 1.310846
vertex 0.381322 -7.969194 1.161447
vertex 0.368416 -7.959189 1.253354
endloop
endfacet
facet normal -0.990396 0.014962 0.137449
outer loop
vertex 1.016742 -8.497338 1.218939
vertex 1.029648 -8.487333 1.310846
vertex 1.029648 -7.959189 1.253354
endloop
endfacet
facet normal -0.990396 0.014962 0.137450
outer loop
vertex 1.016742 -8.497338 1.218939
vertex 1.029648 -7.959189 1.253354
vertex 1.016742 -7.969194 1.161447
endloop
endfacet
facet normal -0.981441 -0.020752 -0.190638
outer loop
vertex 0.128098 -8.508118 1.119912
vertex 0.103819 -8.494672 1.243438
vertex 0.103819 -7.966527 1.185946
endloop
endfacet
facet normal -0.981441 -0.020752 -0.190637
outer loop
vertex 0.128098 -8.508118 1.119912
vertex 0.103819 -7.966527 1.185946
vertex 0.128098 -7.979974 1.062420
endloop
endfacet
facet normal 0.981441 -0.020752 -0.190638
outer loop
vertex 1.294245 -8.494672 1.243438
vertex 1.269966 -8.508118 1.119912
vertex 1.269966 -7.979974 1.062420
endloop
endfacet
facet normal 0.981441 -0.020752 -0.190638
outer loop
vertex 1.294245 -8.494672 1.243438
vertex 1.269966 -7.979974 1.062420
vertex 1.294245 -7.966527 1.185946
endloop
endfacet
facet normal -0.978338 0.022402 0.205796
outer loop
vertex 0.998942 -8.506441 1.135313
vertex 1.016742 -8.497338 1.218939
vertex 1.016742 -7.969194 1.161447
endloop
endfacet
facet normal -0.978338 0.022402 0.205797
outer loop
vertex 0.998942 -8.506441 1.135313
vertex 1.016742 -7.969194 1.161447
vertex 0.998942 -7.978297 1.077821
endloop
endfacet
facet normal 0.978338 0.022402 0.205796
outer loop
vertex 0.381322 -8.497338 1.218939
vertex 0.399121 -8.506441 1.135313
vertex 0.399121 -7.978297 1.077821
endloop
endfacet
facet normal 0.978338 0.022402 0.205797
outer loop
vertex 0.381322 -8.497338 1.218939
vertex 0.399121 -7.978297 1.077821
vertex 0.381322 -7.969194 1.161447
endloop
endfacet
facet normal -0.958177 0.030969 0.284494
outer loop
vertex 0.976405 -8.514607 1.060296
vertex 0.998942 -8.506441 1.135313
vertex 0.998942 -7.978297 1.077821
endloop
endfacet
facet normal -0.958177 0.030969 0.284495
outer loop
vertex 0.976405 -8.514607 1.060296
vertex 0.998942 -7.978297 1.077821
vertex 0.976405 -7.986464 1.002804
endloop
endfacet
facet normal 0.958177 0.030969 0.284495
outer loop
vertex 0.399121 -8.506441 1.135313
vertex 0.421659 -8.514607 1.060296
vertex 0.421659 -7.986464 1.002804
endloop
endfacet
facet normal 0.958177 0.030969 0.284495
outer loop
vertex 0.399121 -8.506441 1.135313
vertex 0.421659 -7.986464 1.002804
vertex 0.399121 -7.978297 1.077821
endloop
endfacet
facet normal -0.960042 -0.030285 -0.278212
outer loop
vertex 0.161347 -8.520461 1.006520
vertex 0.128098 -8.508118 1.119912
vertex 0.128098 -7.979974 1.062420
endloop
endfacet
facet normal -0.960042 -0.030285 -0.278211
outer loop
vertex 0.161347 -8.520461 1.006520
vertex 0.128098 -7.979974 1.062420
vertex 0.161347 -7.992317 0.949028
endloop
endfacet
facet normal 0.960042 -0.030285 -0.278212
outer loop
vertex 1.269966 -8.508118 1.119912
vertex 1.236717 -8.520461 1.006520
vertex 1.236717 -7.992317 0.949028
endloop
endfacet
facet normal 0.960042 -0.030285 -0.278212
outer loop
vertex 1.269966 -8.508118 1.119912
vertex 1.236717 -7.992317 0.949028
vertex 1.269966 -7.979974 1.062420
endloop
endfacet
facet normal -0.925899 0.040882 0.375552
outer loop
vertex 0.949285 -8.521801 0.994217
vertex 0.976405 -8.514607 1.060296
vertex 0.976405 -7.986464 1.002804
endloop
endfacet
facet normal -0.925899 0.040881 0.375553
outer loop
vertex 0.949285 -8.521801 0.994217
vertex 0.976405 -7.986464 1.002804
vertex 0.949285 -7.993657 0.936725
endloop
endfacet
facet normal 0.925900 0.040881 0.375551
outer loop
vertex 0.421659 -8.514607 1.060296
vertex 0.448778 -8.521801 0.994217
vertex 0.448778 -7.993657 0.936725
endloop
endfacet
facet normal 0.925898 0.040881 0.375554
outer loop
vertex 0.421659 -8.514607 1.060296
vertex 0.448778 -7.993657 0.936725
vertex 0.421659 -7.986464 1.002804
endloop
endfacet
facet normal -0.926864 -0.040624 -0.373194
outer loop
vertex 0.203140 -8.531629 0.903938
vertex 0.161347 -8.520461 1.006520
vertex 0.161347 -7.992317 0.949028
endloop
endfacet
facet normal -0.926865 -0.040624 -0.373191
outer loop
vertex 0.203140 -8.531629 0.903938
vertex 0.161347 -7.992317 0.949028
vertex 0.203140 -8.003484 0.846446
endloop
endfacet
facet normal 0.926864 -0.040624 -0.373193
outer loop
vertex 1.236717 -8.520461 1.006520
vertex 1.194924 -8.531629 0.903938
vertex 1.194924 -8.003484 0.846446
endloop
endfacet
facet normal 0.926864 -0.040625 -0.373192
outer loop
vertex 1.236717 -8.520461 1.006520
vertex 1.194924 -8.003484 0.846446
vertex 1.236717 -7.992317 0.949028
endloop
endfacet
facet normal -0.875472 0.052298 0.480431
outer loop
vertex 0.917738 -8.527986 0.937404
vertex 0.949285 -8.521801 0.994217
vertex 0.949285 -7.993657 0.936725
endloop
endfacet
facet normal -0.875470 0.052298 0.480434
outer loop
vertex 0.917738 -8.527986 0.937404
vertex 0.949285 -7.993657 0.936725
vertex 0.917738 -7.999841 0.879912
endloop
endfacet
facet normal 0.875471 0.052298 0.480433
outer loop
vertex 0.448778 -8.521801 0.994217
vertex 0.480325 -8.527986 0.937404
vertex 0.480325 -7.999841 0.879912
endloop
endfacet
facet normal 0.875471 0.052298 0.480432
outer loop
vertex 0.448778 -8.521801 0.994217
vertex 0.480325 -7.999841 0.879912
vertex 0.448778 -7.993657 0.936725
endloop
endfacet
facet normal -0.798424 0.065157 0.598560
outer loop
vertex 0.881919 -8.533125 0.890184
vertex 0.917738 -8.527986 0.937404
vertex 0.917738 -7.999841 0.879912
endloop
endfacet
facet normal -0.798425 0.065157 0.598559
outer loop
vertex 0.881919 -8.533125 0.890184
vertex 0.917738 -7.999841 0.879912
vertex 0.881919 -8.004981 0.832692
endloop
endfacet
facet normal 0.798423 0.065157 0.598561
outer loop
vertex 0.480325 -8.527986 0.937404
vertex 0.516144 -8.533125 0.890184
vertex 0.516144 -8.004981 0.832692
endloop
endfacet
facet normal 0.798425 0.065157 0.598559
outer loop
vertex 0.480325 -8.527986 0.937404
vertex 0.516144 -8.004981 0.832692
vertex 0.480325 -7.999841 0.879912
endloop
endfacet
facet normal -0.878190 -0.051762 -0.475504
outer loop
vertex 0.253050 -8.541545 0.812841
vertex 0.203140 -8.531629 0.903938
vertex 0.203140 -8.003484 0.846446
endloop
endfacet
facet normal -0.878189 -0.051762 -0.475504
outer loop
vertex 0.253050 -8.541545 0.812841
vertex 0.203140 -8.003484 0.846446
vertex 0.253050 -8.013400 0.755349
endloop
endfacet
facet normal 0.878190 -0.051761 -0.475503
outer loop
vertex 1.194924 -8.531629 0.903938
vertex 1.145014 -8.541545 0.812841
vertex 1.145014 -8.013400 0.755349
endloop
endfacet
facet normal 0.878190 -0.051762 -0.475503
outer loop
vertex 1.194924 -8.531629 0.903938
vertex 1.145014 -8.013400 0.755349
vertex 1.194924 -8.003484 0.846446
endloop
endfacet
facet normal -0.684705 0.078871 0.724540
outer loop
vertex 0.841984 -8.537186 0.852886
vertex 0.881919 -8.533125 0.890184
vertex 0.881919 -8.004981 0.832692
endloop
endfacet
facet normal -0.684703 0.078871 0.724542
outer loop
vertex 0.841984 -8.537186 0.852886
vertex 0.881919 -8.004981 0.832692
vertex 0.841984 -8.009041 0.795395
endloop
endfacet
facet normal 0.684705 0.078871 0.724540
outer loop
vertex 0.516144 -8.533125 0.890184
vertex 0.556080 -8.537186 0.852886
vertex 0.556080 -8.009041 0.795395
endloop
endfacet
facet normal 0.684703 0.078871 0.724542
outer loop
vertex 0.516144 -8.533125 0.890184
vertex 0.556080 -8.009041 0.795395
vertex 0.516144 -8.004981 0.832692
endloop
endfacet
facet normal -0.526819 0.091982 0.844986
outer loop
vertex 0.798087 -8.540130 0.825839
vertex 0.841984 -8.537186 0.852886
vertex 0.841984 -8.009041 0.795395
endloop
endfacet
facet normal -0.526818 0.091982 0.844986
outer loop
vertex 0.798087 -8.540130 0.825839
vertex 0.841984 -8.009041 0.795395
vertex 0.798087 -8.011986 0.768347
endloop
endfacet
facet normal 0.526818 0.091982 0.844987
outer loop
vertex 0.556080 -8.537186 0.852886
vertex 0.599976 -8.540130 0.825839
vertex 0.599976 -8.011986 0.768347
endloop
endfacet
facet normal 0.526820 0.091982 0.844985
outer loop
vertex 0.556080 -8.537186 0.852886
vertex 0.599976 -8.011986 0.768347
vertex 0.556080 -8.009041 0.795395
endloop
endfacet
facet normal -0.328065 0.102228 0.939108
outer loop
vertex 0.750385 -8.541923 0.809370
vertex 0.798087 -8.540130 0.825839
vertex 0.798087 -8.011986 0.768347
endloop
endfacet
facet normal -0.328065 0.102228 0.939107
outer loop
vertex 0.750385 -8.541923 0.809370
vertex 0.798087 -8.011986 0.768347
vertex 0.750385 -8.013779 0.751878
endloop
endfacet
facet normal 0.328063 0.102228 0.939108
outer loop
vertex 0.599976 -8.540130 0.825839
vertex 0.647679 -8.541923 0.809370
vertex 0.647679 -8.013779 0.751878
endloop
endfacet
facet normal 0.328066 0.102228 0.939107
outer loop
vertex 0.599976 -8.540130 0.825839
vertex 0.647679 -8.013779 0.751878
vertex 0.599976 -8.011986 0.768347
endloop
endfacet
facet normal -0.809451 -0.063544 -0.583738
outer loop
vertex 0.310648 -8.550138 0.733906
vertex 0.253050 -8.541545 0.812841
vertex 0.253050 -8.013400 0.755349
endloop
endfacet
facet normal -0.809452 -0.063543 -0.583738
outer loop
vertex 0.310648 -8.550138 0.733906
vertex 0.253050 -8.013400 0.755349
vertex 0.310648 -8.021993 0.676414
endloop
endfacet
facet normal 0.809451 -0.063543 -0.583739
outer loop
vertex 1.145014 -8.541545 0.812841
vertex 1.087415 -8.550138 0.733906
vertex 1.087415 -8.021993 0.676414
endloop
endfacet
facet normal 0.809452 -0.063544 -0.583738
outer loop
vertex 1.145014 -8.541545 0.812841
vertex 1.087415 -8.021993 0.676414
vertex 1.145014 -8.013400 0.755349
endloop
endfacet
facet normal -0.108324 0.107581 0.988277
outer loop
vertex 0.699032 -8.542528 0.803807
vertex 0.750385 -8.541923 0.809370
vertex 0.750385 -8.013779 0.751878
endloop
endfacet
facet normal -0.108318 0.107580 0.988278
outer loop
vertex 0.699032 -8.542528 0.803807
vertex 0.750385 -8.013779 0.751878
vertex 0.699032 -8.014383 0.746315
endloop
endfacet
facet normal 0.108319 0.107580 0.988278
outer loop
vertex 0.647679 -8.541923 0.809370
vertex 0.699032 -8.542528 0.803807
vertex 0.699032 -8.014383 0.746315
endloop
endfacet
facet normal 0.108323 0.107581 0.988278
outer loop
vertex 0.647679 -8.541923 0.809370
vertex 0.699032 -8.014383 0.746315
vertex 0.647679 -8.013779 0.751878
endloop
endfacet
facet normal -0.715814 -0.075567 -0.694190
outer loop
vertex 0.375510 -8.557332 0.667807
vertex 0.310648 -8.550138 0.733906
vertex 0.310648 -8.021993 0.676414
endloop
endfacet
facet normal -0.715817 -0.075567 -0.694187
outer loop
vertex 0.375510 -8.557332 0.667807
vertex 0.310648 -8.021993 0.676414
vertex 0.375510 -8.029188 0.610316
endloop
endfacet
facet normal 0.715815 -0.075567 -0.694189
outer loop
vertex 1.087415 -8.550138 0.733906
vertex 1.022554 -8.557332 0.667807
vertex 1.022554 -8.029188 0.610316
endloop
endfacet
facet normal 0.715815 -0.075567 -0.694189
outer loop
vertex 1.087415 -8.550138 0.733906
vertex 1.022554 -8.029188 0.610316
vertex 1.087415 -8.021993 0.676414
endloop
endfacet
facet normal -0.593695 -0.087082 -0.799965
outer loop
vertex 0.447206 -8.563057 0.615222
vertex 0.375510 -8.557332 0.667807
vertex 0.375510 -8.029188 0.610316
endloop
endfacet
facet normal -0.593693 -0.087081 -0.799966
outer loop
vertex 0.447206 -8.563057 0.615222
vertex 0.375510 -8.029188 0.610316
vertex 0.447206 -8.034912 0.557730
endloop
endfacet
facet normal 0.593694 -0.087081 -0.799965
outer loop
vertex 1.022554 -8.557332 0.667807
vertex 0.950858 -8.563057 0.615221
vertex 0.950858 -8.034912 0.557730
endloop
endfacet
facet normal 0.593693 -0.087082 -0.799966
outer loop
vertex 1.022554 -8.557332 0.667807
vertex 0.950858 -8.034912 0.557730
vertex 1.022554 -8.029188 0.610316
endloop
endfacet
facet normal -0.443289 -0.097003 -0.891115
outer loop
vertex 0.525310 -8.567237 0.576824
vertex 0.447206 -8.563057 0.615222
vertex 0.447206 -8.034912 0.557730
endloop
endfacet
facet normal -0.443286 -0.097004 -0.891116
outer loop
vertex 0.525310 -8.567237 0.576824
vertex 0.447206 -8.034912 0.557730
vertex 0.525310 -8.039092 0.519332
endloop
endfacet
facet normal 0.443288 -0.097003 -0.891115
outer loop
vertex 0.950858 -8.563057 0.615221
vertex 0.872754 -8.567237 0.576824
vertex 0.872754 -8.039092 0.519332
endloop
endfacet
facet normal 0.443286 -0.097004 -0.891116
outer loop
vertex 0.950858 -8.563057 0.615221
vertex 0.872754 -8.039092 0.519332
vertex 0.950858 -8.034912 0.557730
endloop
endfacet
facet normal -0.271006 -0.104167 -0.956925
outer loop
vertex 0.609394 -8.569798 0.553289
vertex 0.525310 -8.567237 0.576824
vertex 0.525310 -8.039092 0.519332
endloop
endfacet
facet normal -0.271003 -0.104167 -0.956925
outer loop
vertex 0.609394 -8.569798 0.553289
vertex 0.525310 -8.039092 0.519332
vertex 0.609394 -8.041655 0.495798
endloop
endfacet
facet normal 0.271004 -0.104167 -0.956925
outer loop
vertex 0.872754 -8.567237 0.576824
vertex 0.788670 -8.569798 0.553289
vertex 0.788670 -8.041655 0.495797
endloop
endfacet
facet normal 0.271006 -0.104167 -0.956925
outer loop
vertex 0.872754 -8.567237 0.576824
vertex 0.788670 -8.041655 0.495797
vertex 0.872754 -8.039092 0.519332
endloop
endfacet
facet normal -0.089362 -0.107784 -0.990150
outer loop
vertex 0.699032 -8.570669 0.545294
vertex 0.609394 -8.569798 0.553289
vertex 0.609394 -8.041655 0.495798
endloop
endfacet
facet normal -0.089359 -0.107784 -0.990150
outer loop
vertex 0.699032 -8.570669 0.545294
vertex 0.609394 -8.041655 0.495798
vertex 0.699032 -8.042524 0.487803
endloop
endfacet
facet normal 0.089359 -0.107784 -0.990150
outer loop
vertex 0.788670 -8.569798 0.553289
vertex 0.699032 -8.570669 0.545294
vertex 0.699032 -8.042524 0.487803
endloop
endfacet
facet normal 0.089359 -0.107784 -0.990150
outer loop
vertex 0.788670 -8.569798 0.553289
vertex 0.699032 -8.042524 0.487803
vertex 0.788670 -8.041655 0.495797
endloop
endfacet
endsolid Exported from Blender-3.3.1
