solid Exported from Blender-3.3.1
facet normal 0.000000 -0.994127 0.108217
outer loop
vertex 0.564818 -8.567945 0.570312
vertex 0.838838 -8.361580 2.466072
vertex 0.564818 -8.361580 2.466072
endloop
endfacet
facet normal 0.000000 -0.994127 0.108218
outer loop
vertex 0.564818 -8.567945 0.570312
vertex 0.838838 -8.567945 0.570312
vertex 0.838838 -8.361580 2.466072
endloop
endfacet
facet normal 0.000000 0.994127 -0.108217
outer loop
vertex 0.564818 -8.039802 0.512820
vertex 0.564818 -7.833436 2.408580
vertex 0.838838 -7.833436 2.408580
endloop
endfacet
facet normal 0.000000 0.994127 -0.108218
outer loop
vertex 0.564818 -8.039802 0.512820
vertex 0.838838 -7.833436 2.408580
vertex 0.838838 -8.039802 0.512820
endloop
endfacet
facet normal -1.000000 0.000000 0.000000
outer loop
vertex 0.564818 -8.567945 0.570312
vertex 0.564818 -8.361580 2.466072
vertex 0.564818 -7.833436 2.408580
endloop
endfacet
facet normal -1.000000 0.000000 0.000000
outer loop
vertex 0.564818 -8.567945 0.570312
vertex 0.564818 -7.833436 2.408580
vertex 0.564818 -8.039802 0.512820
endloop
endfacet
facet normal 0.000000 0.108217 0.994127
outer loop
vertex 0.564818 -8.361580 2.466072
vertex 0.838838 -8.361580 2.466072
vertex 0.838838 -7.833436 2.408580
endloop
endfacet
facet normal 0.000000 0.108217 0.994127
outer loop
vertex 0.564818 -8.361580 2.466072
vertex 0.838838 -7.833436 2.408580
vertex 0.564818 -7.833436 2.408580
endloop
endfacet
facet normal 0.000000 -0.108217 -0.994127
outer loop
vertex 0.838838 -8.567945 0.570312
vertex 0.564818 -8.567945 0.570312
vertex 0.564818 -8.039802 0.512820
endloop
endfacet
facet normal 0.000000 -0.108217 -0.994127
outer loop
vertex 0.838838 -8.567945 0.570312
vertex 0.564818 -8.039802 0.512820
vertex 0.838838 -8.039802 0.512820
endloop
endfacet
facet normal 1.000000 0.000000 0.000000
outer loop
vertex 0.838838 -8.361580 2.466072
vertex 0.838838 -8.567945 0.570312
vertex 0.838838 -8.039802 0.512820
endloop
endfacet
facet normal 1.000000 -0.000000 0.000000
outer loop
vertex 0.838838 -8.361580 2.466072
vertex 0.838838 -8.039802 0.512820
vertex 0.838838 -7.833436 2.408580
endloop
endfacet
endsolid Exported from Blender-3.3.1
