solid Exported from Blender-3.3.1
facet normal -0.000002 -0.994099 0.108480
outer loop
vertex 0.546164 -8.358990 2.489870
vertex 0.668082 -8.359397 2.486128
vertex 0.584391 -8.358857 2.491089
endloop
endfacet
facet normal 0.000000 -0.994126 0.108225
outer loop
vertex 0.508326 -8.359389 2.486199
vertex 0.668082 -8.359397 2.486128
vertex 0.546164 -8.358990 2.489870
endloop
endfacet
facet normal 0.000000 -0.994132 0.108172
outer loop
vertex 0.470798 -8.360058 2.480057
vertex 0.668082 -8.359397 2.486128
vertex 0.508326 -8.359389 2.486199
endloop
endfacet
facet normal 0.000001 -0.994133 0.108166
outer loop
vertex 0.470798 -8.360058 2.480057
vertex 0.746890 -8.360983 2.471554
vertex 0.668082 -8.359397 2.486128
endloop
endfacet
facet normal 0.000001 -0.994098 0.108485
outer loop
vertex 0.433503 -8.360997 2.471425
vertex 0.746890 -8.360983 2.471554
vertex 0.470798 -8.360058 2.480057
endloop
endfacet
facet normal 0.000001 -0.994127 0.108221
outer loop
vertex 0.433503 -8.360997 2.471425
vertex 0.820358 -8.363565 2.447830
vertex 0.746890 -8.360983 2.471554
endloop
endfacet
facet normal 0.000002 -0.994127 0.108216
outer loop
vertex 0.396364 -8.362210 2.460284
vertex 0.820358 -8.363565 2.447830
vertex 0.433503 -8.360997 2.471425
endloop
endfacet
facet normal 0.000001 -0.994123 0.108253
outer loop
vertex 0.359302 -8.363698 2.446614
vertex 0.820358 -8.363565 2.447830
vertex 0.396364 -8.362210 2.460284
endloop
endfacet
facet normal 0.000000 -0.994127 0.108221
outer loop
vertex 0.359302 -8.363698 2.446614
vertex 0.888029 -8.367094 2.415419
vertex 0.820358 -8.363565 2.447830
endloop
endfacet
facet normal -0.000001 -0.994135 0.108145
outer loop
vertex 0.322241 -8.365463 2.430396
vertex 0.888029 -8.367094 2.415419
vertex 0.359302 -8.363698 2.446614
endloop
endfacet
facet normal 0.000000 -0.994115 0.108328
outer loop
vertex 0.285101 -8.367509 2.411610
vertex 0.888029 -8.367094 2.415419
vertex 0.322241 -8.365463 2.430396
endloop
endfacet
facet normal 0.000000 -0.994130 0.108187
outer loop
vertex 0.285101 -8.367509 2.411610
vertex 0.949449 -8.371517 2.374785
vertex 0.888029 -8.367094 2.415419
endloop
endfacet
facet normal -0.000001 -0.994130 0.108190
outer loop
vertex 0.247807 -8.369835 2.390238
vertex 0.949449 -8.371517 2.374785
vertex 0.285101 -8.367509 2.411610
endloop
endfacet
facet normal -0.000000 -0.994131 0.108186
outer loop
vertex 0.210279 -8.372445 2.366260
vertex 0.949449 -8.371517 2.374785
vertex 0.247807 -8.369835 2.390238
endloop
endfacet
facet normal -0.000000 -0.994128 0.108215
outer loop
vertex 0.210279 -8.372445 2.366260
vertex 1.004159 -8.376785 2.326391
vertex 0.949449 -8.371517 2.374785
endloop
endfacet
facet normal 0.000000 -0.994122 0.108263
outer loop
vertex 0.172441 -8.375341 2.339656
vertex 1.004159 -8.376785 2.326391
vertex 0.210279 -8.372445 2.366260
endloop
endfacet
facet normal -0.000000 -0.994126 0.108233
outer loop
vertex 0.134214 -8.378525 2.310408
vertex 1.004159 -8.376785 2.326391
vertex 0.172441 -8.375341 2.339656
endloop
endfacet
facet normal -0.000001 -0.994130 0.108192
outer loop
vertex 0.134214 -8.378525 2.310408
vertex 1.051705 -8.382848 2.270701
vertex 1.004159 -8.376785 2.326391
endloop
endfacet
facet normal 0.000000 -0.994127 0.108216
outer loop
vertex 0.134214 -8.415744 1.968504
vertex 0.172376 -8.410747 2.014411
vertex 0.134214 -8.378525 2.310408
endloop
endfacet
facet normal 0.000017 -0.994127 0.108220
outer loop
vertex 0.172376 -8.410747 2.014411
vertex 0.209994 -8.406326 2.055010
vertex 0.134214 -8.378525 2.310408
endloop
endfacet
facet normal -0.000014 -0.994127 0.108218
outer loop
vertex 0.209994 -8.406326 2.055010
vertex 0.247108 -8.402458 2.090550
vertex 0.134214 -8.378525 2.310408
endloop
endfacet
facet normal -0.000004 -0.994127 0.108218
outer loop
vertex 0.247108 -8.402458 2.090550
vertex 0.283755 -8.399113 2.121285
vertex 0.134214 -8.378525 2.310408
endloop
endfacet
facet normal 0.000012 -0.994127 0.108217
outer loop
vertex 0.283755 -8.399113 2.121285
vertex 0.319975 -8.396262 2.147464
vertex 0.134214 -8.378525 2.310408
endloop
endfacet
facet normal -0.000013 -0.994127 0.108217
outer loop
vertex 0.319975 -8.396262 2.147464
vertex 0.355807 -8.393882 2.169338
vertex 0.134214 -8.378525 2.310408
endloop
endfacet
facet normal 0.000012 -0.994123 0.108259
outer loop
vertex 0.355807 -8.393882 2.169338
vertex 0.391290 -8.391941 2.187159
vertex 0.134214 -8.378525 2.310408
endloop
endfacet
facet normal 0.000000 -0.994123 0.108261
outer loop
vertex 0.391290 -8.391941 2.187159
vertex 0.426461 -8.390415 2.201176
vertex 0.134214 -8.378525 2.310408
endloop
endfacet
facet normal -0.000009 -0.994131 0.108183
outer loop
vertex 0.426461 -8.390415 2.201176
vertex 0.461361 -8.389277 2.211642
vertex 0.134214 -8.378525 2.310408
endloop
endfacet
facet normal 0.000003 -0.994134 0.108157
outer loop
vertex 0.461361 -8.389277 2.211642
vertex 0.496028 -8.388496 2.218807
vertex 0.134214 -8.378525 2.310408
endloop
endfacet
facet normal 0.000006 -0.994124 0.108244
outer loop
vertex 0.496028 -8.388496 2.218807
vertex 0.530500 -8.388048 2.222921
vertex 0.134214 -8.378525 2.310408
endloop
endfacet
facet normal -0.000001 -0.994126 0.108231
outer loop
vertex 0.530500 -8.388048 2.222921
vertex 1.051705 -8.382848 2.270701
vertex 0.134214 -8.378525 2.310408
endloop
endfacet
facet normal -0.000008 -0.994221 0.107357
outer loop
vertex 0.530500 -8.388048 2.222921
vertex 0.564818 -8.387905 2.224237
vertex 1.051705 -8.382848 2.270701
endloop
endfacet
facet normal 0.000000 -0.994128 0.108216
outer loop
vertex 0.564818 -8.387905 2.224237
vertex 1.091629 -8.389653 2.208177
vertex 1.051705 -8.382848 2.270701
endloop
endfacet
facet normal 0.000006 -0.994083 0.108624
outer loop
vertex 0.610609 -8.388234 2.221218
vertex 1.091629 -8.389653 2.208177
vertex 0.564818 -8.387905 2.224237
endloop
endfacet
facet normal 0.000001 -0.994145 0.108051
outer loop
vertex 0.654100 -8.389198 2.212359
vertex 1.091629 -8.389653 2.208177
vertex 0.610609 -8.388234 2.221218
endloop
endfacet
facet normal 0.000001 -0.994120 0.108280
outer loop
vertex 0.694969 -8.390765 2.197960
vertex 1.091629 -8.389653 2.208177
vertex 0.654100 -8.389198 2.212359
endloop
endfacet
facet normal -0.000001 -0.994128 0.108215
outer loop
vertex 0.694969 -8.390765 2.197960
vertex 1.123475 -8.397153 2.139282
vertex 1.091629 -8.389653 2.208177
endloop
endfacet
facet normal 0.000002 -0.994129 0.108205
outer loop
vertex 0.732896 -8.392903 2.178320
vertex 1.123475 -8.397153 2.139282
vertex 0.694969 -8.390765 2.197960
endloop
endfacet
facet normal 0.000001 -0.994126 0.108225
outer loop
vertex 0.767561 -8.395579 2.153739
vertex 1.123475 -8.397153 2.139282
vertex 0.732896 -8.392903 2.178320
endloop
endfacet
facet normal 0.000001 -0.994127 0.108222
outer loop
vertex 0.798644 -8.398761 2.124515
vertex 1.123475 -8.397153 2.139282
vertex 0.767561 -8.395579 2.153739
endloop
endfacet
facet normal 0.000001 -0.994127 0.108221
outer loop
vertex 0.798644 -8.398761 2.124515
vertex 1.146788 -8.405295 2.064481
vertex 1.123475 -8.397153 2.139282
endloop
endfacet
facet normal -0.000001 -0.994134 0.108155
outer loop
vertex 0.825824 -8.402414 2.090948
vertex 1.146788 -8.405295 2.064481
vertex 0.798644 -8.398761 2.124515
endloop
endfacet
facet normal -0.000000 -0.994124 0.108251
outer loop
vertex 0.848780 -8.406508 2.053337
vertex 1.146788 -8.405295 2.064481
vertex 0.825824 -8.402414 2.090948
endloop
endfacet
facet normal -0.000001 -0.994126 0.108227
outer loop
vertex 0.848780 -8.406508 2.053337
vertex 1.161110 -8.414031 1.984236
vertex 1.146788 -8.405295 2.064481
endloop
endfacet
facet normal 0.000000 -0.994124 0.108246
outer loop
vertex 0.867193 -8.411011 2.011981
vertex 1.161110 -8.414031 1.984236
vertex 0.848780 -8.406508 2.053337
endloop
endfacet
facet normal -0.000000 -0.994133 0.108169
outer loop
vertex 0.880741 -8.415888 1.967178
vertex 1.161110 -8.414031 1.984236
vertex 0.867193 -8.411011 2.011981
endloop
endfacet
facet normal -0.000000 -0.994128 0.108214
outer loop
vertex 0.880741 -8.415888 1.967178
vertex 1.165985 -8.423308 1.899011
vertex 1.161110 -8.414031 1.984236
endloop
endfacet
facet normal -0.000001 -0.994124 0.108248
outer loop
vertex 0.889105 -8.421107 1.919230
vertex 1.165985 -8.423308 1.899011
vertex 0.880741 -8.415888 1.967178
endloop
endfacet
facet normal -0.000001 -0.994125 0.108234
outer loop
vertex 0.891965 -8.426637 1.868435
vertex 1.165985 -8.423308 1.899011
vertex 0.889105 -8.421107 1.919230
endloop
endfacet
facet normal -0.000000 -0.994130 0.108188
outer loop
vertex 0.891965 -8.426637 1.868435
vertex 1.162438 -8.431610 1.822747
vertex 1.165985 -8.423308 1.899011
endloop
endfacet
facet normal -0.000002 -0.994126 0.108232
outer loop
vertex 0.891033 -8.430811 1.830085
vertex 1.162438 -8.431610 1.822747
vertex 0.891965 -8.426637 1.868435
endloop
endfacet
facet normal -0.000001 -0.994122 0.108263
outer loop
vertex 0.888236 -8.434742 1.793975
vertex 1.162438 -8.431610 1.822747
vertex 0.891033 -8.430811 1.830085
endloop
endfacet
facet normal -0.000001 -0.994128 0.108213
outer loop
vertex 0.888236 -8.434742 1.793975
vertex 1.151590 -8.439796 1.747543
vertex 1.162438 -8.431610 1.822747
endloop
endfacet
facet normal 0.000001 -0.994123 0.108253
outer loop
vertex 0.883576 -8.438476 1.759679
vertex 1.151590 -8.439796 1.747543
vertex 0.888236 -8.434742 1.793975
endloop
endfacet
facet normal 0.000001 -0.994130 0.108195
outer loop
vertex 0.877052 -8.442058 1.726773
vertex 1.151590 -8.439796 1.747543
vertex 0.883576 -8.438476 1.759679
endloop
endfacet
facet normal 0.000000 -0.994125 0.108239
outer loop
vertex 0.877052 -8.442058 1.726773
vertex 1.133130 -8.447979 1.672379
vertex 1.151590 -8.439796 1.747543
endloop
endfacet
facet normal 0.000000 -0.994136 0.108140
outer loop
vertex 0.868664 -8.445535 1.694832
vertex 1.133130 -8.447979 1.672379
vertex 0.877052 -8.442058 1.726773
endloop
endfacet
facet normal -0.000001 -0.994123 0.108253
outer loop
vertex 0.858411 -8.448953 1.663431
vertex 1.133130 -8.447979 1.672379
vertex 0.868664 -8.445535 1.694832
endloop
endfacet
facet normal -0.000001 -0.994126 0.108228
outer loop
vertex 0.858411 -8.448953 1.663431
vertex 1.106748 -8.456268 1.596230
vertex 1.133130 -8.447979 1.672379
endloop
endfacet
facet normal -0.000001 -0.994124 0.108245
outer loop
vertex 0.846295 -8.452358 1.632147
vertex 1.106748 -8.456268 1.596230
vertex 0.858411 -8.448953 1.663431
endloop
endfacet
facet normal -0.000002 -0.994128 0.108210
outer loop
vertex 0.832314 -8.455797 1.600553
vertex 1.106748 -8.456268 1.596230
vertex 0.846295 -8.452358 1.632147
endloop
endfacet
facet normal -0.000001 -0.994127 0.108220
outer loop
vertex 0.816469 -8.459316 1.568226
vertex 1.106748 -8.456268 1.596230
vertex 0.832314 -8.455797 1.600553
endloop
endfacet
facet normal -0.000001 -0.994129 0.108199
outer loop
vertex 0.816469 -8.459316 1.568226
vertex 1.072134 -8.464776 1.518073
vertex 1.106748 -8.456268 1.596230
endloop
endfacet
facet normal -0.000002 -0.994123 0.108261
outer loop
vertex 0.798760 -8.462961 1.534741
vertex 1.072134 -8.464776 1.518073
vertex 0.816469 -8.459316 1.568226
endloop
endfacet
facet normal -0.000001 -0.994127 0.108217
outer loop
vertex 0.779188 -8.466779 1.499673
vertex 1.072134 -8.464776 1.518073
vertex 0.798760 -8.462961 1.534741
endloop
endfacet
facet normal -0.000001 -0.994130 0.108192
outer loop
vertex 0.779188 -8.466779 1.499673
vertex 1.028975 -8.473614 1.436885
vertex 1.072134 -8.464776 1.518073
endloop
endfacet
facet normal -0.000000 -0.994125 0.108242
outer loop
vertex 0.757751 -8.470815 1.462598
vertex 1.028975 -8.473614 1.436885
vertex 0.779188 -8.466779 1.499673
endloop
endfacet
facet normal -0.000001 -0.994129 0.108202
outer loop
vertex 0.714648 -8.478451 1.392445
vertex 1.028975 -8.473614 1.436885
vertex 0.757751 -8.470815 1.462598
endloop
endfacet
facet normal -0.000001 -0.994129 0.108199
outer loop
vertex 0.714648 -8.478451 1.392445
vertex 0.976962 -8.482892 1.351644
vertex 1.028975 -8.473614 1.436885
endloop
endfacet
facet normal 0.000001 -0.994123 0.108253
outer loop
vertex 0.666915 -8.486341 1.319957
vertex 0.976962 -8.482892 1.351644
vertex 0.714648 -8.478451 1.392445
endloop
endfacet
facet normal -0.000000 -0.994129 0.108205
outer loop
vertex 0.666915 -8.486341 1.319957
vertex 0.915783 -8.492724 1.261326
vertex 0.976962 -8.482892 1.351644
endloop
endfacet
facet normal -0.000001 -0.994126 0.108231
outer loop
vertex 0.615279 -8.494426 1.245694
vertex 0.915783 -8.492724 1.261326
vertex 0.666915 -8.486341 1.319957
endloop
endfacet
facet normal -0.000001 -0.994126 0.108225
outer loop
vertex 0.615279 -8.494426 1.245694
vertex 0.845129 -8.503220 1.164908
vertex 0.915783 -8.492724 1.261326
endloop
endfacet
facet normal 0.000002 -0.994127 0.108218
outer loop
vertex 0.560468 -8.502643 1.170214
vertex 0.845129 -8.503220 1.164908
vertex 0.615279 -8.494426 1.245694
endloop
endfacet
facet normal 0.000002 -0.994130 0.108195
outer loop
vertex 0.503211 -8.510930 1.094077
vertex 0.845129 -8.503220 1.164908
vertex 0.560468 -8.502643 1.170214
endloop
endfacet
facet normal -0.000001 -0.994125 0.108240
outer loop
vertex 0.503211 -8.510930 1.094077
vertex 0.764689 -8.514491 1.061368
vertex 0.845129 -8.503220 1.164908
endloop
endfacet
facet normal -0.000001 -0.994127 0.108219
outer loop
vertex 0.444235 -8.519229 1.017845
vertex 0.764689 -8.514491 1.061368
vertex 0.503211 -8.510930 1.094077
endloop
endfacet
facet normal 0.000001 -0.994128 0.108206
outer loop
vertex 0.444235 -8.519229 1.017845
vertex 0.674151 -8.526649 0.949681
vertex 0.764689 -8.514491 1.061368
endloop
endfacet
facet normal -0.000000 -0.994127 0.108215
outer loop
vertex 0.384269 -8.527476 0.942075
vertex 0.674151 -8.526649 0.949681
vertex 0.444235 -8.519229 1.017845
endloop
endfacet
facet normal -0.000000 -0.994129 0.108202
outer loop
vertex 0.384269 -8.527476 0.942075
vertex 0.573206 -8.539804 0.828825
vertex 0.674151 -8.526649 0.949681
endloop
endfacet
facet normal 0.000000 -0.994128 0.108215
outer loop
vertex 0.324040 -8.535613 0.867329
vertex 0.573206 -8.539804 0.828825
vertex 0.384269 -8.527476 0.942075
endloop
endfacet
facet normal -0.000000 -0.994127 0.108218
outer loop
vertex 0.264278 -8.543577 0.794165
vertex 0.573206 -8.539804 0.828825
vertex 0.324040 -8.535613 0.867329
endloop
endfacet
facet normal 0.000000 -0.994124 0.108248
outer loop
vertex 0.264278 -8.543577 0.794165
vertex 1.302995 -8.539804 0.828825
vertex 0.573206 -8.539804 0.828825
endloop
endfacet
facet normal -0.000000 -0.994127 0.108216
outer loop
vertex 0.264278 -8.543577 0.794165
vertex 1.302995 -8.567945 0.570312
vertex 1.302995 -8.539804 0.828825
endloop
endfacet
facet normal 0.000001 -0.994124 0.108250
outer loop
vertex 0.205710 -8.551309 0.723144
vertex 1.302995 -8.567945 0.570312
vertex 0.264278 -8.543577 0.794165
endloop
endfacet
facet normal -0.000000 -0.994133 0.108161
outer loop
vertex 0.149064 -8.558745 0.654826
vertex 1.302995 -8.567945 0.570312
vertex 0.205710 -8.551309 0.723144
endloop
endfacet
facet normal 0.000000 -0.994122 0.108267
outer loop
vertex 0.095068 -8.565827 0.589770
vertex 1.302995 -8.567945 0.570312
vertex 0.149064 -8.558745 0.654826
endloop
endfacet
facet normal 0.000000 -0.994131 0.108184
outer loop
vertex 0.095068 -8.567945 0.570312
vertex 1.302995 -8.567945 0.570312
vertex 0.095068 -8.565827 0.589770
endloop
endfacet
facet normal -0.000005 0.994098 -0.108487
outer loop
vertex 0.546164 -7.830845 2.432378
vertex 0.584391 -7.830712 2.433597
vertex 0.668082 -7.831253 2.428636
endloop
endfacet
facet normal -0.000000 0.994127 -0.108223
outer loop
vertex 0.508326 -7.831245 2.428707
vertex 0.546164 -7.830845 2.432378
vertex 0.668082 -7.831253 2.428636
endloop
endfacet
facet normal -0.000000 0.994132 -0.108171
outer loop
vertex 0.470798 -7.831913 2.422565
vertex 0.508326 -7.831245 2.428707
vertex 0.668082 -7.831253 2.428636
endloop
endfacet
facet normal -0.000001 0.994118 -0.108306
outer loop
vertex 0.470798 -7.831913 2.422565
vertex 0.668082 -7.831253 2.428636
vertex 0.746890 -7.832839 2.414062
endloop
endfacet
facet normal 0.000001 0.994155 -0.107962
outer loop
vertex 0.433503 -7.832853 2.413933
vertex 0.470798 -7.831913 2.422565
vertex 0.746890 -7.832839 2.414062
endloop
endfacet
facet normal 0.000001 0.994129 -0.108205
outer loop
vertex 0.433503 -7.832853 2.413933
vertex 0.746890 -7.832839 2.414062
vertex 0.820358 -7.835422 2.390338
endloop
endfacet
facet normal -0.000001 0.994117 -0.108308
outer loop
vertex 0.396364 -7.834066 2.402792
vertex 0.433503 -7.832853 2.413933
vertex 0.820358 -7.835422 2.390338
endloop
endfacet
facet normal -0.000000 0.994132 -0.108178
outer loop
vertex 0.359302 -7.835554 2.389122
vertex 0.396364 -7.834066 2.402792
vertex 0.820358 -7.835422 2.390338
endloop
endfacet
facet normal -0.000000 0.994129 -0.108198
outer loop
vertex 0.359302 -7.835554 2.389122
vertex 0.820358 -7.835422 2.390338
vertex 0.888029 -7.838950 2.357927
endloop
endfacet
facet normal 0.000000 0.994114 -0.108337
outer loop
vertex 0.322241 -7.837319 2.372904
vertex 0.359302 -7.835554 2.389122
vertex 0.888029 -7.838950 2.357927
endloop
endfacet
facet normal 0.000000 0.994134 -0.108160
outer loop
vertex 0.285101 -7.839364 2.354118
vertex 0.322241 -7.837319 2.372904
vertex 0.888029 -7.838950 2.357927
endloop
endfacet
facet normal 0.000000 0.994126 -0.108226
outer loop
vertex 0.285101 -7.839364 2.354118
vertex 0.888029 -7.838950 2.357927
vertex 0.949449 -7.843373 2.317294
endloop
endfacet
facet normal -0.000001 0.994130 -0.108190
outer loop
vertex 0.247807 -7.841691 2.332746
vertex 0.285101 -7.839364 2.354118
vertex 0.949449 -7.843373 2.317294
endloop
endfacet
facet normal -0.000000 0.994131 -0.108186
outer loop
vertex 0.210279 -7.844301 2.308768
vertex 0.247807 -7.841691 2.332746
vertex 0.949449 -7.843373 2.317294
endloop
endfacet
facet normal -0.000000 0.994126 -0.108224
outer loop
vertex 0.210279 -7.844301 2.308768
vertex 0.949449 -7.843373 2.317294
vertex 1.004159 -7.848641 2.268899
endloop
endfacet
facet normal 0.000000 0.994127 -0.108221
outer loop
vertex 0.172441 -7.847197 2.282164
vertex 0.210279 -7.844301 2.308768
vertex 1.004159 -7.848641 2.268899
endloop
endfacet
facet normal -0.000000 0.994125 -0.108234
outer loop
vertex 0.134214 -7.850381 2.252916
vertex 0.172441 -7.847197 2.282164
vertex 1.004159 -7.848641 2.268899
endloop
endfacet
facet normal -0.000000 0.994129 -0.108199
outer loop
vertex 0.134214 -7.850381 2.252916
vertex 1.004159 -7.848641 2.268899
vertex 1.051705 -7.854703 2.213209
endloop
endfacet
facet normal 0.000000 0.994127 -0.108216
outer loop
vertex 0.134214 -7.887599 1.911012
vertex 0.134214 -7.850381 2.252916
vertex 0.172376 -7.882602 1.956919
endloop
endfacet
facet normal 0.000001 0.994127 -0.108220
outer loop
vertex 0.172376 -7.882602 1.956919
vertex 0.134214 -7.850381 2.252916
vertex 0.209994 -7.878182 1.997518
endloop
endfacet
facet normal -0.000005 0.994128 -0.108208
outer loop
vertex 0.209994 -7.878182 1.997518
vertex 0.134214 -7.850381 2.252916
vertex 0.247108 -7.874313 2.033059
endloop
endfacet
facet normal 0.000002 0.994127 -0.108218
outer loop
vertex 0.247108 -7.874313 2.033059
vertex 0.134214 -7.850381 2.252916
vertex 0.283755 -7.870968 2.063793
endloop
endfacet
facet normal 0.000003 0.994130 -0.108195
outer loop
vertex 0.283755 -7.870968 2.063793
vertex 0.134214 -7.850381 2.252916
vertex 0.319975 -7.868118 2.089972
endloop
endfacet
facet normal -0.000004 0.994127 -0.108217
outer loop
vertex 0.319975 -7.868118 2.089972
vertex 0.134214 -7.850381 2.252916
vertex 0.355807 -7.865737 2.111846
endloop
endfacet
facet normal 0.000000 0.994128 -0.108207
outer loop
vertex 0.355807 -7.865737 2.111846
vertex 0.134214 -7.850381 2.252916
vertex 0.391290 -7.863797 2.129667
endloop
endfacet
facet normal 0.000000 0.994116 -0.108320
outer loop
vertex 0.391290 -7.863797 2.129667
vertex 0.134214 -7.850381 2.252916
vertex 0.426461 -7.862271 2.143684
endloop
endfacet
facet normal 0.000001 0.994131 -0.108181
outer loop
vertex 0.426461 -7.862271 2.143684
vertex 0.134214 -7.850381 2.252916
vertex 0.461361 -7.861132 2.154150
endloop
endfacet
facet normal -0.000003 0.994142 -0.108077
outer loop
vertex 0.461361 -7.861132 2.154150
vertex 0.134214 -7.850381 2.252916
vertex 0.496028 -7.860352 2.161315
endloop
endfacet
facet normal 0.000002 0.994125 -0.108242
outer loop
vertex 0.496028 -7.860352 2.161315
vertex 0.134214 -7.850381 2.252916
vertex 0.530500 -7.859904 2.165430
endloop
endfacet
facet normal -0.000000 0.994127 -0.108217
outer loop
vertex 0.530500 -7.859904 2.165430
vertex 0.134214 -7.850381 2.252916
vertex 1.051705 -7.854703 2.213209
endloop
endfacet
facet normal 0.000010 0.994062 -0.108817
outer loop
vertex 0.530500 -7.859904 2.165430
vertex 1.051705 -7.854703 2.213209
vertex 0.564818 -7.859761 2.166745
endloop
endfacet
facet normal -0.000001 0.994128 -0.108211
outer loop
vertex 0.564818 -7.859761 2.166745
vertex 1.051705 -7.854703 2.213209
vertex 1.091629 -7.861509 2.150685
endloop
endfacet
facet normal 0.000002 0.994081 -0.108639
outer loop
vertex 0.610609 -7.860090 2.163726
vertex 0.564818 -7.859761 2.166745
vertex 1.091629 -7.861509 2.150685
endloop
endfacet
facet normal 0.000000 0.994145 -0.108051
outer loop
vertex 0.654100 -7.861054 2.154867
vertex 0.610609 -7.860090 2.163726
vertex 1.091629 -7.861509 2.150685
endloop
endfacet
facet normal 0.000000 0.994129 -0.108204
outer loop
vertex 0.694969 -7.862621 2.140468
vertex 0.654100 -7.861054 2.154867
vertex 1.091629 -7.861509 2.150685
endloop
endfacet
facet normal 0.000001 0.994128 -0.108215
outer loop
vertex 0.694969 -7.862621 2.140468
vertex 1.091629 -7.861509 2.150685
vertex 1.123475 -7.869009 2.081790
endloop
endfacet
facet normal -0.000002 0.994120 -0.108280
outer loop
vertex 0.732896 -7.864759 2.120829
vertex 0.694969 -7.862621 2.140468
vertex 1.123475 -7.869009 2.081790
endloop
endfacet
facet normal 0.000002 0.994126 -0.108225
outer loop
vertex 0.767561 -7.867435 2.096247
vertex 0.732896 -7.864759 2.120829
vertex 1.123475 -7.869009 2.081790
endloop
endfacet
facet normal 0.000001 0.994127 -0.108222
outer loop
vertex 0.798644 -7.870616 2.067023
vertex 0.767561 -7.867435 2.096247
vertex 1.123475 -7.869009 2.081790
endloop
endfacet
facet normal 0.000000 0.994128 -0.108209
outer loop
vertex 0.798644 -7.870616 2.067023
vertex 1.123475 -7.869009 2.081790
vertex 1.146788 -7.877151 2.006989
endloop
endfacet
facet normal 0.000000 0.994129 -0.108201
outer loop
vertex 0.825824 -7.874270 2.033456
vertex 0.798644 -7.870616 2.067023
vertex 1.146788 -7.877151 2.006989
endloop
endfacet
facet normal 0.000000 0.994128 -0.108211
outer loop
vertex 0.848780 -7.878365 1.995845
vertex 0.825824 -7.874270 2.033456
vertex 1.146788 -7.877151 2.006989
endloop
endfacet
facet normal 0.000000 0.994128 -0.108210
outer loop
vertex 0.848780 -7.878365 1.995845
vertex 1.146788 -7.877151 2.006989
vertex 1.161110 -7.885887 1.926745
endloop
endfacet
facet normal 0.000001 0.994129 -0.108205
outer loop
vertex 0.867193 -7.882866 1.954489
vertex 0.848780 -7.878365 1.995845
vertex 1.161110 -7.885887 1.926745
endloop
endfacet
facet normal 0.000000 0.994128 -0.108206
outer loop
vertex 0.880741 -7.887743 1.909686
vertex 0.867193 -7.882866 1.954489
vertex 1.161110 -7.885887 1.926745
endloop
endfacet
facet normal 0.000000 0.994128 -0.108214
outer loop
vertex 0.880741 -7.887743 1.909686
vertex 1.161110 -7.885887 1.926745
vertex 1.165985 -7.895164 1.841520
endloop
endfacet
facet normal 0.000000 0.994128 -0.108213
outer loop
vertex 0.889105 -7.892963 1.861738
vertex 0.880741 -7.887743 1.909686
vertex 1.165985 -7.895164 1.841520
endloop
endfacet
facet normal 0.000001 0.994125 -0.108234
outer loop
vertex 0.891965 -7.898492 1.810943
vertex 0.889105 -7.892963 1.861738
vertex 1.165985 -7.895164 1.841520
endloop
endfacet
facet normal 0.000000 0.994127 -0.108217
outer loop
vertex 0.891965 -7.898492 1.810943
vertex 1.165985 -7.895164 1.841520
vertex 1.162438 -7.903466 1.765255
endloop
endfacet
facet normal -0.000001 0.994126 -0.108233
outer loop
vertex 0.891033 -7.902667 1.772593
vertex 0.891965 -7.898492 1.810943
vertex 1.162438 -7.903466 1.765255
endloop
endfacet
facet normal -0.000000 0.994133 -0.108167
outer loop
vertex 0.888236 -7.906598 1.736483
vertex 0.891033 -7.902667 1.772593
vertex 1.162438 -7.903466 1.765255
endloop
endfacet
facet normal 0.000001 0.994125 -0.108235
outer loop
vertex 0.888236 -7.906598 1.736483
vertex 1.162438 -7.903466 1.765255
vertex 1.151590 -7.911652 1.690052
endloop
endfacet
facet normal -0.000001 0.994129 -0.108202
outer loop
vertex 0.883576 -7.910331 1.702187
vertex 0.888236 -7.906598 1.736483
vertex 1.151590 -7.911652 1.690052
endloop
endfacet
facet normal -0.000001 0.994124 -0.108248
outer loop
vertex 0.877052 -7.913913 1.669281
vertex 0.883576 -7.910331 1.702187
vertex 1.151590 -7.911652 1.690052
endloop
endfacet
facet normal -0.000001 0.994127 -0.108218
outer loop
vertex 0.877052 -7.913913 1.669281
vertex 1.151590 -7.911652 1.690052
vertex 1.133130 -7.919834 1.614887
endloop
endfacet
facet normal 0.000002 0.994130 -0.108195
outer loop
vertex 0.868664 -7.917390 1.637340
vertex 0.877052 -7.913913 1.669281
vertex 1.133130 -7.919834 1.614887
endloop
endfacet
facet normal -0.000000 0.994123 -0.108253
outer loop
vertex 0.858411 -7.920808 1.605940
vertex 0.868664 -7.917390 1.637340
vertex 1.133130 -7.919834 1.614887
endloop
endfacet
facet normal -0.000001 0.994127 -0.108220
outer loop
vertex 0.858411 -7.920808 1.605940
vertex 1.133130 -7.919834 1.614887
vertex 1.106748 -7.928123 1.538738
endloop
endfacet
facet normal -0.000001 0.994130 -0.108190
outer loop
vertex 0.846295 -7.924214 1.574655
vertex 0.858411 -7.920808 1.605940
vertex 1.106748 -7.928123 1.538738
endloop
endfacet
facet normal 0.000000 0.994128 -0.108210
outer loop
vertex 0.832314 -7.927653 1.543061
vertex 0.846295 -7.924214 1.574655
vertex 1.106748 -7.928123 1.538738
endloop
endfacet
facet normal -0.000000 0.994133 -0.108168
outer loop
vertex 0.816469 -7.931172 1.510735
vertex 0.832314 -7.927653 1.543061
vertex 1.106748 -7.928123 1.538738
endloop
endfacet
facet normal 0.000000 0.994124 -0.108245
outer loop
vertex 0.816469 -7.931172 1.510735
vertex 1.106748 -7.928123 1.538738
vertex 1.072134 -7.936632 1.460581
endloop
endfacet
facet normal 0.000002 0.994128 -0.108211
outer loop
vertex 0.798760 -7.934817 1.477249
vertex 0.816469 -7.931172 1.510735
vertex 1.072134 -7.936632 1.460581
endloop
endfacet
facet normal 0.000001 0.994127 -0.108217
outer loop
vertex 0.779188 -7.938634 1.442181
vertex 0.798760 -7.934817 1.477249
vertex 1.072134 -7.936632 1.460581
endloop
endfacet
facet normal 0.000001 0.994127 -0.108220
outer loop
vertex 0.779188 -7.938634 1.442181
vertex 1.072134 -7.936632 1.460581
vertex 1.028975 -7.945469 1.379394
endloop
endfacet
facet normal 0.000000 0.994127 -0.108219
outer loop
vertex 0.757751 -7.942670 1.405106
vertex 0.779188 -7.938634 1.442181
vertex 1.028975 -7.945469 1.379394
endloop
endfacet
facet normal 0.000000 0.994126 -0.108225
outer loop
vertex 0.714648 -7.950307 1.334954
vertex 0.757751 -7.942670 1.405106
vertex 1.028975 -7.945469 1.379394
endloop
endfacet
facet normal -0.000000 0.994128 -0.108213
outer loop
vertex 0.714648 -7.950307 1.334954
vertex 1.028975 -7.945469 1.379394
vertex 0.976962 -7.954748 1.294152
endloop
endfacet
facet normal -0.000001 0.994128 -0.108208
outer loop
vertex 0.666915 -7.958198 1.262466
vertex 0.714648 -7.950307 1.334954
vertex 0.976962 -7.954748 1.294152
endloop
endfacet
facet normal -0.000000 0.994127 -0.108221
outer loop
vertex 0.666915 -7.958198 1.262466
vertex 0.976962 -7.954748 1.294152
vertex 0.915783 -7.964580 1.203835
endloop
endfacet
facet normal -0.000000 0.994127 -0.108220
outer loop
vertex 0.615279 -7.966282 1.188202
vertex 0.666915 -7.958198 1.262466
vertex 0.915783 -7.964580 1.203835
endloop
endfacet
facet normal -0.000000 0.994128 -0.108212
outer loop
vertex 0.615279 -7.966282 1.188202
vertex 0.915783 -7.964580 1.203835
vertex 0.845129 -7.975076 1.107417
endloop
endfacet
facet normal -0.000000 0.994127 -0.108218
outer loop
vertex 0.560468 -7.974498 1.112722
vertex 0.615279 -7.966282 1.188202
vertex 0.845129 -7.975076 1.107417
endloop
endfacet
facet normal -0.000000 0.994127 -0.108216
outer loop
vertex 0.503211 -7.982786 1.036586
vertex 0.560468 -7.974498 1.112722
vertex 0.845129 -7.975076 1.107417
endloop
endfacet
facet normal -0.000000 0.994128 -0.108213
outer loop
vertex 0.503211 -7.982786 1.036586
vertex 0.845129 -7.975076 1.107417
vertex 0.764689 -7.986347 1.003876
endloop
endfacet
facet normal -0.000000 0.994127 -0.108219
outer loop
vertex 0.444235 -7.991085 0.960353
vertex 0.503211 -7.982786 1.036586
vertex 0.764689 -7.986347 1.003876
endloop
endfacet
facet normal -0.000000 0.994127 -0.108221
outer loop
vertex 0.444235 -7.991085 0.960353
vertex 0.764689 -7.986347 1.003876
vertex 0.674151 -7.998505 0.892189
endloop
endfacet
facet normal 0.000000 0.994129 -0.108205
outer loop
vertex 0.384269 -7.999332 0.884583
vertex 0.444235 -7.991085 0.960353
vertex 0.674151 -7.998505 0.892189
endloop
endfacet
facet normal 0.000000 0.994126 -0.108226
outer loop
vertex 0.384269 -7.999332 0.884583
vertex 0.674151 -7.998505 0.892189
vertex 0.573206 -8.011661 0.771333
endloop
endfacet
facet normal -0.000000 0.994126 -0.108226
outer loop
vertex 0.324040 -8.007469 0.809837
vertex 0.384269 -7.999332 0.884583
vertex 0.573206 -8.011661 0.771333
endloop
endfacet
facet normal 0.000000 0.994130 -0.108195
outer loop
vertex 0.264278 -8.015433 0.736673
vertex 0.324040 -8.007469 0.809837
vertex 0.573206 -8.011661 0.771333
endloop
endfacet
facet normal 0.000000 0.994128 -0.108211
outer loop
vertex 0.264278 -8.015433 0.736673
vertex 0.573206 -8.011661 0.771333
vertex 1.302995 -8.011661 0.771333
endloop
endfacet
facet normal 0.000000 0.994127 -0.108216
outer loop
vertex 0.264278 -8.015433 0.736673
vertex 1.302995 -8.011661 0.771333
vertex 1.302995 -8.039802 0.512820
endloop
endfacet
facet normal -0.000001 0.994126 -0.108228
outer loop
vertex 0.205710 -8.023165 0.665652
vertex 0.264278 -8.015433 0.736673
vertex 1.302995 -8.039802 0.512820
endloop
endfacet
facet normal 0.000000 0.994129 -0.108206
outer loop
vertex 0.149064 -8.030602 0.597334
vertex 0.205710 -8.023165 0.665652
vertex 1.302995 -8.039802 0.512820
endloop
endfacet
facet normal -0.000000 0.994129 -0.108197
outer loop
vertex 0.095068 -8.037683 0.532278
vertex 0.149064 -8.030602 0.597334
vertex 1.302995 -8.039802 0.512820
endloop
endfacet
facet normal 0.000000 0.994122 -0.108264
outer loop
vertex 0.095068 -8.039802 0.512820
vertex 0.095068 -8.037683 0.532278
vertex 1.302995 -8.039802 0.512820
endloop
endfacet
facet normal -0.032068 0.108162 0.993616
outer loop
vertex 0.546164 -8.358990 2.489870
vertex 0.584391 -8.358857 2.491089
vertex 0.584391 -7.830712 2.433597
endloop
endfacet
facet normal -0.032054 0.108162 0.993616
outer loop
vertex 0.546164 -8.358990 2.489870
vertex 0.584391 -7.830712 2.433597
vertex 0.546164 -7.830845 2.432378
endloop
endfacet
facet normal 0.059523 0.108025 0.992365
outer loop
vertex 0.584391 -8.358857 2.491089
vertex 0.668082 -8.359397 2.486128
vertex 0.668082 -7.831253 2.428636
endloop
endfacet
facet normal 0.059518 0.108025 0.992365
outer loop
vertex 0.584391 -8.358857 2.491089
vertex 0.668082 -7.831253 2.428636
vertex 0.584391 -7.830712 2.433597
endloop
endfacet
facet normal -0.097125 0.107705 0.989427
outer loop
vertex 0.508326 -8.359389 2.486199
vertex 0.546164 -8.358990 2.489870
vertex 0.546164 -7.830845 2.432378
endloop
endfacet
facet normal -0.097135 0.107705 0.989426
outer loop
vertex 0.508326 -8.359389 2.486199
vertex 0.546164 -7.830845 2.432378
vertex 0.508326 -7.831245 2.428707
endloop
endfacet
facet normal -0.162435 0.106780 0.980925
outer loop
vertex 0.470798 -8.360058 2.480057
vertex 0.508326 -8.359389 2.486199
vertex 0.508326 -7.831245 2.428707
endloop
endfacet
facet normal -0.162435 0.106780 0.980925
outer loop
vertex 0.470798 -8.360058 2.480057
vertex 0.508326 -7.831245 2.428707
vertex 0.470798 -7.831913 2.422565
endloop
endfacet
facet normal 0.182888 0.106393 0.977360
outer loop
vertex 0.668082 -8.359397 2.486128
vertex 0.746890 -8.360983 2.471554
vertex 0.746890 -7.832839 2.414062
endloop
endfacet
facet normal 0.182885 0.106392 0.977361
outer loop
vertex 0.668082 -8.359397 2.486128
vertex 0.746890 -7.832839 2.414062
vertex 0.668082 -7.831253 2.428636
endloop
endfacet
facet normal -0.226767 0.105398 0.968229
outer loop
vertex 0.433503 -8.360997 2.471425
vertex 0.470798 -8.360058 2.480057
vertex 0.470798 -7.831913 2.422565
endloop
endfacet
facet normal -0.226745 0.105398 0.968234
outer loop
vertex 0.433503 -8.360997 2.471425
vertex 0.470798 -7.831913 2.422565
vertex 0.433503 -7.832853 2.413933
endloop
endfacet
facet normal 0.308929 0.102924 0.945500
outer loop
vertex 0.746890 -8.360983 2.471554
vertex 0.820358 -8.363565 2.447830
vertex 0.820358 -7.835422 2.390338
endloop
endfacet
facet normal 0.308944 0.102924 0.945495
outer loop
vertex 0.746890 -8.360983 2.471554
vertex 0.820358 -7.835422 2.390338
vertex 0.746890 -7.832839 2.414062
endloop
endfacet
facet normal -0.288907 0.103603 0.951735
outer loop
vertex 0.396364 -8.362210 2.460284
vertex 0.433503 -8.360997 2.471425
vertex 0.433503 -7.832853 2.413933
endloop
endfacet
facet normal -0.288891 0.103603 0.951739
outer loop
vertex 0.396364 -8.362210 2.460284
vertex 0.433503 -7.832853 2.413933
vertex 0.396364 -7.834066 2.402792
endloop
endfacet
facet normal -0.347858 0.101459 0.932041
outer loop
vertex 0.359302 -8.363698 2.446614
vertex 0.396364 -8.362210 2.460284
vertex 0.396364 -7.834066 2.402792
endloop
endfacet
facet normal -0.347846 0.101459 0.932046
outer loop
vertex 0.359302 -8.363698 2.446614
vertex 0.396364 -7.834066 2.402792
vertex 0.359302 -7.835554 2.389122
endloop
endfacet
facet normal 0.434021 0.097493 0.895612
outer loop
vertex 0.820358 -8.363565 2.447830
vertex 0.888029 -8.367094 2.415419
vertex 0.888029 -7.838950 2.357927
endloop
endfacet
facet normal 0.434028 0.097493 0.895609
outer loop
vertex 0.820358 -8.363565 2.447830
vertex 0.888029 -7.838950 2.357927
vertex 0.820358 -7.835422 2.390338
endloop
endfacet
facet normal -0.402880 0.099046 0.909878
outer loop
vertex 0.322241 -8.365463 2.430396
vertex 0.359302 -8.363698 2.446614
vertex 0.359302 -7.835554 2.389122
endloop
endfacet
facet normal -0.402879 0.099046 0.909878
outer loop
vertex 0.322241 -8.365463 2.430396
vertex 0.359302 -7.835554 2.389122
vertex 0.322241 -7.837319 2.372904
endloop
endfacet
facet normal -0.453480 0.096450 0.886032
outer loop
vertex 0.285101 -8.367509 2.411610
vertex 0.322241 -8.365463 2.430396
vertex 0.322241 -7.837319 2.372904
endloop
endfacet
facet normal -0.453471 0.096451 0.886037
outer loop
vertex 0.285101 -8.367509 2.411610
vertex 0.322241 -7.837319 2.372904
vertex 0.285101 -7.839364 2.354118
endloop
endfacet
facet normal 0.554023 0.090091 0.827612
outer loop
vertex 0.888029 -8.367094 2.415419
vertex 0.949449 -8.371517 2.374785
vertex 0.949449 -7.843373 2.317294
endloop
endfacet
facet normal 0.554024 0.090091 0.827612
outer loop
vertex 0.888029 -8.367094 2.415419
vertex 0.949449 -7.843373 2.317294
vertex 0.888029 -7.838950 2.357927
endloop
endfacet
facet normal -0.499416 0.093755 0.861275
outer loop
vertex 0.247807 -8.369835 2.390238
vertex 0.285101 -8.367509 2.411610
vertex 0.285101 -7.839364 2.354118
endloop
endfacet
facet normal -0.499420 0.093755 0.861272
outer loop
vertex 0.247807 -8.369835 2.390238
vertex 0.285101 -7.839364 2.354118
vertex 0.247807 -7.841691 2.332746
endloop
endfacet
facet normal -0.540679 0.091035 0.836289
outer loop
vertex 0.210279 -8.372445 2.366260
vertex 0.247807 -8.369835 2.390238
vertex 0.247807 -7.841691 2.332746
endloop
endfacet
facet normal -0.540677 0.091036 0.836290
outer loop
vertex 0.210279 -8.372445 2.366260
vertex 0.247807 -7.841691 2.332746
vertex 0.210279 -7.844301 2.308768
endloop
endfacet
facet normal 0.664730 0.080848 0.742696
outer loop
vertex 0.949449 -8.371517 2.374785
vertex 1.004159 -8.376785 2.326391
vertex 1.004159 -7.848641 2.268899
endloop
endfacet
facet normal 0.664731 0.080847 0.742695
outer loop
vertex 0.949449 -8.371517 2.374785
vertex 1.004159 -7.848641 2.268899
vertex 0.949449 -7.843373 2.317294
endloop
endfacet
facet normal -0.577412 0.088354 0.811658
outer loop
vertex 0.172441 -8.375341 2.339656
vertex 0.210279 -8.372445 2.366260
vertex 0.210279 -7.844301 2.308768
endloop
endfacet
facet normal -0.577428 0.088353 0.811647
outer loop
vertex 0.172441 -8.375341 2.339656
vertex 0.210279 -7.844301 2.308768
vertex 0.172441 -7.847197 2.282164
endloop
endfacet
facet normal -0.609915 0.085759 0.787813
outer loop
vertex 0.134214 -8.378525 2.310408
vertex 0.172441 -8.375341 2.339656
vertex 0.172441 -7.847197 2.282164
endloop
endfacet
facet normal -0.609913 0.085759 0.787814
outer loop
vertex 0.134214 -8.378525 2.310408
vertex 0.172441 -7.847197 2.282164
vertex 0.134214 -7.850381 2.252916
endloop
endfacet
facet normal 0.762417 0.070026 0.643286
outer loop
vertex 1.004159 -8.376785 2.326391
vertex 1.051705 -8.382848 2.270701
vertex 1.051705 -7.854703 2.213209
endloop
endfacet
facet normal 0.762418 0.070026 0.643284
outer loop
vertex 1.004159 -8.376785 2.326391
vertex 1.051705 -7.854703 2.213209
vertex 1.004159 -7.848641 2.268899
endloop
endfacet
facet normal -1.000000 -0.000000 0.000000
outer loop
vertex 0.134214 -8.415744 1.968504
vertex 0.134214 -8.378525 2.310408
vertex 0.134214 -7.850381 2.252916
endloop
endfacet
facet normal -1.000000 0.000000 0.000000
outer loop
vertex 0.134214 -8.415744 1.968504
vertex 0.134214 -7.850381 2.252916
vertex 0.134214 -7.887599 1.911012
endloop
endfacet
facet normal 0.770837 -0.068938 -0.633292
outer loop
vertex 0.172376 -8.410747 2.014411
vertex 0.134214 -8.415744 1.968504
vertex 0.134214 -7.887599 1.911012
endloop
endfacet
facet normal 0.770844 -0.068937 -0.633283
outer loop
vertex 0.172376 -8.410747 2.014411
vertex 0.134214 -7.887599 1.911012
vertex 0.172376 -7.882602 1.956919
endloop
endfacet
facet normal 0.735511 -0.073318 -0.673534
outer loop
vertex 0.209994 -8.406326 2.055010
vertex 0.172376 -8.410747 2.014411
vertex 0.172376 -7.882602 1.956919
endloop
endfacet
facet normal 0.735509 -0.073319 -0.673536
outer loop
vertex 0.209994 -8.406326 2.055010
vertex 0.172376 -7.882602 1.956919
vertex 0.209994 -7.878182 1.997518
endloop
endfacet
facet normal 0.693757 -0.077939 -0.715980
outer loop
vertex 0.247108 -8.402458 2.090550
vertex 0.209994 -8.406326 2.055010
vertex 0.209994 -7.878182 1.997518
endloop
endfacet
facet normal 0.693766 -0.077938 -0.715971
outer loop
vertex 0.247108 -8.402458 2.090550
vertex 0.209994 -7.878182 1.997518
vertex 0.247108 -7.874313 2.033059
endloop
endfacet
facet normal 0.644804 -0.082715 -0.759859
outer loop
vertex 0.283755 -8.399113 2.121285
vertex 0.247108 -8.402458 2.090550
vertex 0.247108 -7.874313 2.033059
endloop
endfacet
facet normal 0.644808 -0.082715 -0.759856
outer loop
vertex 0.283755 -8.399113 2.121285
vertex 0.247108 -7.874313 2.033059
vertex 0.283755 -7.870968 2.063793
endloop
endfacet
facet normal 0.588050 -0.087528 -0.804075
outer loop
vertex 0.319975 -8.396262 2.147464
vertex 0.283755 -8.399113 2.121285
vertex 0.283755 -7.870968 2.063793
endloop
endfacet
facet normal 0.588046 -0.087529 -0.804078
outer loop
vertex 0.319975 -8.396262 2.147464
vertex 0.283755 -7.870968 2.063793
vertex 0.319975 -7.868118 2.089972
endloop
endfacet
facet normal 0.523281 -0.092218 -0.847156
outer loop
vertex 0.355807 -8.393882 2.169338
vertex 0.319975 -8.396262 2.147464
vertex 0.319975 -7.868118 2.089972
endloop
endfacet
facet normal 0.523290 -0.092218 -0.847150
outer loop
vertex 0.355807 -8.393882 2.169338
vertex 0.319975 -7.868118 2.089972
vertex 0.355807 -7.865737 2.111846
endloop
endfacet
facet normal 0.450927 -0.096591 -0.887319
outer loop
vertex 0.391290 -8.391941 2.187159
vertex 0.355807 -8.393882 2.169338
vertex 0.355807 -7.865737 2.111846
endloop
endfacet
facet normal 0.450918 -0.096591 -0.887323
outer loop
vertex 0.391290 -8.391941 2.187159
vertex 0.355807 -7.865737 2.111846
vertex 0.391290 -7.863797 2.129667
endloop
endfacet
facet normal 0.372126 -0.100445 -0.922731
outer loop
vertex 0.426461 -8.390415 2.201176
vertex 0.391290 -8.391941 2.187159
vertex 0.391290 -7.863797 2.129667
endloop
endfacet
facet normal 0.372102 -0.100447 -0.922741
outer loop
vertex 0.426461 -8.390415 2.201176
vertex 0.391290 -7.863797 2.129667
vertex 0.426461 -7.862271 2.143684
endloop
endfacet
facet normal 0.288793 -0.103607 -0.951769
outer loop
vertex 0.461361 -8.389277 2.211642
vertex 0.426461 -8.390415 2.201176
vertex 0.426461 -7.862271 2.143684
endloop
endfacet
facet normal 0.288804 -0.103606 -0.951766
outer loop
vertex 0.461361 -8.389277 2.211642
vertex 0.426461 -7.862271 2.143684
vertex 0.461361 -7.861132 2.154150
endloop
endfacet
facet normal 0.203551 -0.105952 -0.973315
outer loop
vertex 0.496028 -8.388496 2.218807
vertex 0.461361 -8.389277 2.211642
vertex 0.461361 -7.861132 2.154150
endloop
endfacet
facet normal 0.203536 -0.105952 -0.973318
outer loop
vertex 0.496028 -8.388496 2.218807
vertex 0.461361 -7.861132 2.154150
vertex 0.496028 -7.860352 2.161315
endloop
endfacet
facet normal 0.119212 -0.107445 -0.987038
outer loop
vertex 0.530500 -8.388048 2.222921
vertex 0.496028 -8.388496 2.218807
vertex 0.496028 -7.860352 2.161315
endloop
endfacet
facet normal 0.119217 -0.107445 -0.987037
outer loop
vertex 0.530500 -8.388048 2.222921
vertex 0.496028 -7.860352 2.161315
vertex 0.530500 -7.859904 2.165430
endloop
endfacet
facet normal 0.038523 -0.108137 -0.993389
outer loop
vertex 0.564818 -8.387905 2.224237
vertex 0.530500 -8.388048 2.222921
vertex 0.530500 -7.859904 2.165430
endloop
endfacet
facet normal 0.038545 -0.108137 -0.993388
outer loop
vertex 0.564818 -8.387905 2.224237
vertex 0.530500 -7.859904 2.165430
vertex 0.564818 -7.859761 2.166745
endloop
endfacet
facet normal 0.844265 0.057996 0.532779
outer loop
vertex 1.051705 -8.382848 2.270701
vertex 1.091629 -8.389653 2.208177
vertex 1.091629 -7.861509 2.150685
endloop
endfacet
facet normal 0.844263 0.057997 0.532781
outer loop
vertex 1.051705 -8.382848 2.270701
vertex 1.091629 -7.861509 2.150685
vertex 1.051705 -7.854703 2.213209
endloop
endfacet
facet normal -0.066194 -0.107980 -0.991947
outer loop
vertex 0.610609 -8.388234 2.221218
vertex 0.564818 -8.387905 2.224237
vertex 0.564818 -7.859761 2.166745
endloop
endfacet
facet normal -0.066180 -0.107979 -0.991948
outer loop
vertex 0.610609 -8.388234 2.221218
vertex 0.564818 -7.859761 2.166745
vertex 0.610609 -7.860090 2.163726
endloop
endfacet
facet normal -0.200724 -0.106015 -0.973895
outer loop
vertex 0.654100 -8.389198 2.212359
vertex 0.610609 -8.388234 2.221218
vertex 0.610609 -7.860090 2.163726
endloop
endfacet
facet normal -0.200719 -0.106015 -0.973896
outer loop
vertex 0.654100 -8.389198 2.212359
vertex 0.610609 -7.860090 2.163726
vertex 0.654100 -7.861054 2.154867
endloop
endfacet
facet normal -0.334047 -0.102000 -0.937021
outer loop
vertex 0.694969 -8.390765 2.197960
vertex 0.654100 -8.389198 2.212359
vertex 0.654100 -7.861054 2.154867
endloop
endfacet
facet normal -0.334042 -0.102001 -0.937023
outer loop
vertex 0.694969 -8.390765 2.197960
vertex 0.654100 -7.861054 2.154867
vertex 0.694969 -7.862621 2.140468
endloop
endfacet
facet normal 0.908652 0.045186 0.415102
outer loop
vertex 1.091629 -8.389653 2.208177
vertex 1.123475 -8.397153 2.139282
vertex 1.123475 -7.869009 2.081790
endloop
endfacet
facet normal 0.908650 0.045187 0.415106
outer loop
vertex 1.091629 -8.389653 2.208177
vertex 1.123475 -7.869009 2.081790
vertex 1.091629 -7.861509 2.150685
endloop
endfacet
facet normal -0.461967 -0.095977 -0.881689
outer loop
vertex 0.732896 -8.392903 2.178320
vertex 0.694969 -8.390765 2.197960
vertex 0.694969 -7.862621 2.140468
endloop
endfacet
facet normal -0.461964 -0.095978 -0.881690
outer loop
vertex 0.732896 -8.392903 2.178320
vertex 0.694969 -7.862621 2.140468
vertex 0.732896 -7.864759 2.120829
endloop
endfacet
facet normal -0.580706 -0.088100 -0.809332
outer loop
vertex 0.767561 -8.395579 2.153739
vertex 0.732896 -8.392903 2.178320
vertex 0.732896 -7.864759 2.120829
endloop
endfacet
facet normal -0.580707 -0.088101 -0.809331
outer loop
vertex 0.767561 -8.395579 2.153739
vertex 0.732896 -7.864759 2.120829
vertex 0.767561 -7.867435 2.096247
endloop
endfacet
facet normal -0.687128 -0.078624 -0.722269
outer loop
vertex 0.798644 -8.398761 2.124515
vertex 0.767561 -8.395579 2.153739
vertex 0.767561 -7.867435 2.096247
endloop
endfacet
facet normal -0.687129 -0.078623 -0.722269
outer loop
vertex 0.798644 -8.398761 2.124515
vertex 0.767561 -7.867435 2.096247
vertex 0.798644 -7.870616 2.067023
endloop
endfacet
facet normal 0.955203 0.032027 0.294212
outer loop
vertex 1.123475 -8.397153 2.139282
vertex 1.146788 -8.405295 2.064481
vertex 1.146788 -7.877151 2.006989
endloop
endfacet
facet normal 0.955204 0.032026 0.294211
outer loop
vertex 1.123475 -8.397153 2.139282
vertex 1.146788 -7.877151 2.006989
vertex 1.123475 -7.869009 2.081790
endloop
endfacet
facet normal -0.778978 -0.067858 -0.623369
outer loop
vertex 0.825824 -8.402414 2.090948
vertex 0.798644 -8.398761 2.124515
vertex 0.798644 -7.870616 2.067023
endloop
endfacet
facet normal -0.778986 -0.067857 -0.623359
outer loop
vertex 0.825824 -8.402414 2.090948
vertex 0.798644 -7.870616 2.067023
vertex 0.825824 -7.874270 2.033456
endloop
endfacet
facet normal -0.854929 -0.056138 -0.515699
outer loop
vertex 0.848780 -8.406508 2.053337
vertex 0.825824 -8.402414 2.090948
vertex 0.825824 -7.874270 2.033456
endloop
endfacet
facet normal -0.854925 -0.056138 -0.515705
outer loop
vertex 0.848780 -8.406508 2.053337
vertex 0.825824 -7.874270 2.033456
vertex 0.848780 -7.878365 1.995845
endloop
endfacet
facet normal 0.984621 0.018906 0.173677
outer loop
vertex 1.146788 -8.405295 2.064481
vertex 1.161110 -8.414031 1.984236
vertex 1.161110 -7.885887 1.926745
endloop
endfacet
facet normal 0.984621 0.018906 0.173676
outer loop
vertex 1.146788 -8.405295 2.064481
vertex 1.161110 -7.885887 1.926745
vertex 1.146788 -7.877151 2.006989
endloop
endfacet
facet normal -0.914433 -0.043800 -0.402360
outer loop
vertex 0.867193 -8.411011 2.011981
vertex 0.848780 -8.406508 2.053337
vertex 0.848780 -7.878365 1.995845
endloop
endfacet
facet normal -0.914436 -0.043799 -0.402354
outer loop
vertex 0.867193 -8.411011 2.011981
vertex 0.848780 -7.878365 1.995845
vertex 0.867193 -7.882866 1.954489
endloop
endfacet
facet normal -0.957659 -0.031156 -0.286214
outer loop
vertex 0.880741 -8.415888 1.967178
vertex 0.867193 -8.411011 2.011981
vertex 0.867193 -7.882866 1.954489
endloop
endfacet
facet normal -0.957659 -0.031156 -0.286214
outer loop
vertex 0.880741 -8.415888 1.967178
vertex 0.867193 -7.882866 1.954489
vertex 0.880741 -7.887743 1.909686
endloop
endfacet
facet normal 0.998387 0.006145 0.056445
outer loop
vertex 1.161110 -8.414031 1.984236
vertex 1.165985 -8.423308 1.899011
vertex 1.165985 -7.895164 1.841520
endloop
endfacet
facet normal 0.998387 0.006144 0.056445
outer loop
vertex 1.161110 -8.414031 1.984236
vertex 1.165985 -7.895164 1.841520
vertex 1.161110 -7.885887 1.926745
endloop
endfacet
facet normal -0.985294 -0.018491 -0.169863
outer loop
vertex 0.889105 -8.421107 1.919230
vertex 0.880741 -8.415888 1.967178
vertex 0.880741 -7.887743 1.909686
endloop
endfacet
facet normal -0.985294 -0.018490 -0.169862
outer loop
vertex 0.889105 -8.421107 1.919230
vertex 0.880741 -7.887743 1.909686
vertex 0.889105 -7.892963 1.861738
endloop
endfacet
facet normal -0.998438 -0.006046 -0.055543
outer loop
vertex 0.891965 -8.426637 1.868435
vertex 0.889105 -8.421107 1.919230
vertex 0.889105 -7.892963 1.861738
endloop
endfacet
facet normal -0.998438 -0.006046 -0.055543
outer loop
vertex 0.891965 -8.426637 1.868435
vertex 0.889105 -7.892963 1.861738
vertex 0.891965 -7.898492 1.810943
endloop
endfacet
facet normal 0.998933 -0.004999 -0.045918
outer loop
vertex 1.165985 -8.423308 1.899011
vertex 1.162438 -8.431610 1.822747
vertex 1.162438 -7.903466 1.765255
endloop
endfacet
facet normal 0.998933 -0.004998 -0.045918
outer loop
vertex 1.165985 -8.423308 1.899011
vertex 1.162438 -7.903466 1.765255
vertex 1.165985 -7.895164 1.841520
endloop
endfacet
facet normal -0.999708 0.002614 0.024012
outer loop
vertex 0.891033 -8.430811 1.830085
vertex 0.891965 -8.426637 1.868435
vertex 0.891965 -7.898492 1.810943
endloop
endfacet
facet normal -0.999708 0.002614 0.024012
outer loop
vertex 0.891033 -8.430811 1.830085
vertex 0.891965 -7.898492 1.810943
vertex 0.891033 -7.902667 1.772593
endloop
endfacet
facet normal -0.997050 0.008306 0.076300
outer loop
vertex 0.888236 -8.434742 1.793975
vertex 0.891033 -8.430811 1.830085
vertex 0.891033 -7.902667 1.772593
endloop
endfacet
facet normal -0.997050 0.008305 0.076300
outer loop
vertex 0.888236 -8.434742 1.793975
vertex 0.891033 -7.902667 1.772593
vertex 0.888236 -7.906598 1.736483
endloop
endfacet
facet normal 0.989874 -0.015361 -0.141114
outer loop
vertex 1.162438 -8.431610 1.822747
vertex 1.151590 -8.439796 1.747543
vertex 1.151590 -7.911652 1.690052
endloop
endfacet
facet normal 0.989874 -0.015361 -0.141113
outer loop
vertex 1.162438 -8.431610 1.822747
vertex 1.151590 -7.911652 1.690052
vertex 1.162438 -7.903466 1.765255
endloop
endfacet
facet normal -0.990999 0.014487 0.133082
outer loop
vertex 0.883576 -8.438476 1.759679
vertex 0.888236 -8.434742 1.793975
vertex 0.888236 -7.906598 1.736483
endloop
endfacet
facet normal -0.990999 0.014487 0.133081
outer loop
vertex 0.883576 -8.438476 1.759679
vertex 0.888236 -7.906598 1.736483
vertex 0.883576 -7.910331 1.702187
endloop
endfacet
facet normal -0.981123 0.020927 0.192250
outer loop
vertex 0.877052 -8.442058 1.726773
vertex 0.883576 -8.438476 1.759679
vertex 0.883576 -7.910331 1.702187
endloop
endfacet
facet normal -0.981123 0.020928 0.192250
outer loop
vertex 0.877052 -8.442058 1.726773
vertex 0.883576 -7.910331 1.702187
vertex 0.877052 -7.913913 1.669281
endloop
endfacet
facet normal 0.971465 -0.025667 -0.235788
outer loop
vertex 1.151590 -8.439796 1.747543
vertex 1.133130 -8.447979 1.672379
vertex 1.133130 -7.919834 1.614887
endloop
endfacet
facet normal 0.971465 -0.025667 -0.235788
outer loop
vertex 1.151590 -8.439796 1.747543
vertex 1.133130 -7.919834 1.614887
vertex 1.151590 -7.911652 1.690052
endloop
endfacet
facet normal -0.967567 0.027337 0.251131
outer loop
vertex 0.868664 -8.445535 1.694832
vertex 0.877052 -8.442058 1.726773
vertex 0.877052 -7.913913 1.669281
endloop
endfacet
facet normal -0.967568 0.027337 0.251127
outer loop
vertex 0.868664 -8.445535 1.694832
vertex 0.877052 -7.913913 1.669281
vertex 0.868664 -7.917390 1.637340
endloop
endfacet
facet normal -0.951149 0.033410 0.306920
outer loop
vertex 0.858411 -8.448953 1.663431
vertex 0.868664 -8.445535 1.694832
vertex 0.868664 -7.917390 1.637340
endloop
endfacet
facet normal -0.951149 0.033410 0.306920
outer loop
vertex 0.858411 -8.448953 1.663431
vertex 0.868664 -7.917390 1.637340
vertex 0.858411 -7.920808 1.605940
endloop
endfacet
facet normal 0.945493 -0.035240 -0.323730
outer loop
vertex 1.133130 -8.447979 1.672379
vertex 1.106748 -8.456268 1.596230
vertex 1.106748 -7.928123 1.538738
endloop
endfacet
facet normal 0.945493 -0.035240 -0.323732
outer loop
vertex 1.133130 -8.447979 1.672379
vertex 1.106748 -7.928123 1.538738
vertex 1.133130 -7.919834 1.614887
endloop
endfacet
facet normal -0.933218 0.038884 0.357201
outer loop
vertex 0.846295 -8.452358 1.632147
vertex 0.858411 -8.448953 1.663431
vertex 0.858411 -7.920808 1.605940
endloop
endfacet
facet normal -0.933216 0.038884 0.357205
outer loop
vertex 0.846295 -8.452358 1.632147
vertex 0.858411 -7.920808 1.605940
vertex 0.846295 -7.924214 1.574655
endloop
endfacet
facet normal -0.915343 0.043576 0.400310
outer loop
vertex 0.832314 -8.455797 1.600553
vertex 0.846295 -8.452358 1.632147
vertex 0.846295 -7.924214 1.574655
endloop
endfacet
facet normal -0.915344 0.043576 0.400307
outer loop
vertex 0.832314 -8.455797 1.600553
vertex 0.846295 -7.924214 1.574655
vertex 0.832314 -7.927653 1.543061
endloop
endfacet
facet normal -0.898960 0.047402 0.435458
outer loop
vertex 0.816469 -8.459316 1.568226
vertex 0.832314 -8.455797 1.600553
vertex 0.832314 -7.927653 1.543061
endloop
endfacet
facet normal -0.898960 0.047402 0.435459
outer loop
vertex 0.816469 -8.459316 1.568226
vertex 0.832314 -7.927653 1.543061
vertex 0.816469 -7.931172 1.510735
endloop
endfacet
facet normal 0.915217 -0.043608 -0.400594
outer loop
vertex 1.106748 -8.456268 1.596230
vertex 1.072134 -8.464776 1.518073
vertex 1.072134 -7.936632 1.460581
endloop
endfacet
facet normal 0.915217 -0.043607 -0.400594
outer loop
vertex 1.106748 -8.456268 1.596230
vertex 1.072134 -7.936632 1.460581
vertex 1.106748 -7.928123 1.538738
endloop
endfacet
facet normal -0.885124 0.050359 0.462622
outer loop
vertex 0.798760 -8.462961 1.534741
vertex 0.816469 -8.459316 1.568226
vertex 0.816469 -7.931172 1.510735
endloop
endfacet
facet normal -0.885125 0.050359 0.462621
outer loop
vertex 0.798760 -8.462961 1.534741
vertex 0.816469 -7.931172 1.510735
vertex 0.798760 -7.934817 1.477249
endloop
endfacet
facet normal -0.874413 0.052505 0.482333
outer loop
vertex 0.779188 -8.466779 1.499673
vertex 0.798760 -8.462961 1.534741
vertex 0.798760 -7.934817 1.477249
endloop
endfacet
facet normal -0.874415 0.052505 0.482329
outer loop
vertex 0.779188 -8.466779 1.499673
vertex 0.798760 -7.934817 1.477249
vertex 0.779188 -7.938634 1.442181
endloop
endfacet
facet normal 0.884132 -0.050563 -0.464494
outer loop
vertex 1.072134 -8.464776 1.518073
vertex 1.028975 -8.473614 1.436885
vertex 1.028975 -7.945469 1.379394
endloop
endfacet
facet normal 0.884131 -0.050563 -0.464495
outer loop
vertex 1.072134 -8.464776 1.518073
vertex 1.028975 -7.945469 1.379394
vertex 1.072134 -7.936632 1.460581
endloop
endfacet
facet normal -0.866980 0.053929 0.495416
outer loop
vertex 0.757751 -8.470815 1.462598
vertex 0.779188 -8.466779 1.499673
vertex 0.779188 -7.938634 1.442181
endloop
endfacet
facet normal -0.866980 0.053929 0.495416
outer loop
vertex 0.757751 -8.470815 1.462598
vertex 0.779188 -7.938634 1.442181
vertex 0.757751 -7.942670 1.405106
endloop
endfacet
facet normal -0.853401 0.056409 0.518194
outer loop
vertex 0.714648 -8.478451 1.392445
vertex 0.757751 -8.470815 1.462598
vertex 0.757751 -7.942670 1.405106
endloop
endfacet
facet normal -0.853400 0.056409 0.518196
outer loop
vertex 0.714648 -8.478451 1.392445
vertex 0.757751 -7.942670 1.405106
vertex 0.714648 -7.950307 1.334954
endloop
endfacet
facet normal 0.854992 -0.056126 -0.515596
outer loop
vertex 1.028975 -8.473614 1.436885
vertex 0.976962 -8.482892 1.351644
vertex 0.976962 -7.954748 1.294152
endloop
endfacet
facet normal 0.854991 -0.056126 -0.515597
outer loop
vertex 1.028975 -8.473614 1.436885
vertex 0.976962 -7.954748 1.294152
vertex 1.028975 -7.945469 1.379394
endloop
endfacet
facet normal -0.836668 0.059272 0.544494
outer loop
vertex 0.666915 -8.486341 1.319957
vertex 0.714648 -8.478451 1.392445
vertex 0.714648 -7.950307 1.334954
endloop
endfacet
facet normal -0.836668 0.059271 0.544493
outer loop
vertex 0.666915 -8.486341 1.319957
vertex 0.714648 -7.950307 1.334954
vertex 0.666915 -7.958198 1.262466
endloop
endfacet
facet normal 0.829468 -0.060445 -0.555273
outer loop
vertex 0.976962 -8.482892 1.351644
vertex 0.915783 -8.492724 1.261326
vertex 0.915783 -7.964580 1.203835
endloop
endfacet
facet normal 0.829470 -0.060445 -0.555271
outer loop
vertex 0.976962 -8.482892 1.351644
vertex 0.915783 -7.964580 1.203835
vertex 0.976962 -7.954748 1.294152
endloop
endfacet
facet normal -0.822609 0.061533 0.565268
outer loop
vertex 0.615279 -8.494426 1.245694
vertex 0.666915 -8.486341 1.319957
vertex 0.666915 -7.958198 1.262466
endloop
endfacet
facet normal -0.822610 0.061533 0.565267
outer loop
vertex 0.615279 -8.494426 1.245694
vertex 0.666915 -7.958198 1.262466
vertex 0.615279 -7.966282 1.188202
endloop
endfacet
facet normal 0.808269 -0.063719 -0.585355
outer loop
vertex 0.915783 -8.492724 1.261326
vertex 0.845129 -8.503220 1.164908
vertex 0.845129 -7.975076 1.107417
endloop
endfacet
facet normal 0.808269 -0.063719 -0.585356
outer loop
vertex 0.915783 -8.492724 1.261326
vertex 0.845129 -7.975076 1.107417
vertex 0.915783 -7.964580 1.203835
endloop
endfacet
facet normal -0.810805 0.063342 0.581879
outer loop
vertex 0.560468 -8.502643 1.170214
vertex 0.615279 -8.494426 1.245694
vertex 0.615279 -7.966282 1.188202
endloop
endfacet
facet normal -0.810802 0.063342 0.581883
outer loop
vertex 0.560468 -8.502643 1.170214
vertex 0.615279 -7.966282 1.188202
vertex 0.560468 -7.974498 1.112722
endloop
endfacet
facet normal -0.800914 0.064798 0.595262
outer loop
vertex 0.503211 -8.510930 1.094077
vertex 0.560468 -8.502643 1.170214
vertex 0.560468 -7.974498 1.112722
endloop
endfacet
facet normal -0.800913 0.064798 0.595265
outer loop
vertex 0.503211 -8.510930 1.094077
vertex 0.560468 -7.974498 1.112722
vertex 0.503211 -7.982786 1.036586
endloop
endfacet
facet normal 0.791436 -0.066148 -0.607663
outer loop
vertex 0.845129 -8.503220 1.164908
vertex 0.764689 -8.514491 1.061368
vertex 0.764689 -7.986347 1.003876
endloop
endfacet
facet normal 0.791436 -0.066148 -0.607663
outer loop
vertex 0.845129 -8.503220 1.164908
vertex 0.764689 -7.986347 1.003876
vertex 0.845129 -7.975076 1.107417
endloop
endfacet
facet normal -0.792680 0.065973 0.606058
outer loop
vertex 0.444235 -8.519229 1.017845
vertex 0.503211 -8.510930 1.094077
vertex 0.503211 -7.982786 1.036586
endloop
endfacet
facet normal -0.792679 0.065974 0.606059
outer loop
vertex 0.444235 -8.519229 1.017845
vertex 0.503211 -7.982786 1.036586
vertex 0.444235 -7.991085 0.960353
endloop
endfacet
facet normal 0.778633 -0.067904 -0.623795
outer loop
vertex 0.764689 -8.514491 1.061368
vertex 0.674151 -8.526649 0.949681
vertex 0.674151 -7.998505 0.892189
endloop
endfacet
facet normal 0.778631 -0.067904 -0.623797
outer loop
vertex 0.764689 -8.514491 1.061368
vertex 0.674151 -7.998505 0.892189
vertex 0.764689 -7.986347 1.003876
endloop
endfacet
facet normal -0.785910 0.066915 0.614709
outer loop
vertex 0.384269 -8.527476 0.942075
vertex 0.444235 -8.519229 1.017845
vertex 0.444235 -7.991085 0.960353
endloop
endfacet
facet normal -0.785911 0.066915 0.614709
outer loop
vertex 0.384269 -8.527476 0.942075
vertex 0.444235 -7.991085 0.960353
vertex 0.384269 -7.999332 0.884583
endloop
endfacet
facet normal 0.769350 -0.069132 -0.635075
outer loop
vertex 0.674151 -8.526649 0.949681
vertex 0.573206 -8.539804 0.828825
vertex 0.573206 -8.011661 0.771333
endloop
endfacet
facet normal 0.769351 -0.069132 -0.635075
outer loop
vertex 0.674151 -8.526649 0.949681
vertex 0.573206 -8.011661 0.771333
vertex 0.674151 -7.998505 0.892189
endloop
endfacet
facet normal -0.780474 0.067656 0.621517
outer loop
vertex 0.324040 -8.535613 0.867329
vertex 0.384269 -8.527476 0.942075
vertex 0.384269 -7.999332 0.884583
endloop
endfacet
facet normal -0.780475 0.067656 0.621516
outer loop
vertex 0.324040 -8.535613 0.867329
vertex 0.384269 -7.999332 0.884583
vertex 0.324040 -8.007469 0.809837
endloop
endfacet
facet normal -0.776291 0.068218 0.626673
outer loop
vertex 0.264278 -8.543577 0.794165
vertex 0.324040 -8.535613 0.867329
vertex 0.324040 -8.007469 0.809837
endloop
endfacet
facet normal -0.776291 0.068217 0.626673
outer loop
vertex 0.264278 -8.543577 0.794165
vertex 0.324040 -8.007469 0.809837
vertex 0.264278 -8.015433 0.736673
endloop
endfacet
facet normal 0.000000 0.108217 0.994127
outer loop
vertex 0.573206 -8.539804 0.828825
vertex 1.302995 -8.539804 0.828825
vertex 1.302995 -8.011661 0.771333
endloop
endfacet
facet normal 0.000000 0.108217 0.994127
outer loop
vertex 0.573206 -8.539804 0.828825
vertex 1.302995 -8.011661 0.771333
vertex 0.573206 -8.011661 0.771333
endloop
endfacet
facet normal 1.000000 0.000000 0.000000
outer loop
vertex 1.302995 -8.539804 0.828825
vertex 1.302995 -8.567945 0.570312
vertex 1.302995 -8.039802 0.512820
endloop
endfacet
facet normal 1.000000 0.000000 0.000000
outer loop
vertex 1.302995 -8.539804 0.828825
vertex 1.302995 -8.039802 0.512820
vertex 1.302995 -8.011661 0.771333
endloop
endfacet
facet normal -0.773336 0.068609 0.630273
outer loop
vertex 0.205710 -8.551309 0.723144
vertex 0.264278 -8.543577 0.794165
vertex 0.264278 -8.015433 0.736673
endloop
endfacet
facet normal -0.773336 0.068609 0.630273
outer loop
vertex 0.205710 -8.551309 0.723144
vertex 0.264278 -8.015433 0.736673
vertex 0.205710 -8.023165 0.665652
endloop
endfacet
facet normal -0.771647 0.068832 0.632316
outer loop
vertex 0.149064 -8.558745 0.654826
vertex 0.205710 -8.551309 0.723144
vertex 0.205710 -8.023165 0.665652
endloop
endfacet
facet normal -0.771648 0.068832 0.632315
outer loop
vertex 0.149064 -8.558745 0.654826
vertex 0.205710 -8.023165 0.665652
vertex 0.149064 -8.030602 0.597334
endloop
endfacet
facet normal -0.771332 0.068873 0.632696
outer loop
vertex 0.095068 -8.565827 0.589770
vertex 0.149064 -8.558745 0.654826
vertex 0.149064 -8.030602 0.597334
endloop
endfacet
facet normal -0.771333 0.068873 0.632694
outer loop
vertex 0.095068 -8.565827 0.589770
vertex 0.149064 -8.030602 0.597334
vertex 0.095068 -8.037683 0.532278
endloop
endfacet
facet normal -1.000000 -0.000000 0.000000
outer loop
vertex 0.095068 -8.567945 0.570312
vertex 0.095068 -8.565827 0.589770
vertex 0.095068 -8.037683 0.532278
endloop
endfacet
facet normal -1.000000 0.000000 0.000000
outer loop
vertex 0.095068 -8.567945 0.570312
vertex 0.095068 -8.037683 0.532278
vertex 0.095068 -8.039802 0.512820
endloop
endfacet
facet normal 0.000000 -0.108217 -0.994127
outer loop
vertex 1.302995 -8.567945 0.570312
vertex 0.095068 -8.567945 0.570312
vertex 0.095068 -8.039802 0.512820
endloop
endfacet
facet normal 0.000000 -0.108217 -0.994127
outer loop
vertex 1.302995 -8.567945 0.570312
vertex 0.095068 -8.039802 0.512820
vertex 1.302995 -8.039802 0.512820
endloop
endfacet
endsolid Exported from Blender-3.3.1
