solid Exported from Blender-3.3.1
facet normal 0.000001 -0.994127 0.108218
outer loop
vertex 0.282409 -8.468999 1.479276
vertex 0.531264 -8.388207 2.221457
vertex 0.282409 -8.361580 2.466072
endloop
endfacet
facet normal 0.000000 -0.994128 0.108210
outer loop
vertex 0.531264 -8.388207 2.221457
vertex 1.129635 -8.361580 2.466072
vertex 0.282409 -8.361580 2.466072
endloop
endfacet
facet normal 0.000000 -0.994127 0.108222
outer loop
vertex 0.531264 -8.388207 2.221457
vertex 1.129635 -8.388207 2.221457
vertex 1.129635 -8.361580 2.466072
endloop
endfacet
facet normal -0.000004 -0.994127 0.108222
outer loop
vertex 0.282409 -8.468999 1.479276
vertex 0.531264 -8.439951 1.746128
vertex 0.531264 -8.388207 2.221457
endloop
endfacet
facet normal 0.000006 -0.994115 0.108334
outer loop
vertex 0.531264 -8.439951 1.746128
vertex 0.732145 -8.441154 1.735073
vertex 0.635365 -8.439924 1.746367
endloop
endfacet
facet normal 0.000003 -0.994128 0.108209
outer loop
vertex 0.282409 -8.468999 1.479276
vertex 0.732145 -8.441154 1.735073
vertex 0.531264 -8.439951 1.746128
endloop
endfacet
facet normal -0.000001 -0.994131 0.108182
outer loop
vertex 0.282409 -8.468999 1.479276
vertex 0.821275 -8.443558 1.712988
vertex 0.732145 -8.441154 1.735073
endloop
endfacet
facet normal -0.000002 -0.994126 0.108231
outer loop
vertex 0.282409 -8.468999 1.479276
vertex 0.902424 -8.447056 1.680856
vertex 0.821275 -8.443558 1.712988
endloop
endfacet
facet normal -0.000001 -0.994120 0.108282
outer loop
vertex 0.282409 -8.468999 1.479276
vertex 0.975263 -8.451567 1.639419
vertex 0.902424 -8.447056 1.680856
endloop
endfacet
facet normal -0.000023 -0.994203 0.107521
outer loop
vertex 0.282409 -8.468999 1.479276
vertex 0.383665 -8.466923 1.498353
vertex 0.975263 -8.451567 1.639419
endloop
endfacet
facet normal -0.000000 -0.994129 0.108198
outer loop
vertex 0.383665 -8.466923 1.498353
vertex 1.039460 -8.457009 1.589422
vertex 0.975263 -8.451567 1.639419
endloop
endfacet
facet normal 0.000020 -0.994078 0.108666
outer loop
vertex 0.383665 -8.466923 1.498353
vertex 0.477542 -8.466078 1.506108
vertex 1.039460 -8.457009 1.589422
endloop
endfacet
facet normal -0.000000 -0.994128 0.108211
outer loop
vertex 0.477542 -8.466078 1.506108
vertex 1.094687 -8.463303 1.531606
vertex 1.039460 -8.457009 1.589422
endloop
endfacet
facet normal -0.000005 -0.994128 0.108208
outer loop
vertex 0.477542 -8.466078 1.506108
vertex 0.563769 -8.466375 1.503381
vertex 1.094687 -8.463303 1.531606
endloop
endfacet
facet normal 0.000000 -0.994129 0.108197
outer loop
vertex 0.563769 -8.466375 1.503381
vertex 1.140613 -8.470366 1.466716
vertex 1.094687 -8.463303 1.531606
endloop
endfacet
facet normal -0.000006 -0.994120 0.108288
outer loop
vertex 0.642074 -8.467721 1.491012
vertex 1.140613 -8.470366 1.466716
vertex 0.563769 -8.466375 1.503381
endloop
endfacet
facet normal -0.000000 -0.994131 0.108184
outer loop
vertex 0.712184 -8.470026 1.469841
vertex 1.140613 -8.470366 1.466716
vertex 0.642074 -8.467721 1.491012
endloop
endfacet
facet normal -0.000001 -0.994129 0.108199
outer loop
vertex 0.773828 -8.473197 1.440707
vertex 1.140613 -8.470366 1.466716
vertex 0.712184 -8.470026 1.469841
endloop
endfacet
facet normal -0.000001 -0.994126 0.108229
outer loop
vertex 0.773828 -8.473197 1.440707
vertex 1.176907 -8.478119 1.395494
vertex 1.140613 -8.470366 1.466716
endloop
endfacet
facet normal 0.000001 -0.994128 0.108209
outer loop
vertex 0.826734 -8.477144 1.404450
vertex 1.176907 -8.478119 1.395494
vertex 0.773828 -8.473197 1.440707
endloop
endfacet
facet normal 0.000001 -0.994127 0.108220
outer loop
vertex 0.870631 -8.481775 1.361910
vertex 1.176907 -8.478119 1.395494
vertex 0.826734 -8.477144 1.404450
endloop
endfacet
facet normal 0.000001 -0.994127 0.108223
outer loop
vertex 0.870631 -8.481775 1.361910
vertex 1.203241 -8.486481 1.318683
vertex 1.176907 -8.478119 1.395494
endloop
endfacet
facet normal 0.000000 -0.994127 0.108222
outer loop
vertex 0.905246 -8.486999 1.313927
vertex 1.203241 -8.486481 1.318683
vertex 0.870631 -8.481775 1.361910
endloop
endfacet
facet normal 0.000000 -0.994127 0.108223
outer loop
vertex 0.905246 -8.486999 1.313927
vertex 1.219283 -8.495369 1.237028
vertex 1.203241 -8.486481 1.318683
endloop
endfacet
facet normal -0.000001 -0.994135 0.108150
outer loop
vertex 0.930308 -8.492723 1.261339
vertex 1.219283 -8.495369 1.237028
vertex 0.905246 -8.486999 1.313927
endloop
endfacet
facet normal 0.000001 -0.994124 0.108248
outer loop
vertex 0.945544 -8.498857 1.204987
vertex 1.219283 -8.495369 1.237028
vertex 0.930308 -8.492723 1.261339
endloop
endfacet
facet normal 0.000002 -0.994124 0.108245
outer loop
vertex 0.945544 -8.498857 1.204987
vertex 1.224704 -8.504704 1.151270
vertex 1.219283 -8.495369 1.237028
endloop
endfacet
facet normal 0.000002 -0.994132 0.108171
outer loop
vertex 0.950683 -8.505310 1.145711
vertex 1.224704 -8.504704 1.151270
vertex 0.945544 -8.498857 1.204987
endloop
endfacet
facet normal 0.000002 -0.994125 0.108234
outer loop
vertex 0.950683 -8.505310 1.145711
vertex 1.219324 -8.514011 1.065772
vertex 1.224704 -8.504704 1.151270
endloop
endfacet
facet normal -0.000001 -0.994133 0.108164
outer loop
vertex 0.947038 -8.510301 1.099860
vertex 1.219324 -8.514011 1.065772
vertex 0.950683 -8.505310 1.145711
endloop
endfacet
facet normal 0.000001 -0.994125 0.108239
outer loop
vertex 0.936431 -8.515106 1.055718
vertex 1.219324 -8.514011 1.065772
vertex 0.947038 -8.510301 1.099860
endloop
endfacet
facet normal 0.000001 -0.994126 0.108230
outer loop
vertex 0.936431 -8.515106 1.055718
vertex 1.203565 -8.522829 0.984771
vertex 1.219324 -8.514011 1.065772
endloop
endfacet
facet normal 0.000001 -0.994126 0.108224
outer loop
vertex 0.919358 -8.519678 1.013718
vertex 1.203565 -8.522829 0.984771
vertex 0.936431 -8.515106 1.055718
endloop
endfacet
facet normal 0.000001 -0.994132 0.108175
outer loop
vertex 0.896314 -8.523970 0.974296
vertex 1.203565 -8.522829 0.984771
vertex 0.919358 -8.519678 1.013718
endloop
endfacet
facet normal 0.000001 -0.994128 0.108210
outer loop
vertex 0.896314 -8.523970 0.974296
vertex 1.178000 -8.531096 0.908828
vertex 1.203565 -8.522829 0.984771
endloop
endfacet
facet normal 0.000002 -0.994126 0.108229
outer loop
vertex 0.867795 -8.527933 0.937885
vertex 1.178000 -8.531096 0.908828
vertex 0.896314 -8.523970 0.974296
endloop
endfacet
facet normal 0.000018 -0.994128 0.108214
outer loop
vertex 0.139806 -8.557961 0.662042
vertex 0.174116 -8.529794 0.920788
vertex 0.139806 -8.527399 0.942792
endloop
endfacet
facet normal 0.000002 -0.994126 0.108229
outer loop
vertex 0.834294 -8.531522 0.904919
vertex 1.178000 -8.531096 0.908828
vertex 0.867795 -8.527933 0.937885
endloop
endfacet
facet normal 0.000003 -0.994127 0.108221
outer loop
vertex 0.139806 -8.557961 0.662042
vertex 0.208532 -8.531986 0.900646
vertex 0.174116 -8.529794 0.920788
endloop
endfacet
facet normal 0.000002 -0.994126 0.108232
outer loop
vertex 0.834294 -8.531522 0.904919
vertex 1.143202 -8.538752 0.838502
vertex 1.178000 -8.531096 0.908828
endloop
endfacet
facet normal -0.000005 -0.994132 0.108174
outer loop
vertex 0.796309 -8.534687 0.875833
vertex 1.143202 -8.538752 0.838502
vertex 0.834294 -8.531522 0.904919
endloop
endfacet
facet normal -0.000015 -0.994126 0.108226
outer loop
vertex 0.139806 -8.557961 0.662042
vertex 0.243045 -8.533976 0.882377
vertex 0.208532 -8.531986 0.900646
endloop
endfacet
facet normal 0.000011 -0.994128 0.108211
outer loop
vertex 0.139806 -8.557961 0.662042
vertex 0.277645 -8.535759 0.865990
vertex 0.243045 -8.533976 0.882377
endloop
endfacet
facet normal -0.000000 -0.994124 0.108245
outer loop
vertex 0.754333 -8.537384 0.851062
vertex 1.143202 -8.538752 0.838502
vertex 0.796309 -8.534687 0.875833
endloop
endfacet
facet normal -0.000008 -0.994125 0.108239
outer loop
vertex 0.139806 -8.557961 0.662042
vertex 0.312323 -8.537337 0.851495
vertex 0.277645 -8.535759 0.865990
endloop
endfacet
facet normal 0.000011 -0.994129 0.108196
outer loop
vertex 0.139806 -8.557961 0.662042
vertex 0.347069 -8.538708 0.838901
vertex 0.312323 -8.537337 0.851495
endloop
endfacet
facet normal -0.000001 -0.994126 0.108224
outer loop
vertex 0.708862 -8.539563 0.831040
vertex 1.143202 -8.538752 0.838502
vertex 0.754333 -8.537384 0.851062
endloop
endfacet
facet normal -0.000012 -0.994125 0.108235
outer loop
vertex 0.139806 -8.557961 0.662042
vertex 0.381874 -8.539871 0.828218
vertex 0.347069 -8.538708 0.838901
endloop
endfacet
facet normal -0.000002 -0.994130 0.108192
outer loop
vertex 0.708862 -8.539563 0.831040
vertex 1.099744 -8.545734 0.774353
vertex 1.143202 -8.538752 0.838502
endloop
endfacet
facet normal 0.000000 -0.994118 0.108302
outer loop
vertex 0.660391 -8.541179 0.816200
vertex 1.099744 -8.545734 0.774353
vertex 0.708862 -8.539563 0.831040
endloop
endfacet
facet normal 0.000003 -0.994123 0.108253
outer loop
vertex 0.139806 -8.557961 0.662042
vertex 0.416727 -8.540825 0.819456
vertex 0.381874 -8.539871 0.828218
endloop
endfacet
facet normal 0.000017 -0.994127 0.108217
outer loop
vertex 0.139806 -8.557961 0.662042
vertex 0.451618 -8.541568 0.812624
vertex 0.416727 -8.540825 0.819456
endloop
endfacet
facet normal 0.000001 -0.994135 0.108144
outer loop
vertex 0.609415 -8.542183 0.806978
vertex 1.099744 -8.545734 0.774353
vertex 0.660391 -8.541179 0.816200
endloop
endfacet
facet normal -0.000013 -0.994137 0.108129
outer loop
vertex 0.139806 -8.557961 0.662042
vertex 0.486539 -8.542101 0.807732
vertex 0.451618 -8.541568 0.812624
endloop
endfacet
facet normal -0.000004 -0.994123 0.108257
outer loop
vertex 0.139806 -8.557961 0.662042
vertex 0.521479 -8.542421 0.804790
vertex 0.486539 -8.542101 0.807732
endloop
endfacet
facet normal 0.000001 -0.994120 0.108284
outer loop
vertex 0.556429 -8.542528 0.803807
vertex 1.099744 -8.545734 0.774353
vertex 0.609415 -8.542183 0.806978
endloop
endfacet
facet normal 0.000005 -0.994130 0.108188
outer loop
vertex 0.139806 -8.557961 0.662042
vertex 0.556429 -8.542528 0.803807
vertex 0.521479 -8.542421 0.804790
endloop
endfacet
facet normal 0.000000 -0.994125 0.108234
outer loop
vertex 0.139806 -8.557961 0.662042
vertex 1.099744 -8.545734 0.774353
vertex 0.556429 -8.542528 0.803807
endloop
endfacet
facet normal 0.000001 -0.994131 0.108180
outer loop
vertex 0.139806 -8.557961 0.662042
vertex 1.048198 -8.551984 0.716941
vertex 1.099744 -8.545734 0.774353
endloop
endfacet
facet normal 0.000001 -0.994129 0.108198
outer loop
vertex 0.139806 -8.557961 0.662042
vertex 0.989138 -8.557439 0.666826
vertex 1.048198 -8.551984 0.716941
endloop
endfacet
facet normal 0.000001 -0.994124 0.108246
outer loop
vertex 0.139806 -8.557961 0.662042
vertex 0.923136 -8.562039 0.624568
vertex 0.989138 -8.557439 0.666826
endloop
endfacet
facet normal -0.000001 -0.994128 0.108209
outer loop
vertex 0.180389 -8.560117 0.642227
vertex 0.923136 -8.562039 0.624568
vertex 0.139806 -8.557961 0.662042
endloop
endfacet
facet normal 0.000000 -0.994124 0.108244
outer loop
vertex 0.219807 -8.562054 0.624439
vertex 0.923136 -8.562039 0.624568
vertex 0.180389 -8.560117 0.642227
endloop
endfacet
facet normal 0.000000 -0.994124 0.108248
outer loop
vertex 0.219807 -8.562054 0.624439
vertex 0.850765 -8.565723 0.590725
vertex 0.923136 -8.562039 0.624568
endloop
endfacet
facet normal -0.000002 -0.994141 0.108087
outer loop
vertex 0.258292 -8.563775 0.608620
vertex 0.850765 -8.565723 0.590725
vertex 0.219807 -8.562054 0.624439
endloop
endfacet
facet normal 0.000000 -0.994119 0.108292
outer loop
vertex 0.296079 -8.565289 0.594711
vertex 0.850765 -8.565723 0.590725
vertex 0.258292 -8.563775 0.608620
endloop
endfacet
facet normal -0.000000 -0.994132 0.108178
outer loop
vertex 0.333399 -8.566602 0.582656
vertex 0.850765 -8.565723 0.590725
vertex 0.296079 -8.565289 0.594711
endloop
endfacet
facet normal 0.000000 -0.994117 0.108316
outer loop
vertex 0.333399 -8.566602 0.582656
vertex 0.772599 -8.568430 0.565859
vertex 0.850765 -8.565723 0.590725
endloop
endfacet
facet normal 0.000000 -0.994147 0.108039
outer loop
vertex 0.370487 -8.567719 0.572397
vertex 0.772599 -8.568430 0.565859
vertex 0.333399 -8.566602 0.582656
endloop
endfacet
facet normal 0.000001 -0.994127 0.108218
outer loop
vertex 0.407574 -8.568646 0.563874
vertex 0.772599 -8.568430 0.565859
vertex 0.370487 -8.567719 0.572397
endloop
endfacet
facet normal 0.000001 -0.994138 0.108115
outer loop
vertex 0.407574 -8.568646 0.563874
vertex 0.689208 -8.570099 0.550529
vertex 0.772599 -8.568430 0.565859
endloop
endfacet
facet normal 0.000000 -0.994065 0.108785
outer loop
vertex 0.444895 -8.569391 0.557031
vertex 0.689208 -8.570099 0.550529
vertex 0.407574 -8.568646 0.563874
endloop
endfacet
facet normal 0.000001 -0.994184 0.107698
outer loop
vertex 0.482681 -8.569960 0.551809
vertex 0.689208 -8.570099 0.550529
vertex 0.444895 -8.569391 0.557031
endloop
endfacet
facet normal -0.000000 -0.994107 0.108404
outer loop
vertex 0.521167 -8.570357 0.548151
vertex 0.689208 -8.570099 0.550529
vertex 0.482681 -8.569960 0.551809
endloop
endfacet
facet normal -0.000005 -0.994148 0.108030
outer loop
vertex 0.521167 -8.570357 0.548151
vertex 0.601167 -8.570669 0.545294
vertex 0.689208 -8.570099 0.550529
endloop
endfacet
facet normal -0.000017 -0.993998 0.109396
outer loop
vertex 0.560585 -8.570592 0.545999
vertex 0.601167 -8.570669 0.545294
vertex 0.521167 -8.570357 0.548151
endloop
endfacet
facet normal -0.000001 0.994127 -0.108218
outer loop
vertex 0.282409 -7.940855 1.421784
vertex 0.282409 -7.833436 2.408580
vertex 0.531264 -7.860064 2.163966
endloop
endfacet
facet normal 0.000000 0.994128 -0.108214
outer loop
vertex 0.531264 -7.860064 2.163966
vertex 0.282409 -7.833436 2.408580
vertex 1.129635 -7.833436 2.408580
endloop
endfacet
facet normal 0.000000 0.994127 -0.108215
outer loop
vertex 0.531264 -7.860064 2.163966
vertex 1.129635 -7.833436 2.408580
vertex 1.129635 -7.860064 2.163966
endloop
endfacet
facet normal 0.000000 0.994127 -0.108216
outer loop
vertex 0.282409 -7.940855 1.421784
vertex 0.531264 -7.860064 2.163966
vertex 0.531264 -7.911806 1.688636
endloop
endfacet
facet normal 0.000003 0.994115 -0.108333
outer loop
vertex 0.531264 -7.911806 1.688636
vertex 0.635365 -7.911780 1.688876
vertex 0.732145 -7.913010 1.677581
endloop
endfacet
facet normal 0.000001 0.994127 -0.108217
outer loop
vertex 0.282409 -7.940855 1.421784
vertex 0.531264 -7.911806 1.688636
vertex 0.732145 -7.913010 1.677581
endloop
endfacet
facet normal 0.000001 0.994131 -0.108181
outer loop
vertex 0.282409 -7.940855 1.421784
vertex 0.732145 -7.913010 1.677581
vertex 0.821275 -7.915414 1.655496
endloop
endfacet
facet normal -0.000001 0.994127 -0.108221
outer loop
vertex 0.282409 -7.940855 1.421784
vertex 0.821275 -7.915414 1.655496
vertex 0.902424 -7.918911 1.623364
endloop
endfacet
facet normal 0.000002 0.994123 -0.108253
outer loop
vertex 0.282409 -7.940855 1.421784
vertex 0.902424 -7.918911 1.623364
vertex 0.975263 -7.923422 1.581928
endloop
endfacet
facet normal -0.000002 0.994135 -0.108149
outer loop
vertex 0.282409 -7.940855 1.421784
vertex 0.975263 -7.923422 1.581928
vertex 0.383665 -7.938778 1.440861
endloop
endfacet
facet normal -0.000001 0.994128 -0.108207
outer loop
vertex 0.383665 -7.938778 1.440861
vertex 0.975263 -7.923422 1.581928
vertex 1.039460 -7.928864 1.531930
endloop
endfacet
facet normal 0.000005 0.994108 -0.108393
outer loop
vertex 0.383665 -7.938778 1.440861
vertex 1.039460 -7.928864 1.531930
vertex 0.477542 -7.937934 1.448616
endloop
endfacet
facet normal 0.000000 0.994128 -0.108214
outer loop
vertex 0.477542 -7.937934 1.448616
vertex 1.039460 -7.928864 1.531930
vertex 1.094687 -7.935158 1.474114
endloop
endfacet
facet normal -0.000001 0.994154 -0.107968
outer loop
vertex 0.477542 -7.937934 1.448616
vertex 1.094687 -7.935158 1.474114
vertex 0.563769 -7.938231 1.445889
endloop
endfacet
facet normal 0.000000 0.994126 -0.108231
outer loop
vertex 0.563769 -7.938231 1.445889
vertex 1.094687 -7.935158 1.474114
vertex 1.140613 -7.942222 1.409224
endloop
endfacet
facet normal -0.000001 0.994120 -0.108286
outer loop
vertex 0.642074 -7.939577 1.433520
vertex 0.563769 -7.938231 1.445889
vertex 1.140613 -7.942222 1.409224
endloop
endfacet
facet normal 0.000001 0.994131 -0.108184
outer loop
vertex 0.712184 -7.941882 1.412349
vertex 0.642074 -7.939577 1.433520
vertex 1.140613 -7.942222 1.409224
endloop
endfacet
facet normal 0.000001 0.994125 -0.108237
outer loop
vertex 0.773828 -7.945053 1.383215
vertex 0.712184 -7.941882 1.412349
vertex 1.140613 -7.942222 1.409224
endloop
endfacet
facet normal 0.000000 0.994128 -0.108207
outer loop
vertex 0.773828 -7.945053 1.383215
vertex 1.140613 -7.942222 1.409224
vertex 1.176907 -7.949975 1.338002
endloop
endfacet
facet normal 0.000000 0.994124 -0.108248
outer loop
vertex 0.826734 -7.949000 1.346959
vertex 0.773828 -7.945053 1.383215
vertex 1.176907 -7.949975 1.338002
endloop
endfacet
facet normal 0.000000 0.994127 -0.108220
outer loop
vertex 0.870631 -7.953631 1.304419
vertex 0.826734 -7.949000 1.346959
vertex 1.176907 -7.949975 1.338002
endloop
endfacet
facet normal -0.000000 0.994129 -0.108199
outer loop
vertex 0.870631 -7.953631 1.304419
vertex 1.176907 -7.949975 1.338002
vertex 1.203241 -7.958336 1.261192
endloop
endfacet
facet normal -0.000000 0.994127 -0.108221
outer loop
vertex 0.905246 -7.958854 1.256435
vertex 0.870631 -7.953631 1.304419
vertex 1.203241 -7.958336 1.261192
endloop
endfacet
facet normal -0.000000 0.994127 -0.108217
outer loop
vertex 0.905246 -7.958854 1.256435
vertex 1.203241 -7.958336 1.261192
vertex 1.219283 -7.967225 1.179536
endloop
endfacet
facet normal 0.000000 0.994128 -0.108214
outer loop
vertex 0.930308 -7.964579 1.203847
vertex 0.905246 -7.958854 1.256435
vertex 1.219283 -7.967225 1.179536
endloop
endfacet
facet normal 0.000000 0.994127 -0.108218
outer loop
vertex 0.945544 -7.970713 1.147495
vertex 0.930308 -7.964579 1.203847
vertex 1.219283 -7.967225 1.179536
endloop
endfacet
facet normal 0.000001 0.994127 -0.108223
outer loop
vertex 0.945544 -7.970713 1.147495
vertex 1.219283 -7.967225 1.179536
vertex 1.224704 -7.976560 1.093779
endloop
endfacet
facet normal 0.000000 0.994129 -0.108200
outer loop
vertex 0.950683 -7.977165 1.088219
vertex 0.945544 -7.970713 1.147495
vertex 1.224704 -7.976560 1.093779
endloop
endfacet
facet normal 0.000000 0.994129 -0.108206
outer loop
vertex 0.950683 -7.977165 1.088219
vertex 1.224704 -7.976560 1.093779
vertex 1.219324 -7.985868 1.008280
endloop
endfacet
facet normal -0.000001 0.994125 -0.108238
outer loop
vertex 0.947038 -7.982157 1.042369
vertex 0.950683 -7.977165 1.088219
vertex 1.219324 -7.985868 1.008280
endloop
endfacet
facet normal 0.000000 0.994125 -0.108239
outer loop
vertex 0.936431 -7.986962 0.998226
vertex 0.947038 -7.982157 1.042369
vertex 1.219324 -7.985868 1.008280
endloop
endfacet
facet normal 0.000000 0.994129 -0.108204
outer loop
vertex 0.936431 -7.986962 0.998226
vertex 1.219324 -7.985868 1.008280
vertex 1.203565 -7.994685 0.927279
endloop
endfacet
facet normal -0.000000 0.994126 -0.108224
outer loop
vertex 0.919358 -7.991534 0.956227
vertex 0.936431 -7.986962 0.998226
vertex 1.203565 -7.994685 0.927279
endloop
endfacet
facet normal 0.000000 0.994132 -0.108175
outer loop
vertex 0.896314 -7.995825 0.916804
vertex 0.919358 -7.991534 0.956227
vertex 1.203565 -7.994685 0.927279
endloop
endfacet
facet normal 0.000001 0.994126 -0.108231
outer loop
vertex 0.896314 -7.995825 0.916804
vertex 1.203565 -7.994685 0.927279
vertex 1.178000 -8.002952 0.851336
endloop
endfacet
facet normal -0.000001 0.994126 -0.108229
outer loop
vertex 0.867795 -7.999789 0.880393
vertex 0.896314 -7.995825 0.916804
vertex 1.178000 -8.002952 0.851336
endloop
endfacet
facet normal 0.000009 0.994127 -0.108220
outer loop
vertex 0.139806 -8.029816 0.604550
vertex 0.139806 -7.999254 0.885301
vertex 0.174116 -8.001650 0.863296
endloop
endfacet
facet normal 0.000000 0.994126 -0.108229
outer loop
vertex 0.834294 -8.003377 0.847427
vertex 0.867795 -7.999789 0.880393
vertex 1.178000 -8.002952 0.851336
endloop
endfacet
facet normal -0.000001 0.994128 -0.108209
outer loop
vertex 0.139806 -8.029816 0.604550
vertex 0.174116 -8.001650 0.863296
vertex 0.208532 -8.003842 0.843155
endloop
endfacet
facet normal 0.000001 0.994126 -0.108225
outer loop
vertex 0.834294 -8.003377 0.847427
vertex 1.178000 -8.002952 0.851336
vertex 1.143202 -8.010607 0.781010
endloop
endfacet
facet normal -0.000001 0.994128 -0.108215
outer loop
vertex 0.796309 -8.006543 0.818342
vertex 0.834294 -8.003377 0.847427
vertex 1.143202 -8.010607 0.781010
endloop
endfacet
facet normal -0.000007 0.994128 -0.108213
outer loop
vertex 0.139806 -8.029816 0.604550
vertex 0.208532 -8.003842 0.843155
vertex 0.243045 -8.005831 0.824885
endloop
endfacet
facet normal 0.000011 0.994128 -0.108211
outer loop
vertex 0.139806 -8.029816 0.604550
vertex 0.243045 -8.005831 0.824885
vertex 0.277645 -8.007615 0.808498
endloop
endfacet
facet normal -0.000002 0.994124 -0.108244
outer loop
vertex 0.754333 -8.009240 0.793570
vertex 0.796309 -8.006543 0.818342
vertex 1.143202 -8.010607 0.781010
endloop
endfacet
facet normal -0.000011 0.994125 -0.108239
outer loop
vertex 0.139806 -8.029816 0.604550
vertex 0.277645 -8.007615 0.808498
vertex 0.312323 -8.009192 0.794003
endloop
endfacet
facet normal 0.000010 0.994132 -0.108170
outer loop
vertex 0.139806 -8.029816 0.604550
vertex 0.312323 -8.009192 0.794003
vertex 0.347069 -8.010564 0.781409
endloop
endfacet
facet normal -0.000001 0.994133 -0.108169
outer loop
vertex 0.708862 -8.011419 0.773548
vertex 0.754333 -8.009240 0.793570
vertex 1.143202 -8.010607 0.781010
endloop
endfacet
facet normal -0.000007 0.994125 -0.108241
outer loop
vertex 0.139806 -8.029816 0.604550
vertex 0.347069 -8.010564 0.781409
vertex 0.381874 -8.011726 0.770726
endloop
endfacet
facet normal -0.000000 0.994125 -0.108241
outer loop
vertex 0.708862 -8.011419 0.773548
vertex 1.143202 -8.010607 0.781010
vertex 1.099744 -8.017591 0.716861
endloop
endfacet
facet normal 0.000000 0.994136 -0.108138
outer loop
vertex 0.660391 -8.013035 0.758708
vertex 0.708862 -8.011419 0.773548
vertex 1.099744 -8.017591 0.716861
endloop
endfacet
facet normal -0.000003 0.994126 -0.108231
outer loop
vertex 0.139806 -8.029816 0.604550
vertex 0.381874 -8.011726 0.770726
vertex 0.416727 -8.012680 0.761964
endloop
endfacet
facet normal 0.000004 0.994126 -0.108225
outer loop
vertex 0.139806 -8.029816 0.604550
vertex 0.416727 -8.012680 0.761964
vertex 0.451618 -8.013424 0.755132
endloop
endfacet
facet normal -0.000002 0.994119 -0.108296
outer loop
vertex 0.609415 -8.014039 0.749486
vertex 0.660391 -8.013035 0.758708
vertex 1.099744 -8.017591 0.716861
endloop
endfacet
facet normal -0.000008 0.994133 -0.108163
outer loop
vertex 0.139806 -8.029816 0.604550
vertex 0.451618 -8.013424 0.755132
vertex 0.486539 -8.013956 0.750240
endloop
endfacet
facet normal 0.000003 0.994125 -0.108238
outer loop
vertex 0.139806 -8.029816 0.604550
vertex 0.486539 -8.013956 0.750240
vertex 0.521479 -8.014277 0.747298
endloop
endfacet
facet normal 0.000008 0.994120 -0.108284
outer loop
vertex 0.556429 -8.014383 0.746315
vertex 0.609415 -8.014039 0.749486
vertex 1.099744 -8.017591 0.716861
endloop
endfacet
facet normal -0.000005 0.994129 -0.108199
outer loop
vertex 0.139806 -8.029816 0.604550
vertex 0.521479 -8.014277 0.747298
vertex 0.556429 -8.014383 0.746315
endloop
endfacet
facet normal 0.000001 0.994128 -0.108213
outer loop
vertex 0.139806 -8.029816 0.604550
vertex 0.556429 -8.014383 0.746315
vertex 1.099744 -8.017591 0.716861
endloop
endfacet
facet normal 0.000000 0.994126 -0.108225
outer loop
vertex 0.139806 -8.029816 0.604550
vertex 1.099744 -8.017591 0.716861
vertex 1.048198 -8.023840 0.659449
endloop
endfacet
facet normal 0.000000 0.994129 -0.108202
outer loop
vertex 0.139806 -8.029816 0.604550
vertex 1.048198 -8.023840 0.659449
vertex 0.989138 -8.029295 0.609334
endloop
endfacet
facet normal 0.000000 0.994126 -0.108230
outer loop
vertex 0.139806 -8.029816 0.604550
vertex 0.989138 -8.029295 0.609334
vertex 0.923136 -8.033895 0.567076
endloop
endfacet
facet normal 0.000000 0.994121 -0.108276
outer loop
vertex 0.180389 -8.031973 0.584735
vertex 0.139806 -8.029816 0.604550
vertex 0.923136 -8.033895 0.567076
endloop
endfacet
facet normal 0.000001 0.994132 -0.108169
outer loop
vertex 0.219807 -8.033909 0.566947
vertex 0.180389 -8.031973 0.584735
vertex 0.923136 -8.033895 0.567076
endloop
endfacet
facet normal 0.000001 0.994127 -0.108224
outer loop
vertex 0.219807 -8.033909 0.566947
vertex 0.923136 -8.033895 0.567076
vertex 0.850765 -8.037580 0.533233
endloop
endfacet
facet normal 0.000000 0.994118 -0.108303
outer loop
vertex 0.258292 -8.035631 0.551128
vertex 0.219807 -8.033909 0.566947
vertex 0.850765 -8.037580 0.533233
endloop
endfacet
facet normal -0.000000 0.994119 -0.108292
outer loop
vertex 0.296079 -8.037146 0.537220
vertex 0.258292 -8.035631 0.551128
vertex 0.850765 -8.037580 0.533233
endloop
endfacet
facet normal 0.000000 0.994116 -0.108321
outer loop
vertex 0.333399 -8.038458 0.525165
vertex 0.296079 -8.037146 0.537220
vertex 0.850765 -8.037580 0.533233
endloop
endfacet
facet normal -0.000000 0.994138 -0.108115
outer loop
vertex 0.333399 -8.038458 0.525165
vertex 0.850765 -8.037580 0.533233
vertex 0.772599 -8.040286 0.508367
endloop
endfacet
facet normal -0.000000 0.994120 -0.108281
outer loop
vertex 0.370487 -8.039575 0.514905
vertex 0.333399 -8.038458 0.525165
vertex 0.772599 -8.040286 0.508367
endloop
endfacet
facet normal 0.000001 0.994143 -0.108071
outer loop
vertex 0.407574 -8.040502 0.506382
vertex 0.370487 -8.039575 0.514905
vertex 0.772599 -8.040286 0.508367
endloop
endfacet
facet normal 0.000002 0.994129 -0.108201
outer loop
vertex 0.407574 -8.040502 0.506382
vertex 0.772599 -8.040286 0.508367
vertex 0.689208 -8.041955 0.493037
endloop
endfacet
facet normal -0.000005 0.994101 -0.108456
outer loop
vertex 0.444895 -8.041247 0.499539
vertex 0.407574 -8.040502 0.506382
vertex 0.689208 -8.041955 0.493037
endloop
endfacet
facet normal -0.000001 0.994109 -0.108381
outer loop
vertex 0.482681 -8.041816 0.494318
vertex 0.444895 -8.041247 0.499539
vertex 0.689208 -8.041955 0.493037
endloop
endfacet
facet normal 0.000000 0.994143 -0.108072
outer loop
vertex 0.521167 -8.042213 0.490659
vertex 0.482681 -8.041816 0.494318
vertex 0.689208 -8.041955 0.493037
endloop
endfacet
facet normal 0.000001 0.994110 -0.108379
outer loop
vertex 0.521167 -8.042213 0.490659
vertex 0.689208 -8.041955 0.493037
vertex 0.601167 -8.042524 0.487803
endloop
endfacet
facet normal -0.000018 0.993998 -0.109396
outer loop
vertex 0.560585 -8.042448 0.488507
vertex 0.521167 -8.042213 0.490659
vertex 0.601167 -8.042524 0.487803
endloop
endfacet
facet normal -1.000000 0.000000 0.000000
outer loop
vertex 0.282409 -8.468999 1.479276
vertex 0.282409 -8.361580 2.466072
vertex 0.282409 -7.833436 2.408580
endloop
endfacet
facet normal -1.000000 0.000000 0.000000
outer loop
vertex 0.282409 -8.468999 1.479276
vertex 0.282409 -7.833436 2.408580
vertex 0.282409 -7.940855 1.421784
endloop
endfacet
facet normal 0.000000 0.108217 0.994127
outer loop
vertex 0.282409 -8.361580 2.466072
vertex 1.129635 -8.361580 2.466072
vertex 1.129635 -7.833436 2.408580
endloop
endfacet
facet normal 0.000000 0.108217 0.994127
outer loop
vertex 0.282409 -8.361580 2.466072
vertex 1.129635 -7.833436 2.408580
vertex 0.282409 -7.833436 2.408580
endloop
endfacet
facet normal 0.000000 -0.108217 -0.994127
outer loop
vertex 1.129635 -8.388207 2.221457
vertex 0.531264 -8.388207 2.221457
vertex 0.531264 -7.860064 2.163966
endloop
endfacet
facet normal 0.000000 -0.108217 -0.994127
outer loop
vertex 1.129635 -8.388207 2.221457
vertex 0.531264 -7.860064 2.163966
vertex 1.129635 -7.860064 2.163966
endloop
endfacet
facet normal 1.000000 -0.000000 0.000000
outer loop
vertex 1.129635 -8.361580 2.466072
vertex 1.129635 -8.388207 2.221457
vertex 1.129635 -7.860064 2.163966
endloop
endfacet
facet normal 1.000000 0.000000 0.000000
outer loop
vertex 1.129635 -8.361580 2.466072
vertex 1.129635 -7.860064 2.163966
vertex 1.129635 -7.833436 2.408580
endloop
endfacet
facet normal 1.000000 0.000000 0.000000
outer loop
vertex 0.531264 -8.388207 2.221457
vertex 0.531264 -8.439951 1.746128
vertex 0.531264 -7.911806 1.688636
endloop
endfacet
facet normal 1.000000 0.000000 0.000000
outer loop
vertex 0.531264 -8.388207 2.221457
vertex 0.531264 -7.911806 1.688636
vertex 0.531264 -7.860064 2.163966
endloop
endfacet
facet normal -0.002317 0.108217 0.994125
outer loop
vertex 0.531264 -8.439951 1.746128
vertex 0.635365 -8.439924 1.746367
vertex 0.635365 -7.911780 1.688876
endloop
endfacet
facet normal -0.002316 0.108217 0.994125
outer loop
vertex 0.531264 -8.439951 1.746128
vertex 0.635365 -7.911780 1.688876
vertex 0.531264 -7.911806 1.688636
endloop
endfacet
facet normal 0.116587 0.107479 0.987348
outer loop
vertex 0.635365 -8.439924 1.746367
vertex 0.732145 -8.441154 1.735073
vertex 0.732145 -7.913010 1.677581
endloop
endfacet
facet normal 0.116589 0.107479 0.987348
outer loop
vertex 0.635365 -8.439924 1.746367
vertex 0.732145 -7.913010 1.677581
vertex 0.635365 -7.911780 1.688876
endloop
endfacet
facet normal 0.241850 0.105005 0.964615
outer loop
vertex 0.732145 -8.441154 1.735073
vertex 0.821275 -8.443558 1.712988
vertex 0.821275 -7.915414 1.655496
endloop
endfacet
facet normal 0.241849 0.105005 0.964616
outer loop
vertex 0.732145 -8.441154 1.735073
vertex 0.821275 -7.915414 1.655496
vertex 0.732145 -7.913010 1.677581
endloop
endfacet
facet normal 0.370031 0.100536 0.923563
outer loop
vertex 0.821275 -8.443558 1.712988
vertex 0.902424 -8.447056 1.680856
vertex 0.902424 -7.918911 1.623364
endloop
endfacet
facet normal 0.370033 0.100536 0.923563
outer loop
vertex 0.821275 -8.443558 1.712988
vertex 0.902424 -7.918911 1.623364
vertex 0.821275 -7.915414 1.655496
endloop
endfacet
facet normal 0.496671 0.093926 0.862842
outer loop
vertex 0.902424 -8.447056 1.680856
vertex 0.975263 -8.451567 1.639419
vertex 0.975263 -7.923422 1.581928
endloop
endfacet
facet normal 0.496674 0.093926 0.862840
outer loop
vertex 0.902424 -8.447056 1.680856
vertex 0.975263 -7.923422 1.581928
vertex 0.902424 -7.918911 1.623364
endloop
endfacet
facet normal 0.186196 -0.106325 -0.976743
outer loop
vertex 0.383665 -8.466923 1.498353
vertex 0.282409 -8.468999 1.479276
vertex 0.282409 -7.940855 1.421784
endloop
endfacet
facet normal 0.186199 -0.106324 -0.976742
outer loop
vertex 0.383665 -8.466923 1.498353
vertex 0.282409 -7.940855 1.421784
vertex 0.383665 -7.938778 1.440861
endloop
endfacet
facet normal 0.616700 0.085188 0.782575
outer loop
vertex 0.975263 -8.451567 1.639419
vertex 1.039460 -8.457009 1.589422
vertex 1.039460 -7.928864 1.531930
endloop
endfacet
facet normal 0.616696 0.085188 0.782579
outer loop
vertex 0.975263 -8.451567 1.639419
vertex 1.039460 -7.928864 1.531930
vertex 0.975263 -7.923422 1.581928
endloop
endfacet
facet normal 0.082815 -0.107845 -0.990712
outer loop
vertex 0.477542 -8.466078 1.506108
vertex 0.383665 -8.466923 1.498353
vertex 0.383665 -7.938778 1.440861
endloop
endfacet
facet normal 0.082810 -0.107845 -0.990713
outer loop
vertex 0.477542 -8.466078 1.506108
vertex 0.383665 -7.938778 1.440861
vertex 0.477542 -7.937934 1.448616
endloop
endfacet
facet normal 0.725141 0.074519 0.684556
outer loop
vertex 1.039460 -8.457009 1.589422
vertex 1.094687 -8.463303 1.531606
vertex 1.094687 -7.935158 1.474114
endloop
endfacet
facet normal 0.725141 0.074518 0.684556
outer loop
vertex 1.039460 -8.457009 1.589422
vertex 1.094687 -7.935158 1.474114
vertex 1.039460 -7.928864 1.531930
endloop
endfacet
facet normal -0.031794 -0.108162 -0.993625
outer loop
vertex 0.563769 -8.466375 1.503381
vertex 0.477542 -8.466078 1.506108
vertex 0.477542 -7.937934 1.448616
endloop
endfacet
facet normal -0.031790 -0.108162 -0.993625
outer loop
vertex 0.563769 -8.466375 1.503381
vertex 0.477542 -7.937934 1.448616
vertex 0.563769 -7.938231 1.445889
endloop
endfacet
facet normal 0.817853 0.062271 0.572048
outer loop
vertex 1.094687 -8.463303 1.531606
vertex 1.140613 -8.470366 1.466716
vertex 1.140613 -7.942222 1.409224
endloop
endfacet
facet normal 0.817850 0.062271 0.572052
outer loop
vertex 1.094687 -8.463303 1.531606
vertex 1.140613 -7.942222 1.409224
vertex 1.094687 -7.935158 1.474114
endloop
endfacet
facet normal -0.156922 -0.106876 -0.981811
outer loop
vertex 0.642074 -8.467721 1.491012
vertex 0.563769 -8.466375 1.503381
vertex 0.563769 -7.938231 1.445889
endloop
endfacet
facet normal -0.156920 -0.106876 -0.981811
outer loop
vertex 0.642074 -8.467721 1.491012
vertex 0.563769 -7.938231 1.445889
vertex 0.642074 -7.939577 1.433520
endloop
endfacet
facet normal -0.290641 -0.103546 -0.951213
outer loop
vertex 0.712184 -8.470026 1.469841
vertex 0.642074 -8.467721 1.491012
vertex 0.642074 -7.939577 1.433520
endloop
endfacet
facet normal -0.290639 -0.103545 -0.951214
outer loop
vertex 0.712184 -8.470026 1.469841
vertex 0.642074 -7.939577 1.433520
vertex 0.712184 -7.941882 1.412349
endloop
endfacet
facet normal -0.429358 -0.097735 -0.897830
outer loop
vertex 0.773828 -8.473197 1.440707
vertex 0.712184 -8.470026 1.469841
vertex 0.712184 -7.941882 1.412349
endloop
endfacet
facet normal -0.429357 -0.097735 -0.897831
outer loop
vertex 0.773828 -8.473197 1.440707
vertex 0.712184 -7.941882 1.412349
vertex 0.773828 -7.945053 1.383215
endloop
endfacet
facet normal 0.892057 0.048905 0.449269
outer loop
vertex 1.140613 -8.470366 1.466716
vertex 1.176907 -8.478119 1.395494
vertex 1.176907 -7.949975 1.338002
endloop
endfacet
facet normal 0.892057 0.048906 0.449269
outer loop
vertex 1.140613 -8.470366 1.466716
vertex 1.176907 -7.949975 1.338002
vertex 1.140613 -7.942222 1.409224
endloop
endfacet
facet normal -0.567563 -0.089098 -0.818495
outer loop
vertex 0.826734 -8.477144 1.404450
vertex 0.773828 -8.473197 1.440707
vertex 0.773828 -7.945053 1.383215
endloop
endfacet
facet normal -0.567563 -0.089098 -0.818495
outer loop
vertex 0.826734 -8.477144 1.404450
vertex 0.773828 -7.945053 1.383215
vertex 0.826734 -7.949000 1.346959
endloop
endfacet
facet normal -0.698037 -0.077490 -0.711856
outer loop
vertex 0.870631 -8.481775 1.361910
vertex 0.826734 -8.477144 1.404450
vertex 0.826734 -7.949000 1.346959
endloop
endfacet
facet normal -0.698035 -0.077490 -0.711859
outer loop
vertex 0.870631 -8.481775 1.361910
vertex 0.826734 -7.949000 1.346959
vertex 0.870631 -7.953631 1.304419
endloop
endfacet
facet normal 0.946535 0.034911 0.320707
outer loop
vertex 1.176907 -8.478119 1.395494
vertex 1.203241 -8.486481 1.318683
vertex 1.203241 -7.958336 1.261192
endloop
endfacet
facet normal 0.946535 0.034911 0.320706
outer loop
vertex 1.176907 -8.478119 1.395494
vertex 1.203241 -7.958336 1.261192
vertex 1.176907 -7.949975 1.338002
endloop
endfacet
facet normal -0.812630 -0.063067 -0.579358
outer loop
vertex 0.905246 -8.486999 1.313927
vertex 0.870631 -8.481775 1.361910
vertex 0.870631 -7.953631 1.304419
endloop
endfacet
facet normal -0.812629 -0.063067 -0.579359
outer loop
vertex 0.905246 -8.486999 1.313927
vertex 0.870631 -7.953631 1.304419
vertex 0.905246 -7.958854 1.256435
endloop
endfacet
facet normal 0.981456 0.020744 0.190562
outer loop
vertex 1.203241 -8.486481 1.318683
vertex 1.219283 -8.495369 1.237028
vertex 1.219283 -7.967225 1.179536
endloop
endfacet
facet normal 0.981456 0.020744 0.190560
outer loop
vertex 1.203241 -8.486481 1.318683
vertex 1.219283 -7.967225 1.179536
vertex 1.203241 -7.958336 1.261192
endloop
endfacet
facet normal -0.903708 -0.046333 -0.425635
outer loop
vertex 0.930308 -8.492723 1.261339
vertex 0.905246 -8.486999 1.313927
vertex 0.905246 -7.958854 1.256435
endloop
endfacet
facet normal -0.903709 -0.046333 -0.425633
outer loop
vertex 0.930308 -8.492723 1.261339
vertex 0.905246 -7.958854 1.256435
vertex 0.930308 -7.964579 1.203847
endloop
endfacet
facet normal -0.965723 -0.028090 -0.258051
outer loop
vertex 0.945544 -8.498857 1.204987
vertex 0.930308 -8.492723 1.261339
vertex 0.930308 -7.964579 1.203847
endloop
endfacet
facet normal -0.965723 -0.028091 -0.258052
outer loop
vertex 0.945544 -8.498857 1.204987
vertex 0.930308 -7.964579 1.203847
vertex 0.945544 -7.970713 1.147495
endloop
endfacet
facet normal 0.998032 0.006787 0.062346
outer loop
vertex 1.219283 -8.495369 1.237028
vertex 1.224704 -8.504704 1.151270
vertex 1.224704 -7.976560 1.093779
endloop
endfacet
facet normal 0.998032 0.006787 0.062346
outer loop
vertex 1.219283 -8.495369 1.237028
vertex 1.224704 -7.976560 1.093779
vertex 1.219283 -7.967225 1.179536
endloop
endfacet
facet normal -0.996306 -0.009293 -0.085372
outer loop
vertex 0.950683 -8.505310 1.145711
vertex 0.945544 -8.498857 1.204987
vertex 0.945544 -7.970713 1.147495
endloop
endfacet
facet normal -0.996306 -0.009293 -0.085371
outer loop
vertex 0.950683 -8.505310 1.145711
vertex 0.945544 -7.970713 1.147495
vertex 0.950683 -7.977165 1.088219
endloop
endfacet
facet normal 0.998049 -0.006757 -0.062070
outer loop
vertex 1.224704 -8.504704 1.151270
vertex 1.219324 -8.514011 1.065772
vertex 1.219324 -7.985868 1.008280
endloop
endfacet
facet normal 0.998049 -0.006756 -0.062070
outer loop
vertex 1.224704 -8.504704 1.151270
vertex 1.219324 -7.985868 1.008280
vertex 1.224704 -7.976560 1.093779
endloop
endfacet
facet normal -0.996890 0.008527 0.078336
outer loop
vertex 0.947038 -8.510301 1.099860
vertex 0.950683 -8.505310 1.145711
vertex 0.950683 -7.977165 1.088219
endloop
endfacet
facet normal -0.996891 0.008528 0.078336
outer loop
vertex 0.947038 -8.510301 1.099860
vertex 0.950683 -7.977165 1.088219
vertex 0.947038 -7.982157 1.042369
endloop
endfacet
facet normal -0.972636 0.025143 0.230971
outer loop
vertex 0.936431 -8.515106 1.055718
vertex 0.947038 -8.510301 1.099860
vertex 0.947038 -7.982157 1.042369
endloop
endfacet
facet normal -0.972635 0.025143 0.230974
outer loop
vertex 0.936431 -8.515106 1.055718
vertex 0.947038 -7.982157 1.042369
vertex 0.936431 -7.986962 0.998226
endloop
endfacet
facet normal 0.981805 -0.020550 -0.188777
outer loop
vertex 1.219324 -8.514011 1.065772
vertex 1.203565 -8.522829 0.984771
vertex 1.203565 -7.994685 0.927279
endloop
endfacet
facet normal 0.981805 -0.020549 -0.188776
outer loop
vertex 1.219324 -8.514011 1.065772
vertex 1.203565 -7.994685 0.927279
vertex 1.219324 -7.985868 1.008280
endloop
endfacet
facet normal -0.927156 0.040546 0.372474
outer loop
vertex 0.919358 -8.519678 1.013718
vertex 0.936431 -8.515106 1.055718
vertex 0.936431 -7.986962 0.998226
endloop
endfacet
facet normal -0.927155 0.040546 0.372476
outer loop
vertex 0.919358 -8.519678 1.013718
vertex 0.936431 -7.986962 0.998226
vertex 0.919358 -7.991534 0.956227
endloop
endfacet
facet normal -0.864618 0.054371 0.499479
outer loop
vertex 0.896314 -8.523970 0.974296
vertex 0.919358 -8.519678 1.013718
vertex 0.919358 -7.991534 0.956227
endloop
endfacet
facet normal -0.864620 0.054371 0.499476
outer loop
vertex 0.896314 -8.523970 0.974296
vertex 0.919358 -7.991534 0.956227
vertex 0.896314 -7.995825 0.916804
endloop
endfacet
facet normal 0.948307 -0.034343 -0.315491
outer loop
vertex 1.203565 -8.522829 0.984771
vertex 1.178000 -8.531096 0.908828
vertex 1.178000 -8.002952 0.851336
endloop
endfacet
facet normal 0.948307 -0.034343 -0.315489
outer loop
vertex 1.203565 -8.522829 0.984771
vertex 1.178000 -8.002952 0.851336
vertex 1.203565 -7.994685 0.927279
endloop
endfacet
facet normal -0.789013 0.066486 0.610769
outer loop
vertex 0.867795 -8.527933 0.937885
vertex 0.896314 -8.523970 0.974296
vertex 0.896314 -7.995825 0.916804
endloop
endfacet
facet normal -0.789014 0.066486 0.610767
outer loop
vertex 0.867795 -8.527933 0.937885
vertex 0.896314 -7.995825 0.916804
vertex 0.867795 -7.999789 0.880393
endloop
endfacet
facet normal -1.000000 0.000000 0.000000
outer loop
vertex 0.139806 -8.557961 0.662042
vertex 0.139806 -8.527399 0.942792
vertex 0.139806 -7.999254 0.885301
endloop
endfacet
facet normal -1.000000 0.000000 0.000000
outer loop
vertex 0.139806 -8.557961 0.662042
vertex 0.139806 -7.999254 0.885301
vertex 0.139806 -8.029816 0.604550
endloop
endfacet
facet normal 0.542114 0.090935 0.835370
outer loop
vertex 0.139806 -8.527399 0.942792
vertex 0.174116 -8.529794 0.920788
vertex 0.174116 -8.001650 0.863296
endloop
endfacet
facet normal 0.542118 0.090935 0.835368
outer loop
vertex 0.139806 -8.527399 0.942792
vertex 0.174116 -8.001650 0.863296
vertex 0.139806 -7.999254 0.885301
endloop
endfacet
facet normal -0.703492 0.076911 0.706529
outer loop
vertex 0.834294 -8.531522 0.904919
vertex 0.867795 -8.527933 0.937885
vertex 0.867795 -7.999789 0.880393
endloop
endfacet
facet normal -0.703494 0.076910 0.706528
outer loop
vertex 0.834294 -8.531522 0.904919
vertex 0.867795 -7.999789 0.880393
vertex 0.834294 -8.003377 0.847427
endloop
endfacet
facet normal 0.507318 0.093257 0.856698
outer loop
vertex 0.174116 -8.529794 0.920788
vertex 0.208532 -8.531986 0.900646
vertex 0.208532 -8.003842 0.843155
endloop
endfacet
facet normal 0.507316 0.093257 0.856699
outer loop
vertex 0.174116 -8.529794 0.920788
vertex 0.208532 -8.003842 0.843155
vertex 0.174116 -8.001650 0.863296
endloop
endfacet
facet normal 0.897314 -0.047766 -0.438800
outer loop
vertex 1.178000 -8.531096 0.908828
vertex 1.143202 -8.538752 0.838502
vertex 1.143202 -8.010607 0.781010
endloop
endfacet
facet normal 0.897314 -0.047766 -0.438800
outer loop
vertex 1.178000 -8.531096 0.908828
vertex 1.143202 -8.010607 0.781010
vertex 1.178000 -8.002952 0.851336
endloop
endfacet
facet normal -0.610202 0.085734 0.787593
outer loop
vertex 0.796309 -8.534687 0.875833
vertex 0.834294 -8.531522 0.904919
vertex 0.834294 -8.003377 0.847427
endloop
endfacet
facet normal -0.610205 0.085734 0.787591
outer loop
vertex 0.796309 -8.534687 0.875833
vertex 0.834294 -8.003377 0.847427
vertex 0.796309 -8.006543 0.818342
endloop
endfacet
facet normal 0.469993 0.095520 0.877486
outer loop
vertex 0.208532 -8.531986 0.900646
vertex 0.243045 -8.533976 0.882377
vertex 0.243045 -8.005831 0.824885
endloop
endfacet
facet normal 0.469994 0.095520 0.877486
outer loop
vertex 0.208532 -8.531986 0.900646
vertex 0.243045 -8.005831 0.824885
vertex 0.208532 -8.003842 0.843155
endloop
endfacet
facet normal 0.430094 0.097697 0.897482
outer loop
vertex 0.243045 -8.533976 0.882377
vertex 0.277645 -8.535759 0.865990
vertex 0.277645 -8.007615 0.808498
endloop
endfacet
facet normal 0.430094 0.097696 0.897482
outer loop
vertex 0.243045 -8.533976 0.882377
vertex 0.277645 -8.007615 0.808498
vertex 0.243045 -8.005831 0.824885
endloop
endfacet
facet normal -0.510455 0.093056 0.854855
outer loop
vertex 0.754333 -8.537384 0.851062
vertex 0.796309 -8.534687 0.875833
vertex 0.796309 -8.006543 0.818342
endloop
endfacet
facet normal -0.510457 0.093056 0.854853
outer loop
vertex 0.754333 -8.537384 0.851062
vertex 0.796309 -8.006543 0.818342
vertex 0.754333 -8.009240 0.793570
endloop
endfacet
facet normal 0.387597 0.099757 0.916415
outer loop
vertex 0.277645 -8.535759 0.865990
vertex 0.312323 -8.537337 0.851495
vertex 0.312323 -8.009192 0.794003
endloop
endfacet
facet normal 0.387595 0.099757 0.916416
outer loop
vertex 0.277645 -8.535759 0.865990
vertex 0.312323 -8.009192 0.794003
vertex 0.277645 -8.007615 0.808498
endloop
endfacet
facet normal 0.342539 0.101670 0.933986
outer loop
vertex 0.312323 -8.537337 0.851495
vertex 0.347069 -8.538708 0.838901
vertex 0.347069 -8.010564 0.781409
endloop
endfacet
facet normal 0.342541 0.101670 0.933985
outer loop
vertex 0.312323 -8.537337 0.851495
vertex 0.347069 -8.010564 0.781409
vertex 0.312323 -8.009192 0.794003
endloop
endfacet
facet normal -0.404988 0.098946 0.908952
outer loop
vertex 0.708862 -8.539563 0.831040
vertex 0.754333 -8.537384 0.851062
vertex 0.754333 -8.009240 0.793570
endloop
endfacet
facet normal -0.404987 0.098945 0.908953
outer loop
vertex 0.708862 -8.539563 0.831040
vertex 0.754333 -8.009240 0.793570
vertex 0.708862 -8.011419 0.773548
endloop
endfacet
facet normal 0.295013 0.103400 0.949882
outer loop
vertex 0.347069 -8.538708 0.838901
vertex 0.381874 -8.539871 0.828218
vertex 0.381874 -8.011726 0.770726
endloop
endfacet
facet normal 0.295015 0.103401 0.949881
outer loop
vertex 0.347069 -8.538708 0.838901
vertex 0.381874 -8.011726 0.770726
vertex 0.347069 -8.010564 0.781409
endloop
endfacet
facet normal 0.829434 -0.060451 -0.555325
outer loop
vertex 1.143202 -8.538752 0.838502
vertex 1.099744 -8.545734 0.774353
vertex 1.099744 -8.017591 0.716861
endloop
endfacet
facet normal 0.829434 -0.060450 -0.555325
outer loop
vertex 1.143202 -8.538752 0.838502
vertex 1.099744 -8.017591 0.716861
vertex 1.143202 -8.010607 0.781010
endloop
endfacet
facet normal -0.294322 0.103423 0.950094
outer loop
vertex 0.660391 -8.541179 0.816200
vertex 0.708862 -8.539563 0.831040
vertex 0.708862 -8.011419 0.773548
endloop
endfacet
facet normal -0.294320 0.103424 0.950094
outer loop
vertex 0.660391 -8.541179 0.816200
vertex 0.708862 -8.011419 0.773548
vertex 0.660391 -8.013035 0.758708
endloop
endfacet
facet normal 0.245169 0.104914 0.963787
outer loop
vertex 0.381874 -8.539871 0.828218
vertex 0.416727 -8.540825 0.819456
vertex 0.416727 -8.012680 0.761964
endloop
endfacet
facet normal 0.245171 0.104914 0.963786
outer loop
vertex 0.381874 -8.539871 0.828218
vertex 0.416727 -8.012680 0.761964
vertex 0.381874 -8.011726 0.770726
endloop
endfacet
facet normal 0.193242 0.106177 0.975389
outer loop
vertex 0.416727 -8.540825 0.819456
vertex 0.451618 -8.541568 0.812624
vertex 0.451618 -8.013424 0.755132
endloop
endfacet
facet normal 0.193248 0.106177 0.975388
outer loop
vertex 0.416727 -8.540825 0.819456
vertex 0.451618 -8.013424 0.755132
vertex 0.416727 -8.012680 0.761964
endloop
endfacet
facet normal -0.179042 0.106468 0.978064
outer loop
vertex 0.609415 -8.542183 0.806978
vertex 0.660391 -8.541179 0.816200
vertex 0.660391 -8.013035 0.758708
endloop
endfacet
facet normal -0.179042 0.106468 0.978064
outer loop
vertex 0.609415 -8.542183 0.806978
vertex 0.660391 -8.013035 0.758708
vertex 0.609415 -8.014039 0.749486
endloop
endfacet
facet normal 0.139532 0.107158 0.984402
outer loop
vertex 0.451618 -8.541568 0.812624
vertex 0.486539 -8.542101 0.807732
vertex 0.486539 -8.013956 0.750240
endloop
endfacet
facet normal 0.139529 0.107158 0.984403
outer loop
vertex 0.451618 -8.541568 0.812624
vertex 0.486539 -8.013956 0.750240
vertex 0.451618 -8.013424 0.755132
endloop
endfacet
facet normal 0.084398 0.107831 0.990580
outer loop
vertex 0.486539 -8.542101 0.807732
vertex 0.521479 -8.542421 0.804790
vertex 0.521479 -8.014277 0.747298
endloop
endfacet
facet normal 0.084405 0.107831 0.990580
outer loop
vertex 0.486539 -8.542101 0.807732
vertex 0.521479 -8.014277 0.747298
vertex 0.486539 -8.013956 0.750240
endloop
endfacet
facet normal -0.060088 0.108022 0.992331
outer loop
vertex 0.556429 -8.542528 0.803807
vertex 0.609415 -8.542183 0.806978
vertex 0.609415 -8.014039 0.749486
endloop
endfacet
facet normal -0.060080 0.108022 0.992331
outer loop
vertex 0.556429 -8.542528 0.803807
vertex 0.609415 -8.014039 0.749486
vertex 0.556429 -8.014383 0.746315
endloop
endfacet
facet normal 0.028276 0.108174 0.993730
outer loop
vertex 0.521479 -8.542421 0.804790
vertex 0.556429 -8.542528 0.803807
vertex 0.556429 -8.014383 0.746315
endloop
endfacet
facet normal 0.028281 0.108174 0.993730
outer loop
vertex 0.521479 -8.542421 0.804790
vertex 0.556429 -8.014383 0.746315
vertex 0.521479 -8.014277 0.747298
endloop
endfacet
facet normal 0.746053 -0.072060 -0.661976
outer loop
vertex 1.099744 -8.545734 0.774353
vertex 1.048198 -8.551984 0.716941
vertex 1.048198 -8.023840 0.659449
endloop
endfacet
facet normal 0.746053 -0.072060 -0.661976
outer loop
vertex 1.099744 -8.545734 0.774353
vertex 1.048198 -8.023840 0.659449
vertex 1.099744 -8.017591 0.716861
endloop
endfacet
facet normal 0.649219 -0.082310 -0.756135
outer loop
vertex 1.048198 -8.551984 0.716941
vertex 0.989138 -8.557439 0.666826
vertex 0.989138 -8.029295 0.609334
endloop
endfacet
facet normal 0.649217 -0.082310 -0.756137
outer loop
vertex 1.048198 -8.551984 0.716941
vertex 0.989138 -8.029295 0.609334
vertex 1.048198 -8.023840 0.659449
endloop
endfacet
facet normal 0.541466 -0.090981 -0.835785
outer loop
vertex 0.989138 -8.557439 0.666826
vertex 0.923136 -8.562039 0.624568
vertex 0.923136 -8.033895 0.567076
endloop
endfacet
facet normal 0.541463 -0.090980 -0.835787
outer loop
vertex 0.989138 -8.557439 0.666826
vertex 0.923136 -8.033895 0.567076
vertex 0.989138 -8.029295 0.609334
endloop
endfacet
facet normal -0.440843 -0.097134 -0.892313
outer loop
vertex 0.180389 -8.560117 0.642227
vertex 0.139806 -8.557961 0.662042
vertex 0.139806 -8.029816 0.604550
endloop
endfacet
facet normal -0.440847 -0.097134 -0.892311
outer loop
vertex 0.180389 -8.560117 0.642227
vertex 0.139806 -8.029816 0.604550
vertex 0.180389 -8.031973 0.584735
endloop
endfacet
facet normal -0.413351 -0.098539 -0.905224
outer loop
vertex 0.219807 -8.562054 0.624439
vertex 0.180389 -8.560117 0.642227
vertex 0.180389 -8.031973 0.584735
endloop
endfacet
facet normal -0.413347 -0.098540 -0.905226
outer loop
vertex 0.219807 -8.562054 0.624439
vertex 0.180389 -8.031973 0.584735
vertex 0.219807 -8.033909 0.566947
endloop
endfacet
facet normal 0.425649 -0.097924 -0.899574
outer loop
vertex 0.923136 -8.562039 0.624568
vertex 0.850765 -8.565723 0.590725
vertex 0.850765 -8.037580 0.533233
endloop
endfacet
facet normal 0.425648 -0.097925 -0.899575
outer loop
vertex 0.923136 -8.562039 0.624568
vertex 0.850765 -8.037580 0.533233
vertex 0.923136 -8.033895 0.567076
endloop
endfacet
facet normal -0.382093 -0.100006 -0.918697
outer loop
vertex 0.258292 -8.563775 0.608620
vertex 0.219807 -8.562054 0.624439
vertex 0.219807 -8.033909 0.566947
endloop
endfacet
facet normal -0.382102 -0.100006 -0.918693
outer loop
vertex 0.258292 -8.563775 0.608620
vertex 0.219807 -8.033909 0.566947
vertex 0.258292 -8.035631 0.551128
endloop
endfacet
facet normal -0.347213 -0.101485 -0.932279
outer loop
vertex 0.296079 -8.565289 0.594711
vertex 0.258292 -8.563775 0.608620
vertex 0.258292 -8.035631 0.551128
endloop
endfacet
facet normal -0.347211 -0.101484 -0.932280
outer loop
vertex 0.296079 -8.565289 0.594711
vertex 0.258292 -8.035631 0.551128
vertex 0.296079 -8.037146 0.537220
endloop
endfacet
facet normal -0.309022 -0.102921 -0.945470
outer loop
vertex 0.333399 -8.566602 0.582656
vertex 0.296079 -8.565289 0.594711
vertex 0.296079 -8.037146 0.537220
endloop
endfacet
facet normal -0.309017 -0.102920 -0.945471
outer loop
vertex 0.333399 -8.566602 0.582656
vertex 0.296079 -8.037146 0.537220
vertex 0.333399 -8.038458 0.525165
endloop
endfacet
facet normal 0.304771 -0.103069 -0.946832
outer loop
vertex 0.850765 -8.565723 0.590725
vertex 0.772599 -8.568430 0.565859
vertex 0.772599 -8.040286 0.508367
endloop
endfacet
facet normal 0.304769 -0.103069 -0.946833
outer loop
vertex 0.850765 -8.565723 0.590725
vertex 0.772599 -8.040286 0.508367
vertex 0.850765 -8.037580 0.533233
endloop
endfacet
facet normal -0.268086 -0.104256 -0.957737
outer loop
vertex 0.370487 -8.567719 0.572397
vertex 0.333399 -8.566602 0.582656
vertex 0.333399 -8.038458 0.525165
endloop
endfacet
facet normal -0.268086 -0.104256 -0.957737
outer loop
vertex 0.370487 -8.567719 0.572397
vertex 0.333399 -8.038458 0.525165
vertex 0.370487 -8.039575 0.514905
endloop
endfacet
facet normal -0.225214 -0.105437 -0.968587
outer loop
vertex 0.407574 -8.568646 0.563874
vertex 0.370487 -8.567719 0.572397
vertex 0.370487 -8.039575 0.514905
endloop
endfacet
facet normal -0.225213 -0.105437 -0.968588
outer loop
vertex 0.407574 -8.568646 0.563874
vertex 0.370487 -8.039575 0.514905
vertex 0.407574 -8.040502 0.506382
endloop
endfacet
facet normal 0.181838 -0.106413 -0.977554
outer loop
vertex 0.772599 -8.568430 0.565859
vertex 0.689208 -8.570099 0.550529
vertex 0.689208 -8.041955 0.493037
endloop
endfacet
facet normal 0.181841 -0.106413 -0.977553
outer loop
vertex 0.772599 -8.568430 0.565859
vertex 0.689208 -8.041955 0.493037
vertex 0.772599 -8.040286 0.508367
endloop
endfacet
facet normal -0.181382 -0.106422 -0.977637
outer loop
vertex 0.444895 -8.569391 0.557031
vertex 0.407574 -8.568646 0.563874
vertex 0.407574 -8.040502 0.506382
endloop
endfacet
facet normal -0.181387 -0.106422 -0.977637
outer loop
vertex 0.444895 -8.569391 0.557031
vertex 0.407574 -8.040502 0.506382
vertex 0.444895 -8.041247 0.499539
endloop
endfacet
facet normal -0.137680 -0.107186 -0.984660
outer loop
vertex 0.482681 -8.569960 0.551809
vertex 0.444895 -8.569391 0.557031
vertex 0.444895 -8.041247 0.499539
endloop
endfacet
facet normal -0.137679 -0.107187 -0.984660
outer loop
vertex 0.482681 -8.569960 0.551809
vertex 0.444895 -8.041247 0.499539
vertex 0.482681 -8.041816 0.494318
endloop
endfacet
facet normal -0.095177 -0.107726 -0.989614
outer loop
vertex 0.521167 -8.570357 0.548151
vertex 0.482681 -8.569960 0.551809
vertex 0.482681 -8.041816 0.494318
endloop
endfacet
facet normal -0.095177 -0.107726 -0.989614
outer loop
vertex 0.521167 -8.570357 0.548151
vertex 0.482681 -8.041816 0.494318
vertex 0.521167 -8.042213 0.490659
endloop
endfacet
facet normal 0.059701 -0.108024 -0.992354
outer loop
vertex 0.689208 -8.570099 0.550529
vertex 0.601167 -8.570669 0.545294
vertex 0.601167 -8.042524 0.487803
endloop
endfacet
facet normal 0.059700 -0.108025 -0.992354
outer loop
vertex 0.689208 -8.570099 0.550529
vertex 0.601167 -8.042524 0.487803
vertex 0.689208 -8.041955 0.493037
endloop
endfacet
facet normal -0.054839 -0.108054 -0.992631
outer loop
vertex 0.560585 -8.570592 0.545999
vertex 0.521167 -8.570357 0.548151
vertex 0.521167 -8.042213 0.490659
endloop
endfacet
facet normal -0.054848 -0.108054 -0.992631
outer loop
vertex 0.560585 -8.570592 0.545999
vertex 0.521167 -8.042213 0.490659
vertex 0.560585 -8.042448 0.488507
endloop
endfacet
facet normal -0.017461 -0.108200 -0.993976
outer loop
vertex 0.601167 -8.570669 0.545294
vertex 0.560585 -8.570592 0.545999
vertex 0.560585 -8.042448 0.488507
endloop
endfacet
facet normal -0.017459 -0.108201 -0.993976
outer loop
vertex 0.601167 -8.570669 0.545294
vertex 0.560585 -8.042448 0.488507
vertex 0.601167 -8.042524 0.487803
endloop
endfacet
endsolid Exported from Blender-3.3.1
