solid Exported from Blender-3.3.1
facet normal 0.000001 -0.994128 0.108212
outer loop
vertex 0.767386 -8.368096 2.406213
vertex 1.051344 -8.381551 2.282611
vertex 0.886372 -8.358857 2.491089
endloop
endfacet
facet normal 0.000000 -0.994128 0.108213
outer loop
vertex 0.657983 -8.377927 2.315903
vertex 1.051344 -8.381551 2.282611
vertex 0.767386 -8.368096 2.406213
endloop
endfacet
facet normal 0.000000 -0.994128 0.108207
outer loop
vertex 0.558308 -8.388298 2.220632
vertex 1.051344 -8.381551 2.282611
vertex 0.657983 -8.377927 2.315903
endloop
endfacet
facet normal -0.000000 -0.994119 0.108296
outer loop
vertex 0.558308 -8.388298 2.220632
vertex 0.984952 -8.386050 2.241281
vertex 1.051344 -8.381551 2.282611
endloop
endfacet
facet normal 0.000001 -0.994131 0.108183
outer loop
vertex 0.558308 -8.388298 2.220632
vertex 0.920288 -8.391042 2.195424
vertex 0.984952 -8.386050 2.241281
endloop
endfacet
facet normal 0.000001 -0.994127 0.108224
outer loop
vertex 0.468507 -8.399157 2.120873
vertex 0.920288 -8.391042 2.195424
vertex 0.558308 -8.388298 2.220632
endloop
endfacet
facet normal -0.000000 -0.994130 0.108188
outer loop
vertex 0.468507 -8.399157 2.120873
vertex 0.857799 -8.396477 2.145494
vertex 0.920288 -8.391042 2.195424
endloop
endfacet
facet normal -0.000001 -0.994125 0.108234
outer loop
vertex 0.468507 -8.399157 2.120873
vertex 0.797932 -8.402307 2.091944
vertex 0.857799 -8.396477 2.145494
endloop
endfacet
facet normal -0.000002 -0.994129 0.108202
outer loop
vertex 0.388725 -8.410454 2.017099
vertex 0.797932 -8.402307 2.091944
vertex 0.468507 -8.399157 2.120873
endloop
endfacet
facet normal 0.000003 -0.994127 0.108221
outer loop
vertex 0.388725 -8.410454 2.017099
vertex 0.741132 -8.408480 2.035228
vertex 0.797932 -8.402307 2.091944
endloop
endfacet
facet normal 0.000001 -0.994125 0.108239
outer loop
vertex 0.388725 -8.410454 2.017099
vertex 0.687847 -8.414949 1.975801
vertex 0.741132 -8.408480 2.035228
endloop
endfacet
facet normal -0.000001 -0.994127 0.108223
outer loop
vertex 0.319108 -8.422135 1.909783
vertex 0.687847 -8.414949 1.975801
vertex 0.388725 -8.410454 2.017099
endloop
endfacet
facet normal -0.000001 -0.994129 0.108204
outer loop
vertex 0.319108 -8.422135 1.909783
vertex 0.638524 -8.421664 1.914115
vertex 0.687847 -8.414949 1.975801
endloop
endfacet
facet normal -0.000001 -0.994126 0.108231
outer loop
vertex 0.319108 -8.422135 1.909783
vertex 0.593607 -8.428576 1.850624
vertex 0.638524 -8.421664 1.914115
endloop
endfacet
facet normal -0.000001 -0.994128 0.108213
outer loop
vertex 0.259802 -8.434152 1.799397
vertex 0.593607 -8.428576 1.850624
vertex 0.319108 -8.422135 1.909783
endloop
endfacet
facet normal 0.000000 -0.994130 0.108194
outer loop
vertex 0.259802 -8.434152 1.799397
vertex 0.553546 -8.435634 1.785782
vertex 0.593607 -8.428576 1.850624
endloop
endfacet
facet normal 0.000000 -0.994128 0.108214
outer loop
vertex 0.210952 -8.446450 1.686415
vertex 0.553546 -8.435634 1.785782
vertex 0.259802 -8.434152 1.799397
endloop
endfacet
facet normal -0.000001 -0.994126 0.108233
outer loop
vertex 0.210952 -8.446450 1.686415
vertex 0.518785 -8.442790 1.720042
vertex 0.553546 -8.435634 1.785782
endloop
endfacet
facet normal -0.000002 -0.994125 0.108239
outer loop
vertex 0.210952 -8.446450 1.686415
vertex 0.489772 -8.449995 1.653858
vertex 0.518785 -8.442790 1.720042
endloop
endfacet
facet normal -0.000002 -0.994129 0.108205
outer loop
vertex 0.172705 -8.458981 1.571310
vertex 0.489772 -8.449995 1.653858
vertex 0.210952 -8.446450 1.686415
endloop
endfacet
facet normal 0.000002 -0.994213 0.107430
outer loop
vertex 0.735262 -8.448812 1.664728
vertex 0.840672 -8.449257 1.660631
vertex 0.766139 -8.448726 1.665516
endloop
endfacet
facet normal -0.000003 -0.994098 0.108484
outer loop
vertex 0.705530 -8.449059 1.662453
vertex 0.840672 -8.449257 1.660631
vertex 0.735262 -8.448812 1.664728
endloop
endfacet
facet normal 0.000001 -0.994152 0.107987
outer loop
vertex 0.676925 -8.449453 1.658828
vertex 0.840672 -8.449257 1.660631
vertex 0.705530 -8.449059 1.662453
endloop
endfacet
facet normal 0.000001 -0.994119 0.108295
outer loop
vertex 0.676925 -8.449453 1.658828
vertex 0.911525 -8.450811 1.646354
vertex 0.840672 -8.449257 1.660631
endloop
endfacet
facet normal 0.000002 -0.994131 0.108179
outer loop
vertex 0.649426 -8.449981 1.653986
vertex 0.911525 -8.450811 1.646354
vertex 0.676925 -8.449453 1.658828
endloop
endfacet
facet normal 0.000000 -0.994139 0.108109
outer loop
vertex 0.623015 -8.450625 1.648063
vertex 0.911525 -8.450811 1.646354
vertex 0.649426 -8.449981 1.653986
endloop
endfacet
facet normal 0.000000 -0.994126 0.108230
outer loop
vertex 0.172705 -8.458981 1.571310
vertex 0.466953 -8.457198 1.587684
vertex 0.489772 -8.449995 1.653858
endloop
endfacet
facet normal -0.000000 -0.994135 0.108150
outer loop
vertex 0.597672 -8.451373 1.641194
vertex 0.911525 -8.450811 1.646354
vertex 0.623015 -8.450625 1.648063
endloop
endfacet
facet normal -0.000000 -0.994124 0.108250
outer loop
vertex 0.597672 -8.451373 1.641194
vertex 0.978164 -8.453326 1.623256
vertex 0.911525 -8.450811 1.646354
endloop
endfacet
facet normal 0.000001 -0.994105 0.108419
outer loop
vertex 0.573378 -8.452209 1.633514
vertex 0.978164 -8.453326 1.623256
vertex 0.597672 -8.451373 1.641194
endloop
endfacet
facet normal -0.000002 -0.994149 0.108014
outer loop
vertex 0.550112 -8.453118 1.625159
vertex 0.978164 -8.453326 1.623256
vertex 0.573378 -8.452209 1.633514
endloop
endfacet
facet normal -0.000001 -0.994127 0.108222
outer loop
vertex 0.527856 -8.454087 1.616263
vertex 0.978164 -8.453326 1.623256
vertex 0.550112 -8.453118 1.625159
endloop
endfacet
facet normal -0.000000 -0.994130 0.108189
outer loop
vertex 0.527856 -8.454087 1.616263
vertex 1.040056 -8.456738 1.591905
vertex 0.978164 -8.453326 1.623256
endloop
endfacet
facet normal -0.000002 -0.994106 0.108411
outer loop
vertex 0.506591 -8.455099 1.606962
vertex 1.040056 -8.456738 1.591905
vertex 0.527856 -8.454087 1.616263
endloop
endfacet
facet normal 0.000001 -0.994122 0.108270
outer loop
vertex 0.486296 -8.456141 1.597391
vertex 1.040056 -8.456738 1.591905
vertex 0.506591 -8.455099 1.606962
endloop
endfacet
facet normal 0.000000 -0.994121 0.108277
outer loop
vertex 0.466953 -8.457198 1.587684
vertex 1.040056 -8.456738 1.591905
vertex 0.486296 -8.456141 1.597391
endloop
endfacet
facet normal 0.000000 -0.994128 0.108214
outer loop
vertex 0.466953 -8.457198 1.587684
vertex 1.096666 -8.460988 1.552872
vertex 1.040056 -8.456738 1.591905
endloop
endfacet
facet normal -0.000000 -0.994133 0.108163
outer loop
vertex 0.172705 -8.458981 1.571310
vertex 1.096666 -8.460988 1.552872
vertex 0.466953 -8.457198 1.587684
endloop
endfacet
facet normal -0.000000 -0.994125 0.108239
outer loop
vertex 0.145204 -8.471690 1.454555
vertex 1.096666 -8.460988 1.552872
vertex 0.172705 -8.458981 1.571310
endloop
endfacet
facet normal 0.000000 -0.994131 0.108186
outer loop
vertex 0.145204 -8.471690 1.454555
vertex 1.147461 -8.466011 1.506725
vertex 1.096666 -8.460988 1.552872
endloop
endfacet
facet normal 0.000000 -0.994131 0.108184
outer loop
vertex 0.145204 -8.471690 1.454555
vertex 1.191906 -8.471746 1.454035
vertex 1.147461 -8.466011 1.506725
endloop
endfacet
facet normal -0.000000 -0.994126 0.108227
outer loop
vertex 0.128598 -8.484528 1.336621
vertex 0.630396 -8.477377 1.402313
vertex 0.145204 -8.471690 1.454555
endloop
endfacet
facet normal -0.000005 -0.994159 0.107922
outer loop
vertex 0.630396 -8.477377 1.402313
vertex 0.655420 -8.477085 1.404996
vertex 0.145204 -8.471690 1.454555
endloop
endfacet
facet normal 0.000000 -0.994121 0.108276
outer loop
vertex 0.655420 -8.477085 1.404996
vertex 1.191906 -8.471746 1.454035
vertex 0.145204 -8.471690 1.454555
endloop
endfacet
facet normal -0.000010 -0.994094 0.108521
outer loop
vertex 0.655420 -8.477085 1.404996
vertex 0.681901 -8.476919 1.406521
vertex 1.191906 -8.471746 1.454035
endloop
endfacet
facet normal -0.000003 -0.994171 0.107817
outer loop
vertex 0.681901 -8.476919 1.406521
vertex 0.710216 -8.476867 1.407004
vertex 1.191906 -8.471746 1.454035
endloop
endfacet
facet normal 0.000002 -0.994129 0.108206
outer loop
vertex 0.710216 -8.476867 1.407004
vertex 1.229468 -8.478132 1.395370
vertex 1.191906 -8.471746 1.454035
endloop
endfacet
facet normal -0.000010 -0.994208 0.107476
outer loop
vertex 0.754613 -8.477144 1.404446
vertex 1.229468 -8.478132 1.395370
vertex 0.710216 -8.476867 1.407004
endloop
endfacet
facet normal 0.000000 -0.994121 0.108276
outer loop
vertex 0.796728 -8.477959 1.396966
vertex 1.229468 -8.478132 1.395370
vertex 0.754613 -8.477144 1.404446
endloop
endfacet
facet normal -0.000049 -0.994260 0.106990
outer loop
vertex 0.128598 -8.484528 1.336621
vertex 0.606449 -8.477808 1.398355
vertex 0.630396 -8.477377 1.402313
endloop
endfacet
facet normal 0.000015 -0.994095 0.108516
outer loop
vertex 0.128598 -8.484528 1.336621
vertex 0.583201 -8.478390 1.393008
vertex 0.606449 -8.477808 1.398355
endloop
endfacet
facet normal 0.000000 -0.994130 0.108195
outer loop
vertex 0.836261 -8.479278 1.384853
vertex 1.229468 -8.478132 1.395370
vertex 0.796728 -8.477959 1.396966
endloop
endfacet
facet normal 0.000001 -0.994124 0.108245
outer loop
vertex 0.836261 -8.479278 1.384853
vertex 1.259612 -8.485107 1.331300
vertex 1.229468 -8.478132 1.395370
endloop
endfacet
facet normal 0.000005 -0.994136 0.108137
outer loop
vertex 0.128598 -8.484528 1.336621
vertex 0.560274 -8.479136 1.386156
vertex 0.583201 -8.478390 1.393008
endloop
endfacet
facet normal 0.000005 -0.994148 0.108022
outer loop
vertex 0.128598 -8.484528 1.336621
vertex 0.537289 -8.480058 1.377681
vertex 0.560274 -8.479136 1.386156
endloop
endfacet
facet normal -0.000004 -0.994141 0.108089
outer loop
vertex 0.872910 -8.481069 1.368397
vertex 1.259612 -8.485107 1.331300
vertex 0.836261 -8.479278 1.384853
endloop
endfacet
facet normal -0.000004 -0.994100 0.108464
outer loop
vertex 0.128598 -8.484528 1.336621
vertex 0.513866 -8.481170 1.367470
vertex 0.537289 -8.480058 1.377681
endloop
endfacet
facet normal -0.000002 -0.994121 0.108272
outer loop
vertex 0.906374 -8.483301 1.347886
vertex 1.259612 -8.485107 1.331300
vertex 0.872910 -8.481069 1.368397
endloop
endfacet
facet normal 0.000000 -0.994143 0.108075
outer loop
vertex 0.128598 -8.484528 1.336621
vertex 0.489628 -8.482483 1.355405
vertex 0.513866 -8.481170 1.367470
endloop
endfacet
facet normal -0.000001 -0.994134 0.108158
outer loop
vertex 0.128598 -8.484528 1.336621
vertex 0.464196 -8.484011 1.341372
vertex 0.489628 -8.482483 1.355405
endloop
endfacet
facet normal -0.000002 -0.994127 0.108220
outer loop
vertex 0.936353 -8.485944 1.323612
vertex 1.259612 -8.485107 1.331300
vertex 0.906374 -8.483301 1.347886
endloop
endfacet
facet normal -0.000001 -0.994125 0.108235
outer loop
vertex 0.128598 -8.484528 1.336621
vertex 0.437191 -8.485765 1.325253
vertex 0.464196 -8.484011 1.341372
endloop
endfacet
facet normal -0.000001 -0.994126 0.108226
outer loop
vertex 0.123030 -8.497442 1.217983
vertex 0.437191 -8.485765 1.325253
vertex 0.128598 -8.484528 1.336621
endloop
endfacet
facet normal -0.000001 -0.994127 0.108218
outer loop
vertex 0.936353 -8.485944 1.323612
vertex 1.281804 -8.492608 1.262394
vertex 1.259612 -8.485107 1.331300
endloop
endfacet
facet normal -0.000002 -0.994116 0.108321
outer loop
vertex 0.123030 -8.497442 1.217983
vertex 0.408235 -8.487760 1.306934
vertex 0.437191 -8.485765 1.325253
endloop
endfacet
facet normal 0.000003 -0.994123 0.108259
outer loop
vertex 0.962546 -8.488965 1.295863
vertex 1.281804 -8.492608 1.262394
vertex 0.936353 -8.485944 1.323612
endloop
endfacet
facet normal -0.000001 -0.994131 0.108187
outer loop
vertex 0.123030 -8.497442 1.217983
vertex 0.395333 -8.495956 1.231634
vertex 0.408235 -8.487760 1.306934
endloop
endfacet
facet normal -0.000002 -0.994131 0.108183
outer loop
vertex 0.984651 -8.492332 1.264930
vertex 1.281804 -8.492608 1.262394
vertex 0.962546 -8.488965 1.295863
endloop
endfacet
facet normal -0.000002 -0.994125 0.108235
outer loop
vertex 1.002368 -8.496015 1.231100
vertex 1.281804 -8.492608 1.262394
vertex 0.984651 -8.492332 1.264930
endloop
endfacet
facet normal 0.000000 -0.994127 0.108218
outer loop
vertex 1.002368 -8.496015 1.231100
vertex 1.295512 -8.500573 1.189223
vertex 1.281804 -8.492608 1.262394
endloop
endfacet
facet normal -0.000001 -0.994127 0.108221
outer loop
vertex 0.123030 -8.497442 1.217983
vertex 0.392403 -8.503584 1.161566
vertex 0.395333 -8.495956 1.231634
endloop
endfacet
facet normal 0.000001 -0.994126 0.108228
outer loop
vertex 1.015396 -8.499981 1.194665
vertex 1.295512 -8.500573 1.189223
vertex 1.002368 -8.496015 1.231100
endloop
endfacet
facet normal -0.000000 -0.994127 0.108217
outer loop
vertex 0.128138 -8.508037 1.120661
vertex 0.392403 -8.503584 1.161566
vertex 0.123030 -8.497442 1.217983
endloop
endfacet
facet normal 0.000000 -0.994123 0.108257
outer loop
vertex 1.023433 -8.504199 1.155913
vertex 1.295512 -8.500573 1.189223
vertex 1.015396 -8.499981 1.194665
endloop
endfacet
facet normal -0.000000 -0.994128 0.108208
outer loop
vertex 1.023433 -8.504199 1.155913
vertex 1.300199 -8.508941 1.112355
vertex 1.295512 -8.500573 1.189223
endloop
endfacet
facet normal 0.000000 -0.994124 0.108250
outer loop
vertex 0.128138 -8.508037 1.120661
vertex 0.398579 -8.510614 1.096979
vertex 0.392403 -8.503584 1.161566
endloop
endfacet
facet normal 0.000001 -0.994128 0.108209
outer loop
vertex 1.026179 -8.508638 1.115134
vertex 1.300199 -8.508941 1.112355
vertex 1.023433 -8.504199 1.155913
endloop
endfacet
facet normal 0.000000 -0.994126 0.108229
outer loop
vertex 0.143159 -8.517996 1.029169
vertex 0.398579 -8.510614 1.096979
vertex 0.128138 -8.508037 1.120661
endloop
endfacet
facet normal 0.000001 -0.994124 0.108248
outer loop
vertex 1.023653 -8.513564 1.069885
vertex 1.300199 -8.508941 1.112355
vertex 1.026179 -8.508638 1.115134
endloop
endfacet
facet normal 0.000001 -0.994128 0.108210
outer loop
vertex 1.023653 -8.513564 1.069885
vertex 1.294961 -8.517211 1.036381
vertex 1.300199 -8.508941 1.112355
endloop
endfacet
facet normal -0.000002 -0.994126 0.108225
outer loop
vertex 0.143159 -8.517996 1.029169
vertex 0.412998 -8.517021 1.038126
vertex 0.398579 -8.510614 1.096979
endloop
endfacet
facet normal -0.000001 -0.994127 0.108224
outer loop
vertex 1.016224 -8.518188 1.027406
vertex 1.294961 -8.517211 1.036381
vertex 1.023653 -8.513564 1.069885
endloop
endfacet
facet normal -0.000001 -0.994127 0.108217
outer loop
vertex 0.143159 -8.517996 1.029169
vertex 0.434796 -8.522776 0.985257
vertex 0.412998 -8.517021 1.038126
endloop
endfacet
facet normal -0.000001 -0.994130 0.108192
outer loop
vertex 1.016224 -8.518188 1.027406
vertex 1.279733 -8.525175 0.963216
vertex 1.294961 -8.517211 1.036381
endloop
endfacet
facet normal 0.000002 -0.994132 0.108170
outer loop
vertex 0.167637 -8.527267 0.944009
vertex 0.434796 -8.522776 0.985257
vertex 0.143159 -8.517996 1.029169
endloop
endfacet
facet normal 0.000004 -0.994126 0.108225
outer loop
vertex 1.004116 -8.522487 0.987919
vertex 1.279733 -8.525175 0.963216
vertex 1.016224 -8.518188 1.027406
endloop
endfacet
facet normal 0.000002 -0.994126 0.108230
outer loop
vertex 0.987551 -8.526435 0.951646
vertex 1.279733 -8.525175 0.963216
vertex 1.004116 -8.522487 0.987919
endloop
endfacet
facet normal 0.000002 -0.994121 0.108274
outer loop
vertex 0.167637 -8.527267 0.944009
vertex 0.463109 -8.527852 0.938623
vertex 0.434796 -8.522776 0.985257
endloop
endfacet
facet normal 0.000001 -0.994126 0.108226
outer loop
vertex 0.987551 -8.526435 0.951646
vertex 1.255243 -8.532755 0.893583
vertex 1.279733 -8.525175 0.963216
endloop
endfacet
facet normal 0.000001 -0.994129 0.108200
outer loop
vertex 0.966753 -8.530009 0.918810
vertex 1.255243 -8.532755 0.893583
vertex 0.987551 -8.526435 0.951646
endloop
endfacet
facet normal 0.000002 -0.994130 0.108192
outer loop
vertex 0.201114 -8.535792 0.865681
vertex 0.463109 -8.527852 0.938623
vertex 0.167637 -8.527267 0.944009
endloop
endfacet
facet normal -0.000001 -0.994123 0.108255
outer loop
vertex 0.201114 -8.535792 0.865681
vertex 0.497072 -8.532223 0.898475
vertex 0.463109 -8.527852 0.938623
endloop
endfacet
facet normal 0.000003 -0.994125 0.108240
outer loop
vertex 0.941946 -8.533186 0.889631
vertex 1.255243 -8.532755 0.893583
vertex 0.966753 -8.530009 0.918810
endloop
endfacet
facet normal -0.000001 -0.994129 0.108203
outer loop
vertex 0.201114 -8.535792 0.865681
vertex 0.535821 -8.535860 0.865064
vertex 0.497072 -8.532223 0.898475
endloop
endfacet
facet normal 0.000002 -0.994124 0.108245
outer loop
vertex 0.941946 -8.533186 0.889631
vertex 1.222218 -8.539872 0.828207
vertex 1.255243 -8.532755 0.893583
endloop
endfacet
facet normal -0.000004 -0.994131 0.108183
outer loop
vertex 0.913352 -8.535939 0.864332
vertex 1.222218 -8.539872 0.828207
vertex 0.941946 -8.533186 0.889631
endloop
endfacet
facet normal -0.000001 -0.994128 0.108206
outer loop
vertex 0.243135 -8.543521 0.794689
vertex 0.535821 -8.535860 0.865064
vertex 0.201114 -8.535792 0.865681
endloop
endfacet
facet normal 0.000001 -0.994125 0.108236
outer loop
vertex 0.243135 -8.543521 0.794689
vertex 0.578493 -8.538736 0.838640
vertex 0.535821 -8.535860 0.865064
endloop
endfacet
facet normal 0.000001 -0.994126 0.108229
outer loop
vertex 0.881195 -8.538247 0.843135
vertex 1.222218 -8.539872 0.828207
vertex 0.913352 -8.535939 0.864332
endloop
endfacet
facet normal 0.000000 -0.994132 0.108176
outer loop
vertex 0.845698 -8.540084 0.826262
vertex 1.222218 -8.539872 0.828207
vertex 0.881195 -8.538247 0.843135
endloop
endfacet
facet normal -0.000000 -0.994117 0.108311
outer loop
vertex 0.243135 -8.543521 0.794689
vertex 0.624223 -8.540825 0.819456
vertex 0.578493 -8.538736 0.838640
endloop
endfacet
facet normal 0.000000 -0.994127 0.108218
outer loop
vertex 0.845698 -8.540084 0.826262
vertex 1.181388 -8.546447 0.767811
vertex 1.222218 -8.539872 0.828207
endloop
endfacet
facet normal -0.000001 -0.994134 0.108151
outer loop
vertex 0.807084 -8.541426 0.813935
vertex 1.181388 -8.546447 0.767811
vertex 0.845698 -8.540084 0.826262
endloop
endfacet
facet normal -0.000000 -0.994134 0.108155
outer loop
vertex 0.243135 -8.543521 0.794689
vertex 0.672147 -8.542098 0.807761
vertex 0.624223 -8.540825 0.819456
endloop
endfacet
facet normal 0.000001 -0.994116 0.108320
outer loop
vertex 0.765578 -8.542249 0.806376
vertex 1.181388 -8.546447 0.767811
vertex 0.807084 -8.541426 0.813935
endloop
endfacet
facet normal 0.000002 -0.994154 0.107970
outer loop
vertex 0.243135 -8.543521 0.794689
vertex 0.721401 -8.542528 0.803807
vertex 0.672147 -8.542098 0.807761
endloop
endfacet
facet normal -0.000003 -0.994142 0.108083
outer loop
vertex 0.721401 -8.542528 0.803807
vertex 1.181388 -8.546447 0.767811
vertex 0.765578 -8.542249 0.806376
endloop
endfacet
facet normal 0.000000 -0.994119 0.108292
outer loop
vertex 0.243135 -8.543521 0.794689
vertex 1.181388 -8.546447 0.767811
vertex 0.721401 -8.542528 0.803807
endloop
endfacet
facet normal -0.000000 -0.994131 0.108187
outer loop
vertex 0.293244 -8.550395 0.731535
vertex 1.181388 -8.546447 0.767811
vertex 0.243135 -8.543521 0.794689
endloop
endfacet
facet normal -0.000000 -0.994128 0.108212
outer loop
vertex 0.293244 -8.550395 0.731535
vertex 1.133480 -8.552400 0.713119
vertex 1.181388 -8.546447 0.767811
endloop
endfacet
facet normal 0.000000 -0.994129 0.108199
outer loop
vertex 0.350984 -8.556362 0.676719
vertex 1.133480 -8.552400 0.713119
vertex 0.293244 -8.550395 0.731535
endloop
endfacet
facet normal 0.000000 -0.994124 0.108246
outer loop
vertex 0.350984 -8.556362 0.676719
vertex 1.079223 -8.557653 0.664856
vertex 1.133480 -8.552400 0.713119
endloop
endfacet
facet normal 0.000000 -0.994126 0.108226
outer loop
vertex 0.415898 -8.561367 0.630745
vertex 1.079223 -8.557653 0.664856
vertex 0.350984 -8.556362 0.676719
endloop
endfacet
facet normal 0.000000 -0.994125 0.108241
outer loop
vertex 0.415898 -8.561367 0.630745
vertex 1.019344 -8.562129 0.623744
vertex 1.079223 -8.557653 0.664856
endloop
endfacet
facet normal 0.000000 -0.994132 0.108177
outer loop
vertex 0.487531 -8.565354 0.594113
vertex 1.019344 -8.562129 0.623744
vertex 0.415898 -8.561367 0.630745
endloop
endfacet
facet normal -0.000001 -0.994126 0.108227
outer loop
vertex 0.487531 -8.565354 0.594113
vertex 0.954572 -8.565747 0.590508
vertex 1.019344 -8.562129 0.623744
endloop
endfacet
facet normal -0.000001 -0.994127 0.108221
outer loop
vertex 0.565426 -8.568271 0.567326
vertex 0.954572 -8.565747 0.590508
vertex 0.487531 -8.565354 0.594113
endloop
endfacet
facet normal -0.000000 -0.994127 0.108215
outer loop
vertex 0.565426 -8.568271 0.567326
vertex 0.885634 -8.568429 0.565872
vertex 0.954572 -8.565747 0.590508
endloop
endfacet
facet normal -0.000000 -0.994137 0.108127
outer loop
vertex 0.649127 -8.570060 0.550886
vertex 0.885634 -8.568429 0.565872
vertex 0.565426 -8.568271 0.567326
endloop
endfacet
facet normal -0.000004 -0.994120 0.108281
outer loop
vertex 0.649127 -8.570060 0.550886
vertex 0.813260 -8.570096 0.550559
vertex 0.885634 -8.568429 0.565872
endloop
endfacet
facet normal -0.000004 -0.994120 0.108281
outer loop
vertex 0.738178 -8.570669 0.545294
vertex 0.813260 -8.570096 0.550559
vertex 0.649127 -8.570060 0.550886
endloop
endfacet
facet normal 0.000000 0.994127 -0.108218
outer loop
vertex 0.767386 -7.839952 2.348721
vertex 0.886372 -7.830712 2.433597
vertex 1.051344 -7.853406 2.225119
endloop
endfacet
facet normal -0.000001 0.994128 -0.108214
outer loop
vertex 0.657983 -7.849782 2.258411
vertex 0.767386 -7.839952 2.348721
vertex 1.051344 -7.853406 2.225119
endloop
endfacet
facet normal -0.000000 0.994127 -0.108219
outer loop
vertex 0.558308 -7.860153 2.163140
vertex 0.657983 -7.849782 2.258411
vertex 1.051344 -7.853406 2.225119
endloop
endfacet
facet normal 0.000001 0.994127 -0.108223
outer loop
vertex 0.558308 -7.860153 2.163140
vertex 1.051344 -7.853406 2.225119
vertex 0.984952 -7.857906 2.183789
endloop
endfacet
facet normal 0.000001 0.994128 -0.108209
outer loop
vertex 0.558308 -7.860153 2.163140
vertex 0.984952 -7.857906 2.183789
vertex 0.920288 -7.862897 2.137932
endloop
endfacet
facet normal 0.000000 0.994128 -0.108212
outer loop
vertex 0.468507 -7.871013 2.063381
vertex 0.558308 -7.860153 2.163140
vertex 0.920288 -7.862897 2.137932
endloop
endfacet
facet normal 0.000001 0.994125 -0.108240
outer loop
vertex 0.468507 -7.871013 2.063381
vertex 0.920288 -7.862897 2.137932
vertex 0.857799 -7.868333 2.088002
endloop
endfacet
facet normal 0.000000 0.994126 -0.108225
outer loop
vertex 0.468507 -7.871013 2.063381
vertex 0.857799 -7.868333 2.088002
vertex 0.797932 -7.874162 2.034452
endloop
endfacet
facet normal -0.000001 0.994127 -0.108215
outer loop
vertex 0.388725 -7.882309 1.959607
vertex 0.468507 -7.871013 2.063381
vertex 0.797932 -7.874162 2.034452
endloop
endfacet
facet normal -0.000000 0.994125 -0.108233
outer loop
vertex 0.388725 -7.882309 1.959607
vertex 0.797932 -7.874162 2.034452
vertex 0.741132 -7.880336 1.977736
endloop
endfacet
facet normal -0.000001 0.994129 -0.108201
outer loop
vertex 0.388725 -7.882309 1.959607
vertex 0.741132 -7.880336 1.977736
vertex 0.687847 -7.886805 1.918309
endloop
endfacet
facet normal -0.000001 0.994128 -0.108210
outer loop
vertex 0.319108 -7.893991 1.852291
vertex 0.388725 -7.882309 1.959607
vertex 0.687847 -7.886805 1.918309
endloop
endfacet
facet normal 0.000000 0.994126 -0.108231
outer loop
vertex 0.319108 -7.893991 1.852291
vertex 0.687847 -7.886805 1.918309
vertex 0.638524 -7.893520 1.856623
endloop
endfacet
facet normal -0.000000 0.994128 -0.108214
outer loop
vertex 0.319108 -7.893991 1.852291
vertex 0.638524 -7.893520 1.856623
vertex 0.593607 -7.900431 1.793132
endloop
endfacet
facet normal -0.000001 0.994128 -0.108214
outer loop
vertex 0.259802 -7.906008 1.741905
vertex 0.319108 -7.893991 1.852291
vertex 0.593607 -7.900431 1.793132
endloop
endfacet
facet normal -0.000000 0.994126 -0.108232
outer loop
vertex 0.259802 -7.906008 1.741905
vertex 0.593607 -7.900431 1.793132
vertex 0.553546 -7.907490 1.728290
endloop
endfacet
facet normal -0.000000 0.994128 -0.108214
outer loop
vertex 0.210952 -7.918306 1.628924
vertex 0.259802 -7.906008 1.741905
vertex 0.553546 -7.907490 1.728290
endloop
endfacet
facet normal -0.000001 0.994127 -0.108218
outer loop
vertex 0.210952 -7.918306 1.628924
vertex 0.553546 -7.907490 1.728290
vertex 0.518785 -7.914646 1.662550
endloop
endfacet
facet normal -0.000001 0.994129 -0.108202
outer loop
vertex 0.210952 -7.918306 1.628924
vertex 0.518785 -7.914646 1.662550
vertex 0.489772 -7.921850 1.596367
endloop
endfacet
facet normal -0.000000 0.994129 -0.108205
outer loop
vertex 0.172705 -7.930836 1.513818
vertex 0.210952 -7.918306 1.628924
vertex 0.489772 -7.921850 1.596367
endloop
endfacet
facet normal -0.000001 0.994152 -0.107994
outer loop
vertex 0.735262 -7.920667 1.607236
vertex 0.766139 -7.920581 1.608024
vertex 0.840672 -7.921113 1.603139
endloop
endfacet
facet normal 0.000000 0.994134 -0.108156
outer loop
vertex 0.705530 -7.920915 1.604962
vertex 0.735262 -7.920667 1.607236
vertex 0.840672 -7.921113 1.603139
endloop
endfacet
facet normal -0.000001 0.994105 -0.108419
outer loop
vertex 0.676925 -7.921309 1.601336
vertex 0.705530 -7.920915 1.604962
vertex 0.840672 -7.921113 1.603139
endloop
endfacet
facet normal -0.000001 0.994124 -0.108247
outer loop
vertex 0.676925 -7.921309 1.601336
vertex 0.840672 -7.921113 1.603139
vertex 0.911525 -7.922667 1.588862
endloop
endfacet
facet normal 0.000001 0.994131 -0.108179
outer loop
vertex 0.649426 -7.921836 1.596494
vertex 0.676925 -7.921309 1.601336
vertex 0.911525 -7.922667 1.588862
endloop
endfacet
facet normal -0.000000 0.994139 -0.108109
outer loop
vertex 0.623015 -7.922481 1.590571
vertex 0.649426 -7.921836 1.596494
vertex 0.911525 -7.922667 1.588862
endloop
endfacet
facet normal 0.000000 0.994127 -0.108223
outer loop
vertex 0.172705 -7.930836 1.513818
vertex 0.489772 -7.921850 1.596367
vertex 0.466953 -7.929054 1.530193
endloop
endfacet
facet normal -0.000001 0.994135 -0.108150
outer loop
vertex 0.597672 -7.923229 1.583702
vertex 0.623015 -7.922481 1.590571
vertex 0.911525 -7.922667 1.588862
endloop
endfacet
facet normal -0.000001 0.994127 -0.108219
outer loop
vertex 0.597672 -7.923229 1.583702
vertex 0.911525 -7.922667 1.588862
vertex 0.978164 -7.925181 1.565764
endloop
endfacet
facet normal -0.000001 0.994120 -0.108280
outer loop
vertex 0.573378 -7.924065 1.576022
vertex 0.597672 -7.923229 1.583702
vertex 0.978164 -7.925181 1.565764
endloop
endfacet
facet normal -0.000000 0.994135 -0.108144
outer loop
vertex 0.550112 -7.924974 1.567667
vertex 0.573378 -7.924065 1.576022
vertex 0.978164 -7.925181 1.565764
endloop
endfacet
facet normal -0.000001 0.994126 -0.108224
outer loop
vertex 0.527856 -7.925943 1.558772
vertex 0.550112 -7.924974 1.567667
vertex 0.978164 -7.925181 1.565764
endloop
endfacet
facet normal -0.000001 0.994125 -0.108242
outer loop
vertex 0.527856 -7.925943 1.558772
vertex 0.978164 -7.925181 1.565764
vertex 1.040056 -7.928595 1.534414
endloop
endfacet
facet normal 0.000001 0.994126 -0.108232
outer loop
vertex 0.506591 -7.926955 1.549470
vertex 0.527856 -7.925943 1.558772
vertex 1.040056 -7.928595 1.534414
endloop
endfacet
facet normal 0.000001 0.994121 -0.108270
outer loop
vertex 0.486296 -7.927997 1.539899
vertex 0.506591 -7.926955 1.549470
vertex 1.040056 -7.928595 1.534414
endloop
endfacet
facet normal 0.000001 0.994139 -0.108107
outer loop
vertex 0.466953 -7.929054 1.530193
vertex 0.486296 -7.927997 1.539899
vertex 1.040056 -7.928595 1.534414
endloop
endfacet
facet normal 0.000000 0.994130 -0.108191
outer loop
vertex 0.466953 -7.929054 1.530193
vertex 1.040056 -7.928595 1.534414
vertex 1.096666 -7.932843 1.495380
endloop
endfacet
facet normal -0.000000 0.994123 -0.108254
outer loop
vertex 0.172705 -7.930836 1.513818
vertex 0.466953 -7.929054 1.530193
vertex 1.096666 -7.932843 1.495380
endloop
endfacet
facet normal -0.000000 0.994128 -0.108213
outer loop
vertex 0.145204 -7.943546 1.397063
vertex 0.172705 -7.930836 1.513818
vertex 1.096666 -7.932843 1.495380
endloop
endfacet
facet normal 0.000000 0.994128 -0.108208
outer loop
vertex 0.145204 -7.943546 1.397063
vertex 1.096666 -7.932843 1.495380
vertex 1.147461 -7.937867 1.449234
endloop
endfacet
facet normal 0.000000 0.994126 -0.108225
outer loop
vertex 0.145204 -7.943546 1.397063
vertex 1.147461 -7.937867 1.449234
vertex 1.191906 -7.943603 1.396543
endloop
endfacet
facet normal -0.000000 0.994127 -0.108219
outer loop
vertex 0.128598 -7.956384 1.279130
vertex 0.145204 -7.943546 1.397063
vertex 0.630396 -7.949233 1.344821
endloop
endfacet
facet normal 0.000005 0.994120 -0.108281
outer loop
vertex 0.630396 -7.949233 1.344821
vertex 0.145204 -7.943546 1.397063
vertex 0.655420 -7.948941 1.347504
endloop
endfacet
facet normal 0.000000 0.994125 -0.108240
outer loop
vertex 0.655420 -7.948941 1.347504
vertex 0.145204 -7.943546 1.397063
vertex 1.191906 -7.943603 1.396543
endloop
endfacet
facet normal -0.000042 0.994305 -0.106571
outer loop
vertex 0.655420 -7.948941 1.347504
vertex 1.191906 -7.943603 1.396543
vertex 0.681901 -7.948774 1.349029
endloop
endfacet
facet normal 0.000003 0.994079 -0.108663
outer loop
vertex 0.681901 -7.948774 1.349029
vertex 1.191906 -7.943603 1.396543
vertex 0.710216 -7.948722 1.349512
endloop
endfacet
facet normal 0.000000 0.994129 -0.108198
outer loop
vertex 0.710216 -7.948722 1.349512
vertex 1.191906 -7.943603 1.396543
vertex 1.229468 -7.949988 1.337878
endloop
endfacet
facet normal -0.000000 0.994082 -0.108630
outer loop
vertex 0.754613 -7.949000 1.346954
vertex 0.710216 -7.948722 1.349512
vertex 1.229468 -7.949988 1.337878
endloop
endfacet
facet normal -0.000000 0.994137 -0.108128
outer loop
vertex 0.796728 -7.949815 1.339474
vertex 0.754613 -7.949000 1.346954
vertex 1.229468 -7.949988 1.337878
endloop
endfacet
facet normal 0.000040 0.994083 -0.108622
outer loop
vertex 0.128598 -7.956384 1.279130
vertex 0.630396 -7.949233 1.344821
vertex 0.606449 -7.949664 1.340864
endloop
endfacet
facet normal -0.000018 0.994149 -0.108014
outer loop
vertex 0.128598 -7.956384 1.279130
vertex 0.606449 -7.949664 1.340864
vertex 0.583201 -7.950245 1.335517
endloop
endfacet
facet normal -0.000000 0.994130 -0.108196
outer loop
vertex 0.836261 -7.951133 1.327361
vertex 0.796728 -7.949815 1.339474
vertex 1.229468 -7.949988 1.337878
endloop
endfacet
facet normal 0.000000 0.994126 -0.108228
outer loop
vertex 0.836261 -7.951133 1.327361
vertex 1.229468 -7.949988 1.337878
vertex 1.259612 -7.956963 1.273808
endloop
endfacet
facet normal 0.000009 0.994120 -0.108284
outer loop
vertex 0.128598 -7.956384 1.279130
vertex 0.583201 -7.950245 1.335517
vertex 0.560274 -7.950992 1.328664
endloop
endfacet
facet normal -0.000006 0.994139 -0.108113
outer loop
vertex 0.128598 -7.956384 1.279130
vertex 0.560274 -7.950992 1.328664
vertex 0.537289 -7.951914 1.320190
endloop
endfacet
facet normal -0.000000 0.994131 -0.108181
outer loop
vertex 0.872910 -7.952925 1.310905
vertex 0.836261 -7.951133 1.327361
vertex 1.259612 -7.956963 1.273808
endloop
endfacet
facet normal -0.000002 0.994136 -0.108136
outer loop
vertex 0.128598 -7.956384 1.279130
vertex 0.537289 -7.951914 1.320190
vertex 0.513866 -7.953025 1.309978
endloop
endfacet
facet normal 0.000001 0.994121 -0.108272
outer loop
vertex 0.906374 -7.955157 1.290395
vertex 0.872910 -7.952925 1.310905
vertex 1.259612 -7.956963 1.273808
endloop
endfacet
facet normal 0.000002 0.994117 -0.108316
outer loop
vertex 0.128598 -7.956384 1.279130
vertex 0.513866 -7.953025 1.309978
vertex 0.489628 -7.954339 1.297913
endloop
endfacet
facet normal -0.000001 0.994136 -0.108139
outer loop
vertex 0.128598 -7.956384 1.279130
vertex 0.489628 -7.954339 1.297913
vertex 0.464196 -7.955866 1.283880
endloop
endfacet
facet normal 0.000000 0.994127 -0.108220
outer loop
vertex 0.936353 -7.957800 1.266120
vertex 0.906374 -7.955157 1.290395
vertex 1.259612 -7.956963 1.273808
endloop
endfacet
facet normal -0.000001 0.994128 -0.108208
outer loop
vertex 0.128598 -7.956384 1.279130
vertex 0.464196 -7.955866 1.283880
vertex 0.437191 -7.957621 1.267761
endloop
endfacet
facet normal -0.000000 0.994128 -0.108213
outer loop
vertex 0.123030 -7.969298 1.160492
vertex 0.128598 -7.956384 1.279130
vertex 0.437191 -7.957621 1.267761
endloop
endfacet
facet normal -0.000000 0.994127 -0.108216
outer loop
vertex 0.936353 -7.957800 1.266120
vertex 1.259612 -7.956963 1.273808
vertex 1.281804 -7.964464 1.204903
endloop
endfacet
facet normal 0.000002 0.994121 -0.108276
outer loop
vertex 0.123030 -7.969298 1.160492
vertex 0.437191 -7.957621 1.267761
vertex 0.408235 -7.959615 1.249442
endloop
endfacet
facet normal 0.000002 0.994129 -0.108200
outer loop
vertex 0.962546 -7.960820 1.238372
vertex 0.936353 -7.957800 1.266120
vertex 1.281804 -7.964464 1.204903
endloop
endfacet
facet normal 0.000000 0.994128 -0.108211
outer loop
vertex 0.123030 -7.969298 1.160492
vertex 0.408235 -7.959615 1.249442
vertex 0.395333 -7.967812 1.174142
endloop
endfacet
facet normal 0.000000 0.994120 -0.108286
outer loop
vertex 0.984651 -7.964188 1.207438
vertex 0.962546 -7.960820 1.238372
vertex 1.281804 -7.964464 1.204903
endloop
endfacet
facet normal 0.000000 0.994130 -0.108188
outer loop
vertex 1.002368 -7.967870 1.173608
vertex 0.984651 -7.964188 1.207438
vertex 1.281804 -7.964464 1.204903
endloop
endfacet
facet normal 0.000000 0.994126 -0.108226
outer loop
vertex 1.002368 -7.967870 1.173608
vertex 1.281804 -7.964464 1.204903
vertex 1.295512 -7.972429 1.131731
endloop
endfacet
facet normal 0.000001 0.994128 -0.108209
outer loop
vertex 0.123030 -7.969298 1.160492
vertex 0.395333 -7.967812 1.174142
vertex 0.392403 -7.975440 1.104074
endloop
endfacet
facet normal -0.000001 0.994126 -0.108228
outer loop
vertex 1.015396 -7.971837 1.137173
vertex 1.002368 -7.967870 1.173608
vertex 1.295512 -7.972429 1.131731
endloop
endfacet
facet normal 0.000000 0.994127 -0.108217
outer loop
vertex 0.128138 -7.979892 1.063170
vertex 0.123030 -7.969298 1.160492
vertex 0.392403 -7.975440 1.104074
endloop
endfacet
facet normal -0.000000 0.994128 -0.108213
outer loop
vertex 1.023433 -7.976055 1.098421
vertex 1.015396 -7.971837 1.137173
vertex 1.295512 -7.972429 1.131731
endloop
endfacet
facet normal 0.000000 0.994128 -0.108211
outer loop
vertex 1.023433 -7.976055 1.098421
vertex 1.295512 -7.972429 1.131731
vertex 1.300199 -7.980796 1.054863
endloop
endfacet
facet normal -0.000000 0.994124 -0.108247
outer loop
vertex 0.128138 -7.979892 1.063170
vertex 0.392403 -7.975440 1.104074
vertex 0.398579 -7.982470 1.039488
endloop
endfacet
facet normal -0.000001 0.994124 -0.108251
outer loop
vertex 1.026179 -7.980494 1.057642
vertex 1.023433 -7.976055 1.098421
vertex 1.300199 -7.980796 1.054863
endloop
endfacet
facet normal -0.000001 0.994128 -0.108209
outer loop
vertex 0.143159 -7.989852 0.971677
vertex 0.128138 -7.979892 1.063170
vertex 0.398579 -7.982470 1.039488
endloop
endfacet
facet normal -0.000001 0.994128 -0.108210
outer loop
vertex 1.023653 -7.985419 1.012393
vertex 1.026179 -7.980494 1.057642
vertex 1.300199 -7.980796 1.054863
endloop
endfacet
facet normal 0.000001 0.994126 -0.108224
outer loop
vertex 1.023653 -7.985419 1.012393
vertex 1.300199 -7.980796 1.054863
vertex 1.294961 -7.989067 0.978889
endloop
endfacet
facet normal -0.000000 0.994126 -0.108232
outer loop
vertex 0.143159 -7.989852 0.971677
vertex 0.398579 -7.982470 1.039488
vertex 0.412998 -7.988877 0.980634
endloop
endfacet
facet normal -0.000000 0.994126 -0.108224
outer loop
vertex 1.016224 -7.990044 0.969914
vertex 1.023653 -7.985419 1.012393
vertex 1.294961 -7.989067 0.978889
endloop
endfacet
facet normal -0.000001 0.994129 -0.108201
outer loop
vertex 0.143159 -7.989852 0.971677
vertex 0.412998 -7.988877 0.980634
vertex 0.434796 -7.994632 0.927765
endloop
endfacet
facet normal -0.000000 0.994128 -0.108206
outer loop
vertex 1.016224 -7.990044 0.969914
vertex 1.294961 -7.989067 0.978889
vertex 1.279733 -7.997031 0.905724
endloop
endfacet
facet normal -0.000001 0.994130 -0.108190
outer loop
vertex 0.167637 -7.999122 0.886517
vertex 0.143159 -7.989852 0.971677
vertex 0.434796 -7.994632 0.927765
endloop
endfacet
facet normal 0.000001 0.994126 -0.108225
outer loop
vertex 1.004116 -7.994342 0.930427
vertex 1.016224 -7.990044 0.969914
vertex 1.279733 -7.997031 0.905724
endloop
endfacet
facet normal 0.000000 0.994131 -0.108185
outer loop
vertex 0.987551 -7.998291 0.894155
vertex 1.004116 -7.994342 0.930427
vertex 1.279733 -7.997031 0.905724
endloop
endfacet
facet normal -0.000001 0.994119 -0.108295
outer loop
vertex 0.167637 -7.999122 0.886517
vertex 0.434796 -7.994632 0.927765
vertex 0.463109 -7.999708 0.881131
endloop
endfacet
facet normal 0.000000 0.994126 -0.108227
outer loop
vertex 0.987551 -7.998291 0.894155
vertex 1.279733 -7.997031 0.905724
vertex 1.255243 -8.004611 0.836091
endloop
endfacet
facet normal -0.000002 0.994124 -0.108246
outer loop
vertex 0.966753 -8.001865 0.861318
vertex 0.987551 -7.998291 0.894155
vertex 1.255243 -8.004611 0.836091
endloop
endfacet
facet normal -0.000001 0.994130 -0.108192
outer loop
vertex 0.201114 -8.007648 0.808190
vertex 0.167637 -7.999122 0.886517
vertex 0.463109 -7.999708 0.881131
endloop
endfacet
facet normal 0.000001 0.994129 -0.108197
outer loop
vertex 0.201114 -8.007648 0.808190
vertex 0.463109 -7.999708 0.881131
vertex 0.497072 -8.004079 0.840983
endloop
endfacet
facet normal 0.000000 0.994136 -0.108137
outer loop
vertex 0.941946 -8.005041 0.832139
vertex 0.966753 -8.001865 0.861318
vertex 1.255243 -8.004611 0.836091
endloop
endfacet
facet normal -0.000001 0.994127 -0.108218
outer loop
vertex 0.201114 -8.007648 0.808190
vertex 0.497072 -8.004079 0.840983
vertex 0.535821 -8.007715 0.807572
endloop
endfacet
facet normal 0.000000 0.994124 -0.108251
outer loop
vertex 0.941946 -8.005041 0.832139
vertex 1.255243 -8.004611 0.836091
vertex 1.222218 -8.011727 0.770715
endloop
endfacet
facet normal -0.000002 0.994131 -0.108183
outer loop
vertex 0.913352 -8.007795 0.806840
vertex 0.941946 -8.005041 0.832139
vertex 1.222218 -8.011727 0.770715
endloop
endfacet
facet normal -0.000001 0.994128 -0.108206
outer loop
vertex 0.243135 -8.015376 0.737198
vertex 0.201114 -8.007648 0.808190
vertex 0.535821 -8.007715 0.807572
endloop
endfacet
facet normal -0.000001 0.994129 -0.108203
outer loop
vertex 0.243135 -8.015376 0.737198
vertex 0.535821 -8.007715 0.807572
vertex 0.578493 -8.010592 0.781149
endloop
endfacet
facet normal -0.000003 0.994126 -0.108229
outer loop
vertex 0.881195 -8.010103 0.785643
vertex 0.913352 -8.007795 0.806840
vertex 1.222218 -8.011727 0.770715
endloop
endfacet
facet normal -0.000000 0.994140 -0.108101
outer loop
vertex 0.845698 -8.011939 0.768770
vertex 0.881195 -8.010103 0.785643
vertex 1.222218 -8.011727 0.770715
endloop
endfacet
facet normal 0.000000 0.994117 -0.108311
outer loop
vertex 0.243135 -8.015376 0.737198
vertex 0.578493 -8.010592 0.781149
vertex 0.624223 -8.012680 0.761964
endloop
endfacet
facet normal 0.000000 0.994127 -0.108220
outer loop
vertex 0.845698 -8.011939 0.768770
vertex 1.222218 -8.011727 0.770715
vertex 1.181388 -8.018302 0.710319
endloop
endfacet
facet normal 0.000001 0.994127 -0.108224
outer loop
vertex 0.807084 -8.013281 0.756443
vertex 0.845698 -8.011939 0.768770
vertex 1.181388 -8.018302 0.710319
endloop
endfacet
facet normal 0.000000 0.994130 -0.108197
outer loop
vertex 0.243135 -8.015376 0.737198
vertex 0.624223 -8.012680 0.761964
vertex 0.672147 -8.013953 0.750269
endloop
endfacet
facet normal -0.000002 0.994127 -0.108221
outer loop
vertex 0.765578 -8.014104 0.748884
vertex 0.807084 -8.013281 0.756443
vertex 1.181388 -8.018302 0.710319
endloop
endfacet
facet normal -0.000002 0.994151 -0.107996
outer loop
vertex 0.243135 -8.015376 0.737198
vertex 0.672147 -8.013953 0.750269
vertex 0.721401 -8.014383 0.746315
endloop
endfacet
facet normal 0.000003 0.994142 -0.108083
outer loop
vertex 0.721401 -8.014383 0.746315
vertex 0.765578 -8.014104 0.748884
vertex 1.181388 -8.018302 0.710319
endloop
endfacet
facet normal -0.000000 0.994124 -0.108248
outer loop
vertex 0.243135 -8.015376 0.737198
vertex 0.721401 -8.014383 0.746315
vertex 1.181388 -8.018302 0.710319
endloop
endfacet
facet normal -0.000000 0.994125 -0.108235
outer loop
vertex 0.293244 -8.022251 0.674043
vertex 0.243135 -8.015376 0.737198
vertex 1.181388 -8.018302 0.710319
endloop
endfacet
facet normal -0.000000 0.994128 -0.108213
outer loop
vertex 0.293244 -8.022251 0.674043
vertex 1.181388 -8.018302 0.710319
vertex 1.133480 -8.024256 0.655627
endloop
endfacet
facet normal -0.000000 0.994125 -0.108240
outer loop
vertex 0.350984 -8.028218 0.619227
vertex 0.293244 -8.022251 0.674043
vertex 1.133480 -8.024256 0.655627
endloop
endfacet
facet normal -0.000000 0.994129 -0.108203
outer loop
vertex 0.350984 -8.028218 0.619227
vertex 1.133480 -8.024256 0.655627
vertex 1.079223 -8.029510 0.607364
endloop
endfacet
facet normal -0.000000 0.994126 -0.108226
outer loop
vertex 0.415898 -8.033223 0.573253
vertex 0.350984 -8.028218 0.619227
vertex 1.079223 -8.029510 0.607364
endloop
endfacet
facet normal -0.000000 0.994127 -0.108222
outer loop
vertex 0.415898 -8.033223 0.573253
vertex 1.079223 -8.029510 0.607364
vertex 1.019344 -8.033985 0.566252
endloop
endfacet
facet normal -0.000000 0.994127 -0.108220
outer loop
vertex 0.487531 -8.037210 0.536621
vertex 0.415898 -8.033223 0.573253
vertex 1.019344 -8.033985 0.566252
endloop
endfacet
facet normal -0.000001 0.994124 -0.108250
outer loop
vertex 0.487531 -8.037210 0.536621
vertex 1.019344 -8.033985 0.566252
vertex 0.954572 -8.037602 0.533016
endloop
endfacet
facet normal -0.000001 0.994135 -0.108144
outer loop
vertex 0.565426 -8.040126 0.509834
vertex 0.487531 -8.037210 0.536621
vertex 0.954572 -8.037602 0.533016
endloop
endfacet
facet normal 0.000000 0.994131 -0.108186
outer loop
vertex 0.565426 -8.040126 0.509834
vertex 0.954572 -8.037602 0.533016
vertex 0.885634 -8.040284 0.508380
endloop
endfacet
facet normal -0.000000 0.994127 -0.108219
outer loop
vertex 0.649127 -8.041916 0.493394
vertex 0.565426 -8.040126 0.509834
vertex 0.885634 -8.040284 0.508380
endloop
endfacet
facet normal -0.000002 0.994115 -0.108328
outer loop
vertex 0.649127 -8.041916 0.493394
vertex 0.885634 -8.040284 0.508380
vertex 0.813260 -8.041951 0.493068
endloop
endfacet
facet normal -0.000002 0.994120 -0.108281
outer loop
vertex 0.738178 -8.042524 0.487803
vertex 0.649127 -8.041916 0.493394
vertex 0.813260 -8.041951 0.493068
endloop
endfacet
facet normal -0.582988 0.087924 0.807709
outer loop
vertex 0.767386 -8.368096 2.406213
vertex 0.886372 -8.358857 2.491089
vertex 0.886372 -7.830712 2.433597
endloop
endfacet
facet normal -0.582990 0.087924 0.807708
outer loop
vertex 0.767386 -8.368096 2.406213
vertex 0.886372 -7.830712 2.433597
vertex 0.767386 -7.839952 2.348721
endloop
endfacet
facet normal 0.785954 0.066909 0.614654
outer loop
vertex 0.886372 -8.358857 2.491089
vertex 1.051344 -8.381551 2.282611
vertex 1.051344 -7.853406 2.225119
endloop
endfacet
facet normal 0.785955 0.066909 0.614653
outer loop
vertex 0.886372 -8.358857 2.491089
vertex 1.051344 -7.853406 2.225119
vertex 0.886372 -7.830712 2.433597
endloop
endfacet
facet normal -0.638830 0.083257 0.764830
outer loop
vertex 0.657983 -8.377927 2.315903
vertex 0.767386 -8.368096 2.406213
vertex 0.767386 -7.839952 2.348721
endloop
endfacet
facet normal -0.638827 0.083257 0.764832
outer loop
vertex 0.657983 -8.377927 2.315903
vertex 0.767386 -7.839952 2.348721
vertex 0.657983 -7.849782 2.258411
endloop
endfacet
facet normal -0.693079 0.078010 0.716628
outer loop
vertex 0.558308 -8.388298 2.220632
vertex 0.657983 -8.377927 2.315903
vertex 0.657983 -7.849782 2.258411
endloop
endfacet
facet normal -0.693080 0.078010 0.716627
outer loop
vertex 0.558308 -8.388298 2.220632
vertex 0.657983 -7.849782 2.258411
vertex 0.558308 -7.860153 2.163140
endloop
endfacet
facet normal 0.530729 -0.091719 -0.842564
outer loop
vertex 1.051344 -8.381551 2.282611
vertex 0.984952 -8.386050 2.241281
vertex 0.984952 -7.857906 2.183789
endloop
endfacet
facet normal 0.530730 -0.091719 -0.842564
outer loop
vertex 1.051344 -8.381551 2.282611
vertex 0.984952 -7.857906 2.183789
vertex 1.051344 -7.853406 2.225119
endloop
endfacet
facet normal 0.580734 -0.088099 -0.809313
outer loop
vertex 0.984952 -8.386050 2.241281
vertex 0.920288 -8.391042 2.195424
vertex 0.920288 -7.862897 2.137932
endloop
endfacet
facet normal 0.580739 -0.088098 -0.809309
outer loop
vertex 0.984952 -8.386050 2.241281
vertex 0.920288 -7.862897 2.137932
vertex 0.984952 -7.857906 2.183789
endloop
endfacet
facet normal -0.745184 0.072166 0.662943
outer loop
vertex 0.468507 -8.399157 2.120873
vertex 0.558308 -8.388298 2.220632
vertex 0.558308 -7.860153 2.163140
endloop
endfacet
facet normal -0.745182 0.072166 0.662944
outer loop
vertex 0.468507 -8.399157 2.120873
vertex 0.558308 -7.860153 2.163140
vertex 0.468507 -7.871013 2.063381
endloop
endfacet
facet normal 0.626476 -0.084349 -0.774863
outer loop
vertex 0.920288 -8.391042 2.195424
vertex 0.857799 -8.396477 2.145494
vertex 0.857799 -7.868333 2.088002
endloop
endfacet
facet normal 0.626470 -0.084349 -0.774868
outer loop
vertex 0.920288 -8.391042 2.195424
vertex 0.857799 -7.868333 2.088002
vertex 0.920288 -7.862897 2.137932
endloop
endfacet
facet normal 0.668863 -0.080447 -0.739020
outer loop
vertex 0.857799 -8.396477 2.145494
vertex 0.797932 -8.402307 2.091944
vertex 0.797932 -7.874162 2.034452
endloop
endfacet
facet normal 0.668866 -0.080447 -0.739017
outer loop
vertex 0.857799 -8.396477 2.145494
vertex 0.797932 -7.874162 2.034452
vertex 0.857799 -7.868333 2.088002
endloop
endfacet
facet normal -0.794518 0.065714 0.603675
outer loop
vertex 0.388725 -8.410454 2.017099
vertex 0.468507 -8.399157 2.120873
vertex 0.468507 -7.871013 2.063381
endloop
endfacet
facet normal -0.794519 0.065714 0.603673
outer loop
vertex 0.388725 -8.410454 2.017099
vertex 0.468507 -7.871013 2.063381
vertex 0.388725 -7.882309 1.959607
endloop
endfacet
facet normal 0.708664 -0.076352 -0.701403
outer loop
vertex 0.797932 -8.402307 2.091944
vertex 0.741132 -8.408480 2.035228
vertex 0.741132 -7.880336 1.977736
endloop
endfacet
facet normal 0.708665 -0.076352 -0.701402
outer loop
vertex 0.797932 -8.402307 2.091944
vertex 0.741132 -7.880336 1.977736
vertex 0.797932 -7.874162 2.034452
endloop
endfacet
facet normal 0.746486 -0.072008 -0.661493
outer loop
vertex 0.741132 -8.408480 2.035228
vertex 0.687847 -8.414949 1.975801
vertex 0.687847 -7.886805 1.918309
endloop
endfacet
facet normal 0.746488 -0.072008 -0.661491
outer loop
vertex 0.741132 -8.408480 2.035228
vertex 0.687847 -7.886805 1.918309
vertex 0.741132 -7.880336 1.977736
endloop
endfacet
facet normal -0.840399 0.058650 0.538786
outer loop
vertex 0.319108 -8.422135 1.909783
vertex 0.388725 -8.410454 2.017099
vertex 0.388725 -7.882309 1.959607
endloop
endfacet
facet normal -0.840397 0.058650 0.538788
outer loop
vertex 0.319108 -8.422135 1.909783
vertex 0.388725 -7.882309 1.959607
vertex 0.319108 -7.893991 1.852291
endloop
endfacet
facet normal 0.782816 -0.067339 -0.618600
outer loop
vertex 0.687847 -8.414949 1.975801
vertex 0.638524 -8.421664 1.914115
vertex 0.638524 -7.893520 1.856623
endloop
endfacet
facet normal 0.782813 -0.067339 -0.618603
outer loop
vertex 0.687847 -8.414949 1.975801
vertex 0.638524 -7.893520 1.856623
vertex 0.687847 -7.886805 1.918309
endloop
endfacet
facet normal 0.817968 -0.062253 -0.571886
outer loop
vertex 0.638524 -8.421664 1.914115
vertex 0.593607 -8.428576 1.850624
vertex 0.593607 -7.900431 1.793132
endloop
endfacet
facet normal 0.817966 -0.062254 -0.571887
outer loop
vertex 0.638524 -8.421664 1.914115
vertex 0.593607 -7.900431 1.793132
vertex 0.638524 -7.893520 1.856623
endloop
endfacet
facet normal -0.882070 0.050983 0.468351
outer loop
vertex 0.259802 -8.434152 1.799397
vertex 0.319108 -8.422135 1.909783
vertex 0.319108 -7.893991 1.852291
endloop
endfacet
facet normal -0.882069 0.050983 0.468354
outer loop
vertex 0.259802 -8.434152 1.799397
vertex 0.319108 -7.893991 1.852291
vertex 0.259802 -7.906008 1.741905
endloop
endfacet
facet normal 0.852106 -0.056637 -0.520296
outer loop
vertex 0.593607 -8.428576 1.850624
vertex 0.553546 -8.435634 1.785782
vertex 0.553546 -7.907490 1.728290
endloop
endfacet
facet normal 0.852107 -0.056637 -0.520293
outer loop
vertex 0.593607 -8.428576 1.850624
vertex 0.553546 -7.907490 1.728290
vertex 0.593607 -7.900431 1.793132
endloop
endfacet
facet normal -0.918727 0.042734 0.392575
outer loop
vertex 0.210952 -8.446450 1.686415
vertex 0.259802 -8.434152 1.799397
vertex 0.259802 -7.906008 1.741905
endloop
endfacet
facet normal -0.918726 0.042734 0.392577
outer loop
vertex 0.210952 -8.446450 1.686415
vertex 0.259802 -7.906008 1.741905
vertex 0.210952 -7.918306 1.628924
endloop
endfacet
facet normal 0.885158 -0.050352 -0.462557
outer loop
vertex 0.553546 -8.435634 1.785782
vertex 0.518785 -8.442790 1.720042
vertex 0.518785 -7.914646 1.662550
endloop
endfacet
facet normal 0.885159 -0.050353 -0.462557
outer loop
vertex 0.553546 -8.435634 1.785782
vertex 0.518785 -7.914646 1.662550
vertex 0.553546 -7.907490 1.728290
endloop
endfacet
facet normal 0.916730 -0.043234 -0.397162
outer loop
vertex 0.518785 -8.442790 1.720042
vertex 0.489772 -8.449995 1.653858
vertex 0.489772 -7.921850 1.596367
endloop
endfacet
facet normal 0.916731 -0.043233 -0.397159
outer loop
vertex 0.518785 -8.442790 1.720042
vertex 0.489772 -7.921850 1.596367
vertex 0.518785 -7.914646 1.662550
endloop
endfacet
facet normal -0.949534 0.033944 0.311821
outer loop
vertex 0.172705 -8.458981 1.571310
vertex 0.210952 -8.446450 1.686415
vertex 0.210952 -7.918306 1.628924
endloop
endfacet
facet normal -0.949535 0.033944 0.311820
outer loop
vertex 0.172705 -8.458981 1.571310
vertex 0.210952 -7.918306 1.628924
vertex 0.172705 -7.930836 1.513818
endloop
endfacet
facet normal -0.025674 0.108182 0.993800
outer loop
vertex 0.735262 -8.448812 1.664728
vertex 0.766139 -8.448726 1.665516
vertex 0.766139 -7.920581 1.608024
endloop
endfacet
facet normal -0.025666 0.108181 0.993800
outer loop
vertex 0.735262 -8.448812 1.664728
vertex 0.766139 -7.920581 1.608024
vertex 0.735262 -7.920667 1.607236
endloop
endfacet
facet normal 0.065792 0.107983 0.991973
outer loop
vertex 0.766139 -8.448726 1.665516
vertex 0.840672 -8.449257 1.660631
vertex 0.840672 -7.921113 1.603139
endloop
endfacet
facet normal 0.065796 0.107982 0.991973
outer loop
vertex 0.766139 -8.448726 1.665516
vertex 0.840672 -7.921113 1.603139
vertex 0.766139 -7.920581 1.608024
endloop
endfacet
facet normal -0.076731 0.107898 0.991196
outer loop
vertex 0.705530 -8.449059 1.662453
vertex 0.735262 -8.448812 1.664728
vertex 0.735262 -7.920667 1.607236
endloop
endfacet
facet normal -0.076727 0.107898 0.991197
outer loop
vertex 0.705530 -8.449059 1.662453
vertex 0.735262 -7.920667 1.607236
vertex 0.705530 -7.920915 1.604962
endloop
endfacet
facet normal -0.126478 0.107349 0.986144
outer loop
vertex 0.676925 -8.449453 1.658828
vertex 0.705530 -8.449059 1.662453
vertex 0.705530 -7.920915 1.604962
endloop
endfacet
facet normal -0.126483 0.107347 0.986143
outer loop
vertex 0.676925 -8.449453 1.658828
vertex 0.705530 -7.920915 1.604962
vertex 0.676925 -7.921309 1.601336
endloop
endfacet
facet normal 0.198645 0.106060 0.974316
outer loop
vertex 0.840672 -8.449257 1.660631
vertex 0.911525 -8.450811 1.646354
vertex 0.911525 -7.922667 1.588862
endloop
endfacet
facet normal 0.198646 0.106061 0.974316
outer loop
vertex 0.840672 -8.449257 1.660631
vertex 0.911525 -7.922667 1.588862
vertex 0.840672 -7.921113 1.603139
endloop
endfacet
facet normal -0.174407 0.106559 0.978891
outer loop
vertex 0.649426 -8.449981 1.653986
vertex 0.676925 -8.449453 1.658828
vertex 0.676925 -7.921309 1.601336
endloop
endfacet
facet normal -0.174411 0.106559 0.978890
outer loop
vertex 0.649426 -8.449981 1.653986
vertex 0.676925 -7.921309 1.601336
vertex 0.649426 -7.921836 1.596494
endloop
endfacet
facet normal -0.220047 0.105565 0.969760
outer loop
vertex 0.623015 -8.450625 1.648063
vertex 0.649426 -8.449981 1.653986
vertex 0.649426 -7.921836 1.596494
endloop
endfacet
facet normal -0.220050 0.105565 0.969760
outer loop
vertex 0.623015 -8.450625 1.648063
vertex 0.649426 -7.921836 1.596494
vertex 0.623015 -7.922481 1.590571
endloop
endfacet
facet normal 0.945961 -0.035093 -0.322377
outer loop
vertex 0.489772 -8.449995 1.653858
vertex 0.466953 -8.457198 1.587684
vertex 0.466953 -7.929054 1.530193
endloop
endfacet
facet normal 0.945961 -0.035093 -0.322377
outer loop
vertex 0.489772 -8.449995 1.653858
vertex 0.466953 -7.929054 1.530193
vertex 0.489772 -7.921850 1.596367
endloop
endfacet
facet normal -0.263032 0.104407 0.959121
outer loop
vertex 0.597672 -8.451373 1.641194
vertex 0.623015 -8.450625 1.648063
vertex 0.623015 -7.922481 1.590571
endloop
endfacet
facet normal -0.263035 0.104407 0.959120
outer loop
vertex 0.597672 -8.451373 1.641194
vertex 0.623015 -7.922481 1.590571
vertex 0.597672 -7.923229 1.583702
endloop
endfacet
facet normal 0.329227 0.102184 0.938705
outer loop
vertex 0.911525 -8.450811 1.646354
vertex 0.978164 -8.453326 1.623256
vertex 0.978164 -7.925181 1.565764
endloop
endfacet
facet normal 0.329225 0.102185 0.938706
outer loop
vertex 0.911525 -8.450811 1.646354
vertex 0.978164 -7.925181 1.565764
vertex 0.911525 -7.922667 1.588862
endloop
endfacet
facet normal -0.303022 0.103129 0.947387
outer loop
vertex 0.573378 -8.452209 1.633514
vertex 0.597672 -8.451373 1.641194
vertex 0.597672 -7.923229 1.583702
endloop
endfacet
facet normal -0.303021 0.103129 0.947387
outer loop
vertex 0.573378 -8.452209 1.633514
vertex 0.597672 -7.923229 1.583702
vertex 0.573378 -7.924065 1.576022
endloop
endfacet
facet normal -0.339753 0.101780 0.934991
outer loop
vertex 0.550112 -8.453118 1.625159
vertex 0.573378 -8.452209 1.633514
vertex 0.573378 -7.924065 1.576022
endloop
endfacet
facet normal -0.339752 0.101780 0.934992
outer loop
vertex 0.550112 -8.453118 1.625159
vertex 0.573378 -7.924065 1.576022
vertex 0.550112 -7.924974 1.567667
endloop
endfacet
facet normal -0.373039 0.100406 0.922367
outer loop
vertex 0.527856 -8.454087 1.616263
vertex 0.550112 -8.453118 1.625159
vertex 0.550112 -7.924974 1.567667
endloop
endfacet
facet normal -0.373044 0.100405 0.922365
outer loop
vertex 0.527856 -8.454087 1.616263
vertex 0.550112 -7.924974 1.567667
vertex 0.527856 -7.925943 1.558772
endloop
endfacet
facet normal 0.453995 0.096422 0.885772
outer loop
vertex 0.978164 -8.453326 1.623256
vertex 1.040056 -8.456738 1.591905
vertex 1.040056 -7.928595 1.534414
endloop
endfacet
facet normal 0.453991 0.096422 0.885774
outer loop
vertex 0.978164 -8.453326 1.623256
vertex 1.040056 -7.928595 1.534414
vertex 0.978164 -7.925181 1.565764
endloop
endfacet
facet normal -0.402712 0.099054 0.909951
outer loop
vertex 0.506591 -8.455099 1.606962
vertex 0.527856 -8.454087 1.616263
vertex 0.527856 -7.925943 1.558772
endloop
endfacet
facet normal -0.402711 0.099054 0.909952
outer loop
vertex 0.506591 -8.455099 1.606962
vertex 0.527856 -7.925943 1.558772
vertex 0.506591 -7.926955 1.549470
endloop
endfacet
facet normal -0.428618 0.097773 0.898180
outer loop
vertex 0.486296 -8.456141 1.597391
vertex 0.506591 -8.455099 1.606962
vertex 0.506591 -7.926955 1.549470
endloop
endfacet
facet normal -0.428623 0.097772 0.898177
outer loop
vertex 0.486296 -8.456141 1.597391
vertex 0.506591 -7.926955 1.549470
vertex 0.486296 -7.927997 1.539899
endloop
endfacet
facet normal -0.450625 0.096607 0.887471
outer loop
vertex 0.466953 -8.457198 1.587684
vertex 0.486296 -8.456141 1.597391
vertex 0.486296 -7.927997 1.539899
endloop
endfacet
facet normal -0.450615 0.096607 0.887476
outer loop
vertex 0.466953 -8.457198 1.587684
vertex 0.486296 -7.927997 1.539899
vertex 0.466953 -7.929054 1.530193
endloop
endfacet
facet normal 0.569920 0.088922 0.816875
outer loop
vertex 1.040056 -8.456738 1.591905
vertex 1.096666 -8.460988 1.552872
vertex 1.096666 -7.932843 1.495380
endloop
endfacet
facet normal 0.569918 0.088922 0.816876
outer loop
vertex 1.040056 -8.456738 1.591905
vertex 1.096666 -7.932843 1.495380
vertex 1.040056 -7.928595 1.534414
endloop
endfacet
facet normal -0.973664 0.024672 0.226647
outer loop
vertex 0.145204 -8.471690 1.454555
vertex 0.172705 -8.458981 1.571310
vertex 0.172705 -7.930836 1.513818
endloop
endfacet
facet normal -0.973664 0.024672 0.226647
outer loop
vertex 0.145204 -8.471690 1.454555
vertex 0.172705 -7.930836 1.513818
vertex 0.145204 -7.943546 1.397063
endloop
endfacet
facet normal 0.674598 0.079885 0.733850
outer loop
vertex 1.096666 -8.460988 1.552872
vertex 1.147461 -8.466011 1.506725
vertex 1.147461 -7.937867 1.449234
endloop
endfacet
facet normal 0.674598 0.079884 0.733850
outer loop
vertex 1.096666 -8.460988 1.552872
vertex 1.147461 -7.937867 1.449234
vertex 1.096666 -7.932843 1.495380
endloop
endfacet
facet normal 0.766249 0.069534 0.638770
outer loop
vertex 1.147461 -8.466011 1.506725
vertex 1.191906 -8.471746 1.454035
vertex 1.191906 -7.943603 1.396543
endloop
endfacet
facet normal 0.766247 0.069535 0.638773
outer loop
vertex 1.147461 -8.466011 1.506725
vertex 1.191906 -7.943603 1.396543
vertex 1.147461 -7.937867 1.449234
endloop
endfacet
facet normal -0.990343 0.015003 0.137823
outer loop
vertex 0.128598 -8.484528 1.336621
vertex 0.145204 -8.471690 1.454555
vertex 0.145204 -7.943546 1.397063
endloop
endfacet
facet normal -0.990343 0.015003 0.137823
outer loop
vertex 0.128598 -8.484528 1.336621
vertex 0.145204 -7.943546 1.397063
vertex 0.128598 -7.956384 1.279130
endloop
endfacet
facet normal 0.107230 -0.107593 -0.988395
outer loop
vertex 0.655420 -8.477085 1.404996
vertex 0.630396 -8.477377 1.402313
vertex 0.630396 -7.949233 1.344821
endloop
endfacet
facet normal 0.107232 -0.107593 -0.988395
outer loop
vertex 0.655420 -8.477085 1.404996
vertex 0.630396 -7.949233 1.344821
vertex 0.655420 -7.948941 1.347504
endloop
endfacet
facet normal 0.057837 -0.108036 -0.992463
outer loop
vertex 0.681901 -8.476919 1.406521
vertex 0.655420 -8.477085 1.404996
vertex 0.655420 -7.948941 1.347504
endloop
endfacet
facet normal 0.057826 -0.108036 -0.992464
outer loop
vertex 0.681901 -8.476919 1.406521
vertex 0.655420 -7.948941 1.347504
vertex 0.681901 -7.948774 1.349029
endloop
endfacet
facet normal 0.017146 -0.108201 -0.993981
outer loop
vertex 0.710216 -8.476867 1.407004
vertex 0.681901 -8.476919 1.406521
vertex 0.681901 -7.948774 1.349029
endloop
endfacet
facet normal 0.017135 -0.108201 -0.993981
outer loop
vertex 0.710216 -8.476867 1.407004
vertex 0.681901 -7.948774 1.349029
vertex 0.710216 -7.948722 1.349512
endloop
endfacet
facet normal 0.843603 0.058108 0.533813
outer loop
vertex 1.191906 -8.471746 1.454035
vertex 1.229468 -8.478132 1.395370
vertex 1.229468 -7.949988 1.337878
endloop
endfacet
facet normal 0.843604 0.058109 0.533812
outer loop
vertex 1.191906 -8.471746 1.454035
vertex 1.229468 -7.949988 1.337878
vertex 1.191906 -7.943603 1.396543
endloop
endfacet
facet normal -0.057849 -0.108036 -0.992462
outer loop
vertex 0.754613 -8.477144 1.404446
vertex 0.710216 -8.476867 1.407004
vertex 0.710216 -7.948722 1.349512
endloop
endfacet
facet normal -0.057859 -0.108036 -0.992462
outer loop
vertex 0.754613 -8.477144 1.404446
vertex 0.710216 -7.948722 1.349512
vertex 0.754613 -7.949000 1.346954
endloop
endfacet
facet normal -0.175868 -0.106531 -0.978633
outer loop
vertex 0.796728 -8.477959 1.396966
vertex 0.754613 -8.477144 1.404446
vertex 0.754613 -7.949000 1.346954
endloop
endfacet
facet normal -0.175870 -0.106530 -0.978632
outer loop
vertex 0.796728 -8.477959 1.396966
vertex 0.754613 -7.949000 1.346954
vertex 0.796728 -7.949815 1.339474
endloop
endfacet
facet normal 0.163980 -0.106752 -0.980671
outer loop
vertex 0.630396 -8.477377 1.402313
vertex 0.606449 -8.477808 1.398355
vertex 0.606449 -7.949664 1.340864
endloop
endfacet
facet normal 0.163975 -0.106752 -0.980671
outer loop
vertex 0.630396 -8.477377 1.402313
vertex 0.606449 -7.949664 1.340864
vertex 0.630396 -7.949233 1.344821
endloop
endfacet
facet normal 0.225397 -0.105432 -0.968545
outer loop
vertex 0.606449 -8.477808 1.398355
vertex 0.583201 -8.478390 1.393008
vertex 0.583201 -7.950245 1.335517
endloop
endfacet
facet normal 0.225417 -0.105432 -0.968541
outer loop
vertex 0.606449 -8.477808 1.398355
vertex 0.583201 -7.950245 1.335517
vertex 0.606449 -7.949664 1.340864
endloop
endfacet
facet normal -0.294546 -0.103416 -0.950025
outer loop
vertex 0.836261 -8.479278 1.384853
vertex 0.796728 -8.477959 1.396966
vertex 0.796728 -7.949815 1.339474
endloop
endfacet
facet normal -0.294545 -0.103416 -0.950025
outer loop
vertex 0.836261 -8.479278 1.384853
vertex 0.796728 -7.949815 1.339474
vertex 0.836261 -7.951133 1.327361
endloop
endfacet
facet normal 0.905816 0.045848 0.421182
outer loop
vertex 1.229468 -8.478132 1.395370
vertex 1.259612 -8.485107 1.331300
vertex 1.259612 -7.956963 1.273808
endloop
endfacet
facet normal 0.905816 0.045849 0.421184
outer loop
vertex 1.229468 -8.478132 1.395370
vertex 1.259612 -7.956963 1.273808
vertex 1.229468 -7.949988 1.337878
endloop
endfacet
facet normal 0.287924 -0.103634 -0.952029
outer loop
vertex 0.583201 -8.478390 1.393008
vertex 0.560274 -8.479136 1.386156
vertex 0.560274 -7.950992 1.328664
endloop
endfacet
facet normal 0.287934 -0.103634 -0.952026
outer loop
vertex 0.583201 -8.478390 1.393008
vertex 0.560274 -7.950992 1.328664
vertex 0.583201 -7.950245 1.335517
endloop
endfacet
facet normal 0.347697 -0.101465 -0.932101
outer loop
vertex 0.560274 -8.479136 1.386156
vertex 0.537289 -8.480058 1.377681
vertex 0.537289 -7.951914 1.320190
endloop
endfacet
facet normal 0.347717 -0.101465 -0.932093
outer loop
vertex 0.560274 -8.479136 1.386156
vertex 0.537289 -7.951914 1.320190
vertex 0.560274 -7.950992 1.328664
endloop
endfacet
facet normal -0.411631 -0.098624 -0.905998
outer loop
vertex 0.872910 -8.481069 1.368397
vertex 0.836261 -8.479278 1.384853
vertex 0.836261 -7.951133 1.327361
endloop
endfacet
facet normal -0.411633 -0.098624 -0.905998
outer loop
vertex 0.872910 -8.481069 1.368397
vertex 0.836261 -7.951133 1.327361
vertex 0.872910 -7.952925 1.310905
endloop
endfacet
facet normal 0.401629 -0.099105 -0.910424
outer loop
vertex 0.537289 -8.480058 1.377681
vertex 0.513866 -8.481170 1.367470
vertex 0.513866 -7.953025 1.309978
endloop
endfacet
facet normal 0.401633 -0.099106 -0.910422
outer loop
vertex 0.537289 -8.480058 1.377681
vertex 0.513866 -7.953025 1.309978
vertex 0.537289 -7.951914 1.320190
endloop
endfacet
facet normal -0.524795 -0.092118 -0.846230
outer loop
vertex 0.906374 -8.483301 1.347886
vertex 0.872910 -8.481069 1.368397
vertex 0.872910 -7.952925 1.310905
endloop
endfacet
facet normal -0.524797 -0.092117 -0.846228
outer loop
vertex 0.906374 -8.483301 1.347886
vertex 0.872910 -7.952925 1.310905
vertex 0.906374 -7.955157 1.290395
endloop
endfacet
facet normal 0.447716 -0.096765 -0.888925
outer loop
vertex 0.513866 -8.481170 1.367470
vertex 0.489628 -8.482483 1.355405
vertex 0.489628 -7.954339 1.297913
endloop
endfacet
facet normal 0.447709 -0.096766 -0.888928
outer loop
vertex 0.513866 -8.481170 1.367470
vertex 0.489628 -7.954339 1.297913
vertex 0.513866 -7.953025 1.309978
endloop
endfacet
facet normal 0.485314 -0.094618 -0.869205
outer loop
vertex 0.489628 -8.482483 1.355405
vertex 0.464196 -8.484011 1.341372
vertex 0.464196 -7.955866 1.283880
endloop
endfacet
facet normal 0.485316 -0.094619 -0.869204
outer loop
vertex 0.489628 -8.482483 1.355405
vertex 0.464196 -7.955866 1.283880
vertex 0.489628 -7.954339 1.297913
endloop
endfacet
facet normal -0.631517 -0.083907 -0.770808
outer loop
vertex 0.936353 -8.485944 1.323612
vertex 0.906374 -8.483301 1.347886
vertex 0.906374 -7.955157 1.290395
endloop
endfacet
facet normal -0.631519 -0.083907 -0.770807
outer loop
vertex 0.936353 -8.485944 1.323612
vertex 0.906374 -7.955157 1.290395
vertex 0.936353 -7.957800 1.266120
endloop
endfacet
facet normal 0.514749 -0.092779 -0.852306
outer loop
vertex 0.464196 -8.484011 1.341372
vertex 0.437191 -8.485765 1.325253
vertex 0.437191 -7.957621 1.267761
endloop
endfacet
facet normal 0.514749 -0.092779 -0.852306
outer loop
vertex 0.464196 -8.484011 1.341372
vertex 0.437191 -7.957621 1.267761
vertex 0.464196 -7.955866 1.283880
endloop
endfacet
facet normal -0.998913 0.005044 0.046333
outer loop
vertex 0.123030 -8.497442 1.217983
vertex 0.128598 -8.484528 1.336621
vertex 0.128598 -7.956384 1.279130
endloop
endfacet
facet normal -0.998913 0.005044 0.046333
outer loop
vertex 0.123030 -8.497442 1.217983
vertex 0.128598 -7.956384 1.279130
vertex 0.123030 -7.969298 1.160492
endloop
endfacet
facet normal 0.952374 0.032999 0.303142
outer loop
vertex 1.259612 -8.485107 1.331300
vertex 1.281804 -8.492608 1.262394
vertex 1.281804 -7.964464 1.204903
endloop
endfacet
facet normal 0.952374 0.032999 0.303142
outer loop
vertex 1.259612 -8.485107 1.331300
vertex 1.281804 -7.964464 1.204903
vertex 1.259612 -7.956963 1.273808
endloop
endfacet
facet normal 0.536874 -0.091299 -0.838708
outer loop
vertex 0.437191 -8.485765 1.325253
vertex 0.408235 -8.487760 1.306934
vertex 0.408235 -7.959615 1.249442
endloop
endfacet
facet normal 0.536889 -0.091297 -0.838699
outer loop
vertex 0.437191 -8.485765 1.325253
vertex 0.408235 -7.959615 1.249442
vertex 0.437191 -7.957621 1.267761
endloop
endfacet
facet normal -0.729220 -0.074051 -0.680261
outer loop
vertex 0.962546 -8.488965 1.295863
vertex 0.936353 -8.485944 1.323612
vertex 0.936353 -7.957800 1.266120
endloop
endfacet
facet normal -0.729218 -0.074050 -0.680263
outer loop
vertex 0.962546 -8.488965 1.295863
vertex 0.936353 -7.957800 1.266120
vertex 0.962546 -7.960820 1.238372
endloop
endfacet
facet normal 0.985803 -0.018171 -0.166922
outer loop
vertex 0.408235 -8.487760 1.306934
vertex 0.395333 -8.495956 1.231634
vertex 0.395333 -7.967812 1.174142
endloop
endfacet
facet normal 0.985803 -0.018170 -0.166922
outer loop
vertex 0.408235 -8.487760 1.306934
vertex 0.395333 -7.967812 1.174142
vertex 0.408235 -7.959615 1.249442
endloop
endfacet
facet normal -0.815228 -0.062673 -0.575738
outer loop
vertex 0.984651 -8.492332 1.264930
vertex 0.962546 -8.488965 1.295863
vertex 0.962546 -7.960820 1.238372
endloop
endfacet
facet normal -0.815231 -0.062672 -0.575735
outer loop
vertex 0.984651 -8.492332 1.264930
vertex 0.962546 -7.960820 1.238372
vertex 0.984651 -7.964188 1.207438
endloop
endfacet
facet normal -0.886985 -0.049974 -0.459086
outer loop
vertex 1.002368 -8.496015 1.231100
vertex 0.984651 -8.492332 1.264930
vertex 0.984651 -7.964188 1.207438
endloop
endfacet
facet normal -0.886988 -0.049974 -0.459081
outer loop
vertex 1.002368 -8.496015 1.231100
vertex 0.984651 -7.964188 1.207438
vertex 1.002368 -7.967870 1.173608
endloop
endfacet
facet normal 0.983097 0.019812 0.182008
outer loop
vertex 1.281804 -8.492608 1.262394
vertex 1.295512 -8.500573 1.189223
vertex 1.295512 -7.972429 1.131731
endloop
endfacet
facet normal 0.983098 0.019813 0.182007
outer loop
vertex 1.281804 -8.492608 1.262394
vertex 1.295512 -7.972429 1.131731
vertex 1.281804 -7.964464 1.204903
endloop
endfacet
facet normal 0.999137 -0.004495 -0.041297
outer loop
vertex 0.395333 -8.495956 1.231634
vertex 0.392403 -8.503584 1.161566
vertex 0.392403 -7.975440 1.104074
endloop
endfacet
facet normal 0.999137 -0.004496 -0.041297
outer loop
vertex 0.395333 -8.495956 1.231634
vertex 0.392403 -7.975440 1.104074
vertex 0.395333 -7.967812 1.174142
endloop
endfacet
facet normal -0.942245 -0.036245 -0.332958
outer loop
vertex 1.015396 -8.499981 1.194665
vertex 1.002368 -8.496015 1.231100
vertex 1.002368 -7.967870 1.173608
endloop
endfacet
facet normal -0.942244 -0.036245 -0.332960
outer loop
vertex 1.015396 -8.499981 1.194665
vertex 1.002368 -7.967870 1.173608
vertex 1.015396 -7.971837 1.137173
endloop
endfacet
facet normal -0.998641 -0.005639 -0.051805
outer loop
vertex 0.128138 -8.508037 1.120661
vertex 0.123030 -8.497442 1.217983
vertex 0.123030 -7.969298 1.160492
endloop
endfacet
facet normal -0.998641 -0.005639 -0.051805
outer loop
vertex 0.128138 -8.508037 1.120661
vertex 0.123030 -7.969298 1.160492
vertex 0.128138 -7.979892 1.063170
endloop
endfacet
facet normal -0.979399 -0.021853 -0.200751
outer loop
vertex 1.023433 -8.504199 1.155913
vertex 1.015396 -8.499981 1.194665
vertex 1.015396 -7.971837 1.137173
endloop
endfacet
facet normal -0.979399 -0.021852 -0.200751
outer loop
vertex 1.023433 -8.504199 1.155913
vertex 1.015396 -7.971837 1.137173
vertex 1.023433 -7.976055 1.098421
endloop
endfacet
facet normal 0.998167 0.006549 0.060159
outer loop
vertex 1.295512 -8.500573 1.189223
vertex 1.300199 -8.508941 1.112355
vertex 1.300199 -7.980796 1.054863
endloop
endfacet
facet normal 0.998167 0.006549 0.060158
outer loop
vertex 1.295512 -8.500573 1.189223
vertex 1.300199 -7.980796 1.054863
vertex 1.295512 -7.972429 1.131731
endloop
endfacet
facet normal 0.995511 0.010242 0.094086
outer loop
vertex 0.392403 -8.503584 1.161566
vertex 0.398579 -8.510614 1.096979
vertex 0.398579 -7.982470 1.039488
endloop
endfacet
facet normal 0.995511 0.010242 0.094086
outer loop
vertex 0.392403 -8.503584 1.161566
vertex 0.398579 -7.982470 1.039488
vertex 0.392403 -7.975440 1.104074
endloop
endfacet
facet normal -0.997767 -0.007229 -0.066402
outer loop
vertex 1.026179 -8.508638 1.115134
vertex 1.023433 -8.504199 1.155913
vertex 1.023433 -7.976055 1.098421
endloop
endfacet
facet normal -0.997767 -0.007228 -0.066401
outer loop
vertex 1.026179 -8.508638 1.115134
vertex 1.023433 -7.976055 1.098421
vertex 1.026179 -7.980494 1.057642
endloop
endfacet
facet normal -0.986941 -0.017432 -0.160137
outer loop
vertex 0.143159 -8.517996 1.029169
vertex 0.128138 -8.508037 1.120661
vertex 0.128138 -7.979892 1.063170
endloop
endfacet
facet normal -0.986941 -0.017432 -0.160138
outer loop
vertex 0.143159 -8.517996 1.029169
vertex 0.128138 -7.979892 1.063170
vertex 0.143159 -7.989852 0.971677
endloop
endfacet
facet normal -0.998464 0.005997 0.055084
outer loop
vertex 1.023653 -8.513564 1.069885
vertex 1.026179 -8.508638 1.115134
vertex 1.026179 -7.980494 1.057642
endloop
endfacet
facet normal -0.998464 0.005996 0.055084
outer loop
vertex 1.023653 -8.513564 1.069885
vertex 1.026179 -7.980494 1.057642
vertex 1.023653 -7.985419 1.012393
endloop
endfacet
facet normal 0.997659 -0.007400 -0.067979
outer loop
vertex 1.300199 -8.508941 1.112355
vertex 1.294961 -8.517211 1.036381
vertex 1.294961 -7.989067 0.978889
endloop
endfacet
facet normal 0.997659 -0.007400 -0.067979
outer loop
vertex 1.300199 -8.508941 1.112355
vertex 1.294961 -7.989067 0.978889
vertex 1.300199 -7.980796 1.054863
endloop
endfacet
facet normal 0.971596 0.025609 0.235255
outer loop
vertex 0.398579 -8.510614 1.096979
vertex 0.412998 -8.517021 1.038126
vertex 0.412998 -7.988877 0.980634
endloop
endfacet
facet normal 0.971596 0.025609 0.235255
outer loop
vertex 0.398579 -8.510614 1.096979
vertex 0.412998 -7.988877 0.980634
vertex 0.398579 -7.982470 1.039488
endloop
endfacet
facet normal -0.985222 0.018535 0.170279
outer loop
vertex 1.016224 -8.518188 1.027406
vertex 1.023653 -8.513564 1.069885
vertex 1.023653 -7.985419 1.012393
endloop
endfacet
facet normal -0.985222 0.018536 0.170278
outer loop
vertex 1.016224 -8.518188 1.027406
vertex 1.023653 -7.985419 1.012393
vertex 1.016224 -7.990044 0.969914
endloop
endfacet
facet normal 0.925292 0.041042 0.377028
outer loop
vertex 0.412998 -8.517021 1.038126
vertex 0.434796 -8.522776 0.985257
vertex 0.434796 -7.994632 0.927765
endloop
endfacet
facet normal 0.925292 0.041042 0.377029
outer loop
vertex 0.412998 -8.517021 1.038126
vertex 0.434796 -7.994632 0.927765
vertex 0.412998 -7.988877 0.980634
endloop
endfacet
facet normal 0.979257 -0.021926 -0.201430
outer loop
vertex 1.294961 -8.517211 1.036381
vertex 1.279733 -8.525175 0.963216
vertex 1.279733 -7.997031 0.905724
endloop
endfacet
facet normal 0.979258 -0.021927 -0.201430
outer loop
vertex 1.294961 -8.517211 1.036381
vertex 1.279733 -7.997031 0.905724
vertex 1.294961 -7.989067 0.978889
endloop
endfacet
facet normal -0.961518 -0.029732 -0.273128
outer loop
vertex 0.167637 -8.527267 0.944009
vertex 0.143159 -8.517996 1.029169
vertex 0.143159 -7.989852 0.971677
endloop
endfacet
facet normal -0.961518 -0.029732 -0.273130
outer loop
vertex 0.167637 -8.527267 0.944009
vertex 0.143159 -7.989852 0.971677
vertex 0.167637 -7.999122 0.886517
endloop
endfacet
facet normal -0.956542 0.031556 0.289882
outer loop
vertex 1.004116 -8.522487 0.987919
vertex 1.016224 -8.518188 1.027406
vertex 1.016224 -7.990044 0.969914
endloop
endfacet
facet normal -0.956542 0.031555 0.289883
outer loop
vertex 1.004116 -8.522487 0.987919
vertex 1.016224 -7.990044 0.969914
vertex 1.004116 -7.994342 0.930427
endloop
endfacet
facet normal -0.910557 0.044735 0.410957
outer loop
vertex 0.987551 -8.526435 0.951646
vertex 1.004116 -8.522487 0.987919
vertex 1.004116 -7.994342 0.930427
endloop
endfacet
facet normal -0.910557 0.044735 0.410955
outer loop
vertex 0.987551 -8.526435 0.951646
vertex 1.004116 -7.994342 0.930427
vertex 0.987551 -7.998291 0.894155
endloop
endfacet
facet normal 0.856147 0.055919 0.513698
outer loop
vertex 0.434796 -8.522776 0.985257
vertex 0.463109 -8.527852 0.938623
vertex 0.463109 -7.999708 0.881131
endloop
endfacet
facet normal 0.856149 0.055919 0.513694
outer loop
vertex 0.434796 -8.522776 0.985257
vertex 0.463109 -7.999708 0.881131
vertex 0.434796 -7.994632 0.927765
endloop
endfacet
facet normal 0.943963 -0.035717 -0.328113
outer loop
vertex 1.279733 -8.525175 0.963216
vertex 1.255243 -8.532755 0.893583
vertex 1.255243 -8.004611 0.836091
endloop
endfacet
facet normal 0.943964 -0.035717 -0.328111
outer loop
vertex 1.279733 -8.525175 0.963216
vertex 1.255243 -8.004611 0.836091
vertex 1.279733 -7.997031 0.905724
endloop
endfacet
facet normal -0.846226 0.057661 0.529694
outer loop
vertex 0.966753 -8.530009 0.918810
vertex 0.987551 -8.526435 0.951646
vertex 0.987551 -7.998291 0.894155
endloop
endfacet
facet normal -0.846227 0.057660 0.529694
outer loop
vertex 0.966753 -8.530009 0.918810
vertex 0.987551 -7.998291 0.894155
vertex 0.966753 -8.001865 0.861318
endloop
endfacet
facet normal -0.920366 -0.042319 -0.388762
outer loop
vertex 0.201114 -8.535792 0.865681
vertex 0.167637 -8.527267 0.944009
vertex 0.167637 -7.999122 0.886517
endloop
endfacet
facet normal -0.920366 -0.042319 -0.388762
outer loop
vertex 0.201114 -8.535792 0.865681
vertex 0.167637 -7.999122 0.886517
vertex 0.201114 -8.007648 0.808190
endloop
endfacet
facet normal 0.765340 0.069651 0.639846
outer loop
vertex 0.463109 -8.527852 0.938623
vertex 0.497072 -8.532223 0.898475
vertex 0.497072 -8.004079 0.840983
endloop
endfacet
facet normal 0.765339 0.069652 0.639848
outer loop
vertex 0.463109 -8.527852 0.938623
vertex 0.497072 -8.004079 0.840983
vertex 0.463109 -7.999708 0.881131
endloop
endfacet
facet normal -0.763751 0.069856 0.641720
outer loop
vertex 0.941946 -8.533186 0.889631
vertex 0.966753 -8.530009 0.918810
vertex 0.966753 -8.001865 0.861318
endloop
endfacet
facet normal -0.763747 0.069856 0.641725
outer loop
vertex 0.941946 -8.533186 0.889631
vertex 0.966753 -8.001865 0.861318
vertex 0.941946 -8.005041 0.832139
endloop
endfacet
facet normal 0.655217 0.081752 0.751004
outer loop
vertex 0.497072 -8.532223 0.898475
vertex 0.535821 -8.535860 0.865064
vertex 0.535821 -8.007715 0.807572
endloop
endfacet
facet normal 0.655218 0.081752 0.751004
outer loop
vertex 0.497072 -8.532223 0.898475
vertex 0.535821 -8.007715 0.807572
vertex 0.497072 -8.004079 0.840983
endloop
endfacet
facet normal 0.893648 -0.048564 -0.446134
outer loop
vertex 1.255243 -8.532755 0.893583
vertex 1.222218 -8.539872 0.828207
vertex 1.222218 -8.011727 0.770715
endloop
endfacet
facet normal 0.893646 -0.048565 -0.446136
outer loop
vertex 1.255243 -8.532755 0.893583
vertex 1.222218 -8.011727 0.770715
vertex 1.255243 -8.004611 0.836091
endloop
endfacet
facet normal -0.664822 0.080839 0.742615
outer loop
vertex 0.913352 -8.535939 0.864332
vertex 0.941946 -8.533186 0.889631
vertex 0.941946 -8.005041 0.832139
endloop
endfacet
facet normal -0.664821 0.080838 0.742616
outer loop
vertex 0.913352 -8.535939 0.864332
vertex 0.941946 -8.005041 0.832139
vertex 0.913352 -8.007795 0.806840
endloop
endfacet
facet normal -0.861857 -0.054882 -0.504173
outer loop
vertex 0.243135 -8.543521 0.794689
vertex 0.201114 -8.535792 0.865681
vertex 0.201114 -8.007648 0.808190
endloop
endfacet
facet normal -0.861858 -0.054882 -0.504172
outer loop
vertex 0.243135 -8.543521 0.794689
vertex 0.201114 -8.007648 0.808190
vertex 0.243135 -8.015376 0.737198
endloop
endfacet
facet normal 0.528707 0.091855 0.843820
outer loop
vertex 0.535821 -8.535860 0.865064
vertex 0.578493 -8.538736 0.838640
vertex 0.578493 -8.010592 0.781149
endloop
endfacet
facet normal 0.528705 0.091855 0.843821
outer loop
vertex 0.535821 -8.535860 0.865064
vertex 0.578493 -8.010592 0.781149
vertex 0.535821 -8.007715 0.807572
endloop
endfacet
facet normal -0.552618 0.090192 0.828540
outer loop
vertex 0.881195 -8.538247 0.843135
vertex 0.913352 -8.535939 0.864332
vertex 0.913352 -8.007795 0.806840
endloop
endfacet
facet normal -0.552619 0.090192 0.828540
outer loop
vertex 0.881195 -8.538247 0.843135
vertex 0.913352 -8.007795 0.806840
vertex 0.881195 -8.010103 0.785643
endloop
endfacet
facet normal -0.431368 0.097631 0.896878
outer loop
vertex 0.845698 -8.540084 0.826262
vertex 0.881195 -8.538247 0.843135
vertex 0.881195 -8.010103 0.785643
endloop
endfacet
facet normal -0.431366 0.097631 0.896879
outer loop
vertex 0.845698 -8.540084 0.826262
vertex 0.881195 -8.010103 0.785643
vertex 0.845698 -8.011939 0.768770
endloop
endfacet
facet normal 0.388792 0.099703 0.915915
outer loop
vertex 0.578493 -8.538736 0.838640
vertex 0.624223 -8.540825 0.819456
vertex 0.624223 -8.012680 0.761964
endloop
endfacet
facet normal 0.388797 0.099703 0.915913
outer loop
vertex 0.578493 -8.538736 0.838640
vertex 0.624223 -8.012680 0.761964
vertex 0.578493 -8.010592 0.781149
endloop
endfacet
facet normal 0.829973 -0.060363 -0.554527
outer loop
vertex 1.222218 -8.539872 0.828207
vertex 1.181388 -8.546447 0.767811
vertex 1.181388 -8.018302 0.710319
endloop
endfacet
facet normal 0.829975 -0.060364 -0.554525
outer loop
vertex 1.222218 -8.539872 0.828207
vertex 1.181388 -8.018302 0.710319
vertex 1.222218 -8.011727 0.770715
endloop
endfacet
facet normal -0.305746 0.103035 0.946522
outer loop
vertex 0.807084 -8.541426 0.813935
vertex 0.845698 -8.540084 0.826262
vertex 0.845698 -8.011939 0.768770
endloop
endfacet
facet normal -0.305749 0.103034 0.946521
outer loop
vertex 0.807084 -8.541426 0.813935
vertex 0.845698 -8.011939 0.768770
vertex 0.807084 -8.013281 0.756443
endloop
endfacet
facet normal 0.238387 0.105097 0.965467
outer loop
vertex 0.624223 -8.540825 0.819456
vertex 0.672147 -8.542098 0.807761
vertex 0.672147 -8.013953 0.750269
endloop
endfacet
facet normal 0.238393 0.105097 0.965465
outer loop
vertex 0.624223 -8.540825 0.819456
vertex 0.672147 -8.013953 0.750269
vertex 0.624223 -8.012680 0.761964
endloop
endfacet
facet normal -0.180189 0.106446 0.977855
outer loop
vertex 0.765578 -8.542249 0.806376
vertex 0.807084 -8.541426 0.813935
vertex 0.807084 -8.013281 0.756443
endloop
endfacet
facet normal -0.180192 0.106445 0.977855
outer loop
vertex 0.765578 -8.542249 0.806376
vertex 0.807084 -8.013281 0.756443
vertex 0.765578 -8.014104 0.748884
endloop
endfacet
facet normal 0.080488 0.107866 0.990902
outer loop
vertex 0.672147 -8.542098 0.807761
vertex 0.721401 -8.542528 0.803807
vertex 0.721401 -8.014383 0.746315
endloop
endfacet
facet normal 0.080491 0.107866 0.990902
outer loop
vertex 0.672147 -8.542098 0.807761
vertex 0.721401 -8.014383 0.746315
vertex 0.672147 -8.013953 0.750269
endloop
endfacet
facet normal -0.058396 0.108032 0.992431
outer loop
vertex 0.721401 -8.542528 0.803807
vertex 0.765578 -8.542249 0.806376
vertex 0.765578 -8.014104 0.748884
endloop
endfacet
facet normal -0.058397 0.108032 0.992431
outer loop
vertex 0.721401 -8.542528 0.803807
vertex 0.765578 -8.014104 0.748884
vertex 0.721401 -8.014383 0.746315
endloop
endfacet
facet normal -0.785152 -0.067019 -0.615666
outer loop
vertex 0.293244 -8.550395 0.731535
vertex 0.243135 -8.543521 0.794689
vertex 0.243135 -8.015376 0.737198
endloop
endfacet
facet normal -0.785153 -0.067019 -0.615664
outer loop
vertex 0.293244 -8.550395 0.731535
vertex 0.243135 -8.015376 0.737198
vertex 0.293244 -8.022251 0.674043
endloop
endfacet
facet normal 0.754135 -0.071068 -0.652862
outer loop
vertex 1.181388 -8.546447 0.767811
vertex 1.133480 -8.552400 0.713119
vertex 1.133480 -8.024256 0.655627
endloop
endfacet
facet normal 0.754137 -0.071068 -0.652860
outer loop
vertex 1.181388 -8.546447 0.767811
vertex 1.133480 -8.024256 0.655627
vertex 1.181388 -8.018302 0.710319
endloop
endfacet
facet normal -0.690633 -0.078263 -0.718958
outer loop
vertex 0.350984 -8.556362 0.676719
vertex 0.293244 -8.550395 0.731535
vertex 0.293244 -8.022251 0.674043
endloop
endfacet
facet normal -0.690633 -0.078263 -0.718958
outer loop
vertex 0.350984 -8.556362 0.676719
vertex 0.293244 -8.022251 0.674043
vertex 0.350984 -8.028218 0.619227
endloop
endfacet
facet normal 0.666813 -0.080646 -0.740848
outer loop
vertex 1.133480 -8.552400 0.713119
vertex 1.079223 -8.557653 0.664856
vertex 1.079223 -8.029510 0.607364
endloop
endfacet
facet normal 0.666813 -0.080646 -0.740849
outer loop
vertex 1.133480 -8.552400 0.713119
vertex 1.079223 -8.029510 0.607364
vertex 1.133480 -8.024256 0.655627
endloop
endfacet
facet normal -0.580229 -0.088138 -0.809670
outer loop
vertex 0.415898 -8.561367 0.630745
vertex 0.350984 -8.556362 0.676719
vertex 0.350984 -8.028218 0.619227
endloop
endfacet
facet normal -0.580228 -0.088138 -0.809671
outer loop
vertex 0.415898 -8.561367 0.630745
vertex 0.350984 -8.028218 0.619227
vertex 0.415898 -8.033223 0.573253
endloop
endfacet
facet normal 0.568281 -0.089045 -0.818002
outer loop
vertex 1.079223 -8.557653 0.664856
vertex 1.019344 -8.562129 0.623744
vertex 1.019344 -8.033985 0.566252
endloop
endfacet
facet normal 0.568282 -0.089045 -0.818002
outer loop
vertex 1.079223 -8.557653 0.664856
vertex 1.019344 -8.033985 0.566252
vertex 1.079223 -8.029510 0.607364
endloop
endfacet
facet normal -0.457430 -0.096232 -0.884023
outer loop
vertex 0.487531 -8.565354 0.594113
vertex 0.415898 -8.561367 0.630745
vertex 0.415898 -8.033223 0.573253
endloop
endfacet
facet normal -0.457428 -0.096232 -0.884024
outer loop
vertex 0.487531 -8.565354 0.594113
vertex 0.415898 -8.033223 0.573253
vertex 0.487531 -8.037210 0.536621
endloop
endfacet
facet normal 0.458659 -0.096163 -0.883394
outer loop
vertex 1.019344 -8.562129 0.623744
vertex 0.954572 -8.565747 0.590508
vertex 0.954572 -8.037602 0.533016
endloop
endfacet
facet normal 0.458656 -0.096163 -0.883395
outer loop
vertex 1.019344 -8.562129 0.623744
vertex 0.954572 -8.037602 0.533016
vertex 1.019344 -8.033985 0.566252
endloop
endfacet
facet normal -0.326911 -0.102271 -0.939505
outer loop
vertex 0.565426 -8.568271 0.567326
vertex 0.487531 -8.565354 0.594113
vertex 0.487531 -8.037210 0.536621
endloop
endfacet
facet normal -0.326907 -0.102271 -0.939507
outer loop
vertex 0.565426 -8.568271 0.567326
vertex 0.487531 -8.037210 0.536621
vertex 0.565426 -8.040126 0.509834
endloop
endfacet
facet normal 0.338287 -0.101837 -0.935516
outer loop
vertex 0.954572 -8.565747 0.590508
vertex 0.885634 -8.568429 0.565872
vertex 0.885634 -8.040284 0.508380
endloop
endfacet
facet normal 0.338289 -0.101836 -0.935516
outer loop
vertex 0.954572 -8.565747 0.590508
vertex 0.885634 -8.040284 0.508380
vertex 0.954572 -8.037602 0.533016
endloop
endfacet
facet normal -0.193828 -0.106165 -0.975274
outer loop
vertex 0.649127 -8.570060 0.550886
vertex 0.565426 -8.568271 0.567326
vertex 0.565426 -8.040126 0.509834
endloop
endfacet
facet normal -0.193829 -0.106165 -0.975274
outer loop
vertex 0.649127 -8.570060 0.550886
vertex 0.565426 -8.040126 0.509834
vertex 0.649127 -8.041916 0.493394
endloop
endfacet
facet normal 0.208163 -0.105846 -0.972350
outer loop
vertex 0.885634 -8.568429 0.565872
vertex 0.813260 -8.570096 0.550559
vertex 0.813260 -8.041951 0.493068
endloop
endfacet
facet normal 0.208164 -0.105846 -0.972350
outer loop
vertex 0.885634 -8.568429 0.565872
vertex 0.813260 -8.041951 0.493068
vertex 0.885634 -8.040284 0.508380
endloop
endfacet
facet normal -0.063038 -0.108002 -0.992150
outer loop
vertex 0.738178 -8.570669 0.545294
vertex 0.649127 -8.570060 0.550886
vertex 0.649127 -8.041916 0.493394
endloop
endfacet
facet normal -0.063036 -0.108002 -0.992150
outer loop
vertex 0.738178 -8.570669 0.545294
vertex 0.649127 -8.041916 0.493394
vertex 0.738178 -8.042524 0.487803
endloop
endfacet
facet normal 0.070362 -0.107949 -0.991663
outer loop
vertex 0.813260 -8.570096 0.550559
vertex 0.738178 -8.570669 0.545294
vertex 0.738178 -8.042524 0.487803
endloop
endfacet
facet normal 0.070362 -0.107949 -0.991663
outer loop
vertex 0.813260 -8.570096 0.550559
vertex 0.738178 -8.042524 0.487803
vertex 0.813260 -8.041951 0.493068
endloop
endfacet
endsolid Exported from Blender-3.3.1
