solid Exported from Blender-3.3.1
facet normal 0.000000 -0.994127 0.108218
outer loop
vertex 0.137010 -8.389721 2.207559
vertex 1.370102 -8.361580 2.466072
vertex 0.137010 -8.361580 2.466072
endloop
endfacet
facet normal 0.000000 -0.994128 0.108212
outer loop
vertex 0.137010 -8.389721 2.207559
vertex 0.961868 -8.389721 2.207559
vertex 1.370102 -8.361580 2.466072
endloop
endfacet
facet normal 0.000001 -0.994127 0.108217
outer loop
vertex 0.961868 -8.389721 2.207559
vertex 0.506099 -8.570669 0.545294
vertex 1.370102 -8.361580 2.466072
endloop
endfacet
facet normal -0.000000 -0.994127 0.108221
outer loop
vertex 0.262836 -8.559171 0.650923
vertex 0.506099 -8.570669 0.545294
vertex 0.961868 -8.389721 2.207559
endloop
endfacet
facet normal 0.000000 0.994127 -0.108218
outer loop
vertex 0.137010 -7.861577 2.150067
vertex 0.137010 -7.833436 2.408580
vertex 1.370102 -7.833436 2.408580
endloop
endfacet
facet normal 0.000000 0.994127 -0.108218
outer loop
vertex 0.137010 -7.861577 2.150067
vertex 1.370102 -7.833436 2.408580
vertex 0.961868 -7.861577 2.150067
endloop
endfacet
facet normal 0.000001 0.994128 -0.108216
outer loop
vertex 0.961868 -7.861577 2.150067
vertex 1.370102 -7.833436 2.408580
vertex 0.506099 -8.042524 0.487803
endloop
endfacet
facet normal 0.000000 0.994127 -0.108217
outer loop
vertex 0.262836 -8.031026 0.593431
vertex 0.961868 -7.861577 2.150067
vertex 0.506099 -8.042524 0.487803
endloop
endfacet
facet normal -1.000000 0.000000 0.000000
outer loop
vertex 0.137010 -8.389721 2.207559
vertex 0.137010 -8.361580 2.466072
vertex 0.137010 -7.833436 2.408580
endloop
endfacet
facet normal -1.000000 0.000000 0.000000
outer loop
vertex 0.137010 -8.389721 2.207559
vertex 0.137010 -7.833436 2.408580
vertex 0.137010 -7.861577 2.150067
endloop
endfacet
facet normal 0.000000 0.108217 0.994127
outer loop
vertex 0.137010 -8.361580 2.466072
vertex 1.370102 -8.361580 2.466072
vertex 1.370102 -7.833436 2.408580
endloop
endfacet
facet normal 0.000000 0.108217 0.994127
outer loop
vertex 0.137010 -8.361580 2.466072
vertex 1.370102 -7.833436 2.408580
vertex 0.137010 -7.833436 2.408580
endloop
endfacet
facet normal 0.000000 -0.108217 -0.994127
outer loop
vertex 0.961868 -8.389721 2.207559
vertex 0.137010 -8.389721 2.207559
vertex 0.137010 -7.861577 2.150067
endloop
endfacet
facet normal -0.000001 -0.108218 -0.994127
outer loop
vertex 0.961868 -8.389721 2.207559
vertex 0.137010 -7.861577 2.150067
vertex 0.961868 -7.861577 2.150067
endloop
endfacet
facet normal 0.912883 -0.044176 -0.405824
outer loop
vertex 1.370102 -8.361580 2.466072
vertex 0.506099 -8.570669 0.545294
vertex 0.506099 -8.042524 0.487803
endloop
endfacet
facet normal 0.912883 -0.044176 -0.405824
outer loop
vertex 1.370102 -8.361580 2.466072
vertex 0.506099 -8.042524 0.487803
vertex 1.370102 -7.833436 2.408580
endloop
endfacet
facet normal -0.913138 0.044115 0.405256
outer loop
vertex 0.262836 -8.559171 0.650923
vertex 0.961868 -8.389721 2.207559
vertex 0.961868 -7.861577 2.150067
endloop
endfacet
facet normal -0.913138 0.044115 0.405257
outer loop
vertex 0.262836 -8.559171 0.650923
vertex 0.961868 -7.861577 2.150067
vertex 0.262836 -8.031026 0.593431
endloop
endfacet
facet normal -0.400267 -0.099170 -0.911017
outer loop
vertex 0.506099 -8.570669 0.545294
vertex 0.262836 -8.559171 0.650923
vertex 0.262836 -8.031026 0.593431
endloop
endfacet
facet normal -0.400266 -0.099170 -0.911017
outer loop
vertex 0.506099 -8.570669 0.545294
vertex 0.262836 -8.031026 0.593431
vertex 0.506099 -8.042524 0.487803
endloop
endfacet
endsolid Exported from Blender-3.3.1
