solid Exported from Blender-3.3.1
facet normal -0.000000 -0.994110 0.108376
outer loop
vertex 0.596802 -8.359476 2.485403
vertex 0.768204 -8.359513 2.485062
vertex 0.682255 -8.358857 2.491089
endloop
endfacet
facet normal -0.000000 -0.994133 0.108166
outer loop
vertex 0.516843 -8.361262 2.468993
vertex 0.768204 -8.359513 2.485062
vertex 0.596802 -8.359476 2.485403
endloop
endfacet
facet normal 0.000000 -0.994136 0.108137
outer loop
vertex 0.516843 -8.361262 2.468993
vertex 0.849531 -8.361433 2.467423
vertex 0.768204 -8.359513 2.485062
endloop
endfacet
facet normal 0.000000 -0.994129 0.108205
outer loop
vertex 0.442749 -8.364109 2.442835
vertex 0.849531 -8.361433 2.467423
vertex 0.516843 -8.361262 2.468993
endloop
endfacet
facet normal -0.000002 -0.994131 0.108187
outer loop
vertex 0.442749 -8.364109 2.442835
vertex 0.925693 -8.364545 2.438839
vertex 0.849531 -8.361433 2.467423
endloop
endfacet
facet normal -0.000002 -0.994125 0.108242
outer loop
vertex 0.374888 -8.367912 2.407904
vertex 0.925693 -8.364545 2.438839
vertex 0.442749 -8.364109 2.442835
endloop
endfacet
facet normal -0.000000 -0.994126 0.108231
outer loop
vertex 0.374888 -8.367912 2.407904
vertex 0.996146 -8.368775 2.399976
vertex 0.925693 -8.364545 2.438839
endloop
endfacet
facet normal -0.000000 -0.994125 0.108233
outer loop
vertex 0.313629 -8.372563 2.365174
vertex 0.996146 -8.368775 2.399976
vertex 0.374888 -8.367912 2.407904
endloop
endfacet
facet normal -0.000001 -0.994126 0.108232
outer loop
vertex 0.313629 -8.372563 2.365174
vertex 1.060347 -8.374052 2.351501
vertex 0.996146 -8.368775 2.399976
endloop
endfacet
facet normal -0.000000 -0.994128 0.108208
outer loop
vertex 0.259341 -8.377957 2.315620
vertex 1.060347 -8.374052 2.351501
vertex 0.313629 -8.372563 2.365174
endloop
endfacet
facet normal -0.000000 -0.994132 0.108171
outer loop
vertex 0.259341 -8.377957 2.315620
vertex 1.117752 -8.380302 2.294077
vertex 1.060347 -8.374052 2.351501
endloop
endfacet
facet normal 0.000000 -0.994127 0.108218
outer loop
vertex 0.212392 -8.383988 2.260217
vertex 1.117752 -8.380302 2.294077
vertex 0.259341 -8.377957 2.315620
endloop
endfacet
facet normal -0.000000 -0.994126 0.108227
outer loop
vertex 0.212392 -8.383988 2.260217
vertex 1.167817 -8.387455 2.228373
vertex 1.117752 -8.380302 2.294077
endloop
endfacet
facet normal -0.000001 -0.994129 0.108202
outer loop
vertex 0.173153 -8.390550 2.199941
vertex 0.643506 -8.387277 2.230014
vertex 0.212392 -8.383988 2.260217
endloop
endfacet
facet normal 0.000005 -0.994105 0.108421
outer loop
vertex 0.643506 -8.387277 2.230014
vertex 0.687847 -8.386997 2.232576
vertex 0.212392 -8.383988 2.260217
endloop
endfacet
facet normal -0.000000 -0.994129 0.108200
outer loop
vertex 0.687847 -8.386997 2.232576
vertex 1.167817 -8.387455 2.228373
vertex 0.212392 -8.383988 2.260217
endloop
endfacet
facet normal -0.000000 -0.994116 0.108322
outer loop
vertex 0.731124 -8.387348 2.229353
vertex 1.167817 -8.387455 2.228373
vertex 0.687847 -8.386997 2.232576
endloop
endfacet
facet normal 0.000006 -0.994124 0.108246
outer loop
vertex 0.173153 -8.390550 2.199941
vertex 0.601543 -8.388094 2.222500
vertex 0.643506 -8.387277 2.230014
endloop
endfacet
facet normal -0.000000 -0.994128 0.108208
outer loop
vertex 0.772624 -8.388368 2.219990
vertex 1.167817 -8.387455 2.228373
vertex 0.731124 -8.387348 2.229353
endloop
endfacet
facet normal 0.000000 -0.994127 0.108224
outer loop
vertex 0.772624 -8.388368 2.219990
vertex 1.209998 -8.395436 2.155054
vertex 1.167817 -8.387455 2.228373
endloop
endfacet
facet normal -0.000005 -0.994131 0.108186
outer loop
vertex 0.173153 -8.390550 2.199941
vertex 0.562240 -8.389423 2.210295
vertex 0.601543 -8.388094 2.222500
endloop
endfacet
facet normal -0.000006 -0.994130 0.108196
outer loop
vertex 0.811969 -8.390004 2.204953
vertex 1.209998 -8.395436 2.155054
vertex 0.772624 -8.388368 2.219990
endloop
endfacet
facet normal -0.000001 -0.994119 0.108295
outer loop
vertex 0.173153 -8.390550 2.199941
vertex 0.525879 -8.391233 2.193660
vertex 0.562240 -8.389423 2.210295
endloop
endfacet
facet normal 0.000004 -0.994124 0.108246
outer loop
vertex 0.848780 -8.392209 2.184704
vertex 1.209998 -8.395436 2.155054
vertex 0.811969 -8.390004 2.204953
endloop
endfacet
facet normal -0.000000 -0.994128 0.108210
outer loop
vertex 0.141991 -8.397536 2.135765
vertex 0.525879 -8.391233 2.193660
vertex 0.173153 -8.390550 2.199941
endloop
endfacet
facet normal -0.000001 -0.994123 0.108255
outer loop
vertex 0.141991 -8.397536 2.135765
vertex 0.492741 -8.393498 2.172856
vertex 0.525879 -8.391233 2.193660
endloop
endfacet
facet normal -0.000000 -0.994121 0.108278
outer loop
vertex 0.882678 -8.394930 2.159706
vertex 1.209998 -8.395436 2.155054
vertex 0.848780 -8.392209 2.184704
endloop
endfacet
facet normal -0.000000 -0.994128 0.108206
outer loop
vertex 0.141991 -8.397536 2.135765
vertex 0.463109 -8.396189 2.148143
vertex 0.492741 -8.393498 2.172856
endloop
endfacet
facet normal 0.000000 -0.994131 0.108184
outer loop
vertex 0.913285 -8.398118 2.130422
vertex 1.209998 -8.395436 2.155054
vertex 0.882678 -8.394930 2.159706
endloop
endfacet
facet normal 0.000002 -0.994126 0.108231
outer loop
vertex 0.913285 -8.398118 2.130422
vertex 1.243752 -8.404174 2.074785
vertex 1.209998 -8.395436 2.155054
endloop
endfacet
facet normal 0.000001 -0.994127 0.108222
outer loop
vertex 0.141991 -8.397536 2.135765
vertex 0.437262 -8.399276 2.119781
vertex 0.463109 -8.396189 2.148143
endloop
endfacet
facet normal 0.000001 -0.994127 0.108218
outer loop
vertex 0.119275 -8.404840 2.068664
vertex 0.437262 -8.399276 2.119781
vertex 0.141991 -8.397536 2.135765
endloop
endfacet
facet normal -0.000002 -0.994129 0.108197
outer loop
vertex 0.940222 -8.401721 2.097317
vertex 1.243752 -8.404174 2.074785
vertex 0.913285 -8.398118 2.130422
endloop
endfacet
facet normal 0.000001 -0.994137 0.108126
outer loop
vertex 0.119275 -8.404840 2.068664
vertex 0.415484 -8.402732 2.088032
vertex 0.437262 -8.399276 2.119781
endloop
endfacet
facet normal 0.000001 -0.994132 0.108173
outer loop
vertex 0.963111 -8.405691 2.060852
vertex 1.243752 -8.404174 2.074785
vertex 0.940222 -8.401721 2.097317
endloop
endfacet
facet normal 0.000001 -0.994118 0.108307
outer loop
vertex 0.119275 -8.404840 2.068664
vertex 0.398055 -8.406528 2.053155
vertex 0.415484 -8.402732 2.088032
endloop
endfacet
facet normal 0.000002 -0.994125 0.108236
outer loop
vertex 0.963111 -8.405691 2.060852
vertex 1.268536 -8.413596 1.988232
vertex 1.243752 -8.404174 2.074785
endloop
endfacet
facet normal 0.000001 -0.994127 0.108224
outer loop
vertex 0.105376 -8.412357 1.999614
vertex 0.398055 -8.406528 2.053155
vertex 0.119275 -8.404840 2.068664
endloop
endfacet
facet normal -0.000005 -0.994134 0.108160
outer loop
vertex 0.981572 -8.409975 2.021492
vertex 1.268536 -8.413596 1.988232
vertex 0.963111 -8.405691 2.060852
endloop
endfacet
facet normal 0.000003 -0.994125 0.108236
outer loop
vertex 0.105376 -8.412357 1.999614
vertex 0.385257 -8.410637 2.015412
vertex 0.398055 -8.406528 2.053155
endloop
endfacet
facet normal -0.000000 -0.994119 0.108293
outer loop
vertex 0.995227 -8.414525 1.979700
vertex 1.268536 -8.413596 1.988232
vertex 0.981572 -8.409975 2.021492
endloop
endfacet
facet normal 0.000002 -0.994132 0.108174
outer loop
vertex 0.105376 -8.412357 1.999614
vertex 0.377372 -8.415030 1.975063
vertex 0.385257 -8.410637 2.015412
endloop
endfacet
facet normal 0.000001 -0.994123 0.108253
outer loop
vertex 0.100661 -8.419980 1.929588
vertex 0.377372 -8.415030 1.975063
vertex 0.105376 -8.412357 1.999614
endloop
endfacet
facet normal 0.000000 -0.994127 0.108216
outer loop
vertex 0.995227 -8.414525 1.979700
vertex 1.283804 -8.423629 1.896063
vertex 1.268536 -8.413596 1.988232
endloop
endfacet
facet normal 0.000002 -0.994128 0.108210
outer loop
vertex 1.003698 -8.419289 1.935939
vertex 1.283804 -8.423629 1.896063
vertex 0.995227 -8.414525 1.979700
endloop
endfacet
facet normal 0.000003 -0.994134 0.108156
outer loop
vertex 0.100661 -8.419980 1.929588
vertex 0.374681 -8.419677 1.932368
vertex 0.377372 -8.415030 1.975063
endloop
endfacet
facet normal 0.000002 -0.994128 0.108213
outer loop
vertex 1.006606 -8.424216 1.890672
vertex 1.283804 -8.423629 1.896063
vertex 1.003698 -8.419289 1.935939
endloop
endfacet
facet normal 0.000002 -0.994126 0.108233
outer loop
vertex 0.100661 -8.419980 1.929588
vertex 0.377646 -8.424065 1.892064
vertex 0.374681 -8.419677 1.932368
endloop
endfacet
facet normal -0.000001 -0.994130 0.108191
outer loop
vertex 0.105512 -8.428220 1.853888
vertex 0.377646 -8.424065 1.892064
vertex 0.100661 -8.419980 1.929588
endloop
endfacet
facet normal 0.000002 -0.994127 0.108220
outer loop
vertex 1.006606 -8.424216 1.890672
vertex 1.289015 -8.434201 1.798942
vertex 1.283804 -8.423629 1.896063
endloop
endfacet
facet normal -0.000001 -0.994120 0.108281
outer loop
vertex 0.105512 -8.428220 1.853888
vertex 0.386280 -8.428274 1.853391
vertex 0.377646 -8.424065 1.892064
endloop
endfacet
facet normal 0.000001 -0.994111 0.108366
outer loop
vertex 1.006598 -8.425486 1.879012
vertex 1.289015 -8.434201 1.798942
vertex 1.006606 -8.424216 1.890672
endloop
endfacet
facet normal -0.000015 -0.994152 0.107995
outer loop
vertex 1.006541 -8.426730 1.867573
vertex 1.289015 -8.434201 1.798942
vertex 1.006598 -8.425486 1.879012
endloop
endfacet
facet normal 0.000005 -0.994109 0.108386
outer loop
vertex 1.006387 -8.427965 1.856230
vertex 1.289015 -8.434201 1.798942
vertex 1.006541 -8.426730 1.867573
endloop
endfacet
facet normal 0.000001 -0.994152 0.107986
outer loop
vertex 1.006088 -8.429203 1.844859
vertex 1.289015 -8.434201 1.798942
vertex 1.006387 -8.427965 1.856230
endloop
endfacet
facet normal -0.000001 -0.994129 0.108205
outer loop
vertex 0.119664 -8.436102 1.781479
vertex 0.386280 -8.428274 1.853391
vertex 0.105512 -8.428220 1.853888
endloop
endfacet
facet normal 0.000001 -0.994123 0.108255
outer loop
vertex 0.119664 -8.436102 1.781479
vertex 0.400196 -8.432267 1.816706
vertex 0.386280 -8.428274 1.853391
endloop
endfacet
facet normal 0.000006 -0.994121 0.108272
outer loop
vertex 1.005594 -8.430458 1.833333
vertex 1.289015 -8.434201 1.798942
vertex 1.006088 -8.429203 1.844859
endloop
endfacet
facet normal -0.000004 -0.994122 0.108269
outer loop
vertex 1.004858 -8.431743 1.821527
vertex 1.289015 -8.434201 1.798942
vertex 1.005594 -8.430458 1.833333
endloop
endfacet
facet normal 0.000001 -0.994119 0.108293
outer loop
vertex 1.003831 -8.433072 1.809316
vertex 1.289015 -8.434201 1.798942
vertex 1.004858 -8.431743 1.821527
endloop
endfacet
facet normal -0.000001 -0.994127 0.108217
outer loop
vertex 0.119664 -8.436102 1.781479
vertex 0.419005 -8.436006 1.782367
vertex 0.400196 -8.432267 1.816706
endloop
endfacet
facet normal -0.000001 -0.994138 0.108116
outer loop
vertex 1.002463 -8.434459 1.796574
vertex 1.289015 -8.434201 1.798942
vertex 1.003831 -8.433072 1.809316
endloop
endfacet
facet normal -0.000001 -0.994127 0.108225
outer loop
vertex 1.002463 -8.434459 1.796574
vertex 1.282484 -8.446808 1.683129
vertex 1.289015 -8.434201 1.798942
endloop
endfacet
facet normal 0.000018 -0.994140 0.108103
outer loop
vertex 1.000708 -8.435918 1.783176
vertex 1.282484 -8.446808 1.683129
vertex 1.002463 -8.434459 1.796574
endloop
endfacet
facet normal -0.000010 -0.994118 0.108304
outer loop
vertex 0.998515 -8.437461 1.768996
vertex 1.282484 -8.446808 1.683129
vertex 1.000708 -8.435918 1.783176
endloop
endfacet
facet normal -0.000001 -0.994134 0.108157
outer loop
vertex 0.119664 -8.436102 1.781479
vertex 0.442319 -8.439449 1.750730
vertex 0.419005 -8.436006 1.782367
endloop
endfacet
facet normal -0.000000 -0.994126 0.108228
outer loop
vertex 0.142515 -8.443558 1.712988
vertex 0.442319 -8.439449 1.750730
vertex 0.119664 -8.436102 1.781479
endloop
endfacet
facet normal -0.000002 -0.994145 0.108055
outer loop
vertex 0.995837 -8.439103 1.753909
vertex 1.282484 -8.446808 1.683129
vertex 0.998515 -8.437461 1.768996
endloop
endfacet
facet normal 0.000000 -0.994135 0.108143
outer loop
vertex 0.992625 -8.440858 1.737789
vertex 1.282484 -8.446808 1.683129
vertex 0.995837 -8.439103 1.753909
endloop
endfacet
facet normal -0.000000 -0.994131 0.108185
outer loop
vertex 0.142515 -8.443558 1.712988
vertex 0.469749 -8.442560 1.722153
vertex 0.442319 -8.439449 1.750730
endloop
endfacet
facet normal 0.000001 -0.994131 0.108181
outer loop
vertex 0.966664 -8.442731 1.720583
vertex 1.282484 -8.446808 1.683129
vertex 0.992625 -8.440858 1.737789
endloop
endfacet
facet normal -0.000000 -0.994124 0.108243
outer loop
vertex 0.142515 -8.443558 1.712988
vertex 0.500908 -8.445299 1.696992
vertex 0.469749 -8.442560 1.722153
endloop
endfacet
facet normal -0.000000 -0.994110 0.108376
outer loop
vertex 0.940586 -8.444419 1.705076
vertex 1.282484 -8.446808 1.683129
vertex 0.966664 -8.442731 1.720583
endloop
endfacet
facet normal -0.000000 -0.994129 0.108202
outer loop
vertex 0.173463 -8.450519 1.649044
vertex 0.500908 -8.445299 1.696992
vertex 0.142515 -8.443558 1.712988
endloop
endfacet
facet normal 0.000002 -0.994131 0.108178
outer loop
vertex 0.914508 -8.445927 1.691228
vertex 1.282484 -8.446808 1.683129
vertex 0.940586 -8.444419 1.705076
endloop
endfacet
facet normal 0.000001 -0.994123 0.108261
outer loop
vertex 0.173463 -8.450519 1.649044
vertex 0.535407 -8.447627 1.675606
vertex 0.500908 -8.445299 1.696992
endloop
endfacet
facet normal 0.000000 -0.994116 0.108316
outer loop
vertex 0.888547 -8.447257 1.679003
vertex 1.282484 -8.446808 1.683129
vertex 0.914508 -8.445927 1.691228
endloop
endfacet
facet normal 0.000000 -0.994128 0.108214
outer loop
vertex 0.888547 -8.447257 1.679003
vertex 1.263332 -8.459586 1.565743
vertex 1.282484 -8.446808 1.683129
endloop
endfacet
facet normal 0.000003 -0.994133 0.108162
outer loop
vertex 0.862819 -8.448416 1.668360
vertex 1.263332 -8.459586 1.565743
vertex 0.888547 -8.447257 1.679003
endloop
endfacet
facet normal -0.000001 -0.994122 0.108265
outer loop
vertex 0.173463 -8.450519 1.649044
vertex 0.572857 -8.449506 1.658350
vertex 0.535407 -8.447627 1.675606
endloop
endfacet
facet normal 0.000008 -0.994123 0.108261
outer loop
vertex 0.837440 -8.449407 1.659262
vertex 1.263332 -8.459586 1.565743
vertex 0.862819 -8.448416 1.668360
endloop
endfacet
facet normal -0.000009 -0.994128 0.108210
outer loop
vertex 0.812527 -8.450233 1.651669
vertex 1.263332 -8.459586 1.565743
vertex 0.837440 -8.449407 1.659262
endloop
endfacet
facet normal 0.000000 -0.994137 0.108132
outer loop
vertex 0.173463 -8.450519 1.649044
vertex 0.612870 -8.450895 1.645582
vertex 0.572857 -8.449506 1.658350
endloop
endfacet
facet normal 0.000013 -0.994124 0.108248
outer loop
vertex 0.788197 -8.450900 1.645543
vertex 1.263332 -8.459586 1.565743
vertex 0.812527 -8.450233 1.651669
endloop
endfacet
facet normal 0.000000 -0.994127 0.108217
outer loop
vertex 0.211907 -8.456916 1.590273
vertex 0.612870 -8.450895 1.645582
vertex 0.173463 -8.450519 1.649044
endloop
endfacet
facet normal -0.000007 -0.994113 0.108345
outer loop
vertex 0.211907 -8.456916 1.590273
vertex 0.655058 -8.451758 1.637660
vertex 0.612870 -8.450895 1.645582
endloop
endfacet
facet normal -0.000001 -0.994127 0.108217
outer loop
vertex 0.764566 -8.451411 1.640846
vertex 1.263332 -8.459586 1.565743
vertex 0.788197 -8.450900 1.645543
endloop
endfacet
facet normal -0.000010 -0.994124 0.108250
outer loop
vertex 0.741750 -8.451771 1.637539
vertex 1.263332 -8.459586 1.565743
vertex 0.764566 -8.451411 1.640846
endloop
endfacet
facet normal 0.000006 -0.994145 0.108055
outer loop
vertex 0.211907 -8.456916 1.590273
vertex 0.699032 -8.452054 1.634939
vertex 0.655058 -8.451758 1.637660
endloop
endfacet
facet normal 0.000019 -0.994119 0.108290
outer loop
vertex 0.719867 -8.451984 1.635583
vertex 1.263332 -8.459586 1.565743
vertex 0.741750 -8.451771 1.637539
endloop
endfacet
facet normal -0.000015 -0.994127 0.108216
outer loop
vertex 0.699032 -8.452054 1.634939
vertex 1.263332 -8.459586 1.565743
vertex 0.719867 -8.451984 1.635583
endloop
endfacet
facet normal -0.000000 -0.994130 0.108192
outer loop
vertex 0.211907 -8.456916 1.590273
vertex 1.263332 -8.459586 1.565743
vertex 0.699032 -8.452054 1.634939
endloop
endfacet
facet normal 0.000000 -0.994128 0.108213
outer loop
vertex 0.257244 -8.462683 1.537302
vertex 1.263332 -8.459586 1.565743
vertex 0.211907 -8.456916 1.590273
endloop
endfacet
facet normal 0.000001 -0.994126 0.108229
outer loop
vertex 0.257244 -8.462683 1.537302
vertex 1.232219 -8.472417 1.447874
vertex 1.263332 -8.459586 1.565743
endloop
endfacet
facet normal -0.000000 -0.994129 0.108203
outer loop
vertex 0.308872 -8.467749 1.490760
vertex 1.232219 -8.472417 1.447874
vertex 0.257244 -8.462683 1.537302
endloop
endfacet
facet normal -0.000000 -0.994119 0.108293
outer loop
vertex 0.366189 -8.472047 1.451273
vertex 0.936703 -8.471419 1.457038
vertex 0.308872 -8.467749 1.490760
endloop
endfacet
facet normal 0.000000 -0.994193 0.107609
outer loop
vertex 0.936703 -8.471419 1.457038
vertex 1.232219 -8.472417 1.447874
vertex 0.308872 -8.467749 1.490760
endloop
endfacet
facet normal -0.000000 -0.994139 0.108111
outer loop
vertex 0.366189 -8.472047 1.451273
vertex 0.915172 -8.472736 1.444941
vertex 0.936703 -8.471419 1.457038
endloop
endfacet
facet normal 0.000000 -0.994128 0.108210
outer loop
vertex 0.920240 -8.477977 1.396800
vertex 1.232219 -8.472417 1.447874
vertex 0.936703 -8.471419 1.457038
endloop
endfacet
facet normal -0.000000 -0.994120 0.108280
outer loop
vertex 0.428594 -8.475510 1.419469
vertex 0.915172 -8.472736 1.444941
vertex 0.366189 -8.472047 1.451273
endloop
endfacet
facet normal 0.000000 -0.994127 0.108218
outer loop
vertex 0.920240 -8.477977 1.396800
vertex 1.189804 -8.485182 1.330613
vertex 1.232219 -8.472417 1.447874
endloop
endfacet
facet normal 0.000000 -0.994131 0.108181
outer loop
vertex 0.428594 -8.475510 1.419469
vertex 0.892612 -8.473961 1.433694
vertex 0.915172 -8.472736 1.444941
endloop
endfacet
facet normal 0.000002 -0.994130 0.108194
outer loop
vertex 0.428594 -8.475510 1.419469
vertex 0.869159 -8.475088 1.423334
vertex 0.892612 -8.473961 1.433694
endloop
endfacet
facet normal 0.000001 -0.994116 0.108319
outer loop
vertex 0.428594 -8.475510 1.419469
vertex 0.844948 -8.476115 1.413901
vertex 0.869159 -8.475088 1.423334
endloop
endfacet
facet normal 0.000001 -0.994133 0.108165
outer loop
vertex 0.495484 -8.478066 1.395975
vertex 0.844948 -8.476115 1.413901
vertex 0.428594 -8.475510 1.419469
endloop
endfacet
facet normal -0.000003 -0.994097 0.108497
outer loop
vertex 0.495484 -8.478066 1.395975
vertex 0.820117 -8.477037 1.405433
vertex 0.844948 -8.476115 1.413901
endloop
endfacet
facet normal -0.000002 -0.994140 0.108100
outer loop
vertex 0.495484 -8.478066 1.395975
vertex 0.794799 -8.477850 1.397969
vertex 0.820117 -8.477037 1.405433
endloop
endfacet
facet normal -0.000002 -0.994151 0.108002
outer loop
vertex 0.495484 -8.478066 1.395975
vertex 0.769132 -8.478549 1.391548
vertex 0.794799 -8.477850 1.397969
endloop
endfacet
facet normal -0.000000 -0.994128 0.108207
outer loop
vertex 0.897505 -8.484617 1.335799
vertex 1.189804 -8.485182 1.330613
vertex 0.920240 -8.477977 1.396800
endloop
endfacet
facet normal -0.000002 -0.994111 0.108367
outer loop
vertex 0.566258 -8.479651 1.381418
vertex 0.769132 -8.478549 1.391548
vertex 0.495484 -8.478066 1.395975
endloop
endfacet
facet normal 0.000006 -0.994124 0.108252
outer loop
vertex 0.566258 -8.479651 1.381418
vertex 0.743252 -8.479130 1.386207
vertex 0.769132 -8.478549 1.391548
endloop
endfacet
facet normal 0.000001 -0.994203 0.107523
outer loop
vertex 0.566258 -8.479651 1.381418
vertex 0.717294 -8.479589 1.381986
vertex 0.743252 -8.479130 1.386207
endloop
endfacet
facet normal 0.000001 -0.994027 0.109133
outer loop
vertex 0.566258 -8.479651 1.381418
vertex 0.691394 -8.479923 1.378923
vertex 0.717294 -8.479589 1.381986
endloop
endfacet
facet normal -0.000001 -0.994175 0.107774
outer loop
vertex 0.640313 -8.480195 1.376427
vertex 0.691394 -8.479923 1.378923
vertex 0.566258 -8.479651 1.381418
endloop
endfacet
facet normal 0.000002 -0.994101 0.108459
outer loop
vertex 0.640313 -8.480195 1.376427
vertex 0.665689 -8.480126 1.377057
vertex 0.691394 -8.479923 1.378923
endloop
endfacet
facet normal -0.000000 -0.994127 0.108220
outer loop
vertex 0.868635 -8.491310 1.274316
vertex 1.189804 -8.485182 1.330613
vertex 0.897505 -8.484617 1.335799
endloop
endfacet
facet normal -0.000000 -0.994129 0.108204
outer loop
vertex 0.868635 -8.491310 1.274316
vertex 1.136749 -8.497762 1.215051
vertex 1.189804 -8.485182 1.330613
endloop
endfacet
facet normal -0.000001 -0.994123 0.108257
outer loop
vertex 0.833764 -8.498025 1.212630
vertex 1.136749 -8.497762 1.215051
vertex 0.868635 -8.491310 1.274316
endloop
endfacet
facet normal -0.000001 -0.994128 0.108211
outer loop
vertex 0.833764 -8.498025 1.212630
vertex 1.073713 -8.510037 1.102278
vertex 1.136749 -8.497762 1.215051
endloop
endfacet
facet normal -0.000002 -0.994127 0.108218
outer loop
vertex 0.793029 -8.504731 1.151021
vertex 1.073713 -8.510037 1.102278
vertex 0.833764 -8.498025 1.212630
endloop
endfacet
facet normal 0.000000 -0.994127 0.108221
outer loop
vertex 0.746566 -8.511399 1.089769
vertex 1.073713 -8.510037 1.102278
vertex 0.793029 -8.504731 1.151021
endloop
endfacet
facet normal 0.000000 -0.994127 0.108218
outer loop
vertex 0.746566 -8.511399 1.089769
vertex 1.001357 -8.521892 0.993385
vertex 1.073713 -8.510037 1.102278
endloop
endfacet
facet normal 0.000000 -0.994125 0.108238
outer loop
vertex 0.694511 -8.517998 1.029155
vertex 1.001357 -8.521892 0.993385
vertex 0.746566 -8.511399 1.089769
endloop
endfacet
facet normal -0.000001 -0.994131 0.108185
outer loop
vertex 0.636999 -8.524496 0.969457
vertex 1.001357 -8.521892 0.993385
vertex 0.694511 -8.517998 1.029155
endloop
endfacet
facet normal -0.000001 -0.994125 0.108236
outer loop
vertex 0.636999 -8.524496 0.969457
vertex 0.920340 -8.533204 0.889463
vertex 1.001357 -8.521892 0.993385
endloop
endfacet
facet normal -0.000002 -0.994131 0.108186
outer loop
vertex 0.574167 -8.530864 0.910956
vertex 0.920340 -8.533204 0.889463
vertex 0.636999 -8.524496 0.969457
endloop
endfacet
facet normal -0.000002 -0.994128 0.108213
outer loop
vertex 0.506151 -8.537071 0.853932
vertex 0.920340 -8.533204 0.889463
vertex 0.574167 -8.530864 0.910956
endloop
endfacet
facet normal -0.000002 -0.994126 0.108228
outer loop
vertex 0.506151 -8.537071 0.853932
vertex 0.831324 -8.543857 0.791602
vertex 0.920340 -8.533204 0.889463
endloop
endfacet
facet normal 0.000000 -0.994128 0.108210
outer loop
vertex 0.433086 -8.543088 0.798664
vertex 0.831324 -8.543857 0.791602
vertex 0.506151 -8.537071 0.853932
endloop
endfacet
facet normal 0.000000 -0.994125 0.108237
outer loop
vertex 0.355108 -8.548882 0.745433
vertex 0.831324 -8.543857 0.791602
vertex 0.433086 -8.543088 0.798664
endloop
endfacet
facet normal 0.000000 -0.994128 0.108208
outer loop
vertex 0.355108 -8.548882 0.745433
vertex 0.734967 -8.553731 0.700894
vertex 0.831324 -8.543857 0.791602
endloop
endfacet
facet normal 0.000000 -0.994126 0.108226
outer loop
vertex 0.522876 -8.570669 0.545294
vertex 0.734967 -8.553731 0.700894
vertex 0.355108 -8.548882 0.745433
endloop
endfacet
facet normal 0.000017 -0.994140 0.108102
outer loop
vertex 0.522876 -8.570669 0.545294
vertex 0.631931 -8.562708 0.618427
vertex 0.734967 -8.553731 0.700894
endloop
endfacet
facet normal 0.000000 0.994122 -0.108264
outer loop
vertex 0.596802 -7.831331 2.427911
vertex 0.682255 -7.830712 2.433597
vertex 0.768204 -7.831368 2.427570
endloop
endfacet
facet normal 0.000001 0.994124 -0.108247
outer loop
vertex 0.516843 -7.833118 2.411501
vertex 0.596802 -7.831331 2.427911
vertex 0.768204 -7.831368 2.427570
endloop
endfacet
facet normal -0.000001 0.994127 -0.108218
outer loop
vertex 0.516843 -7.833118 2.411501
vertex 0.768204 -7.831368 2.427570
vertex 0.849531 -7.833289 2.409931
endloop
endfacet
facet normal -0.000001 0.994123 -0.108258
outer loop
vertex 0.442749 -7.835965 2.385343
vertex 0.516843 -7.833118 2.411501
vertex 0.849531 -7.833289 2.409931
endloop
endfacet
facet normal -0.000000 0.994133 -0.108169
outer loop
vertex 0.442749 -7.835965 2.385343
vertex 0.849531 -7.833289 2.409931
vertex 0.925693 -7.836400 2.381347
endloop
endfacet
facet normal -0.000000 0.994128 -0.108215
outer loop
vertex 0.374888 -7.839767 2.350412
vertex 0.442749 -7.835965 2.385343
vertex 0.925693 -7.836400 2.381347
endloop
endfacet
facet normal 0.000000 0.994125 -0.108237
outer loop
vertex 0.374888 -7.839767 2.350412
vertex 0.925693 -7.836400 2.381347
vertex 0.996146 -7.840631 2.342485
endloop
endfacet
facet normal 0.000000 0.994125 -0.108233
outer loop
vertex 0.313629 -7.844419 2.307682
vertex 0.374888 -7.839767 2.350412
vertex 0.996146 -7.840631 2.342485
endloop
endfacet
facet normal -0.000000 0.994126 -0.108232
outer loop
vertex 0.313629 -7.844419 2.307682
vertex 0.996146 -7.840631 2.342485
vertex 1.060347 -7.845908 2.294009
endloop
endfacet
facet normal -0.000000 0.994128 -0.108208
outer loop
vertex 0.259341 -7.849813 2.258128
vertex 0.313629 -7.844419 2.307682
vertex 1.060347 -7.845908 2.294009
endloop
endfacet
facet normal 0.000000 0.994127 -0.108218
outer loop
vertex 0.259341 -7.849813 2.258128
vertex 1.060347 -7.845908 2.294009
vertex 1.117752 -7.852159 2.236586
endloop
endfacet
facet normal 0.000000 0.994127 -0.108218
outer loop
vertex 0.212392 -7.855844 2.202725
vertex 0.259341 -7.849813 2.258128
vertex 1.117752 -7.852159 2.236586
endloop
endfacet
facet normal -0.000000 0.994128 -0.108209
outer loop
vertex 0.212392 -7.855844 2.202725
vertex 1.117752 -7.852159 2.236586
vertex 1.167817 -7.859311 2.170881
endloop
endfacet
facet normal 0.000000 0.994129 -0.108202
outer loop
vertex 0.173153 -7.862406 2.142449
vertex 0.212392 -7.855844 2.202725
vertex 0.643506 -7.859132 2.172522
endloop
endfacet
facet normal 0.000000 0.994126 -0.108224
outer loop
vertex 0.643506 -7.859132 2.172522
vertex 0.212392 -7.855844 2.202725
vertex 0.687847 -7.858853 2.175085
endloop
endfacet
facet normal -0.000001 0.994120 -0.108283
outer loop
vertex 0.687847 -7.858853 2.175085
vertex 0.212392 -7.855844 2.202725
vertex 1.167817 -7.859311 2.170881
endloop
endfacet
facet normal -0.000001 0.994153 -0.107979
outer loop
vertex 0.731124 -7.859204 2.171861
vertex 0.687847 -7.858853 2.175085
vertex 1.167817 -7.859311 2.170881
endloop
endfacet
facet normal -0.000001 0.994135 -0.108149
outer loop
vertex 0.173153 -7.862406 2.142449
vertex 0.643506 -7.859132 2.172522
vertex 0.601543 -7.859950 2.165008
endloop
endfacet
facet normal -0.000001 0.994128 -0.108208
outer loop
vertex 0.772624 -7.860223 2.162498
vertex 0.731124 -7.859204 2.171861
vertex 1.167817 -7.859311 2.170881
endloop
endfacet
facet normal -0.000000 0.994128 -0.108210
outer loop
vertex 0.772624 -7.860223 2.162498
vertex 1.167817 -7.859311 2.170881
vertex 1.209998 -7.867292 2.097562
endloop
endfacet
facet normal -0.000001 0.994134 -0.108159
outer loop
vertex 0.173153 -7.862406 2.142449
vertex 0.601543 -7.859950 2.165008
vertex 0.562240 -7.861279 2.152803
endloop
endfacet
facet normal -0.000001 0.994117 -0.108310
outer loop
vertex 0.811969 -7.861860 2.147461
vertex 0.772624 -7.860223 2.162498
vertex 1.209998 -7.867292 2.097562
endloop
endfacet
facet normal 0.000000 0.994125 -0.108236
outer loop
vertex 0.173153 -7.862406 2.142449
vertex 0.562240 -7.861279 2.152803
vertex 0.525879 -7.863090 2.136168
endloop
endfacet
facet normal -0.000002 0.994124 -0.108247
outer loop
vertex 0.848780 -7.864065 2.127212
vertex 0.811969 -7.861860 2.147461
vertex 1.209998 -7.867292 2.097562
endloop
endfacet
facet normal 0.000000 0.994128 -0.108210
outer loop
vertex 0.141991 -7.869392 2.078273
vertex 0.173153 -7.862406 2.142449
vertex 0.525879 -7.863090 2.136168
endloop
endfacet
facet normal -0.000002 0.994127 -0.108216
outer loop
vertex 0.141991 -7.869392 2.078273
vertex 0.525879 -7.863090 2.136168
vertex 0.492741 -7.865354 2.115364
endloop
endfacet
facet normal 0.000000 0.994133 -0.108161
outer loop
vertex 0.882678 -7.866786 2.102214
vertex 0.848780 -7.864065 2.127212
vertex 1.209998 -7.867292 2.097562
endloop
endfacet
facet normal -0.000000 0.994125 -0.108234
outer loop
vertex 0.141991 -7.869392 2.078273
vertex 0.492741 -7.865354 2.115364
vertex 0.463109 -7.868044 2.090651
endloop
endfacet
facet normal -0.000000 0.994131 -0.108185
outer loop
vertex 0.913285 -7.869973 2.072930
vertex 0.882678 -7.866786 2.102214
vertex 1.209998 -7.867292 2.097562
endloop
endfacet
facet normal 0.000000 0.994126 -0.108231
outer loop
vertex 0.913285 -7.869973 2.072930
vertex 1.209998 -7.867292 2.097562
vertex 1.243752 -7.876030 2.017293
endloop
endfacet
facet normal 0.000000 0.994126 -0.108229
outer loop
vertex 0.141991 -7.869392 2.078273
vertex 0.463109 -7.868044 2.090651
vertex 0.437262 -7.871132 2.062289
endloop
endfacet
facet normal 0.000001 0.994127 -0.108218
outer loop
vertex 0.119275 -7.876696 2.011172
vertex 0.141991 -7.869392 2.078273
vertex 0.437262 -7.871132 2.062289
endloop
endfacet
facet normal 0.000000 0.994124 -0.108246
outer loop
vertex 0.940222 -7.873577 2.039825
vertex 0.913285 -7.869973 2.072930
vertex 1.243752 -7.876030 2.017293
endloop
endfacet
facet normal 0.000001 0.994134 -0.108151
outer loop
vertex 0.119275 -7.876696 2.011172
vertex 0.437262 -7.871132 2.062289
vertex 0.415484 -7.874588 2.030540
endloop
endfacet
facet normal 0.000001 0.994127 -0.108218
outer loop
vertex 0.963111 -7.877546 2.003360
vertex 0.940222 -7.873577 2.039825
vertex 1.243752 -7.876030 2.017293
endloop
endfacet
facet normal 0.000001 0.994119 -0.108293
outer loop
vertex 0.119275 -7.876696 2.011172
vertex 0.415484 -7.874588 2.030540
vertex 0.398055 -7.878385 1.995663
endloop
endfacet
facet normal 0.000001 0.994128 -0.108214
outer loop
vertex 0.963111 -7.877546 2.003360
vertex 1.243752 -7.876030 2.017293
vertex 1.268536 -7.885452 1.930741
endloop
endfacet
facet normal 0.000001 0.994127 -0.108224
outer loop
vertex 0.105376 -7.884212 1.942122
vertex 0.119275 -7.876696 2.011172
vertex 0.398055 -7.878385 1.995663
endloop
endfacet
facet normal -0.000001 0.994129 -0.108203
outer loop
vertex 0.981572 -7.881831 1.964000
vertex 0.963111 -7.877546 2.003360
vertex 1.268536 -7.885452 1.930741
endloop
endfacet
facet normal 0.000001 0.994128 -0.108209
outer loop
vertex 0.105376 -7.884212 1.942122
vertex 0.398055 -7.878385 1.995663
vertex 0.385257 -7.882493 1.957920
endloop
endfacet
facet normal 0.000001 0.994128 -0.108211
outer loop
vertex 0.995227 -7.886380 1.922208
vertex 0.981572 -7.881831 1.964000
vertex 1.268536 -7.885452 1.930741
endloop
endfacet
facet normal 0.000001 0.994133 -0.108163
outer loop
vertex 0.105376 -7.884212 1.942122
vertex 0.385257 -7.882493 1.957920
vertex 0.377372 -7.886885 1.917571
endloop
endfacet
facet normal 0.000001 0.994126 -0.108228
outer loop
vertex 0.100661 -7.891835 1.872096
vertex 0.105376 -7.884212 1.942122
vertex 0.377372 -7.886885 1.917571
endloop
endfacet
facet normal 0.000001 0.994127 -0.108218
outer loop
vertex 0.995227 -7.886380 1.922208
vertex 1.268536 -7.885452 1.930741
vertex 1.283804 -7.895485 1.838571
endloop
endfacet
facet normal -0.000002 0.994128 -0.108210
outer loop
vertex 1.003698 -7.891144 1.878447
vertex 0.995227 -7.886380 1.922208
vertex 1.283804 -7.895485 1.838571
endloop
endfacet
facet normal 0.000001 0.994125 -0.108235
outer loop
vertex 0.100661 -7.891835 1.872096
vertex 0.377372 -7.886885 1.917571
vertex 0.374681 -7.891533 1.874876
endloop
endfacet
facet normal 0.000001 0.994128 -0.108213
outer loop
vertex 1.006606 -7.896071 1.833181
vertex 1.003698 -7.891144 1.878447
vertex 1.283804 -7.895485 1.838571
endloop
endfacet
facet normal 0.000001 0.994126 -0.108228
outer loop
vertex 0.100661 -7.891835 1.872096
vertex 0.374681 -7.891533 1.874876
vertex 0.377646 -7.895920 1.834572
endloop
endfacet
facet normal 0.000001 0.994130 -0.108191
outer loop
vertex 0.105512 -7.900076 1.796396
vertex 0.100661 -7.891835 1.872096
vertex 0.377646 -7.895920 1.834572
endloop
endfacet
facet normal 0.000001 0.994127 -0.108221
outer loop
vertex 1.006606 -7.896071 1.833181
vertex 1.283804 -7.895485 1.838571
vertex 1.289015 -7.906057 1.741450
endloop
endfacet
facet normal -0.000001 0.994131 -0.108183
outer loop
vertex 0.105512 -7.900076 1.796396
vertex 0.377646 -7.895920 1.834572
vertex 0.386280 -7.900130 1.795899
endloop
endfacet
facet normal 0.000002 0.994127 -0.108222
outer loop
vertex 1.006598 -7.897341 1.821520
vertex 1.006606 -7.896071 1.833181
vertex 1.289015 -7.906057 1.741450
endloop
endfacet
facet normal -0.000005 0.994120 -0.108285
outer loop
vertex 1.006541 -7.898586 1.810081
vertex 1.006598 -7.897341 1.821520
vertex 1.289015 -7.906057 1.741450
endloop
endfacet
facet normal 0.000005 0.994141 -0.108094
outer loop
vertex 1.006387 -7.899821 1.798738
vertex 1.006541 -7.898586 1.810081
vertex 1.289015 -7.906057 1.741450
endloop
endfacet
facet normal 0.000001 0.994121 -0.108276
outer loop
vertex 1.006088 -7.901059 1.787367
vertex 1.006387 -7.899821 1.798738
vertex 1.289015 -7.906057 1.741450
endloop
endfacet
facet normal -0.000001 0.994124 -0.108251
outer loop
vertex 0.119664 -7.907958 1.723987
vertex 0.105512 -7.900076 1.796396
vertex 0.386280 -7.900130 1.795899
endloop
endfacet
facet normal 0.000000 0.994130 -0.108190
outer loop
vertex 0.119664 -7.907958 1.723987
vertex 0.386280 -7.900130 1.795899
vertex 0.400196 -7.904123 1.759214
endloop
endfacet
facet normal 0.000003 0.994121 -0.108272
outer loop
vertex 1.005594 -7.902313 1.775841
vertex 1.006088 -7.901059 1.787367
vertex 1.289015 -7.906057 1.741450
endloop
endfacet
facet normal -0.000002 0.994122 -0.108269
outer loop
vertex 1.004858 -7.903599 1.764035
vertex 1.005594 -7.902313 1.775841
vertex 1.289015 -7.906057 1.741450
endloop
endfacet
facet normal 0.000002 0.994119 -0.108293
outer loop
vertex 1.003831 -7.904928 1.751824
vertex 1.004858 -7.903599 1.764035
vertex 1.289015 -7.906057 1.741450
endloop
endfacet
facet normal 0.000001 0.994128 -0.108215
outer loop
vertex 0.119664 -7.907958 1.723987
vertex 0.400196 -7.904123 1.759214
vertex 0.419005 -7.907862 1.724875
endloop
endfacet
facet normal 0.000001 0.994124 -0.108244
outer loop
vertex 1.002463 -7.906315 1.739082
vertex 1.003831 -7.904928 1.751824
vertex 1.289015 -7.906057 1.741450
endloop
endfacet
facet normal 0.000001 0.994128 -0.108215
outer loop
vertex 1.002463 -7.906315 1.739082
vertex 1.289015 -7.906057 1.741450
vertex 1.282484 -7.918664 1.625637
endloop
endfacet
facet normal -0.000006 0.994127 -0.108221
outer loop
vertex 1.000708 -7.907773 1.725684
vertex 1.002463 -7.906315 1.739082
vertex 1.282484 -7.918664 1.625637
endloop
endfacet
facet normal 0.000002 0.994130 -0.108193
outer loop
vertex 0.998515 -7.909317 1.711504
vertex 1.000708 -7.907773 1.725684
vertex 1.282484 -7.918664 1.625637
endloop
endfacet
facet normal 0.000001 0.994129 -0.108206
outer loop
vertex 0.119664 -7.907958 1.723987
vertex 0.419005 -7.907862 1.724875
vertex 0.442319 -7.911305 1.693238
endloop
endfacet
facet normal 0.000000 0.994126 -0.108228
outer loop
vertex 0.142515 -7.915414 1.655496
vertex 0.119664 -7.907958 1.723987
vertex 0.442319 -7.911305 1.693238
endloop
endfacet
facet normal 0.000001 0.994134 -0.108160
outer loop
vertex 0.995837 -7.910959 1.696417
vertex 0.998515 -7.909317 1.711504
vertex 1.282484 -7.918664 1.625637
endloop
endfacet
facet normal -0.000000 0.994125 -0.108239
outer loop
vertex 0.992625 -7.912714 1.680297
vertex 0.995837 -7.910959 1.696417
vertex 1.282484 -7.918664 1.625637
endloop
endfacet
facet normal 0.000000 0.994131 -0.108182
outer loop
vertex 0.142515 -7.915414 1.655496
vertex 0.442319 -7.911305 1.693238
vertex 0.469749 -7.914416 1.664661
endloop
endfacet
facet normal -0.000001 0.994123 -0.108255
outer loop
vertex 0.966664 -7.914587 1.663091
vertex 0.992625 -7.912714 1.680297
vertex 1.282484 -7.918664 1.625637
endloop
endfacet
facet normal -0.000000 0.994127 -0.108223
outer loop
vertex 0.142515 -7.915414 1.655496
vertex 0.469749 -7.914416 1.664661
vertex 0.500908 -7.917155 1.639500
endloop
endfacet
facet normal 0.000000 0.994127 -0.108216
outer loop
vertex 0.940586 -7.916275 1.647584
vertex 0.966664 -7.914587 1.663091
vertex 1.282484 -7.918664 1.625637
endloop
endfacet
facet normal -0.000001 0.994129 -0.108202
outer loop
vertex 0.173463 -7.922374 1.591552
vertex 0.142515 -7.915414 1.655496
vertex 0.500908 -7.917155 1.639500
endloop
endfacet
facet normal 0.000000 0.994122 -0.108267
outer loop
vertex 0.914508 -7.917782 1.633737
vertex 0.940586 -7.916275 1.647584
vertex 1.282484 -7.918664 1.625637
endloop
endfacet
facet normal 0.000002 0.994123 -0.108254
outer loop
vertex 0.173463 -7.922374 1.591552
vertex 0.500908 -7.917155 1.639500
vertex 0.535407 -7.919483 1.618114
endloop
endfacet
facet normal -0.000000 0.994138 -0.108116
outer loop
vertex 0.888547 -7.919113 1.621511
vertex 0.914508 -7.917782 1.633737
vertex 1.282484 -7.918664 1.625637
endloop
endfacet
facet normal 0.000000 0.994127 -0.108216
outer loop
vertex 0.888547 -7.919113 1.621511
vertex 1.282484 -7.918664 1.625637
vertex 1.263332 -7.931442 1.508251
endloop
endfacet
facet normal -0.000003 0.994126 -0.108231
outer loop
vertex 0.862819 -7.920272 1.610868
vertex 0.888547 -7.919113 1.621511
vertex 1.263332 -7.931442 1.508251
endloop
endfacet
facet normal 0.000000 0.994128 -0.108208
outer loop
vertex 0.173463 -7.922374 1.591552
vertex 0.535407 -7.919483 1.618114
vertex 0.572857 -7.921361 1.600858
endloop
endfacet
facet normal -0.000001 0.994122 -0.108261
outer loop
vertex 0.837440 -7.921262 1.601770
vertex 0.862819 -7.920272 1.610868
vertex 1.263332 -7.931442 1.508251
endloop
endfacet
facet normal 0.000003 0.994137 -0.108125
outer loop
vertex 0.812527 -7.922089 1.594177
vertex 0.837440 -7.921262 1.601770
vertex 1.263332 -7.931442 1.508251
endloop
endfacet
facet normal 0.000001 0.994127 -0.108218
outer loop
vertex 0.173463 -7.922374 1.591552
vertex 0.572857 -7.921361 1.600858
vertex 0.612870 -7.922751 1.588090
endloop
endfacet
facet normal 0.000003 0.994124 -0.108249
outer loop
vertex 0.788197 -7.922755 1.588052
vertex 0.812527 -7.922089 1.594177
vertex 1.263332 -7.931442 1.508251
endloop
endfacet
facet normal 0.000001 0.994125 -0.108235
outer loop
vertex 0.211907 -7.928772 1.532781
vertex 0.173463 -7.922374 1.591552
vertex 0.612870 -7.922751 1.588090
endloop
endfacet
facet normal -0.000003 0.994128 -0.108207
outer loop
vertex 0.211907 -7.928772 1.532781
vertex 0.612870 -7.922751 1.588090
vertex 0.655058 -7.923614 1.580168
endloop
endfacet
facet normal -0.000006 0.994115 -0.108331
outer loop
vertex 0.764566 -7.923267 1.583354
vertex 0.788197 -7.922755 1.588052
vertex 1.263332 -7.931442 1.508251
endloop
endfacet
facet normal -0.000001 0.994123 -0.108252
outer loop
vertex 0.741750 -7.923627 1.580047
vertex 0.764566 -7.923267 1.583354
vertex 1.263332 -7.931442 1.508251
endloop
endfacet
facet normal 0.000001 0.994116 -0.108322
outer loop
vertex 0.211907 -7.928772 1.532781
vertex 0.655058 -7.923614 1.580168
vertex 0.699032 -7.923910 1.577448
endloop
endfacet
facet normal 0.000008 0.994159 -0.107928
outer loop
vertex 0.719867 -7.923840 1.578091
vertex 0.741750 -7.923627 1.580047
vertex 1.263332 -7.931442 1.508251
endloop
endfacet
facet normal -0.000003 0.994128 -0.108212
outer loop
vertex 0.699032 -7.923910 1.577448
vertex 0.719867 -7.923840 1.578091
vertex 1.263332 -7.931442 1.508251
endloop
endfacet
facet normal 0.000000 0.994130 -0.108192
outer loop
vertex 0.211907 -7.928772 1.532781
vertex 0.699032 -7.923910 1.577448
vertex 1.263332 -7.931442 1.508251
endloop
endfacet
facet normal -0.000000 0.994128 -0.108213
outer loop
vertex 0.257244 -7.934538 1.479810
vertex 0.211907 -7.928772 1.532781
vertex 1.263332 -7.931442 1.508251
endloop
endfacet
facet normal -0.000000 0.994127 -0.108219
outer loop
vertex 0.257244 -7.934538 1.479810
vertex 1.263332 -7.931442 1.508251
vertex 1.232219 -7.944273 1.390382
endloop
endfacet
facet normal -0.000000 0.994121 -0.108272
outer loop
vertex 0.308872 -7.939605 1.433268
vertex 0.257244 -7.934538 1.479810
vertex 1.232219 -7.944273 1.390382
endloop
endfacet
facet normal 0.000000 0.994128 -0.108212
outer loop
vertex 0.366189 -7.943903 1.393781
vertex 0.308872 -7.939605 1.433268
vertex 0.936703 -7.943275 1.399546
endloop
endfacet
facet normal 0.000000 0.994169 -0.107831
outer loop
vertex 0.936703 -7.943275 1.399546
vertex 0.308872 -7.939605 1.433268
vertex 1.232219 -7.944273 1.390382
endloop
endfacet
facet normal 0.000000 0.994130 -0.108196
outer loop
vertex 0.366189 -7.943903 1.393781
vertex 0.936703 -7.943275 1.399546
vertex 0.915172 -7.944592 1.387450
endloop
endfacet
facet normal -0.000000 0.994128 -0.108209
outer loop
vertex 0.920240 -7.949833 1.339308
vertex 0.936703 -7.943275 1.399546
vertex 1.232219 -7.944273 1.390382
endloop
endfacet
facet normal 0.000000 0.994120 -0.108280
outer loop
vertex 0.428594 -7.947365 1.361977
vertex 0.366189 -7.943903 1.393781
vertex 0.915172 -7.944592 1.387450
endloop
endfacet
facet normal -0.000001 0.994128 -0.108213
outer loop
vertex 0.920240 -7.949833 1.339308
vertex 1.232219 -7.944273 1.390382
vertex 1.189804 -7.957037 1.273121
endloop
endfacet
facet normal -0.000001 0.994138 -0.108117
outer loop
vertex 0.428594 -7.947365 1.361977
vertex 0.915172 -7.944592 1.387450
vertex 0.892612 -7.945817 1.376202
endloop
endfacet
facet normal -0.000001 0.994113 -0.108345
outer loop
vertex 0.428594 -7.947365 1.361977
vertex 0.892612 -7.945817 1.376202
vertex 0.869159 -7.946944 1.365843
endloop
endfacet
facet normal -0.000000 0.994137 -0.108124
outer loop
vertex 0.428594 -7.947365 1.361977
vertex 0.869159 -7.946944 1.365843
vertex 0.844948 -7.947971 1.356410
endloop
endfacet
facet normal 0.000000 0.994122 -0.108264
outer loop
vertex 0.495484 -7.949923 1.338483
vertex 0.428594 -7.947365 1.361977
vertex 0.844948 -7.947971 1.356410
endloop
endfacet
facet normal 0.000000 0.994145 -0.108054
outer loop
vertex 0.495484 -7.949923 1.338483
vertex 0.844948 -7.947971 1.356410
vertex 0.820117 -7.948893 1.347942
endloop
endfacet
facet normal 0.000001 0.994134 -0.108154
outer loop
vertex 0.495484 -7.949923 1.338483
vertex 0.820117 -7.948893 1.347942
vertex 0.794799 -7.949706 1.340478
endloop
endfacet
facet normal 0.000001 0.994098 -0.108486
outer loop
vertex 0.495484 -7.949923 1.338483
vertex 0.794799 -7.949706 1.340478
vertex 0.769132 -7.950405 1.334056
endloop
endfacet
facet normal -0.000002 0.994126 -0.108233
outer loop
vertex 0.897505 -7.956473 1.278307
vertex 0.920240 -7.949833 1.339308
vertex 1.189804 -7.957037 1.273121
endloop
endfacet
facet normal 0.000001 0.994139 -0.108111
outer loop
vertex 0.566258 -7.951507 1.323926
vertex 0.495484 -7.949923 1.338483
vertex 0.769132 -7.950405 1.334056
endloop
endfacet
facet normal 0.000000 0.994131 -0.108183
outer loop
vertex 0.566258 -7.951507 1.323926
vertex 0.769132 -7.950405 1.334056
vertex 0.743252 -7.950986 1.328715
endloop
endfacet
facet normal 0.000002 0.994136 -0.108134
outer loop
vertex 0.566258 -7.951507 1.323926
vertex 0.743252 -7.950986 1.328715
vertex 0.717294 -7.951446 1.324494
endloop
endfacet
facet normal 0.000002 0.994120 -0.108280
outer loop
vertex 0.566258 -7.951507 1.323926
vertex 0.717294 -7.951446 1.324494
vertex 0.691394 -7.951779 1.321431
endloop
endfacet
facet normal 0.000001 0.994117 -0.108310
outer loop
vertex 0.640313 -7.952051 1.318935
vertex 0.566258 -7.951507 1.323926
vertex 0.691394 -7.951779 1.321431
endloop
endfacet
facet normal 0.000000 0.994202 -0.107529
outer loop
vertex 0.640313 -7.952051 1.318935
vertex 0.691394 -7.951779 1.321431
vertex 0.665689 -7.951982 1.319566
endloop
endfacet
facet normal -0.000001 0.994127 -0.108221
outer loop
vertex 0.868635 -7.963166 1.216824
vertex 0.897505 -7.956473 1.278307
vertex 1.189804 -7.957037 1.273121
endloop
endfacet
facet normal 0.000000 0.994127 -0.108220
outer loop
vertex 0.868635 -7.963166 1.216824
vertex 1.189804 -7.957037 1.273121
vertex 1.136749 -7.969617 1.157559
endloop
endfacet
facet normal -0.000000 0.994128 -0.108206
outer loop
vertex 0.833764 -7.969881 1.155138
vertex 0.868635 -7.963166 1.216824
vertex 1.136749 -7.969617 1.157559
endloop
endfacet
facet normal -0.000000 0.994127 -0.108218
outer loop
vertex 0.833764 -7.969881 1.155138
vertex 1.136749 -7.969617 1.157559
vertex 1.073713 -7.981894 1.044786
endloop
endfacet
facet normal 0.000002 0.994129 -0.108206
outer loop
vertex 0.793029 -7.976587 1.093529
vertex 0.833764 -7.969881 1.155138
vertex 1.073713 -7.981894 1.044786
endloop
endfacet
facet normal 0.000001 0.994127 -0.108221
outer loop
vertex 0.746566 -7.983255 1.032278
vertex 0.793029 -7.976587 1.093529
vertex 1.073713 -7.981894 1.044786
endloop
endfacet
facet normal 0.000001 0.994128 -0.108212
outer loop
vertex 0.746566 -7.983255 1.032278
vertex 1.073713 -7.981894 1.044786
vertex 1.001357 -7.993747 0.935894
endloop
endfacet
facet normal -0.000001 0.994125 -0.108238
outer loop
vertex 0.694511 -7.989853 0.971663
vertex 0.746566 -7.983255 1.032278
vertex 1.001357 -7.993747 0.935894
endloop
endfacet
facet normal -0.000001 0.994128 -0.108208
outer loop
vertex 0.636999 -7.996352 0.911965
vertex 0.694511 -7.989853 0.971663
vertex 1.001357 -7.993747 0.935894
endloop
endfacet
facet normal -0.000001 0.994126 -0.108226
outer loop
vertex 0.636999 -7.996352 0.911965
vertex 1.001357 -7.993747 0.935894
vertex 0.920340 -8.005059 0.831971
endloop
endfacet
facet normal -0.000001 0.994128 -0.108207
outer loop
vertex 0.574167 -8.002720 0.853464
vertex 0.636999 -7.996352 0.911965
vertex 0.920340 -8.005059 0.831971
endloop
endfacet
facet normal -0.000001 0.994125 -0.108235
outer loop
vertex 0.506151 -8.008927 0.796440
vertex 0.574167 -8.002720 0.853464
vertex 0.920340 -8.005059 0.831971
endloop
endfacet
facet normal -0.000000 0.994128 -0.108209
outer loop
vertex 0.506151 -8.008927 0.796440
vertex 0.920340 -8.005059 0.831971
vertex 0.831324 -8.015713 0.734111
endloop
endfacet
facet normal -0.000000 0.994124 -0.108252
outer loop
vertex 0.433086 -8.014944 0.741172
vertex 0.506151 -8.008927 0.796440
vertex 0.831324 -8.015713 0.734111
endloop
endfacet
facet normal -0.000000 0.994128 -0.108215
outer loop
vertex 0.355108 -8.020739 0.687941
vertex 0.433086 -8.014944 0.741172
vertex 0.831324 -8.015713 0.734111
endloop
endfacet
facet normal 0.000000 0.994128 -0.108214
outer loop
vertex 0.355108 -8.020739 0.687941
vertex 0.831324 -8.015713 0.734111
vertex 0.734967 -8.025587 0.643402
endloop
endfacet
facet normal 0.000001 0.994128 -0.108212
outer loop
vertex 0.522876 -8.042524 0.487803
vertex 0.355108 -8.020739 0.687941
vertex 0.734967 -8.025587 0.643402
endloop
endfacet
facet normal -0.000065 0.994131 -0.108183
outer loop
vertex 0.522876 -8.042524 0.487803
vertex 0.734967 -8.025587 0.643402
vertex 0.631931 -8.034563 0.560936
endloop
endfacet
facet normal -0.066789 0.107976 0.991908
outer loop
vertex 0.596802 -8.359476 2.485403
vertex 0.682255 -8.358857 2.491089
vertex 0.682255 -7.830712 2.433597
endloop
endfacet
facet normal -0.066786 0.107975 0.991908
outer loop
vertex 0.596802 -8.359476 2.485403
vertex 0.682255 -7.830712 2.433597
vertex 0.596802 -7.831331 2.427911
endloop
endfacet
facet normal 0.070372 0.107948 0.991663
outer loop
vertex 0.682255 -8.358857 2.491089
vertex 0.768204 -8.359513 2.485062
vertex 0.768204 -7.831368 2.427570
endloop
endfacet
facet normal 0.070362 0.107949 0.991663
outer loop
vertex 0.682255 -8.358857 2.491089
vertex 0.768204 -7.831368 2.427570
vertex 0.682255 -7.830712 2.433597
endloop
endfacet
facet normal -0.202175 0.105982 0.973598
outer loop
vertex 0.516843 -8.361262 2.468993
vertex 0.596802 -8.359476 2.485403
vertex 0.596802 -7.831331 2.427911
endloop
endfacet
facet normal -0.202178 0.105983 0.973597
outer loop
vertex 0.516843 -8.361262 2.468993
vertex 0.596802 -7.831331 2.427911
vertex 0.516843 -7.833118 2.411501
endloop
endfacet
facet normal 0.213152 0.105730 0.971281
outer loop
vertex 0.768204 -8.359513 2.485062
vertex 0.849531 -8.361433 2.467423
vertex 0.849531 -7.833289 2.409931
endloop
endfacet
facet normal 0.213151 0.105730 0.971282
outer loop
vertex 0.768204 -8.359513 2.485062
vertex 0.849531 -7.833289 2.409931
vertex 0.768204 -7.831368 2.427570
endloop
endfacet
facet normal -0.334643 0.101978 0.936811
outer loop
vertex 0.442749 -8.364109 2.442835
vertex 0.516843 -8.361262 2.468993
vertex 0.516843 -7.833118 2.411501
endloop
endfacet
facet normal -0.334649 0.101978 0.936809
outer loop
vertex 0.442749 -8.364109 2.442835
vertex 0.516843 -7.833118 2.411501
vertex 0.442749 -7.835965 2.385343
endloop
endfacet
facet normal 0.353188 0.101243 0.930058
outer loop
vertex 0.849531 -8.361433 2.467423
vertex 0.925693 -8.364545 2.438839
vertex 0.925693 -7.836400 2.381347
endloop
endfacet
facet normal 0.353192 0.101242 0.930057
outer loop
vertex 0.849531 -8.361433 2.467423
vertex 0.925693 -7.836400 2.381347
vertex 0.849531 -7.833289 2.409931
endloop
endfacet
facet normal -0.459807 0.096099 0.882804
outer loop
vertex 0.374888 -8.367912 2.407904
vertex 0.442749 -8.364109 2.442835
vertex 0.442749 -7.835965 2.385343
endloop
endfacet
facet normal -0.459803 0.096099 0.882806
outer loop
vertex 0.374888 -8.367912 2.407904
vertex 0.442749 -7.835965 2.385343
vertex 0.374888 -7.839767 2.350412
endloop
endfacet
facet normal 0.485189 0.094626 0.869274
outer loop
vertex 0.925693 -8.364545 2.438839
vertex 0.996146 -8.368775 2.399976
vertex 0.996146 -7.840631 2.342485
endloop
endfacet
facet normal 0.485176 0.094627 0.869281
outer loop
vertex 0.925693 -8.364545 2.438839
vertex 0.996146 -7.840631 2.342485
vertex 0.925693 -7.836400 2.381347
endloop
endfacet
facet normal -0.574368 0.088586 0.813790
outer loop
vertex 0.313629 -8.372563 2.365174
vertex 0.374888 -8.367912 2.407904
vertex 0.374888 -7.839767 2.350412
endloop
endfacet
facet normal -0.574366 0.088586 0.813791
outer loop
vertex 0.313629 -8.372563 2.365174
vertex 0.374888 -7.839767 2.350412
vertex 0.313629 -7.844419 2.307682
endloop
endfacet
facet normal 0.604843 0.086178 0.791668
outer loop
vertex 0.996146 -8.368775 2.399976
vertex 1.060347 -8.374052 2.351501
vertex 1.060347 -7.845908 2.294009
endloop
endfacet
facet normal 0.604846 0.086178 0.791666
outer loop
vertex 0.996146 -8.368775 2.399976
vertex 1.060347 -7.845908 2.294009
vertex 0.996146 -7.840631 2.342485
endloop
endfacet
facet normal -0.676331 0.079713 0.732272
outer loop
vertex 0.259341 -8.377957 2.315620
vertex 0.313629 -8.372563 2.365174
vertex 0.313629 -7.844419 2.307682
endloop
endfacet
facet normal -0.676331 0.079712 0.732272
outer loop
vertex 0.259341 -8.377957 2.315620
vertex 0.313629 -7.844419 2.307682
vertex 0.259341 -7.849813 2.258128
endloop
endfacet
facet normal 0.709297 0.076284 0.700769
outer loop
vertex 1.060347 -8.374052 2.351501
vertex 1.117752 -8.380302 2.294077
vertex 1.117752 -7.852159 2.236586
endloop
endfacet
facet normal 0.709298 0.076283 0.700769
outer loop
vertex 1.060347 -8.374052 2.351501
vertex 1.117752 -7.852159 2.236586
vertex 1.060347 -7.845908 2.294009
endloop
endfacet
facet normal -0.764790 0.069722 0.640496
outer loop
vertex 0.212392 -8.383988 2.260217
vertex 0.259341 -8.377957 2.315620
vertex 0.259341 -7.849813 2.258128
endloop
endfacet
facet normal -0.764790 0.069722 0.640496
outer loop
vertex 0.212392 -8.383988 2.260217
vertex 0.259341 -7.849813 2.258128
vertex 0.212392 -7.855844 2.202725
endloop
endfacet
facet normal 0.797124 0.065343 0.600269
outer loop
vertex 1.117752 -8.380302 2.294077
vertex 1.167817 -8.387455 2.228373
vertex 1.167817 -7.859311 2.170881
endloop
endfacet
facet normal 0.797123 0.065343 0.600272
outer loop
vertex 1.117752 -8.380302 2.294077
vertex 1.167817 -7.859311 2.170881
vertex 1.117752 -7.852159 2.236586
endloop
endfacet
facet normal -0.839529 0.058796 0.540124
outer loop
vertex 0.173153 -8.390550 2.199941
vertex 0.212392 -8.383988 2.260217
vertex 0.212392 -7.855844 2.202725
endloop
endfacet
facet normal -0.839529 0.058796 0.540124
outer loop
vertex 0.173153 -8.390550 2.199941
vertex 0.212392 -7.855844 2.202725
vertex 0.173153 -7.862406 2.142449
endloop
endfacet
facet normal 0.058026 -0.108036 -0.992452
outer loop
vertex 0.687847 -8.386997 2.232576
vertex 0.643506 -8.387277 2.230014
vertex 0.643506 -7.859132 2.172522
endloop
endfacet
facet normal 0.058049 -0.108034 -0.992451
outer loop
vertex 0.687847 -8.386997 2.232576
vertex 0.643506 -7.859132 2.172522
vertex 0.687847 -7.858853 2.175085
endloop
endfacet
facet normal -0.074723 -0.107914 -0.991348
outer loop
vertex 0.731124 -8.387348 2.229353
vertex 0.687847 -8.386997 2.232576
vertex 0.687847 -7.858853 2.175085
endloop
endfacet
facet normal -0.074716 -0.107915 -0.991349
outer loop
vertex 0.731124 -8.387348 2.229353
vertex 0.687847 -7.858853 2.175085
vertex 0.731124 -7.859204 2.171861
endloop
endfacet
facet normal 0.177265 -0.106503 -0.978383
outer loop
vertex 0.643506 -8.387277 2.230014
vertex 0.601543 -8.388094 2.222500
vertex 0.601543 -7.859950 2.165008
endloop
endfacet
facet normal 0.177258 -0.106503 -0.978385
outer loop
vertex 0.643506 -8.387277 2.230014
vertex 0.601543 -7.859950 2.165008
vertex 0.643506 -7.859132 2.172522
endloop
endfacet
facet normal -0.221302 -0.105535 -0.969478
outer loop
vertex 0.772624 -8.388368 2.219990
vertex 0.731124 -8.387348 2.229353
vertex 0.731124 -7.859204 2.171861
endloop
endfacet
facet normal -0.221311 -0.105533 -0.969476
outer loop
vertex 0.772624 -8.388368 2.219990
vertex 0.731124 -7.859204 2.171861
vertex 0.772624 -7.860223 2.162498
endloop
endfacet
facet normal 0.868056 0.053726 0.493551
outer loop
vertex 1.167817 -8.387455 2.228373
vertex 1.209998 -8.395436 2.155054
vertex 1.209998 -7.867292 2.097562
endloop
endfacet
facet normal 0.868056 0.053726 0.493551
outer loop
vertex 1.167817 -8.387455 2.228373
vertex 1.209998 -7.867292 2.097562
vertex 1.167817 -7.859311 2.170881
endloop
endfacet
facet normal 0.298156 -0.103295 -0.948912
outer loop
vertex 0.601543 -8.388094 2.222500
vertex 0.562240 -8.389423 2.210295
vertex 0.562240 -7.861279 2.152803
endloop
endfacet
facet normal 0.298157 -0.103295 -0.948911
outer loop
vertex 0.601543 -8.388094 2.222500
vertex 0.562240 -7.861279 2.152803
vertex 0.601543 -7.859950 2.165008
endloop
endfacet
facet normal -0.358843 -0.101010 -0.927916
outer loop
vertex 0.811969 -8.390004 2.204953
vertex 0.772624 -8.388368 2.219990
vertex 0.772624 -7.860223 2.162498
endloop
endfacet
facet normal -0.358851 -0.101010 -0.927913
outer loop
vertex 0.811969 -8.390004 2.204953
vertex 0.772624 -7.860223 2.162498
vertex 0.811969 -7.861860 2.147461
endloop
endfacet
facet normal 0.418051 -0.098308 -0.903089
outer loop
vertex 0.562240 -8.389423 2.210295
vertex 0.525879 -8.391233 2.193660
vertex 0.525879 -7.863090 2.136168
endloop
endfacet
facet normal 0.418049 -0.098306 -0.903090
outer loop
vertex 0.562240 -8.389423 2.210295
vertex 0.525879 -7.863090 2.136168
vertex 0.562240 -7.861279 2.152803
endloop
endfacet
facet normal -0.484165 -0.094688 -0.869838
outer loop
vertex 0.848780 -8.392209 2.184704
vertex 0.811969 -8.390004 2.204953
vertex 0.811969 -7.861860 2.147461
endloop
endfacet
facet normal -0.484157 -0.094688 -0.869843
outer loop
vertex 0.848780 -8.392209 2.184704
vertex 0.811969 -7.861860 2.147461
vertex 0.848780 -7.864065 2.127212
endloop
endfacet
facet normal -0.900565 0.047044 0.432168
outer loop
vertex 0.141991 -8.397536 2.135765
vertex 0.173153 -8.390550 2.199941
vertex 0.173153 -7.862406 2.142449
endloop
endfacet
facet normal -0.900568 0.047044 0.432162
outer loop
vertex 0.141991 -8.397536 2.135765
vertex 0.173153 -7.862406 2.142449
vertex 0.141991 -7.869392 2.078273
endloop
endfacet
facet normal 0.533961 -0.091499 -0.840544
outer loop
vertex 0.525879 -8.391233 2.193660
vertex 0.492741 -8.393498 2.172856
vertex 0.492741 -7.865354 2.115364
endloop
endfacet
facet normal 0.533961 -0.091499 -0.840544
outer loop
vertex 0.525879 -8.391233 2.193660
vertex 0.492741 -7.865354 2.115364
vertex 0.525879 -7.863090 2.136168
endloop
endfacet
facet normal -0.595772 -0.086915 -0.798437
outer loop
vertex 0.882678 -8.394930 2.159706
vertex 0.848780 -8.392209 2.184704
vertex 0.848780 -7.864065 2.127212
endloop
endfacet
facet normal -0.595791 -0.086913 -0.798423
outer loop
vertex 0.882678 -8.394930 2.159706
vertex 0.848780 -7.864065 2.127212
vertex 0.882678 -7.866786 2.102214
endloop
endfacet
facet normal 0.642699 -0.082907 -0.761620
outer loop
vertex 0.492741 -8.393498 2.172856
vertex 0.463109 -8.396189 2.148143
vertex 0.463109 -7.868044 2.090651
endloop
endfacet
facet normal 0.642701 -0.082907 -0.761618
outer loop
vertex 0.492741 -8.393498 2.172856
vertex 0.463109 -7.868044 2.090651
vertex 0.492741 -7.865354 2.115364
endloop
endfacet
facet normal -0.693438 -0.077972 -0.716284
outer loop
vertex 0.913285 -8.398118 2.130422
vertex 0.882678 -8.394930 2.159706
vertex 0.882678 -7.866786 2.102214
endloop
endfacet
facet normal -0.693429 -0.077973 -0.716293
outer loop
vertex 0.913285 -8.398118 2.130422
vertex 0.882678 -7.866786 2.102214
vertex 0.913285 -7.869973 2.072930
endloop
endfacet
facet normal 0.922625 0.041739 0.383433
outer loop
vertex 1.209998 -8.395436 2.155054
vertex 1.243752 -8.404174 2.074785
vertex 1.243752 -7.876030 2.017293
endloop
endfacet
facet normal 0.922625 0.041739 0.383432
outer loop
vertex 1.209998 -8.395436 2.155054
vertex 1.243752 -7.876030 2.017293
vertex 1.209998 -7.867292 2.097562
endloop
endfacet
facet normal 0.741098 -0.072657 -0.667454
outer loop
vertex 0.463109 -8.396189 2.148143
vertex 0.437262 -8.399276 2.119781
vertex 0.437262 -7.871132 2.062289
endloop
endfacet
facet normal 0.741094 -0.072657 -0.667459
outer loop
vertex 0.463109 -8.396189 2.148143
vertex 0.437262 -7.871132 2.062289
vertex 0.463109 -7.868044 2.090651
endloop
endfacet
facet normal -0.947768 0.034517 0.317087
outer loop
vertex 0.119275 -8.404840 2.068664
vertex 0.141991 -8.397536 2.135765
vertex 0.141991 -7.869392 2.078273
endloop
endfacet
facet normal -0.947768 0.034517 0.317087
outer loop
vertex 0.119275 -8.404840 2.068664
vertex 0.141991 -7.869392 2.078273
vertex 0.119275 -7.876696 2.011172
endloop
endfacet
facet normal -0.777483 -0.068058 -0.625210
outer loop
vertex 0.940222 -8.401721 2.097317
vertex 0.913285 -8.398118 2.130422
vertex 0.913285 -7.869973 2.072930
endloop
endfacet
facet normal -0.777486 -0.068058 -0.625206
outer loop
vertex 0.940222 -8.401721 2.097317
vertex 0.913285 -7.869973 2.072930
vertex 0.940222 -7.873577 2.039825
endloop
endfacet
facet normal 0.826186 -0.060969 -0.560088
outer loop
vertex 0.437262 -8.399276 2.119781
vertex 0.415484 -8.402732 2.088032
vertex 0.415484 -7.874588 2.030540
endloop
endfacet
facet normal 0.826188 -0.060969 -0.560086
outer loop
vertex 0.437262 -8.399276 2.119781
vertex 0.415484 -7.874588 2.030540
vertex 0.437262 -7.871132 2.062289
endloop
endfacet
facet normal -0.848380 -0.057289 -0.526279
outer loop
vertex 0.963111 -8.405691 2.060852
vertex 0.940222 -8.401721 2.097317
vertex 0.940222 -7.873577 2.039825
endloop
endfacet
facet normal -0.848376 -0.057289 -0.526285
outer loop
vertex 0.963111 -8.405691 2.060852
vertex 0.940222 -7.873577 2.039825
vertex 0.963111 -7.877546 2.003360
endloop
endfacet
facet normal 0.895572 -0.048147 -0.442303
outer loop
vertex 0.415484 -8.402732 2.088032
vertex 0.398055 -8.406528 2.053155
vertex 0.398055 -7.878385 1.995663
endloop
endfacet
facet normal 0.895572 -0.048148 -0.442303
outer loop
vertex 0.415484 -8.402732 2.088032
vertex 0.398055 -7.878385 1.995663
vertex 0.415484 -7.874588 2.030540
endloop
endfacet
facet normal 0.961792 0.029628 0.272174
outer loop
vertex 1.243752 -8.404174 2.074785
vertex 1.268536 -8.413596 1.988232
vertex 1.268536 -7.885452 1.930741
endloop
endfacet
facet normal 0.961792 0.029628 0.272175
outer loop
vertex 1.243752 -8.404174 2.074785
vertex 1.268536 -7.885452 1.930741
vertex 1.243752 -7.876030 2.017293
endloop
endfacet
facet normal -0.980559 0.021235 0.195072
outer loop
vertex 0.105376 -8.412357 1.999614
vertex 0.119275 -8.404840 2.068664
vertex 0.119275 -7.876696 2.011172
endloop
endfacet
facet normal -0.980558 0.021235 0.195075
outer loop
vertex 0.105376 -8.412357 1.999614
vertex 0.119275 -7.876696 2.011172
vertex 0.105376 -7.884212 1.942122
endloop
endfacet
facet normal -0.906317 -0.045732 -0.420118
outer loop
vertex 0.981572 -8.409975 2.021492
vertex 0.963111 -8.405691 2.060852
vertex 0.963111 -7.877546 2.003360
endloop
endfacet
facet normal -0.906316 -0.045733 -0.420119
outer loop
vertex 0.981572 -8.409975 2.021492
vertex 0.963111 -7.877546 2.003360
vertex 0.981572 -7.881831 1.964000
endloop
endfacet
facet normal 0.947611 -0.034567 -0.317550
outer loop
vertex 0.398055 -8.406528 2.053155
vertex 0.385257 -8.410637 2.015412
vertex 0.385257 -7.882493 1.957920
endloop
endfacet
facet normal 0.947612 -0.034567 -0.317547
outer loop
vertex 0.398055 -8.406528 2.053155
vertex 0.385257 -7.882493 1.957920
vertex 0.398055 -7.878385 1.995663
endloop
endfacet
facet normal -0.951084 -0.033432 -0.307119
outer loop
vertex 0.995227 -8.414525 1.979700
vertex 0.981572 -8.409975 2.021492
vertex 0.981572 -7.881831 1.964000
endloop
endfacet
facet normal -0.951083 -0.033432 -0.307122
outer loop
vertex 0.995227 -8.414525 1.979700
vertex 0.981572 -7.881831 1.964000
vertex 0.995227 -7.886380 1.922208
endloop
endfacet
facet normal 0.981646 -0.020638 -0.189592
outer loop
vertex 0.385257 -8.410637 2.015412
vertex 0.377372 -8.415030 1.975063
vertex 0.377372 -7.886885 1.917571
endloop
endfacet
facet normal 0.981646 -0.020638 -0.189589
outer loop
vertex 0.385257 -8.410637 2.015412
vertex 0.377372 -7.886885 1.917571
vertex 0.385257 -7.882493 1.957920
endloop
endfacet
facet normal -0.997767 0.007228 0.066398
outer loop
vertex 0.100661 -8.419980 1.929588
vertex 0.105376 -8.412357 1.999614
vertex 0.105376 -7.884212 1.942122
endloop
endfacet
facet normal -0.997767 0.007228 0.066398
outer loop
vertex 0.100661 -8.419980 1.929588
vertex 0.105376 -7.884212 1.942122
vertex 0.100661 -7.891835 1.872096
endloop
endfacet
facet normal 0.986709 0.017585 0.161542
outer loop
vertex 1.268536 -8.413596 1.988232
vertex 1.283804 -8.423629 1.896063
vertex 1.283804 -7.895485 1.838571
endloop
endfacet
facet normal 0.986709 0.017585 0.161543
outer loop
vertex 1.268536 -8.413596 1.988232
vertex 1.283804 -7.895485 1.838571
vertex 1.268536 -7.885452 1.930741
endloop
endfacet
facet normal -0.981983 -0.020450 -0.187857
outer loop
vertex 1.003698 -8.419289 1.935939
vertex 0.995227 -8.414525 1.979700
vertex 0.995227 -7.886380 1.922208
endloop
endfacet
facet normal -0.981983 -0.020449 -0.187857
outer loop
vertex 1.003698 -8.419289 1.935939
vertex 0.995227 -7.886380 1.922208
vertex 1.003698 -7.891144 1.878447
endloop
endfacet
facet normal 0.998043 -0.006767 -0.062168
outer loop
vertex 0.377372 -8.415030 1.975063
vertex 0.374681 -8.419677 1.932368
vertex 0.374681 -7.891533 1.874876
endloop
endfacet
facet normal 0.998043 -0.006767 -0.062168
outer loop
vertex 0.377372 -8.415030 1.975063
vertex 0.374681 -7.891533 1.874876
vertex 0.377372 -7.886885 1.917571
endloop
endfacet
facet normal -0.997967 -0.006897 -0.063358
outer loop
vertex 1.006606 -8.424216 1.890672
vertex 1.003698 -8.419289 1.935939
vertex 1.003698 -7.891144 1.878447
endloop
endfacet
facet normal -0.997967 -0.006896 -0.063357
outer loop
vertex 1.006606 -8.424216 1.890672
vertex 1.003698 -7.891144 1.878447
vertex 1.006606 -7.896071 1.833181
endloop
endfacet
facet normal 0.997337 0.007892 0.072497
outer loop
vertex 0.374681 -8.419677 1.932368
vertex 0.377646 -8.424065 1.892064
vertex 0.377646 -7.895920 1.834572
endloop
endfacet
facet normal 0.997337 0.007892 0.072498
outer loop
vertex 0.374681 -8.419677 1.932368
vertex 0.377646 -7.895920 1.834572
vertex 0.374681 -7.891533 1.874876
endloop
endfacet
facet normal -0.997977 -0.006880 -0.063205
outer loop
vertex 0.105512 -8.428220 1.853888
vertex 0.100661 -8.419980 1.929588
vertex 0.100661 -7.891835 1.872096
endloop
endfacet
facet normal -0.997977 -0.006880 -0.063205
outer loop
vertex 0.105512 -8.428220 1.853888
vertex 0.100661 -7.891835 1.872096
vertex 0.105512 -7.900076 1.796396
endloop
endfacet
facet normal 0.998581 0.005763 0.052945
outer loop
vertex 1.283804 -8.423629 1.896063
vertex 1.289015 -8.434201 1.798942
vertex 1.289015 -7.906057 1.741450
endloop
endfacet
facet normal 0.998581 0.005764 0.052945
outer loop
vertex 1.283804 -8.423629 1.896063
vertex 1.289015 -7.906057 1.741450
vertex 1.283804 -7.895485 1.838571
endloop
endfacet
facet normal 0.976243 0.023449 0.215407
outer loop
vertex 0.377646 -8.424065 1.892064
vertex 0.386280 -8.428274 1.853391
vertex 0.386280 -7.900130 1.795899
endloop
endfacet
facet normal 0.976243 0.023448 0.215407
outer loop
vertex 0.377646 -8.424065 1.892064
vertex 0.386280 -7.900130 1.795899
vertex 0.377646 -7.895920 1.834572
endloop
endfacet
facet normal -1.000000 0.000074 0.000687
outer loop
vertex 1.006598 -8.425486 1.879012
vertex 1.006606 -8.424216 1.890672
vertex 1.006606 -7.896071 1.833181
endloop
endfacet
facet normal -1.000000 0.000076 0.000687
outer loop
vertex 1.006598 -8.425486 1.879012
vertex 1.006606 -7.896071 1.833181
vertex 1.006598 -7.897341 1.821520
endloop
endfacet
facet normal -0.999988 0.000534 0.004892
outer loop
vertex 1.006541 -8.426730 1.867573
vertex 1.006598 -8.425486 1.879012
vertex 1.006598 -7.897341 1.821520
endloop
endfacet
facet normal -0.999988 0.000531 0.004892
outer loop
vertex 1.006541 -8.426730 1.867573
vertex 1.006598 -7.897341 1.821520
vertex 1.006541 -7.898586 1.810081
endloop
endfacet
facet normal -0.999909 0.001458 0.013398
outer loop
vertex 1.006387 -8.427965 1.856230
vertex 1.006541 -8.426730 1.867573
vertex 1.006541 -7.898586 1.810081
endloop
endfacet
facet normal -0.999909 0.001459 0.013398
outer loop
vertex 1.006387 -8.427965 1.856230
vertex 1.006541 -7.898586 1.810081
vertex 1.006387 -7.899821 1.798738
endloop
endfacet
facet normal -0.999658 0.002830 0.026006
outer loop
vertex 1.006088 -8.429203 1.844859
vertex 1.006387 -8.427965 1.856230
vertex 1.006387 -7.899821 1.798738
endloop
endfacet
facet normal -0.999658 0.002832 0.026006
outer loop
vertex 1.006088 -8.429203 1.844859
vertex 1.006387 -7.899821 1.798738
vertex 1.006088 -7.901059 1.787367
endloop
endfacet
facet normal -0.981642 -0.020641 -0.189613
outer loop
vertex 0.119664 -8.436102 1.781479
vertex 0.105512 -8.428220 1.853888
vertex 0.105512 -7.900076 1.796396
endloop
endfacet
facet normal -0.981642 -0.020641 -0.189612
outer loop
vertex 0.119664 -8.436102 1.781479
vertex 0.105512 -7.900076 1.796396
vertex 0.119664 -7.907958 1.723987
endloop
endfacet
facet normal 0.935678 0.038185 0.350783
outer loop
vertex 0.386280 -8.428274 1.853391
vertex 0.400196 -8.432267 1.816706
vertex 0.400196 -7.904123 1.759214
endloop
endfacet
facet normal 0.935678 0.038185 0.350784
outer loop
vertex 0.386280 -8.428274 1.853391
vertex 0.400196 -7.904123 1.759214
vertex 0.386280 -7.900130 1.795899
endloop
endfacet
facet normal -0.999095 0.004602 0.042280
outer loop
vertex 1.005594 -8.430458 1.833333
vertex 1.006088 -8.429203 1.844859
vertex 1.006088 -7.901059 1.787367
endloop
endfacet
facet normal -0.999095 0.004603 0.042278
outer loop
vertex 1.005594 -8.430458 1.833333
vertex 1.006088 -7.901059 1.787367
vertex 1.005594 -7.902313 1.775841
endloop
endfacet
facet normal -0.998084 0.006696 0.061515
outer loop
vertex 1.004858 -8.431743 1.821527
vertex 1.005594 -8.430458 1.833333
vertex 1.005594 -7.902313 1.775841
endloop
endfacet
facet normal -0.998084 0.006696 0.061515
outer loop
vertex 1.004858 -8.431743 1.821527
vertex 1.005594 -7.902313 1.775841
vertex 1.004858 -7.903599 1.764035
endloop
endfacet
facet normal -0.996520 0.009021 0.082866
outer loop
vertex 1.003831 -8.433072 1.809316
vertex 1.004858 -8.431743 1.821527
vertex 1.004858 -7.903599 1.764035
endloop
endfacet
facet normal -0.996520 0.009020 0.082867
outer loop
vertex 1.003831 -8.433072 1.809316
vertex 1.004858 -7.903599 1.764035
vertex 1.003831 -7.904928 1.751824
endloop
endfacet
facet normal 0.878239 0.051752 0.475414
outer loop
vertex 0.400196 -8.432267 1.816706
vertex 0.419005 -8.436006 1.782367
vertex 0.419005 -7.907862 1.724875
endloop
endfacet
facet normal 0.878238 0.051752 0.475415
outer loop
vertex 0.400196 -8.432267 1.816706
vertex 0.419005 -7.907862 1.724875
vertex 0.400196 -7.904123 1.759214
endloop
endfacet
facet normal -0.994358 0.011478 0.105454
outer loop
vertex 1.002463 -8.434459 1.796574
vertex 1.003831 -8.433072 1.809316
vertex 1.003831 -7.904928 1.751824
endloop
endfacet
facet normal -0.994358 0.011480 0.105456
outer loop
vertex 1.002463 -8.434459 1.796574
vertex 1.003831 -7.904928 1.751824
vertex 1.002463 -7.906315 1.739082
endloop
endfacet
facet normal 0.998432 -0.006057 -0.055642
outer loop
vertex 1.289015 -8.434201 1.798942
vertex 1.282484 -8.446808 1.683129
vertex 1.282484 -7.918664 1.625637
endloop
endfacet
facet normal 0.998432 -0.006057 -0.055642
outer loop
vertex 1.289015 -8.434201 1.798942
vertex 1.282484 -7.918664 1.625637
vertex 1.289015 -7.906057 1.741450
endloop
endfacet
facet normal -0.991621 0.013978 0.128419
outer loop
vertex 1.000708 -8.435918 1.783176
vertex 1.002463 -8.434459 1.796574
vertex 1.002463 -7.906315 1.739082
endloop
endfacet
facet normal -0.991621 0.013979 0.128420
outer loop
vertex 1.000708 -8.435918 1.783176
vertex 1.002463 -7.906315 1.739082
vertex 1.000708 -7.907773 1.725684
endloop
endfacet
facet normal -0.988391 0.016442 0.151038
outer loop
vertex 0.998515 -8.437461 1.768996
vertex 1.000708 -8.435918 1.783176
vertex 1.000708 -7.907773 1.725684
endloop
endfacet
facet normal -0.988392 0.016441 0.151032
outer loop
vertex 0.998515 -8.437461 1.768996
vertex 1.000708 -7.907773 1.725684
vertex 0.998515 -7.909317 1.711504
endloop
endfacet
facet normal 0.806689 0.063954 0.587505
outer loop
vertex 0.419005 -8.436006 1.782367
vertex 0.442319 -8.439449 1.750730
vertex 0.442319 -7.911305 1.693238
endloop
endfacet
facet normal 0.806690 0.063954 0.587504
outer loop
vertex 0.419005 -8.436006 1.782367
vertex 0.442319 -7.911305 1.693238
vertex 0.419005 -7.907862 1.724875
endloop
endfacet
facet normal -0.949153 -0.034069 -0.312968
outer loop
vertex 0.142515 -8.443558 1.712988
vertex 0.119664 -8.436102 1.781479
vertex 0.119664 -7.907958 1.723987
endloop
endfacet
facet normal -0.949153 -0.034069 -0.312968
outer loop
vertex 0.142515 -8.443558 1.712988
vertex 0.119664 -7.907958 1.723987
vertex 0.142515 -7.915414 1.655496
endloop
endfacet
facet normal -0.984786 0.018805 0.172753
outer loop
vertex 0.995837 -8.439103 1.753909
vertex 0.998515 -8.437461 1.768996
vertex 0.998515 -7.909317 1.711504
endloop
endfacet
facet normal -0.984786 0.018805 0.172749
outer loop
vertex 0.995837 -8.439103 1.753909
vertex 0.998515 -7.909317 1.711504
vertex 0.995837 -7.910959 1.696417
endloop
endfacet
facet normal -0.980940 0.021028 0.193171
outer loop
vertex 0.992625 -8.440858 1.737789
vertex 0.995837 -8.439103 1.753909
vertex 0.995837 -7.910959 1.696417
endloop
endfacet
facet normal -0.980940 0.021028 0.193170
outer loop
vertex 0.992625 -8.440858 1.737789
vertex 0.995837 -7.910959 1.696417
vertex 0.992625 -7.912714 1.680297
endloop
endfacet
facet normal 0.723466 0.074709 0.686305
outer loop
vertex 0.442319 -8.439449 1.750730
vertex 0.469749 -8.442560 1.722153
vertex 0.469749 -7.914416 1.664661
endloop
endfacet
facet normal 0.723464 0.074709 0.686308
outer loop
vertex 0.442319 -8.439449 1.750730
vertex 0.469749 -7.914416 1.664661
vertex 0.442319 -7.911305 1.693238
endloop
endfacet
facet normal -0.554701 0.090042 0.827163
outer loop
vertex 0.966664 -8.442731 1.720583
vertex 0.992625 -8.440858 1.737789
vertex 0.992625 -7.912714 1.680297
endloop
endfacet
facet normal -0.554697 0.090042 0.827166
outer loop
vertex 0.966664 -8.442731 1.720583
vertex 0.992625 -7.912714 1.680297
vertex 0.966664 -7.914587 1.663091
endloop
endfacet
facet normal 0.630480 0.083999 0.771647
outer loop
vertex 0.469749 -8.442560 1.722153
vertex 0.500908 -8.445299 1.696992
vertex 0.500908 -7.917155 1.639500
endloop
endfacet
facet normal 0.630487 0.083998 0.771641
outer loop
vertex 0.469749 -8.442560 1.722153
vertex 0.500908 -7.917155 1.639500
vertex 0.469749 -7.914416 1.664661
endloop
endfacet
facet normal -0.513331 0.092870 0.853151
outer loop
vertex 0.940586 -8.444419 1.705076
vertex 0.966664 -8.442731 1.720583
vertex 0.966664 -7.914587 1.663091
endloop
endfacet
facet normal -0.513336 0.092871 0.853148
outer loop
vertex 0.940586 -8.444419 1.705076
vertex 0.966664 -7.914587 1.663091
vertex 0.940586 -7.916275 1.647584
endloop
endfacet
facet normal -0.901120 -0.046920 -0.431023
outer loop
vertex 0.173463 -8.450519 1.649044
vertex 0.142515 -8.443558 1.712988
vertex 0.142515 -7.915414 1.655496
endloop
endfacet
facet normal -0.901120 -0.046920 -0.431024
outer loop
vertex 0.173463 -8.450519 1.649044
vertex 0.142515 -7.915414 1.655496
vertex 0.173463 -7.922374 1.591552
endloop
endfacet
facet normal -0.471140 0.095454 0.876879
outer loop
vertex 0.914508 -8.445927 1.691228
vertex 0.940586 -8.444419 1.705076
vertex 0.940586 -7.916275 1.647584
endloop
endfacet
facet normal -0.471127 0.095454 0.876885
outer loop
vertex 0.914508 -8.445927 1.691228
vertex 0.940586 -7.916275 1.647584
vertex 0.914508 -7.917782 1.633737
endloop
endfacet
facet normal 0.529136 0.091826 0.843554
outer loop
vertex 0.500908 -8.445299 1.696992
vertex 0.535407 -8.447627 1.675606
vertex 0.535407 -7.919483 1.618114
endloop
endfacet
facet normal 0.529140 0.091826 0.843551
outer loop
vertex 0.500908 -8.445299 1.696992
vertex 0.535407 -7.919483 1.618114
vertex 0.500908 -7.917155 1.639500
endloop
endfacet
facet normal -0.428103 0.097799 0.898423
outer loop
vertex 0.888547 -8.447257 1.679003
vertex 0.914508 -8.445927 1.691228
vertex 0.914508 -7.917782 1.633737
endloop
endfacet
facet normal -0.428093 0.097800 0.898427
outer loop
vertex 0.888547 -8.447257 1.679003
vertex 0.914508 -7.917782 1.633737
vertex 0.888547 -7.919113 1.621511
endloop
endfacet
facet normal 0.987100 -0.017326 -0.159165
outer loop
vertex 1.282484 -8.446808 1.683129
vertex 1.263332 -8.459586 1.565743
vertex 1.263332 -7.931442 1.508251
endloop
endfacet
facet normal 0.987100 -0.017326 -0.159164
outer loop
vertex 1.282484 -8.446808 1.683129
vertex 1.263332 -7.931442 1.508251
vertex 1.282484 -7.918664 1.625637
endloop
endfacet
facet normal -0.384164 0.099913 0.917843
outer loop
vertex 0.862819 -8.448416 1.668360
vertex 0.888547 -8.447257 1.679003
vertex 0.888547 -7.919113 1.621511
endloop
endfacet
facet normal -0.384166 0.099913 0.917842
outer loop
vertex 0.862819 -8.448416 1.668360
vertex 0.888547 -7.919113 1.621511
vertex 0.862819 -7.920272 1.610868
endloop
endfacet
facet normal 0.420518 0.098183 0.901956
outer loop
vertex 0.535407 -8.447627 1.675606
vertex 0.572857 -8.449506 1.658350
vertex 0.572857 -7.921361 1.600858
endloop
endfacet
facet normal 0.420518 0.098184 0.901956
outer loop
vertex 0.535407 -8.447627 1.675606
vertex 0.572857 -7.921361 1.600858
vertex 0.535407 -7.919483 1.618114
endloop
endfacet
facet normal -0.339244 0.101799 0.935174
outer loop
vertex 0.837440 -8.449407 1.659262
vertex 0.862819 -8.448416 1.668360
vertex 0.862819 -7.920272 1.610868
endloop
endfacet
facet normal -0.339232 0.101800 0.935178
outer loop
vertex 0.837440 -8.449407 1.659262
vertex 0.862819 -7.920272 1.610868
vertex 0.837440 -7.921262 1.601770
endloop
endfacet
facet normal -0.293105 0.103464 0.950465
outer loop
vertex 0.812527 -8.450233 1.651669
vertex 0.837440 -8.449407 1.659262
vertex 0.837440 -7.921262 1.601770
endloop
endfacet
facet normal -0.293119 0.103464 0.950461
outer loop
vertex 0.812527 -8.450233 1.651669
vertex 0.837440 -7.921262 1.601770
vertex 0.812527 -7.922089 1.594177
endloop
endfacet
facet normal 0.305619 0.103039 0.946562
outer loop
vertex 0.572857 -8.449506 1.658350
vertex 0.612870 -8.450895 1.645582
vertex 0.612870 -7.922751 1.588090
endloop
endfacet
facet normal 0.305619 0.103039 0.946562
outer loop
vertex 0.572857 -8.449506 1.658350
vertex 0.612870 -7.922751 1.588090
vertex 0.572857 -7.921361 1.600858
endloop
endfacet
facet normal -0.245495 0.104906 0.963705
outer loop
vertex 0.788197 -8.450900 1.645543
vertex 0.812527 -8.450233 1.651669
vertex 0.812527 -7.922089 1.594177
endloop
endfacet
facet normal -0.245518 0.104904 0.963699
outer loop
vertex 0.788197 -8.450900 1.645543
vertex 0.812527 -7.922089 1.594177
vertex 0.788197 -7.922755 1.588052
endloop
endfacet
facet normal -0.838335 -0.058995 -0.541953
outer loop
vertex 0.211907 -8.456916 1.590273
vertex 0.173463 -8.450519 1.649044
vertex 0.173463 -7.922374 1.591552
endloop
endfacet
facet normal -0.838337 -0.058995 -0.541951
outer loop
vertex 0.211907 -8.456916 1.590273
vertex 0.173463 -7.922374 1.591552
vertex 0.211907 -7.928772 1.532781
endloop
endfacet
facet normal 0.185619 0.106337 0.976851
outer loop
vertex 0.612870 -8.450895 1.645582
vertex 0.655058 -8.451758 1.637660
vertex 0.655058 -7.923614 1.580168
endloop
endfacet
facet normal 0.185615 0.106337 0.976852
outer loop
vertex 0.612870 -8.450895 1.645582
vertex 0.655058 -7.923614 1.580168
vertex 0.612870 -7.922751 1.588090
endloop
endfacet
facet normal -0.196064 0.106116 0.974832
outer loop
vertex 0.764566 -8.451411 1.640846
vertex 0.788197 -8.450900 1.645543
vertex 0.788197 -7.922755 1.588052
endloop
endfacet
facet normal -0.196058 0.106117 0.974833
outer loop
vertex 0.764566 -8.451411 1.640846
vertex 0.788197 -7.922755 1.588052
vertex 0.764566 -7.923267 1.583354
endloop
endfacet
facet normal -0.144295 0.107084 0.983724
outer loop
vertex 0.741750 -8.451771 1.637539
vertex 0.764566 -8.451411 1.640846
vertex 0.764566 -7.923267 1.583354
endloop
endfacet
facet normal -0.144291 0.107084 0.983724
outer loop
vertex 0.741750 -8.451771 1.637539
vertex 0.764566 -7.923267 1.583354
vertex 0.741750 -7.923627 1.580047
endloop
endfacet
facet normal 0.062097 0.108008 0.992209
outer loop
vertex 0.655058 -8.451758 1.637660
vertex 0.699032 -8.452054 1.634939
vertex 0.699032 -7.923910 1.577448
endloop
endfacet
facet normal 0.062105 0.108008 0.992208
outer loop
vertex 0.655058 -8.451758 1.637660
vertex 0.699032 -7.923910 1.577448
vertex 0.655058 -7.923614 1.580168
endloop
endfacet
facet normal -0.089543 0.107782 0.990134
outer loop
vertex 0.719867 -8.451984 1.635583
vertex 0.741750 -8.451771 1.637539
vertex 0.741750 -7.923627 1.580047
endloop
endfacet
facet normal -0.089552 0.107782 0.990133
outer loop
vertex 0.719867 -8.451984 1.635583
vertex 0.741750 -7.923627 1.580047
vertex 0.719867 -7.923840 1.578091
endloop
endfacet
facet normal -0.031056 0.108165 0.993648
outer loop
vertex 0.699032 -8.452054 1.634939
vertex 0.719867 -8.451984 1.635583
vertex 0.719867 -7.923840 1.578091
endloop
endfacet
facet normal -0.031040 0.108165 0.993648
outer loop
vertex 0.699032 -8.452054 1.634939
vertex 0.719867 -7.923840 1.578091
vertex 0.699032 -7.923910 1.577448
endloop
endfacet
facet normal -0.761617 -0.070128 -0.644222
outer loop
vertex 0.257244 -8.462683 1.537302
vertex 0.211907 -8.456916 1.590273
vertex 0.211907 -7.928772 1.532781
endloop
endfacet
facet normal -0.761615 -0.070128 -0.644224
outer loop
vertex 0.257244 -8.462683 1.537302
vertex 0.211907 -7.928772 1.532781
vertex 0.257244 -7.934538 1.479810
endloop
endfacet
facet normal 0.967251 -0.027468 -0.252333
outer loop
vertex 1.263332 -8.459586 1.565743
vertex 1.232219 -8.472417 1.447874
vertex 1.232219 -7.944273 1.390382
endloop
endfacet
facet normal 0.967251 -0.027468 -0.252332
outer loop
vertex 1.263332 -8.459586 1.565743
vertex 1.232219 -7.944273 1.390382
vertex 1.263332 -7.931442 1.508251
endloop
endfacet
facet normal -0.671752 -0.080165 -0.736426
outer loop
vertex 0.308872 -8.467749 1.490760
vertex 0.257244 -8.462683 1.537302
vertex 0.257244 -7.934538 1.479810
endloop
endfacet
facet normal -0.671751 -0.080165 -0.736427
outer loop
vertex 0.308872 -8.467749 1.490760
vertex 0.257244 -7.934538 1.479810
vertex 0.308872 -7.939605 1.433268
endloop
endfacet
facet normal -0.569585 -0.088947 -0.817105
outer loop
vertex 0.366189 -8.472047 1.451273
vertex 0.308872 -8.467749 1.490760
vertex 0.308872 -7.939605 1.433268
endloop
endfacet
facet normal -0.569588 -0.088947 -0.817104
outer loop
vertex 0.366189 -8.472047 1.451273
vertex 0.308872 -7.939605 1.433268
vertex 0.366189 -7.943903 1.393781
endloop
endfacet
facet normal 0.492028 -0.094211 -0.865467
outer loop
vertex 0.936703 -8.471419 1.457038
vertex 0.915172 -8.472736 1.444941
vertex 0.915172 -7.944592 1.387450
endloop
endfacet
facet normal 0.492016 -0.094212 -0.865474
outer loop
vertex 0.936703 -8.471419 1.457038
vertex 0.915172 -7.944592 1.387450
vertex 0.936703 -7.943275 1.399546
endloop
endfacet
facet normal -0.965018 0.028373 0.260645
outer loop
vertex 0.920240 -8.477977 1.396800
vertex 0.936703 -8.471419 1.457038
vertex 0.936703 -7.943275 1.399546
endloop
endfacet
facet normal -0.965017 0.028373 0.260645
outer loop
vertex 0.920240 -8.477977 1.396800
vertex 0.936703 -7.943275 1.399546
vertex 0.920240 -7.949833 1.339308
endloop
endfacet
facet normal -0.456198 -0.096300 -0.884652
outer loop
vertex 0.428594 -8.475510 1.419469
vertex 0.366189 -8.472047 1.451273
vertex 0.366189 -7.943903 1.393781
endloop
endfacet
facet normal -0.456204 -0.096300 -0.884649
outer loop
vertex 0.428594 -8.475510 1.419469
vertex 0.366189 -7.943903 1.393781
vertex 0.428594 -7.947365 1.361977
endloop
endfacet
facet normal 0.941011 -0.036618 -0.336388
outer loop
vertex 1.232219 -8.472417 1.447874
vertex 1.189804 -8.485182 1.330613
vertex 1.189804 -7.957037 1.273121
endloop
endfacet
facet normal 0.941012 -0.036618 -0.336387
outer loop
vertex 1.232219 -8.472417 1.447874
vertex 1.189804 -7.957037 1.273121
vertex 1.232219 -7.944273 1.390382
endloop
endfacet
facet normal 0.448294 -0.096733 -0.888637
outer loop
vertex 0.915172 -8.472736 1.444941
vertex 0.892612 -8.473961 1.433694
vertex 0.892612 -7.945817 1.376202
endloop
endfacet
facet normal 0.448274 -0.096735 -0.888647
outer loop
vertex 0.915172 -8.472736 1.444941
vertex 0.892612 -7.945817 1.376202
vertex 0.915172 -7.944592 1.387450
endloop
endfacet
facet normal 0.406046 -0.098894 -0.908486
outer loop
vertex 0.892612 -8.473961 1.433694
vertex 0.869159 -8.475088 1.423334
vertex 0.869159 -7.946944 1.365843
endloop
endfacet
facet normal 0.406040 -0.098895 -0.908489
outer loop
vertex 0.892612 -8.473961 1.433694
vertex 0.869159 -7.946944 1.365843
vertex 0.892612 -7.945817 1.376202
endloop
endfacet
facet normal 0.364910 -0.100755 -0.925575
outer loop
vertex 0.869159 -8.475088 1.423334
vertex 0.844948 -8.476115 1.413901
vertex 0.844948 -7.947971 1.356410
endloop
endfacet
facet normal 0.364902 -0.100755 -0.925578
outer loop
vertex 0.869159 -8.475088 1.423334
vertex 0.844948 -7.947971 1.356410
vertex 0.869159 -7.946944 1.365843
endloop
endfacet
facet normal -0.333125 -0.102036 -0.937346
outer loop
vertex 0.495484 -8.478066 1.395975
vertex 0.428594 -8.475510 1.419469
vertex 0.428594 -7.947365 1.361977
endloop
endfacet
facet normal -0.333122 -0.102036 -0.937346
outer loop
vertex 0.495484 -8.478066 1.395975
vertex 0.428594 -7.947365 1.361977
vertex 0.495484 -7.949923 1.338483
endloop
endfacet
facet normal 0.324461 -0.102363 -0.940344
outer loop
vertex 0.844948 -8.476115 1.413901
vertex 0.820117 -8.477037 1.405433
vertex 0.820117 -7.948893 1.347942
endloop
endfacet
facet normal 0.324467 -0.102362 -0.940342
outer loop
vertex 0.844948 -8.476115 1.413901
vertex 0.820117 -7.948893 1.347942
vertex 0.844948 -7.947971 1.356410
endloop
endfacet
facet normal 0.284326 -0.103750 -0.953098
outer loop
vertex 0.820117 -8.477037 1.405433
vertex 0.794799 -8.477850 1.397969
vertex 0.794799 -7.949706 1.340478
endloop
endfacet
facet normal 0.284317 -0.103751 -0.953100
outer loop
vertex 0.820117 -8.477037 1.405433
vertex 0.794799 -7.949706 1.340478
vertex 0.820117 -7.948893 1.347942
endloop
endfacet
facet normal 0.244072 -0.104945 -0.964062
outer loop
vertex 0.794799 -8.477850 1.397969
vertex 0.769132 -8.478549 1.391548
vertex 0.769132 -7.950405 1.334056
endloop
endfacet
facet normal 0.244059 -0.104944 -0.964065
outer loop
vertex 0.794799 -8.477850 1.397969
vertex 0.769132 -7.950405 1.334056
vertex 0.794799 -7.949706 1.340478
endloop
endfacet
facet normal -0.937707 0.037598 0.345387
outer loop
vertex 0.897505 -8.484617 1.335799
vertex 0.920240 -8.477977 1.396800
vertex 0.920240 -7.949833 1.339308
endloop
endfacet
facet normal -0.937707 0.037598 0.345386
outer loop
vertex 0.897505 -8.484617 1.335799
vertex 0.920240 -7.949833 1.339308
vertex 0.897505 -7.956473 1.278307
endloop
endfacet
facet normal -0.202603 -0.105973 -0.973510
outer loop
vertex 0.566258 -8.479651 1.381418
vertex 0.495484 -8.478066 1.395975
vertex 0.495484 -7.949923 1.338483
endloop
endfacet
facet normal -0.202604 -0.105973 -0.973510
outer loop
vertex 0.566258 -8.479651 1.381418
vertex 0.495484 -7.949923 1.338483
vertex 0.566258 -7.951507 1.323926
endloop
endfacet
facet normal 0.203233 -0.105959 -0.973380
outer loop
vertex 0.769132 -8.478549 1.391548
vertex 0.743252 -8.479130 1.386207
vertex 0.743252 -7.950986 1.328715
endloop
endfacet
facet normal 0.203244 -0.105958 -0.973378
outer loop
vertex 0.769132 -8.478549 1.391548
vertex 0.743252 -7.950986 1.328715
vertex 0.769132 -7.950405 1.334056
endloop
endfacet
facet normal 0.161422 -0.106798 -0.981090
outer loop
vertex 0.743252 -8.479130 1.386207
vertex 0.717294 -8.479589 1.381986
vertex 0.717294 -7.951446 1.324494
endloop
endfacet
facet normal 0.161423 -0.106798 -0.981090
outer loop
vertex 0.743252 -8.479130 1.386207
vertex 0.717294 -7.951446 1.324494
vertex 0.743252 -7.950986 1.328715
endloop
endfacet
facet normal 0.118137 -0.107459 -0.987166
outer loop
vertex 0.717294 -8.479589 1.381986
vertex 0.691394 -8.479923 1.378923
vertex 0.691394 -7.951779 1.321431
endloop
endfacet
facet normal 0.118129 -0.107459 -0.987167
outer loop
vertex 0.717294 -8.479589 1.381986
vertex 0.691394 -7.951779 1.321431
vertex 0.717294 -7.951446 1.324494
endloop
endfacet
facet normal -0.067647 -0.107969 -0.991850
outer loop
vertex 0.640313 -8.480195 1.376427
vertex 0.566258 -8.479651 1.381418
vertex 0.566258 -7.951507 1.323926
endloop
endfacet
facet normal -0.067646 -0.107969 -0.991850
outer loop
vertex 0.640313 -8.480195 1.376427
vertex 0.566258 -7.951507 1.323926
vertex 0.640313 -7.952051 1.318935
endloop
endfacet
facet normal 0.024990 -0.108183 -0.993817
outer loop
vertex 0.665689 -8.480126 1.377057
vertex 0.640313 -8.480195 1.376427
vertex 0.640313 -7.952051 1.318935
endloop
endfacet
facet normal 0.024992 -0.108183 -0.993817
outer loop
vertex 0.665689 -8.480126 1.377057
vertex 0.640313 -7.952051 1.318935
vertex 0.665689 -7.951982 1.319566
endloop
endfacet
facet normal 0.072817 -0.107929 -0.991488
outer loop
vertex 0.691394 -8.479923 1.378923
vertex 0.665689 -8.480126 1.377057
vertex 0.665689 -7.951982 1.319566
endloop
endfacet
facet normal 0.072823 -0.107930 -0.991488
outer loop
vertex 0.691394 -8.479923 1.378923
vertex 0.665689 -7.951982 1.319566
vertex 0.691394 -7.951779 1.321431
endloop
endfacet
facet normal -0.906133 0.045775 0.420508
outer loop
vertex 0.868635 -8.491310 1.274316
vertex 0.897505 -8.484617 1.335799
vertex 0.897505 -7.956473 1.278307
endloop
endfacet
facet normal -0.906133 0.045775 0.420509
outer loop
vertex 0.868635 -8.491310 1.274316
vertex 0.897505 -7.956473 1.278307
vertex 0.868635 -7.963166 1.216824
endloop
endfacet
facet normal 0.909726 -0.044932 -0.412770
outer loop
vertex 1.189804 -8.485182 1.330613
vertex 1.136749 -8.497762 1.215051
vertex 1.136749 -7.969617 1.157559
endloop
endfacet
facet normal 0.909727 -0.044933 -0.412770
outer loop
vertex 1.189804 -8.485182 1.330613
vertex 1.136749 -7.969617 1.157559
vertex 1.189804 -7.957037 1.273121
endloop
endfacet
facet normal -0.871772 0.053017 0.487034
outer loop
vertex 0.833764 -8.498025 1.212630
vertex 0.868635 -8.491310 1.274316
vertex 0.868635 -7.963166 1.216824
endloop
endfacet
facet normal -0.871771 0.053017 0.487036
outer loop
vertex 0.833764 -8.498025 1.212630
vertex 0.868635 -7.963166 1.216824
vertex 0.833764 -7.969881 1.155138
endloop
endfacet
facet normal 0.874110 -0.052564 -0.482875
outer loop
vertex 1.136749 -8.497762 1.215051
vertex 1.073713 -8.510037 1.102278
vertex 1.073713 -7.981894 1.044786
endloop
endfacet
facet normal 0.874110 -0.052564 -0.482875
outer loop
vertex 1.136749 -8.497762 1.215051
vertex 1.073713 -7.981894 1.044786
vertex 1.136749 -7.969617 1.157559
endloop
endfacet
facet normal -0.835645 0.059440 0.546044
outer loop
vertex 0.793029 -8.504731 1.151021
vertex 0.833764 -8.498025 1.212630
vertex 0.833764 -7.969881 1.155138
endloop
endfacet
facet normal -0.835645 0.059440 0.546044
outer loop
vertex 0.793029 -8.504731 1.151021
vertex 0.833764 -7.969881 1.155138
vertex 0.793029 -7.976587 1.093529
endloop
endfacet
facet normal -0.798424 0.065157 0.598559
outer loop
vertex 0.746566 -8.511399 1.089769
vertex 0.793029 -8.504731 1.151021
vertex 0.793029 -7.976587 1.093529
endloop
endfacet
facet normal -0.798425 0.065157 0.598558
outer loop
vertex 0.746566 -8.511399 1.089769
vertex 0.793029 -7.976587 1.093529
vertex 0.746566 -7.983255 1.032278
endloop
endfacet
facet normal 0.834391 -0.059646 -0.547936
outer loop
vertex 1.073713 -8.510037 1.102278
vertex 1.001357 -8.521892 0.993385
vertex 1.001357 -7.993747 0.935894
endloop
endfacet
facet normal 0.834391 -0.059646 -0.547937
outer loop
vertex 1.073713 -8.510037 1.102278
vertex 1.001357 -7.993747 0.935894
vertex 1.073713 -7.981894 1.044786
endloop
endfacet
facet normal -0.760532 0.070265 0.645487
outer loop
vertex 0.694511 -8.517998 1.029155
vertex 0.746566 -8.511399 1.089769
vertex 0.746566 -7.983255 1.032278
endloop
endfacet
facet normal -0.760531 0.070266 0.645488
outer loop
vertex 0.694511 -8.517998 1.029155
vertex 0.746566 -7.983255 1.032278
vertex 0.694511 -7.989853 0.971663
endloop
endfacet
facet normal -0.722209 0.074851 0.687613
outer loop
vertex 0.636999 -8.524496 0.969457
vertex 0.694511 -8.517998 1.029155
vertex 0.694511 -7.989853 0.971663
endloop
endfacet
facet normal -0.722210 0.074851 0.687612
outer loop
vertex 0.636999 -8.524496 0.969457
vertex 0.694511 -7.989853 0.971663
vertex 0.636999 -7.996352 0.911965
endloop
endfacet
facet normal 0.790410 -0.066291 -0.608980
outer loop
vertex 1.001357 -8.521892 0.993385
vertex 0.920340 -8.533204 0.889463
vertex 0.920340 -8.005059 0.831971
endloop
endfacet
facet normal 0.790411 -0.066291 -0.608979
outer loop
vertex 1.001357 -8.521892 0.993385
vertex 0.920340 -8.005059 0.831971
vertex 1.001357 -7.993747 0.935894
endloop
endfacet
facet normal -0.683579 0.078985 0.725590
outer loop
vertex 0.574167 -8.530864 0.910956
vertex 0.636999 -8.524496 0.969457
vertex 0.636999 -7.996352 0.911965
endloop
endfacet
facet normal -0.683579 0.078985 0.725591
outer loop
vertex 0.574167 -8.530864 0.910956
vertex 0.636999 -7.996352 0.911965
vertex 0.574167 -8.002720 0.853464
endloop
endfacet
facet normal -0.644687 0.082726 0.759957
outer loop
vertex 0.506151 -8.537071 0.853932
vertex 0.574167 -8.530864 0.910956
vertex 0.574167 -8.002720 0.853464
endloop
endfacet
facet normal -0.644688 0.082726 0.759957
outer loop
vertex 0.506151 -8.537071 0.853932
vertex 0.574167 -8.002720 0.853464
vertex 0.506151 -8.008927 0.796440
endloop
endfacet
facet normal 0.741712 -0.072583 -0.666779
outer loop
vertex 0.920340 -8.533204 0.889463
vertex 0.831324 -8.543857 0.791602
vertex 0.831324 -8.015713 0.734111
endloop
endfacet
facet normal 0.741713 -0.072583 -0.666779
outer loop
vertex 0.920340 -8.533204 0.889463
vertex 0.831324 -8.015713 0.734111
vertex 0.920340 -8.005059 0.831971
endloop
endfacet
facet normal -0.605532 0.086122 0.791147
outer loop
vertex 0.433086 -8.543088 0.798664
vertex 0.506151 -8.537071 0.853932
vertex 0.506151 -8.008927 0.796440
endloop
endfacet
facet normal -0.605531 0.086122 0.791148
outer loop
vertex 0.433086 -8.543088 0.798664
vertex 0.506151 -8.008927 0.796440
vertex 0.433086 -8.014944 0.741172
endloop
endfacet
facet normal -0.566068 0.089210 0.819517
outer loop
vertex 0.355108 -8.548882 0.745433
vertex 0.433086 -8.543088 0.798664
vertex 0.433086 -8.014944 0.741172
endloop
endfacet
facet normal -0.566067 0.089210 0.819518
outer loop
vertex 0.355108 -8.548882 0.745433
vertex 0.433086 -8.014944 0.741172
vertex 0.355108 -8.020739 0.687941
endloop
endfacet
facet normal 0.687583 -0.078577 -0.721842
outer loop
vertex 0.831324 -8.543857 0.791602
vertex 0.734967 -8.553731 0.700894
vertex 0.734967 -8.025587 0.643402
endloop
endfacet
facet normal 0.687586 -0.078577 -0.721839
outer loop
vertex 0.831324 -8.543857 0.791602
vertex 0.734967 -8.025587 0.643402
vertex 0.831324 -8.015713 0.734111
endloop
endfacet
facet normal -0.768221 -0.069279 -0.636425
outer loop
vertex 0.522876 -8.570669 0.545294
vertex 0.355108 -8.548882 0.745433
vertex 0.355108 -8.020739 0.687941
endloop
endfacet
facet normal -0.768221 -0.069279 -0.636425
outer loop
vertex 0.522876 -8.570669 0.545294
vertex 0.355108 -8.020739 0.687941
vertex 0.522876 -8.042524 0.487803
endloop
endfacet
facet normal 0.559226 -0.089713 -0.824147
outer loop
vertex 0.631931 -8.562708 0.618427
vertex 0.522876 -8.570669 0.545294
vertex 0.522876 -8.042524 0.487803
endloop
endfacet
facet normal 0.559226 -0.089714 -0.824147
outer loop
vertex 0.631931 -8.562708 0.618427
vertex 0.522876 -8.042524 0.487803
vertex 0.631931 -8.034563 0.560936
endloop
endfacet
facet normal 0.627109 -0.084293 -0.774357
outer loop
vertex 0.734967 -8.553731 0.700894
vertex 0.631931 -8.562708 0.618427
vertex 0.631931 -8.034563 0.560936
endloop
endfacet
facet normal 0.627110 -0.084294 -0.774356
outer loop
vertex 0.734967 -8.553731 0.700894
vertex 0.631931 -8.034563 0.560936
vertex 0.734967 -8.025587 0.643402
endloop
endfacet
endsolid Exported from Blender-3.3.1
