solid Exported from Blender-3.3.1
facet normal -0.851747 0.000000 0.523954
outer loop
vertex -1.792950 1.294370 3.038590
vertex -3.662165 1.600590 -0.000034
vertex -3.662165 -8.409595 -0.000034
endloop
endfacet
facet normal -0.851747 0.000000 0.523954
outer loop
vertex -1.792950 1.294370 3.038590
vertex -3.662165 -8.409595 -0.000034
vertex -1.792950 -8.103376 3.038590
endloop
endfacet
facet normal 0.000000 0.994961 0.100268
outer loop
vertex 55.572365 1.294370 3.038590
vertex 57.441582 1.600590 -0.000034
vertex -3.662165 1.600590 -0.000034
endloop
endfacet
facet normal 0.000000 0.994960 0.100268
outer loop
vertex 55.572365 1.294370 3.038590
vertex -3.662165 1.600590 -0.000034
vertex -1.792950 1.294370 3.038590
endloop
endfacet
facet normal 0.000000 0.000000 -1.000000
outer loop
vertex 57.441582 -8.409595 -0.000034
vertex -3.662165 -8.409595 -0.000034
vertex -3.662165 1.600590 -0.000034
endloop
endfacet
facet normal 0.000000 0.000000 -1.000000
outer loop
vertex 57.441582 -8.409595 -0.000034
vertex -3.662165 1.600590 -0.000034
vertex 57.441582 1.600590 -0.000034
endloop
endfacet
facet normal 0.851746 0.000000 0.523954
outer loop
vertex 55.572365 -8.103376 3.038590
vertex 57.441582 -8.409595 -0.000034
vertex 57.441582 1.600590 -0.000034
endloop
endfacet
facet normal 0.851747 0.000000 0.523954
outer loop
vertex 55.572365 -8.103376 3.038590
vertex 57.441582 1.600590 -0.000034
vertex 55.572365 1.294370 3.038590
endloop
endfacet
facet normal 0.000000 -0.994960 0.100268
outer loop
vertex -1.792950 -8.103376 3.038590
vertex -3.662165 -8.409595 -0.000034
vertex 57.441582 -8.409595 -0.000034
endloop
endfacet
facet normal 0.000000 -0.994960 0.100268
outer loop
vertex -1.792950 -8.103376 3.038590
vertex 57.441582 -8.409595 -0.000034
vertex 55.572365 -8.103376 3.038590
endloop
endfacet
facet normal 0.000000 0.000000 1.000000
outer loop
vertex -1.792950 1.294370 3.038590
vertex -1.792950 -8.103376 3.038590
vertex 55.572365 -8.103376 3.038590
endloop
endfacet
facet normal 0.000000 0.000000 1.000000
outer loop
vertex -1.792950 1.294370 3.038590
vertex 55.572365 -8.103376 3.038590
vertex 55.572365 1.294370 3.038590
endloop
endfacet
endsolid Exported from Blender-3.3.1
