solid Exported from Blender-3.3.1
facet normal -1.000000 0.000000 0.000000
outer loop
vertex -0.481217 0.001204 2.769837
vertex -0.481217 0.001204 3.281648
vertex -0.481217 0.513016 3.281648
endloop
endfacet
facet normal -1.000000 0.000000 0.000000
outer loop
vertex -0.481217 0.001204 2.769837
vertex -0.481217 0.513016 3.281648
vertex -0.481217 0.513016 2.769837
endloop
endfacet
facet normal 0.000000 1.000000 0.000000
outer loop
vertex -0.481217 0.513016 2.769837
vertex -0.481217 0.513016 3.281648
vertex 0.030594 0.513016 3.281648
endloop
endfacet
facet normal 0.000000 1.000000 0.000000
outer loop
vertex -0.481217 0.513016 2.769837
vertex 0.030594 0.513016 3.281648
vertex 0.030594 0.513016 2.769837
endloop
endfacet
facet normal 0.000000 0.000000 1.000000
outer loop
vertex 0.030594 0.513016 3.281648
vertex 0.030594 0.001204 3.281648
vertex 53.777012 0.001204 3.281648
endloop
endfacet
facet normal 0.000000 0.000000 1.000000
outer loop
vertex 0.030594 0.513016 3.281648
vertex 53.777012 0.001204 3.281648
vertex 53.777012 0.513016 3.281648
endloop
endfacet
facet normal 0.000000 0.000000 1.000000
outer loop
vertex 0.030594 0.001204 3.281648
vertex -0.481217 0.001204 3.281648
vertex -0.481217 -7.000002 3.281648
endloop
endfacet
facet normal 0.000000 0.000000 1.000000
outer loop
vertex 0.030594 0.001204 3.281648
vertex -0.481217 -7.000002 3.281648
vertex 0.030594 -7.000002 3.281648
endloop
endfacet
facet normal 0.000000 0.000000 -1.000000
outer loop
vertex -0.481217 0.513016 2.769837
vertex 0.030594 0.513016 2.769837
vertex 0.030594 0.001204 2.769837
endloop
endfacet
facet normal 0.000000 0.000000 -1.000000
outer loop
vertex -0.481217 0.513016 2.769837
vertex 0.030594 0.001204 2.769837
vertex -0.481217 0.001204 2.769837
endloop
endfacet
facet normal 0.000000 0.000000 1.000000
outer loop
vertex 0.030594 0.513016 3.281648
vertex -0.481217 0.513016 3.281648
vertex -0.481217 0.001204 3.281648
endloop
endfacet
facet normal 0.000000 0.000000 1.000000
outer loop
vertex 0.030594 0.513016 3.281648
vertex -0.481217 0.001204 3.281648
vertex 0.030594 0.001204 3.281648
endloop
endfacet
facet normal 0.000000 0.000000 -1.000000
outer loop
vertex 0.030594 -7.511814 2.769837
vertex 0.030594 -7.000002 2.769837
vertex 53.777012 -7.000003 2.769837
endloop
endfacet
facet normal 0.000000 0.000000 -1.000000
outer loop
vertex 0.030594 -7.511814 2.769837
vertex 53.777012 -7.000003 2.769837
vertex 53.777012 -7.511815 2.769837
endloop
endfacet
facet normal 0.000000 0.000000 -1.000000
outer loop
vertex 54.288822 -7.000003 2.769837
vertex 53.777012 -7.000003 2.769837
vertex 53.777012 0.001204 2.769837
endloop
endfacet
facet normal 0.000000 0.000000 -1.000000
outer loop
vertex 54.288822 -7.000003 2.769837
vertex 53.777012 0.001204 2.769837
vertex 54.288822 0.001204 2.769837
endloop
endfacet
facet normal 0.000000 0.000000 -1.000000
outer loop
vertex 0.030594 0.001204 2.769837
vertex 0.030594 0.513016 2.769837
vertex 53.777012 0.513016 2.769837
endloop
endfacet
facet normal 0.000000 0.000000 -1.000000
outer loop
vertex 0.030594 0.001204 2.769837
vertex 53.777012 0.513016 2.769837
vertex 53.777012 0.001204 2.769837
endloop
endfacet
facet normal 0.000000 0.000000 -1.000000
outer loop
vertex -0.481217 0.001204 2.769837
vertex 0.030594 0.001204 2.769837
vertex 0.030594 -7.000002 2.769837
endloop
endfacet
facet normal 0.000000 0.000000 -1.000000
outer loop
vertex -0.481217 0.001204 2.769837
vertex 0.030594 -7.000002 2.769837
vertex -0.481217 -7.000002 2.769837
endloop
endfacet
facet normal -1.000000 0.000000 0.000000
outer loop
vertex -0.481217 -7.511814 2.769837
vertex -0.481217 -7.511814 3.281648
vertex -0.481217 -7.000002 3.281648
endloop
endfacet
facet normal -1.000000 0.000000 0.000000
outer loop
vertex -0.481217 -7.511814 2.769837
vertex -0.481217 -7.000002 3.281648
vertex -0.481217 -7.000002 2.769837
endloop
endfacet
facet normal 1.000000 0.000000 0.000000
outer loop
vertex 0.030594 0.001204 2.769837
vertex 0.030594 0.001204 3.281648
vertex 0.030594 -7.000002 3.281648
endloop
endfacet
facet normal 1.000000 0.000000 0.000000
outer loop
vertex 0.030594 0.001204 2.769837
vertex 0.030594 -7.000002 3.281648
vertex 0.030594 -7.000002 2.769837
endloop
endfacet
facet normal 0.000000 0.000000 1.000000
outer loop
vertex 0.030594 -7.000002 3.281648
vertex 0.030594 -7.511814 3.281648
vertex 53.777012 -7.511815 3.281648
endloop
endfacet
facet normal 0.000000 0.000000 1.000000
outer loop
vertex 0.030594 -7.000002 3.281648
vertex 53.777012 -7.511815 3.281648
vertex 53.777012 -7.000003 3.281648
endloop
endfacet
facet normal 0.000000 -1.000000 0.000000
outer loop
vertex 0.030594 -7.511814 2.769837
vertex 0.030594 -7.511814 3.281648
vertex -0.481217 -7.511814 3.281648
endloop
endfacet
facet normal 0.000000 -1.000000 0.000000
outer loop
vertex 0.030594 -7.511814 2.769837
vertex -0.481217 -7.511814 3.281648
vertex -0.481217 -7.511814 2.769837
endloop
endfacet
facet normal 0.000000 0.000000 -1.000000
outer loop
vertex -0.481217 -7.000002 2.769837
vertex 0.030594 -7.000002 2.769837
vertex 0.030594 -7.511814 2.769837
endloop
endfacet
facet normal 0.000000 0.000000 -1.000000
outer loop
vertex -0.481217 -7.000002 2.769837
vertex 0.030594 -7.511814 2.769837
vertex -0.481217 -7.511814 2.769837
endloop
endfacet
facet normal 0.000000 0.000000 1.000000
outer loop
vertex 0.030594 -7.000002 3.281648
vertex -0.481217 -7.000002 3.281648
vertex -0.481217 -7.511814 3.281648
endloop
endfacet
facet normal 0.000000 0.000000 1.000000
outer loop
vertex 0.030594 -7.000002 3.281648
vertex -0.481217 -7.511814 3.281648
vertex 0.030594 -7.511814 3.281648
endloop
endfacet
facet normal 0.000000 1.000000 0.000000
outer loop
vertex 0.030594 -7.000002 2.769837
vertex 0.030594 -7.000002 3.281648
vertex 53.777012 -7.000003 3.281648
endloop
endfacet
facet normal 0.000000 1.000000 0.000000
outer loop
vertex 0.030594 -7.000002 2.769837
vertex 53.777012 -7.000003 3.281648
vertex 53.777012 -7.000003 2.769837
endloop
endfacet
facet normal -1.000000 0.000000 0.000000
outer loop
vertex 53.777012 -7.000003 3.281648
vertex 53.777012 0.001204 3.281648
vertex 53.777012 0.001204 2.769837
endloop
endfacet
facet normal -1.000000 0.000000 0.000000
outer loop
vertex 53.777012 -7.000003 3.281648
vertex 53.777012 0.001204 2.769837
vertex 53.777012 -7.000003 2.769837
endloop
endfacet
facet normal 1.000000 0.000000 0.000000
outer loop
vertex 54.288822 -7.000003 2.769837
vertex 54.288822 -7.000003 3.281648
vertex 54.288822 -7.511815 3.281648
endloop
endfacet
facet normal 1.000000 0.000000 0.000000
outer loop
vertex 54.288822 -7.000003 2.769837
vertex 54.288822 -7.511815 3.281648
vertex 54.288822 -7.511815 2.769837
endloop
endfacet
facet normal 0.000000 -1.000000 0.000000
outer loop
vertex 54.288822 -7.511815 2.769837
vertex 54.288822 -7.511815 3.281648
vertex 53.777012 -7.511815 3.281648
endloop
endfacet
facet normal 0.000000 -1.000000 0.000000
outer loop
vertex 54.288822 -7.511815 2.769837
vertex 53.777012 -7.511815 3.281648
vertex 53.777012 -7.511815 2.769837
endloop
endfacet
facet normal 0.000000 0.000000 -1.000000
outer loop
vertex 53.777012 -7.000003 2.769837
vertex 54.288822 -7.000003 2.769837
vertex 54.288822 -7.511815 2.769837
endloop
endfacet
facet normal 0.000000 0.000000 -1.000000
outer loop
vertex 53.777012 -7.000003 2.769837
vertex 54.288822 -7.511815 2.769837
vertex 53.777012 -7.511815 2.769837
endloop
endfacet
facet normal 0.000000 0.000000 1.000000
outer loop
vertex 54.288822 -7.000003 3.281648
vertex 53.777012 -7.000003 3.281648
vertex 53.777012 -7.511815 3.281648
endloop
endfacet
facet normal 0.000000 0.000000 1.000000
outer loop
vertex 54.288822 -7.000003 3.281648
vertex 53.777012 -7.511815 3.281648
vertex 54.288822 -7.511815 3.281648
endloop
endfacet
facet normal 0.000000 1.000000 0.000000
outer loop
vertex 0.030594 0.513016 2.769837
vertex 0.030594 0.513016 3.281648
vertex 53.777012 0.513016 3.281648
endloop
endfacet
facet normal 0.000000 1.000000 0.000000
outer loop
vertex 0.030594 0.513016 2.769837
vertex 53.777012 0.513016 3.281648
vertex 53.777012 0.513016 2.769837
endloop
endfacet
facet normal 0.000000 1.000000 0.000000
outer loop
vertex 53.777012 0.513016 2.769837
vertex 53.777012 0.513016 3.281648
vertex 54.288822 0.513016 3.281648
endloop
endfacet
facet normal 0.000000 1.000000 0.000000
outer loop
vertex 53.777012 0.513016 2.769837
vertex 54.288822 0.513016 3.281648
vertex 54.288822 0.513016 2.769837
endloop
endfacet
facet normal 1.000000 0.000000 0.000000
outer loop
vertex 54.288822 0.513016 2.769837
vertex 54.288822 0.513016 3.281648
vertex 54.288822 0.001204 3.281648
endloop
endfacet
facet normal 1.000000 0.000000 0.000000
outer loop
vertex 54.288822 0.513016 2.769837
vertex 54.288822 0.001204 3.281648
vertex 54.288822 0.001204 2.769837
endloop
endfacet
facet normal 0.000000 0.000000 1.000000
outer loop
vertex 53.777012 -7.000003 3.281648
vertex 54.288822 -7.000003 3.281648
vertex 54.288822 0.001204 3.281648
endloop
endfacet
facet normal 0.000000 0.000000 1.000000
outer loop
vertex 53.777012 -7.000003 3.281648
vertex 54.288822 0.001204 3.281648
vertex 53.777012 0.001204 3.281648
endloop
endfacet
facet normal 0.000000 0.000000 -1.000000
outer loop
vertex 53.777012 0.513016 2.769837
vertex 54.288822 0.513016 2.769837
vertex 54.288822 0.001204 2.769837
endloop
endfacet
facet normal 0.000000 0.000000 -1.000000
outer loop
vertex 53.777012 0.513016 2.769837
vertex 54.288822 0.001204 2.769837
vertex 53.777012 0.001204 2.769837
endloop
endfacet
facet normal 0.000000 0.000000 1.000000
outer loop
vertex 54.288822 0.513016 3.281648
vertex 53.777012 0.513016 3.281648
vertex 53.777012 0.001204 3.281648
endloop
endfacet
facet normal 0.000000 0.000000 1.000000
outer loop
vertex 54.288822 0.513016 3.281648
vertex 53.777012 0.001204 3.281648
vertex 54.288822 0.001204 3.281648
endloop
endfacet
facet normal 0.000000 -1.000000 0.000000
outer loop
vertex 0.030594 0.001204 3.281648
vertex 0.030594 0.001204 2.769837
vertex 53.777012 0.001204 2.769837
endloop
endfacet
facet normal 0.000000 -1.000000 0.000000
outer loop
vertex 0.030594 0.001204 3.281648
vertex 53.777012 0.001204 2.769837
vertex 53.777012 0.001204 3.281648
endloop
endfacet
facet normal -0.000000 -1.000000 0.000000
outer loop
vertex 0.030594 -7.511814 3.281648
vertex 0.030594 -7.511814 2.769837
vertex 53.777012 -7.511815 2.769837
endloop
endfacet
facet normal -0.000000 -1.000000 0.000000
outer loop
vertex 0.030594 -7.511814 3.281648
vertex 53.777012 -7.511815 2.769837
vertex 53.777012 -7.511815 3.281648
endloop
endfacet
facet normal 1.000000 0.000000 0.000000
outer loop
vertex 54.288822 -7.000003 2.769837
vertex 54.288822 0.001204 2.769837
vertex 54.288822 0.001204 3.281648
endloop
endfacet
facet normal 1.000000 0.000000 0.000000
outer loop
vertex 54.288822 -7.000003 2.769837
vertex 54.288822 0.001204 3.281648
vertex 54.288822 -7.000003 3.281648
endloop
endfacet
facet normal -1.000000 0.000000 0.000000
outer loop
vertex -0.481217 0.001204 2.769837
vertex -0.481217 -7.000002 2.769837
vertex -0.481217 -7.000002 3.281648
endloop
endfacet
facet normal -1.000000 0.000000 0.000000
outer loop
vertex -0.481217 0.001204 2.769837
vertex -0.481217 -7.000002 3.281648
vertex -0.481217 0.001204 3.281648
endloop
endfacet
endsolid Exported from Blender-3.3.1
